<?xml version="1.0" encoding="utf-8"?>
<!-- Generator: Adobe Illustrator 16.0.0, SVG Export Plug-In . SVG Version: 6.00 Build 0)  -->
<!DOCTYPE svg PUBLIC "-//W3C//DTD SVG 1.1//EN" "http://www.w3.org/Graphics/SVG/1.1/DTD/svg11.dtd">
<svg version="1.1" id="레이어_1" xmlns="http://www.w3.org/2000/svg" xmlns:xlink="http://www.w3.org/1999/xlink" x="0px"
	 y="0px" width="256px" height="256px" viewBox="0 0 256 256" enable-background="new 0 0 256 256" xml:space="preserve">
<path fill="#75E5C2" d="M65.934,11.411h123.958l-38.233,90.012c13.717,9.258,23.688,19.403,29.918,30.433
	c6.229,11.031,9.345,24.088,9.345,39.176c0,22.52-8.289,41.521-24.86,57.008c-16.574,15.489-36.978,23.231-61.208,23.231
	c-13.373,0-26.634-2.516-39.777-7.544v-66.18c9.944,6.172,18.573,9.258,25.889,9.258c7.999,0,14.715-2.855,20.146-8.572
	c5.428-5.714,8.144-12.8,8.144-21.26c0-9.714-4.059-17.459-12.173-23.231c-8.117-5.771-18.975-8.658-32.576-8.658l17.317-46.12
	H65.934V11.411z"/>
</svg>
