<?xml version="1.0" encoding="utf-8"?>
<!-- Generator: Adobe Illustrator 16.0.0, SVG Export Plug-In . SVG Version: 6.00 Build 0)  -->
<!DOCTYPE svg PUBLIC "-//W3C//DTD SVG 1.1//EN" "http://www.w3.org/Graphics/SVG/1.1/DTD/svg11.dtd">
<svg version="1.1" id="레이어_1" xmlns="http://www.w3.org/2000/svg" xmlns:xlink="http://www.w3.org/1999/xlink" x="0px"
	 y="0px" width="256px" height="256px" viewBox="0 0 256 256" enable-background="new 0 0 256 256" xml:space="preserve">
<path fill="#75E5C2" d="M165.547,252.3l-61.551-21.774l45.605-127.902c1.257-3.657,1.887-6.971,1.887-9.944
	c0-6.172-2.288-11.487-6.858-15.945c-4.573-4.458-10.003-6.687-16.288-6.687c-6.287,0-11.632,2.258-16.03,6.772
	c-4.401,4.517-6.601,9.974-6.601,16.374c0,6.515,2.199,12.002,6.601,16.459c4.398,4.458,9.8,6.687,16.202,6.687
	c1.371,0,3.541-0.228,6.515-0.686l-27.774,67.208c-24.347-10.629-41.864-22.744-52.55-36.348
	c-10.689-13.6-16.031-30.574-16.031-50.92c0-25.259,8.658-46.576,25.975-63.951C81.965,14.27,103.195,5.582,128.342,5.582
	c23.773,0,44.548,8.717,62.322,26.146c17.772,17.432,26.661,37.805,26.661,61.122c0,10.86-4.174,27.775-12.516,50.75L165.547,252.3z
	"/>
</svg>
