<?xml version="1.0" encoding="utf-8"?>
<!-- Generator: Adobe Illustrator 16.0.0, SVG Export Plug-In . SVG Version: 6.00 Build 0)  -->
<!DOCTYPE svg PUBLIC "-//W3C//DTD SVG 1.1//EN" "http://www.w3.org/Graphics/SVG/1.1/DTD/svg11.dtd">
<svg version="1.1" id="레이어_1" xmlns="http://www.w3.org/2000/svg" xmlns:xlink="http://www.w3.org/1999/xlink" x="0px"
	 y="0px" width="256px" height="256px" viewBox="0 0 256 256" enable-background="new 0 0 256 256" xml:space="preserve">
<path fill="#75E5C2" d="M90.623,4.553l61.551,21.774l-45.605,127.902c-1.372,3.659-2.058,6.917-2.058,9.772
	c0,6.172,2.285,11.487,6.857,15.945c4.57,4.457,10.001,6.687,16.288,6.687c6.285,0,11.629-2.256,16.03-6.772
	c4.399-4.514,6.602-9.971,6.602-16.373c0-6.4-2.202-11.83-6.602-16.288c-4.401-4.458-9.745-6.687-16.03-6.687
	c-1.486,0-3.716,0.23-6.687,0.686l27.946-67.208c24.231,10.517,41.689,22.604,52.379,36.262c10.686,13.66,16.03,30.604,16.03,50.835
	c0,25.375-8.658,46.75-25.975,64.122c-17.316,17.376-38.55,26.061-63.694,26.061c-23.775,0-44.551-8.714-62.322-26.146
	c-17.775-17.429-26.661-37.805-26.661-61.122c0-10.742,4.171-27.66,12.516-50.749L90.623,4.553z"/>
</svg>
