<?xml version="1.0" encoding="utf-8"?>
<!-- Generator: Adobe Illustrator 16.0.0, SVG Export Plug-In . SVG Version: 6.00 Build 0)  -->
<!DOCTYPE svg PUBLIC "-//W3C//DTD SVG 1.1//EN" "http://www.w3.org/Graphics/SVG/1.1/DTD/svg11.dtd">
<svg version="1.1" id="레이어_1" xmlns="http://www.w3.org/2000/svg" xmlns:xlink="http://www.w3.org/1999/xlink" x="0px"
	 y="0px" width="256px" height="256px" viewBox="0 0 256 256" enable-background="new 0 0 256 256" xml:space="preserve">
<path fill="#1EDCDC" d="M202.629,10.093l4.219-4.564l1.924,10.426c1.301,5.625,4.897,10.372,9.623,12.708l5.599,2.766l-5.921,2.609
	c-7.288,4.858-8.85,7.809-7.809,15.964l2.699,7.577l-6.661-5.138c-12.87-7.991-16.165-5.041-22.745,5.258l-2.608,5.271l-2.265-5.854
	c-3.471-7.114-3.817-7.635-12.668-6.768l-7.211,1.354l4.745-5.494c7.498-9.74,4.548-15.466-0.764-20.616l-5.562-5.528l7.75-0.081
	c8.328,0,10.41-1.909,13.188-8.329l1.389-4.873l2.948,4.005C189.557,18.219,194.125,17.554,202.629,10.093z"/>
<path fill="#1EDCDC" d="M157.682,131.854c-5.834-0.217-12.789-12.203-16.891-7.408c-4.107,4.789-4.742,13.935-4.742,20.744
	c0,6.811,0.594,12.74,3.557,18.963c4.103,4.805,9.349,4.412,15.112,5.334c7.407,1.186,11.603,5.988,15.704,1.186
	c4.098-4.797,3.854-23.408,0.889-29.632C166.568,133.927,165.682,132.15,157.682,131.854z"/>
<path fill="#1EDCDC" d="M130.244,172.783c-1.953,0-4.802,5.1-6.816,7.703c-2.017,2.619-4.463,2.445-4.463,5.051
	c0,1.654,0.483,3.021,1.458,4.135c1.664,1.781,3.946,0.434,7.347,1.15c5.63,1.185,9.186,0.888,9.779-3.557
	c0-2.621-1.421-2.709-3.156-5.594C132.65,178.773,132.189,172.783,130.244,172.783z"/>
<path fill="#1EDCDC" d="M119.575,101.963c-8.694-0.926-16.992,10.334-30.029,18.335c-9.482,6.816-9.91,13.083-9.91,19.89
	c0,6.813,2.086,12.623,6.257,17.418c4.17,4.804,9.176,7.193,15.014,7.193c5.833,0,10.843-2.392,15.016-7.193
	c4.173-4.797,10.764-31.642,11.06-39.642C127.576,110.557,127.91,102.851,119.575,101.963z"/>
<path fill="#1EDCDC" d="M155,60.214V36h-22.782c0.097-10,0.466-20.056,11.501-24.784c3.981-1.701,11.162-2.202,23.244,4.432
	c2.598-1.446,4.732-3.625,6.139-6.387c-13.138-7.706-23.99-9.6-32.732-5.852C123.759,10.537,123.857,26,123.757,36H103v23.067
	c-44,10.853-74.937,50.829-74.945,96.373c-0.002,54.732,44.975,99.266,99.711,99.269c54.736,0.004,98.968-44.532,98.968-99.269
	C226.734,111.289,198,72.598,155,60.214z M190.572,191.117c-21.928,8.592-22.799-3.557-33.17,0.89
	c-3.9,1.671-2.074,9.481-0.889,13.038s4.119,18.75,1.48,21.335c-6.814,2.073-11.883,1.716-17.188,0.593
	c-2.963-0.89-5.005-4.558-13.957-5.988c-7.408-1.187-19.058-0.315-23.088-0.599c-3.894-0.274-6.519,0.89-9.773-1.116
	c-0.594-5.039-2.075-6.225,0.295-11.854c2.009-4.771,6.815-12.741,0.889-15.408c-10.43-4.692-21.927,2.074-33.35-8.417
	c-7.653-8.763-8.756-23.943-7.079-39c1.677-15.057,11.659-36.964,25.288-48.652c14.312-12.224,28.161-12.087,53.644-10.014
	c20.508,1.669,32.201-2.291,46.522,10.075c13.62,11.535,19.557,35.263,21.038,53.929
	C201.831,169.484,201.238,187.561,190.572,191.117z"/>
</svg>
