<?xml version="1.0" encoding="utf-8"?>
<!-- Generator: Adobe Illustrator 16.0.0, SVG Export Plug-In . SVG Version: 6.00 Build 0)  -->
<!DOCTYPE svg PUBLIC "-//W3C//DTD SVG 1.1//EN" "http://www.w3.org/Graphics/SVG/1.1/DTD/svg11.dtd">
<svg version="1.1" id="레이어_1" xmlns="http://www.w3.org/2000/svg" xmlns:xlink="http://www.w3.org/1999/xlink" x="0px"
	 y="0px" width="256px" height="256px" viewBox="0 0 256 256" enable-background="new 0 0 256 256" xml:space="preserve">
<path fill="#75E5C2" d="M185.436,111.195c9.714,10.06,16.4,19.318,20.06,27.775c3.656,8.46,5.486,18.746,5.486,30.861
	c0,23.205-7.916,42.578-23.746,58.121c-15.832,15.546-35.576,23.317-59.236,23.317c-23.775,0-43.578-7.771-59.408-23.317
	c-15.832-15.543-23.746-34.916-23.746-58.121c0-11.771,1.913-22.059,5.744-30.861c3.828-8.801,10.429-18.059,19.802-27.775
	c-8.46-11.201-12.687-23.66-12.687-37.376c0-19.773,6.571-36.091,19.717-48.949C90.564,12.011,107.31,5.582,127.656,5.582
	c20.574,0,37.462,6.403,50.664,19.203c13.201,12.803,19.803,29.206,19.803,49.207C198.123,87.479,193.893,99.88,185.436,111.195z
	 M127.656,143.086c-7.774,0-14.432,2.716-19.974,8.143c-5.546,5.431-8.315,11.976-8.315,19.632c0,8.345,2.684,15.288,8.058,20.831
	c5.371,5.546,12.114,8.315,20.231,8.315c8.114,0,14.857-2.77,20.231-8.315c5.371-5.543,8.058-12.486,8.058-20.831
	c0-7.544-2.802-14.06-8.4-19.546C141.943,145.828,135.313,143.086,127.656,143.086z M127.142,55.817
	c-5.144,0-9.574,1.886-13.287,5.658c-3.716,3.772-5.572,8.173-5.572,13.202c0,5.83,1.827,10.63,5.486,14.402
	c3.657,3.772,8.343,5.658,14.06,5.658c5.144,0,9.571-1.942,13.287-5.83c3.713-3.884,5.572-8.458,5.572-13.716
	c0-5.487-1.886-10.086-5.658-13.802C137.258,57.676,132.628,55.817,127.142,55.817z"/>
</svg>
