<?xml version="1.0" encoding="utf-8"?>
<!-- Generator: Adobe Illustrator 16.0.0, SVG Export Plug-In . SVG Version: 6.00 Build 0)  -->
<!DOCTYPE svg PUBLIC "-//W3C//DTD SVG 1.1//EN" "http://www.w3.org/Graphics/SVG/1.1/DTD/svg11.dtd">
<svg version="1.1" id="레이어_1" xmlns="http://www.w3.org/2000/svg" xmlns:xlink="http://www.w3.org/1999/xlink" x="0px"
	 y="0px" width="256px" height="256px" viewBox="0 0 256 256" enable-background="new 0 0 256 256" xml:space="preserve">
<path fill="#1EDCDC" d="M226.3,256H29.7C13.325,256,0,242.678,0,226.3V29.7C0,13.324,13.325,0,29.7,0h196.6
	C242.678,0,256,13.324,256,29.7v196.6C256,242.678,242.678,256,226.3,256z M246,29.46C246,18.712,237.287,10,226.54,10H29.46
	C18.712,10,10,18.712,10,29.46v197.08C10,237.287,18.712,246,29.46,246h197.08c10.747,0,19.46-8.713,19.46-19.46V29.46z"/>
</svg>
