<?xml version="1.0" encoding="utf-8"?>
<!-- Generator: Adobe Illustrator 16.0.0, SVG Export Plug-In . SVG Version: 6.00 Build 0)  -->
<!DOCTYPE svg PUBLIC "-//W3C//DTD SVG 1.1//EN" "http://www.w3.org/Graphics/SVG/1.1/DTD/svg11.dtd">
<svg version="1.1" id="레이어_1" xmlns="http://www.w3.org/2000/svg" xmlns:xlink="http://www.w3.org/1999/xlink" x="0px"
	 y="0px" width="256px" height="256px" viewBox="0 0 256 256" enable-background="new 0 0 256 256" xml:space="preserve">
<path fill="#75E5C2" d="M191.607,11.411V78.62H134l-3.086,10.63c21.029,6.06,36.575,14.804,46.635,26.232
	c13.828,15.546,20.745,34.178,20.745,55.894c0,22.975-8.431,42.034-25.289,57.179c-16.861,15.146-38.092,22.717-63.693,22.717
	c-17.261,0-34.291-4.517-51.093-13.544v-57.607c13.373,6.515,25.145,9.771,35.319,9.771c10.515,0,18.83-2.399,24.945-7.2
	c6.113-4.801,9.173-11.315,9.173-19.546c0-9.258-4.715-17.086-14.145-23.488c-9.43-6.4-21.062-9.602-34.891-9.602
	c-5.258,0-12.231,0.973-20.917,2.915L82.907,11.411H191.607z"/>
</svg>
