<?xml version="1.0" encoding="utf-8"?>
<!-- Generator: Adobe Illustrator 16.0.0, SVG Export Plug-In . SVG Version: 6.00 Build 0)  -->
<!DOCTYPE svg PUBLIC "-//W3C//DTD SVG 1.1//EN" "http://www.w3.org/Graphics/SVG/1.1/DTD/svg11.dtd">
<svg version="1.1" id="레이어_1" xmlns="http://www.w3.org/2000/svg" xmlns:xlink="http://www.w3.org/1999/xlink" x="0px"
	 y="0px" width="256px" height="256px" viewBox="0 0 256 256" enable-background="new 0 0 256 256" xml:space="preserve">
<path fill="#BBE5A9" d="M112,80.331V63h13.6c0.065-3-2.937-12.672,7.96-17.347c5.741-2.462,12.86-0.672,21.481,4.389
	c-0.92,1.811-2.324,3.515-4.026,4.465c-7.93-4.352-12.64-4.983-15.255-3.87C128.518,53.741,131.214,60,131.152,63H146v18.082
	c30,8.128,47.125,33.517,47.125,62.488c0,35.919-29.005,65.145-64.913,65.143c-35.928-0.002-65.417-29.224-65.417-65.143
	C62.8,113.684,82,87.454,112,80.331z"/>
<path fill="#BBE5A9" d="M128,3C58.962,3,3,58.963,3,128s55.962,125,125,125c69.037,0,125-55.963,125-125S197.037,3,128,3z
	 M135,234.533V223c0-3.866-3.134-7-7-7s-7,3.134-7,7v11.533C67.617,231.077,24.919,188.391,21.462,135H33c3.866,0,7-3.134,7-7
	s-3.134-7-7-7H21.462C24.919,67.614,67.618,24.919,121,21.462V33c0,3.866,3.134,7,7,7s7-3.134,7-7V21.462
	c53.385,3.457,96.076,46.151,99.533,99.538H223c-3.866,0-7,3.134-7,7s3.134,7,7,7h11.533
	C231.077,188.391,188.385,231.077,135,234.533z"/>
</svg>
