<?xml version="1.0" encoding="utf-8"?>
<!-- Generator: Adobe Illustrator 16.0.0, SVG Export Plug-In . SVG Version: 6.00 Build 0)  -->
<!DOCTYPE svg PUBLIC "-//W3C//DTD SVG 1.1 Tiny//EN" "http://www.w3.org/Graphics/SVG/1.1/DTD/svg11-tiny.dtd">
<svg version="1.1" baseProfile="tiny" id="Layer_1" xmlns="http://www.w3.org/2000/svg" xmlns:xlink="http://www.w3.org/1999/xlink"
	 x="0px" y="0px" width="512px" height="512px" viewBox="0 0 512 512" xml:space="preserve">
<path fill="#FF8C32" d="M205.136,187.037l4.215,12.479l4.229-12.568c0.22-0.66,0.385-1.119,0.495-1.377
	c0.109-0.258,0.292-0.491,0.546-0.698s0.601-0.311,1.041-0.311c0.321,0,0.619,0.081,0.895,0.241c0.275,0.16,0.491,0.375,0.647,0.641
	c0.155,0.266,0.234,0.535,0.234,0.806c0,0.186-0.024,0.387-0.076,0.603c-0.051,0.216-0.113,0.427-0.189,0.635
	c-0.076,0.208-0.152,0.421-0.229,0.641l-4.507,12.162c-0.161,0.465-0.322,0.908-0.481,1.327c-0.16,0.419-0.348,0.787-0.56,1.104
	s-0.493,0.578-0.844,0.781s-0.781,0.305-1.289,0.305s-0.938-0.1-1.289-0.298c-0.351-0.198-0.635-0.461-0.851-0.787
	c-0.217-0.326-0.404-0.696-0.565-1.111c-0.161-0.415-0.322-0.855-0.481-1.32l-4.432-12.061c-0.076-0.22-0.154-0.436-0.234-0.647
	c-0.081-0.211-0.148-0.44-0.203-0.686c-0.056-0.246-0.083-0.453-0.083-0.622c0-0.432,0.173-0.825,0.521-1.181
	c0.349-0.355,0.783-0.533,1.309-0.533c0.643,0,1.098,0.197,1.364,0.59C204.584,185.545,204.857,186.173,205.136,187.037z"/>
<path fill="#FF8C32" d="M228.115,184.561c1.93,0,3.586,0.392,4.97,1.174c1.384,0.782,2.431,1.896,3.142,3.339
	c0.711,1.443,1.066,3.138,1.066,5.084c0,1.439-0.195,2.747-0.584,3.923c-0.39,1.176-0.974,2.196-1.752,3.06
	c-0.779,0.864-1.735,1.523-2.869,1.98s-2.434,0.686-3.897,0.686c-1.456,0-2.759-0.235-3.91-0.705
	c-1.15-0.47-2.111-1.132-2.882-1.987c-0.77-0.855-1.352-1.883-1.746-3.085c-0.394-1.202-0.59-2.501-0.59-3.897
	c0-1.43,0.205-2.742,0.616-3.936c0.411-1.194,1.005-2.209,1.784-3.047s1.727-1.479,2.844-1.923S226.693,184.561,228.115,184.561z
	 M233.472,194.133c0-1.363-0.22-2.543-0.66-3.542c-0.439-0.999-1.067-1.754-1.885-2.266c-0.817-0.512-1.754-0.768-2.812-0.768
	c-0.754,0-1.449,0.142-2.089,0.425c-0.639,0.283-1.188,0.696-1.649,1.238s-0.825,1.233-1.092,2.076
	c-0.268,0.843-0.4,1.788-0.4,2.837c0,1.058,0.133,2.014,0.4,2.869c0.267,0.855,0.643,1.563,1.13,2.126
	c0.486,0.563,1.045,0.984,1.676,1.263c0.631,0.279,1.322,0.419,2.076,0.419c0.965,0,1.852-0.241,2.66-0.724
	c0.808-0.483,1.451-1.227,1.93-2.234C233.235,196.845,233.472,195.606,233.472,194.133z"/>
<path fill="#FF8C32" d="M244.212,186.846v13.546h7.643c0.609,0,1.077,0.148,1.403,0.444c0.325,0.296,0.488,0.668,0.488,1.117
	c0,0.457-0.161,0.827-0.482,1.111c-0.321,0.284-0.791,0.425-1.409,0.425h-9.103c-0.821,0-1.411-0.182-1.771-0.546
	c-0.358-0.364-0.539-0.952-0.539-1.765v-14.333c0-0.762,0.173-1.333,0.515-1.714c0.344-0.381,0.794-0.571,1.353-0.571
	c0.567,0,1.026,0.188,1.378,0.565C244.037,185.502,244.212,186.076,244.212,186.846z"/>
<path fill="#FF8C32" d="M254.953,195.796v-8.95c0-0.762,0.172-1.333,0.514-1.714c0.344-0.381,0.794-0.571,1.353-0.571
	c0.583,0,1.049,0.19,1.391,0.571c0.344,0.381,0.514,0.952,0.514,1.714V196c0,1.041,0.117,1.911,0.351,2.609
	c0.232,0.698,0.645,1.24,1.237,1.625c0.592,0.385,1.422,0.578,2.488,0.578c1.473,0,2.514-0.392,3.123-1.174
	c0.609-0.782,0.914-1.97,0.914-3.561v-9.229c0-0.77,0.168-1.344,0.508-1.72c0.338-0.376,0.791-0.565,1.357-0.565
	c0.567,0,1.026,0.188,1.379,0.565c0.35,0.376,0.524,0.95,0.524,1.72v8.95c0,1.456-0.141,2.67-0.424,3.644
	c-0.285,0.973-0.82,1.828-1.606,2.564c-0.677,0.626-1.464,1.083-2.361,1.371c-0.896,0.288-1.945,0.432-3.148,0.432
	c-1.43,0-2.662-0.154-3.692-0.463c-1.033-0.309-1.875-0.787-2.527-1.435c-0.651-0.647-1.13-1.477-1.435-2.488
	C255.106,198.412,254.953,197.201,254.953,195.796z"/>
<path fill="#FF8C32" d="M280.965,200.684l-2.982-11.857v12.848c0,0.711-0.157,1.244-0.477,1.6c-0.316,0.355-0.738,0.533-1.264,0.533
	c-0.509,0-0.923-0.176-1.244-0.527c-0.32-0.351-0.482-0.887-0.482-1.606v-14.727c0-0.812,0.213-1.36,0.635-1.644
	c0.425-0.284,0.994-0.425,1.716-0.425h1.168c0.7,0,1.213,0.063,1.528,0.19c0.318,0.127,0.554,0.355,0.705,0.686
	c0.152,0.331,0.326,0.868,0.521,1.612l2.705,10.194l2.702-10.194c0.195-0.745,0.369-1.282,0.521-1.612s0.387-0.559,0.705-0.686
	c0.315-0.127,0.826-0.19,1.529-0.19h1.168c0.719,0,1.291,0.142,1.713,0.425c0.424,0.284,0.635,0.832,0.635,1.644v14.727
	c0,0.711-0.158,1.244-0.475,1.6c-0.318,0.355-0.744,0.533-1.277,0.533c-0.498,0-0.91-0.178-1.23-0.533
	c-0.321-0.355-0.481-0.889-0.481-1.6v-12.848l-2.984,11.857c-0.192,0.77-0.354,1.335-0.475,1.695
	c-0.123,0.36-0.351,0.688-0.681,0.984c-0.329,0.296-0.786,0.444-1.37,0.444c-0.441,0-0.812-0.095-1.117-0.286
	c-0.306-0.191-0.543-0.434-0.711-0.73c-0.17-0.296-0.304-0.624-0.4-0.984S281.066,201.073,280.965,200.684z"/>
<path fill="#FF8C32" d="M308.604,187.786h-8.494v4.57h7.82c0.576,0,1.006,0.129,1.289,0.387c0.283,0.258,0.426,0.599,0.426,1.022
	c0,0.423-0.141,0.768-0.42,1.035c-0.279,0.267-0.711,0.4-1.295,0.4h-7.82v5.294h8.785c0.594,0,1.039,0.138,1.34,0.413
	c0.301,0.275,0.451,0.641,0.451,1.098c0,0.44-0.15,0.798-0.451,1.073c-0.301,0.275-0.746,0.413-1.34,0.413H298.65
	c-0.821,0-1.412-0.182-1.771-0.546c-0.359-0.364-0.539-0.952-0.539-1.765v-13.99c0-0.542,0.08-0.984,0.24-1.327
	c0.162-0.343,0.414-0.592,0.756-0.749c0.344-0.157,0.781-0.235,1.313-0.235h9.953c0.6,0,1.047,0.133,1.34,0.4
	c0.291,0.267,0.438,0.616,0.438,1.047c0,0.44-0.146,0.793-0.438,1.06C309.65,187.652,309.202,187.786,308.604,187.786z"/>
</svg>
