<?xml version="1.0" encoding="utf-8"?>
<!-- Generator: Adobe Illustrator 16.0.0, SVG Export Plug-In . SVG Version: 6.00 Build 0)  -->
<!DOCTYPE svg PUBLIC "-//W3C//DTD SVG 1.1 Tiny//EN" "http://www.w3.org/Graphics/SVG/1.1/DTD/svg11-tiny.dtd">
<svg version="1.1" baseProfile="tiny" id="Layer_1" xmlns="http://www.w3.org/2000/svg" xmlns:xlink="http://www.w3.org/1999/xlink"
	 x="0px" y="0px" width="512px" height="512px" viewBox="0 0 512 512" xml:space="preserve">
<path fill="#007F7F" d="M432.105,79.913C390.789,38.593,337.481,13.595,280,8.141v1.045c-3.132-0.302-6.275-0.562-9.439-0.746
	C270.842,9.581,271,10.771,271,12c0,8.285-6.716,15-15,15s-15-6.715-15-15c0-1.229,0.158-2.419,0.438-3.561
	C236.925,8.702,232.447,9.1,228,9.602V8.564c-55.938,6.215-107.73,30.991-148.087,71.349C32.894,126.931,7,189.467,7,256
	c0,66.551,25.894,129.093,72.913,176.104c40.353,40.351,92.146,65.119,148.087,71.332v-0.599c4.446,0.502,8.924,0.9,13.438,1.163
	c-0.279-1.142-0.438-2.331-0.438-3.56c0-8.285,6.716-15,15-15s15,6.715,15,15c0,1.229-0.158,2.419-0.439,3.561
	c3.164-0.185,6.309-0.443,9.439-0.746v0.604c57.483-5.452,110.795-30.444,152.104-71.756C479.112,385.098,505,322.557,505,256
	C505,189.461,479.112,126.926,432.105,79.913z M417.051,435.345c-2.309-0.443-4.051-2.468-4.051-4.903c0-2.764,2.236-5,5-5
	c2.568,0,4.66,1.942,4.942,4.438C421.007,431.739,419.037,433.556,417.051,435.345z M403.47,446.712
	c-1.472-0.865-2.47-2.44-2.47-4.271c0-2.764,2.236-5,5-5c2.209,0,4.051,1.444,4.707,3.434
	C408.327,442.87,405.913,444.815,403.47,446.712z M389.575,456.726c-0.357-0.687-0.575-1.458-0.575-2.285c0-2.764,2.236-5,5-5
	c1.457,0,2.754,0.637,3.662,1.637C395.002,453.017,392.307,454.901,389.575,456.726z M366.737,470.209
	c-1.062-0.913-1.735-2.259-1.735-3.77c0-2.764,2.236-5,5-5c2.527,0,4.597,1.882,4.932,4.317
	C372.227,467.296,369.494,468.78,366.737,470.209z M341.933,481.307c-0.581-0.81-0.933-1.793-0.933-2.866c0-2.764,2.236-5,5-5
	c2.501,0,4.554,1.84,4.923,4.237C347.951,478.949,344.953,480.157,341.933,481.307z M305.253,491.997
	c-0.161-0.491-0.253-1.013-0.253-1.558c0-2.764,2.236-5,5-5c2.537,0,4.611,1.896,4.935,4.348
	C311.727,490.589,308.5,491.327,305.253,491.997z M294.473,493.961c-0.905-0.902-1.473-2.142-1.473-3.521c0-2.764,2.236-5,5-5
	c2.762,0,5,2.236,5,5c0,0.75-0.17,1.458-0.471,2.094C299.857,493.053,297.171,493.531,294.473,493.961z M284.867,495.299
	c-2.215-0.514-3.867-2.488-3.867-4.858c0-2.764,2.236-5,5-5c2.762,0,5,2.236,5,5c0,1.931-1.105,3.586-2.707,4.419
	C287.153,495.01,286.012,495.164,284.867,495.299z M286,389.439c2.762,0,5,2.236,5,5c0,2.762-2.238,5-5,5c-2.764,0-5-2.238-5-5
	C281,391.677,283.238,389.439,286,389.439z M283.949,386.986c1.979-0.424,3.945-0.889,5.896-1.398
	c-0.912,1.121-2.285,1.852-3.846,1.852C285.266,387.439,284.573,387.273,283.949,386.986z M286,401.439c2.762,0,5,2.236,5,5
	c0,2.762-2.238,5-5,5c-2.764,0-5-2.238-5-5C281,403.677,283.238,401.439,286,401.439z M286,413.439c2.762,0,5,2.236,5,5
	c0,2.762-2.238,5-5,5c-2.764,0-5-2.238-5-5C281,415.677,283.238,413.439,286,413.439z M286,425.439c2.762,0,5,2.236,5,5
	c0,2.762-2.238,5-5,5c-2.764,0-5-2.238-5-5C281,427.677,283.238,425.439,286,425.439z M286,437.439c2.762,0,5,2.236,5,5
	c0,2.762-2.238,5-5,5c-2.764,0-5-2.238-5-5C281,439.677,283.238,437.439,286,437.439z M286,449.439c2.762,0,5,2.236,5,5
	c0,2.762-2.238,5-5,5c-2.764,0-5-2.238-5-5C281,451.677,283.238,449.439,286,449.439z M286,461.439c2.762,0,5,2.236,5,5
	c0,2.762-2.238,5-5,5c-2.764,0-5-2.238-5-5C281,463.677,283.238,461.439,286,461.439z M286,473.439c2.762,0,5,2.236,5,5
	c0,2.762-2.238,5-5,5c-2.764,0-5-2.238-5-5C281,475.677,283.238,473.439,286,473.439z M298,389.439c2.762,0,5,2.236,5,5
	c0,2.762-2.238,5-5,5c-2.764,0-5-2.238-5-5C293,391.677,295.238,389.439,298,389.439z M293.494,384.57
	c3.182-0.932,6.312-1.979,9.393-3.139c0.068,0.324,0.113,0.658,0.113,1.008c0,2.762-2.238,5-5,5
	C296.004,387.439,294.296,386.261,293.494,384.57z M298,401.439c2.762,0,5,2.236,5,5c0,2.762-2.238,5-5,5c-2.764,0-5-2.238-5-5
	C293,403.677,295.238,401.439,298,401.439z M298,413.439c2.762,0,5,2.236,5,5c0,2.762-2.238,5-5,5c-2.764,0-5-2.238-5-5
	C293,415.677,295.238,413.439,298,413.439z M298,425.439c2.762,0,5,2.236,5,5c0,2.762-2.238,5-5,5c-2.764,0-5-2.238-5-5
	C293,427.677,295.238,425.439,298,425.439z M298,437.439c2.762,0,5,2.236,5,5c0,2.762-2.238,5-5,5c-2.764,0-5-2.238-5-5
	C293,439.677,295.238,437.439,298,437.439z M298,449.439c2.762,0,5,2.236,5,5c0,2.762-2.238,5-5,5c-2.764,0-5-2.238-5-5
	C293,451.677,295.238,449.439,298,449.439z M298,461.439c2.762,0,5,2.236,5,5c0,2.762-2.238,5-5,5c-2.764,0-5-2.238-5-5
	C293,463.677,295.238,461.439,298,461.439z M298,473.439c2.762,0,5,2.236,5,5c0,2.762-2.238,5-5,5c-2.764,0-5-2.238-5-5
	C293,475.677,295.238,473.439,298,473.439z M310,389.439c2.762,0,5,2.236,5,5c0,2.762-2.238,5-5,5c-2.764,0-5-2.238-5-5
	C305,391.677,307.238,389.439,310,389.439z M305,382.439c0-0.707,0.147-1.375,0.413-1.984c2.118-0.848,4.213-1.75,6.276-2.702
	c1.925,0.695,3.309,2.521,3.309,4.687c0.002,2.763-2.236,5-4.998,5C307.238,387.439,305,385.201,305,382.439z M310,401.439
	c2.762,0,5,2.236,5,5c0,2.762-2.238,5-5,5c-2.764,0-5-2.238-5-5C305,403.677,307.238,401.439,310,401.439z M310,413.439
	c2.762,0,5,2.236,5,5c0,2.762-2.238,5-5,5c-2.764,0-5-2.238-5-5C305,415.677,307.238,413.439,310,413.439z M310,425.439
	c2.762,0,5,2.236,5,5c0,2.762-2.238,5-5,5c-2.764,0-5-2.238-5-5C305,427.677,307.238,425.439,310,425.439z M310,437.439
	c2.762,0,5,2.236,5,5c0,2.762-2.238,5-5,5c-2.764,0-5-2.238-5-5C305,439.677,307.238,437.439,310,437.439z M310,449.439
	c2.762,0,5,2.236,5,5c0,2.762-2.238,5-5,5c-2.764,0-5-2.238-5-5C305,451.677,307.238,449.439,310,449.439z M310,461.439
	c2.762,0,5,2.236,5,5c0,2.762-2.238,5-5,5c-2.764,0-5-2.238-5-5C305,463.677,307.238,461.439,310,461.439z M310,473.439
	c2.762,0,5,2.236,5,5c0,2.762-2.238,5-5,5c-2.764,0-5-2.238-5-5C305,475.677,307.238,473.439,310,473.439z M322,377.439
	c2.762,0,5,2.236,5,5c0,2.762-2.238,5-5,5c-2.764,0-5-2.238-5-5C317,379.677,319.238,377.439,322,377.439z M318.773,374.23
	c2.771-1.482,5.48-3.062,8.131-4.729c0.062,0.304,0.098,0.615,0.098,0.938c0,2.762-2.238,5-5,5
	C320.762,375.439,319.643,374.977,318.773,374.23z M322,389.439c2.762,0,5,2.236,5,5c0,2.762-2.238,5-5,5c-2.764,0-5-2.238-5-5
	C317,391.677,319.238,389.439,322,389.439z M322,401.439c2.762,0,5,2.236,5,5c0,2.762-2.238,5-5,5c-2.764,0-5-2.238-5-5
	C317,403.677,319.238,401.439,322,401.439z M322,413.439c2.762,0,5,2.236,5,5c0,2.762-2.238,5-5,5c-2.764,0-5-2.238-5-5
	C317,415.677,319.238,413.439,322,413.439z M322,425.439c2.762,0,5,2.236,5,5c0,2.762-2.238,5-5,5c-2.764,0-5-2.238-5-5
	C317,427.677,319.238,425.439,322,425.439z M322,437.439c2.762,0,5,2.236,5,5c0,2.762-2.238,5-5,5c-2.764,0-5-2.238-5-5
	C317,439.677,319.238,437.439,322,437.439z M322,449.439c2.762,0,5,2.236,5,5c0,2.762-2.238,5-5,5c-2.764,0-5-2.238-5-5
	C317,451.677,319.238,449.439,322,449.439z M322,461.439c2.762,0,5,2.236,5,5c0,2.762-2.238,5-5,5c-2.764,0-5-2.238-5-5
	C317,463.677,319.238,461.439,322,461.439z M322,473.439c2.762,0,5,2.236,5,5c0,2.762-2.238,5-5,5c-2.764,0-5-2.238-5-5
	C317,475.677,319.238,473.439,322,473.439z M317.17,489.213c0.549-2.166,2.492-3.772,4.83-3.772c1.369,0,2.599,0.561,3.495,1.457
	C322.739,487.722,319.96,488.486,317.17,489.213z M334,377.439c2.762,0,5,2.236,5,5c0,2.762-2.238,5-5,5c-2.764,0-5-2.238-5-5
	C329,379.677,331.238,377.439,334,377.439z M329,370.439c0-1.088,0.354-2.086,0.943-2.906c0.938-0.627,1.867-1.264,2.788-1.912
	c0.407-0.107,0.826-0.182,1.269-0.182c2.762,0,5,2.236,5,5c0,2.762-2.238,5-5,5C331.238,375.439,329,373.201,329,370.439z
	 M334,389.439c2.762,0,5,2.236,5,5c0,2.762-2.238,5-5,5c-2.764,0-5-2.238-5-5C329,391.677,331.238,389.439,334,389.439z
	 M334,401.439c2.762,0,5,2.236,5,5c0,2.762-2.238,5-5,5c-2.764,0-5-2.238-5-5C329,403.677,331.238,401.439,334,401.439z
	 M334,413.439c2.762,0,5,2.236,5,5c0,2.762-2.238,5-5,5c-2.764,0-5-2.238-5-5C329,415.677,331.238,413.439,334,413.439z
	 M334,425.439c2.762,0,5,2.236,5,5c0,2.762-2.238,5-5,5c-2.764,0-5-2.238-5-5C329,427.677,331.238,425.439,334,425.439z
	 M334,437.439c2.762,0,5,2.236,5,5c0,2.762-2.238,5-5,5c-2.764,0-5-2.238-5-5C329,439.677,331.238,437.439,334,437.439z
	 M334,449.439c2.762,0,5,2.236,5,5c0,2.762-2.238,5-5,5c-2.764,0-5-2.238-5-5C329,451.677,331.238,449.439,334,449.439z
	 M334,461.439c2.762,0,5,2.236,5,5c0,2.762-2.238,5-5,5c-2.764,0-5-2.238-5-5C329,463.677,331.238,461.439,334,461.439z
	 M334,473.439c2.762,0,5,2.236,5,5c0,2.762-2.238,5-5,5c-2.764,0-5-2.238-5-5C329,475.677,331.238,473.439,334,473.439z
	 M346,365.439c2.762,0,5,2.236,5,5c0,2.762-2.238,5-5,5c-2.764,0-5-2.238-5-5C341,367.677,343.238,365.439,346,365.439z
	 M341.078,359.238c2.162-1.793,4.267-3.656,6.311-5.58c2.081,0.605,3.609,2.504,3.609,4.781c0.002,2.762-2.236,5-4.998,5
	C343.512,363.439,341.465,361.617,341.078,359.238z M346,377.439c2.762,0,5,2.236,5,5c0,2.762-2.238,5-5,5c-2.764,0-5-2.238-5-5
	C341,379.677,343.238,377.439,346,377.439z M346,389.439c2.762,0,5,2.236,5,5c0,2.762-2.238,5-5,5c-2.764,0-5-2.238-5-5
	C341,391.677,343.238,389.439,346,389.439z M346,401.439c2.762,0,5,2.236,5,5c0,2.762-2.238,5-5,5c-2.764,0-5-2.238-5-5
	C341,403.677,343.238,401.439,346,401.439z M346,413.439c2.762,0,5,2.236,5,5c0,2.762-2.238,5-5,5c-2.764,0-5-2.238-5-5
	C341,415.677,343.238,413.439,346,413.439z M346,425.439c2.762,0,5,2.236,5,5c0,2.762-2.238,5-5,5c-2.764,0-5-2.238-5-5
	C341,427.677,343.238,425.439,346,425.439z M346,437.439c2.762,0,5,2.236,5,5c0,2.762-2.238,5-5,5c-2.764,0-5-2.238-5-5
	C341,439.677,343.238,437.439,346,437.439z M346,449.439c2.762,0,5,2.236,5,5c0,2.762-2.238,5-5,5c-2.764,0-5-2.238-5-5
	C341,451.677,343.238,449.439,346,449.439z M346,461.439c2.762,0,5,2.236,5,5c0,2.762-2.238,5-5,5c-2.764,0-5-2.238-5-5
	C341,463.677,343.238,461.439,346,461.439z M358,353.439c2.762,0,5,2.236,5,5c0,2.762-2.238,5-5,5c-2.764,0-5-2.238-5-5
	C353,355.677,355.238,353.439,358,353.439z M353.22,347.828c1.923-2.045,3.786-4.146,5.579-6.309
	c2.379,0.385,4.201,2.432,4.201,4.92c0,2.762-2.238,5-5,5C355.724,351.439,353.823,349.908,353.22,347.828z M358,365.439
	c2.762,0,5,2.236,5,5c0,2.762-2.238,5-5,5c-2.764,0-5-2.238-5-5C353,367.677,355.238,365.439,358,365.439z M358,377.439
	c2.762,0,5,2.236,5,5c0,2.762-2.238,5-5,5c-2.764,0-5-2.238-5-5C353,379.677,355.238,377.439,358,377.439z M358,389.439
	c2.762,0,5,2.236,5,5c0,2.762-2.238,5-5,5c-2.764,0-5-2.238-5-5C353,391.677,355.238,389.439,358,389.439z M358,401.439
	c2.762,0,5,2.236,5,5c0,2.762-2.238,5-5,5c-2.764,0-5-2.238-5-5C353,403.677,355.238,401.439,358,401.439z M358,413.439
	c2.762,0,5,2.236,5,5c0,2.762-2.238,5-5,5c-2.764,0-5-2.238-5-5C353,415.677,355.238,413.439,358,413.439z M358,425.439
	c2.762,0,5,2.236,5,5c0,2.762-2.238,5-5,5c-2.764,0-5-2.238-5-5C353,427.677,355.238,425.439,358,425.439z M358,437.439
	c2.762,0,5,2.236,5,5c0,2.762-2.238,5-5,5c-2.764,0-5-2.238-5-5C353,439.677,355.238,437.439,358,437.439z M358,449.439
	c2.762,0,5,2.236,5,5c0,2.762-2.238,5-5,5c-2.764,0-5-2.238-5-5C353,451.677,355.238,449.439,358,449.439z M358,461.439
	c2.762,0,5,2.236,5,5c0,2.762-2.238,5-5,5c-2.764,0-5-2.238-5-5C353,463.677,355.238,461.439,358,461.439z M353.391,476.606
	c0.729-1.85,2.5-3.166,4.609-3.166c0.585,0,1.144,0.104,1.662,0.291C357.586,474.721,355.494,475.678,353.391,476.606z M370,329.439
	c2.762,0,5,2.236,5,5c0,2.762-2.238,5-5,5c-2.764,0-5-2.238-5-5c0-0.441,0.073-0.86,0.182-1.27c0.647-0.92,1.286-1.852,1.912-2.787
	C367.912,329.794,368.91,329.439,370,329.439z M369.062,327.343c1.668-2.649,3.246-5.36,4.729-8.132
	c0.745,0.869,1.209,1.989,1.209,3.229c0,2.763-2.238,5-5,5C369.678,327.439,369.365,327.402,369.062,327.343z M370,341.439
	c2.762,0,5,2.236,5,5c0,2.762-2.238,5-5,5c-2.764,0-5-2.238-5-5C365,343.677,367.238,341.439,370,341.439z M370,353.439
	c2.762,0,5,2.236,5,5c0,2.762-2.238,5-5,5c-2.764,0-5-2.238-5-5C365,355.677,367.238,353.439,370,353.439z M370,365.439
	c2.762,0,5,2.236,5,5c0,2.762-2.238,5-5,5c-2.764,0-5-2.238-5-5C365,367.677,367.238,365.439,370,365.439z M370,377.439
	c2.762,0,5,2.236,5,5c0,2.762-2.238,5-5,5c-2.764,0-5-2.238-5-5C365,379.677,367.238,377.439,370,377.439z M370,389.439
	c2.762,0,5,2.236,5,5c0,2.762-2.238,5-5,5c-2.764,0-5-2.238-5-5C365,391.677,367.238,389.439,370,389.439z M370,401.439
	c2.762,0,5,2.236,5,5c0,2.762-2.238,5-5,5c-2.764,0-5-2.238-5-5C365,403.677,367.238,401.439,370,401.439z M370,413.439
	c2.762,0,5,2.236,5,5c0,2.762-2.238,5-5,5c-2.764,0-5-2.238-5-5C365,415.677,367.238,413.439,370,413.439z M370,425.439
	c2.762,0,5,2.236,5,5c0,2.762-2.238,5-5,5c-2.764,0-5-2.238-5-5C365,427.677,367.238,425.439,370,425.439z M370,437.439
	c2.762,0,5,2.236,5,5c0,2.762-2.238,5-5,5c-2.764,0-5-2.238-5-5C365,439.677,367.238,437.439,370,437.439z M370,449.439
	c2.762,0,5,2.236,5,5c0,2.762-2.238,5-5,5c-2.764,0-5-2.238-5-5C365,451.677,367.238,449.439,370,449.439z M142,329.439
	c1.087,0,2.086,0.354,2.904,0.943c0.628,0.938,1.265,1.867,1.912,2.787c0.106,0.407,0.184,0.826,0.184,1.27c0,2.762-2.238,5-5,5
	c-2.764,0-5-2.238-5-5C137,331.677,139.238,329.439,142,329.439z M137,322.439c0-1.238,0.462-2.359,1.209-3.229
	c1.48,2.771,3.061,5.481,4.728,8.133c-0.303,0.06-0.614,0.097-0.937,0.097C139.238,327.439,137,325.201,137,322.439z M154,353.439
	c2.762,0,5,2.236,5,5c0,2.762-2.238,5-5,5c-2.764,0-5-2.238-5-5C149,355.677,151.238,353.439,154,353.439z M149,346.439
	c0-2.488,1.82-4.535,4.201-4.92c1.793,2.162,3.654,4.264,5.577,6.309c-0.604,2.08-2.504,3.611-4.778,3.611
	C151.238,351.439,149,349.201,149,346.439z M166,365.439c2.762,0,5,2.236,5,5c0,2.762-2.238,5-5,5c-2.764,0-5-2.238-5-5
	C161,367.677,163.238,365.439,166,365.439z M161,358.439c0-2.277,1.528-4.176,3.609-4.781c2.044,1.924,4.146,3.787,6.311,5.58
	c-0.385,2.379-2.434,4.201-4.92,4.201C163.238,363.439,161,361.201,161,358.439z M178,377.439c2.762,0,5,2.236,5,5
	c0,2.762-2.238,5-5,5c-2.764,0-5-2.238-5-5C173,379.677,175.238,377.439,178,377.439z M173,370.439c0-2.764,2.236-5,5-5
	c0.438,0,0.857,0.074,1.267,0.182c0.921,0.648,1.853,1.285,2.788,1.912c0.59,0.82,0.945,1.818,0.945,2.906c0,2.762-2.238,5-5,5
	C175.238,375.439,173,373.201,173,370.439z M178,389.439c2.762,0,5,2.236,5,5c0,2.762-2.238,5-5,5c-2.764,0-5-2.238-5-5
	C173,391.677,175.238,389.439,178,389.439z M178,401.439c2.762,0,5,2.236,5,5c0,2.762-2.238,5-5,5c-2.764,0-5-2.238-5-5
	C173,403.677,175.238,401.439,178,401.439z M178,413.439c2.762,0,5,2.236,5,5c0,2.762-2.238,5-5,5c-2.764,0-5-2.238-5-5
	C173,415.677,175.238,413.439,178,413.439z M178,425.439c2.762,0,5,2.236,5,5c0,2.762-2.238,5-5,5c-2.764,0-5-2.238-5-5
	C173,427.677,175.238,425.439,178,425.439z M178,437.439c2.762,0,5,2.236,5,5c0,2.762-2.238,5-5,5c-2.764,0-5-2.238-5-5
	C173,439.677,175.238,437.439,178,437.439z M178,449.439c2.762,0,5,2.236,5,5c0,2.762-2.238,5-5,5c-2.764,0-5-2.238-5-5
	C173,451.677,175.238,449.439,178,449.439z M178,461.439c2.762,0,5,2.236,5,5c0,2.762-2.238,5-5,5c-2.764,0-5-2.238-5-5
	C173,463.677,175.238,461.439,178,461.439z M178,473.439c2.762,0,5,2.236,5,5c0,2.762-2.238,5-5,5c-2.764,0-5-2.238-5-5
	C173,475.677,175.238,473.439,178,473.439z M190,377.439c2.762,0,5,2.236,5,5c0,2.762-2.238,5-5,5c-2.764,0-5-2.238-5-5
	C185,379.677,187.238,377.439,190,377.439z M185,370.439c0-0.322,0.036-0.635,0.096-0.938c2.65,1.668,5.361,3.246,8.132,4.729
	c-0.869,0.746-1.989,1.209-3.228,1.209C187.238,375.439,185,373.201,185,370.439z M209,490.439c0-2.764,2.236-5,5-5
	c2.762,0,5,2.236,5,5c0,1.373-0.563,2.608-1.462,3.512c-2.705-0.432-5.396-0.913-8.077-1.436
	C209.166,491.886,209,491.184,209,490.439z M214,389.439c2.762,0,5,2.236,5,5c0,2.762-2.238,5-5,5c-2.764,0-5-2.238-5-5
	C209,391.677,211.238,389.439,214,389.439z M209,382.439c0-0.35,0.045-0.684,0.111-1.008c3.079,1.157,6.213,2.207,9.395,3.139
	c-0.802,1.691-2.51,2.869-4.506,2.869C211.238,387.439,209,385.201,209,382.439z M214,401.439c2.762,0,5,2.236,5,5
	c0,2.762-2.238,5-5,5c-2.764,0-5-2.238-5-5C209,403.677,211.238,401.439,214,401.439z M214,413.439c2.762,0,5,2.236,5,5
	c0,2.762-2.238,5-5,5c-2.764,0-5-2.238-5-5C209,415.677,211.238,413.439,214,413.439z M214,425.439c2.762,0,5,2.236,5,5
	c0,2.762-2.238,5-5,5c-2.764,0-5-2.238-5-5C209,427.677,211.238,425.439,214,425.439z M214,437.439c2.762,0,5,2.236,5,5
	c0,2.762-2.238,5-5,5c-2.764,0-5-2.238-5-5C209,439.677,211.238,437.439,214,437.439z M214,449.439c2.762,0,5,2.236,5,5
	c0,2.762-2.238,5-5,5c-2.764,0-5-2.238-5-5C209,451.677,211.238,449.439,214,449.439z M214,461.439c2.762,0,5,2.236,5,5
	c0,2.762-2.238,5-5,5c-2.764,0-5-2.238-5-5C209,463.677,211.238,461.439,214,461.439z M214,473.439c2.762,0,5,2.236,5,5
	c0,2.762-2.238,5-5,5c-2.764,0-5-2.238-5-5C209,475.677,211.238,473.439,214,473.439z M202,389.439c2.762,0,5,2.236,5,5
	c0,2.762-2.238,5-5,5c-2.764,0-5-2.238-5-5C197,391.677,199.238,389.439,202,389.439z M197,382.439c0-2.166,1.384-3.991,3.309-4.688
	c2.065,0.952,4.158,1.854,6.278,2.702c0.264,0.607,0.413,1.277,0.413,1.982c0,2.765-2.238,5.002-5,5.002
	C199.238,387.439,197,385.201,197,382.439z M202,401.439c2.762,0,5,2.236,5,5c0,2.762-2.238,5-5,5c-2.764,0-5-2.238-5-5
	C197,403.677,199.238,401.439,202,401.439z M202,413.439c2.762,0,5,2.236,5,5c0,2.762-2.238,5-5,5c-2.764,0-5-2.238-5-5
	C197,415.677,199.238,413.439,202,413.439z M202,425.439c2.762,0,5,2.236,5,5c0,2.762-2.238,5-5,5c-2.764,0-5-2.238-5-5
	C197,427.677,199.238,425.439,202,425.439z M202,437.439c2.762,0,5,2.236,5,5c0,2.762-2.238,5-5,5c-2.764,0-5-2.238-5-5
	C197,439.677,199.238,437.439,202,437.439z M202,449.439c2.762,0,5,2.236,5,5c0,2.762-2.238,5-5,5c-2.764,0-5-2.238-5-5
	C197,451.677,199.238,449.439,202,449.439z M202,461.439c2.762,0,5,2.236,5,5c0,2.762-2.238,5-5,5c-2.764,0-5-2.238-5-5
	C197,463.677,199.238,461.439,202,461.439z M202,473.439c2.762,0,5,2.236,5,5c0,2.762-2.238,5-5,5c-2.764,0-5-2.238-5-5
	C197,475.677,199.238,473.439,202,473.439z M202,485.439c2.762,0,5,2.236,5,5c0,0.536-0.088,1.052-0.245,1.535
	c-3.249-0.67-6.479-1.404-9.688-2.207C197.398,487.326,199.468,485.439,202,485.439z M190,389.439c2.762,0,5,2.236,5,5
	c0,2.762-2.238,5-5,5c-2.764,0-5-2.238-5-5C185,391.677,187.238,389.439,190,389.439z M190,401.439c2.762,0,5,2.236,5,5
	c0,2.762-2.238,5-5,5c-2.764,0-5-2.238-5-5C185,403.677,187.238,401.439,190,401.439z M190,413.439c2.762,0,5,2.236,5,5
	c0,2.762-2.238,5-5,5c-2.764,0-5-2.238-5-5C185,415.677,187.238,413.439,190,413.439z M190,425.439c2.762,0,5,2.236,5,5
	c0,2.762-2.238,5-5,5c-2.764,0-5-2.238-5-5C185,427.677,187.238,425.439,190,425.439z M190,437.439c2.762,0,5,2.236,5,5
	c0,2.762-2.238,5-5,5c-2.764,0-5-2.238-5-5C185,439.677,187.238,437.439,190,437.439z M190,449.439c2.762,0,5,2.236,5,5
	c0,2.762-2.238,5-5,5c-2.764,0-5-2.238-5-5C185,451.677,187.238,449.439,190,449.439z M190,461.439c2.762,0,5,2.236,5,5
	c0,2.762-2.238,5-5,5c-2.764,0-5-2.238-5-5C185,463.677,187.238,461.439,190,461.439z M190,473.439c2.762,0,5,2.236,5,5
	c0,2.762-2.238,5-5,5c-2.764,0-5-2.238-5-5C185,475.677,187.238,473.439,190,473.439z M190,485.439c2.33,0,4.27,1.6,4.825,3.755
	c-2.782-0.725-5.549-1.498-8.298-2.32C187.424,485.991,188.642,485.439,190,485.439z M166,377.439c2.762,0,5,2.236,5,5
	c0,2.762-2.238,5-5,5c-2.764,0-5-2.238-5-5C161,379.677,163.238,377.439,166,377.439z M166,389.439c2.762,0,5,2.236,5,5
	c0,2.762-2.238,5-5,5c-2.764,0-5-2.238-5-5C161,391.677,163.238,389.439,166,389.439z M166,401.439c2.762,0,5,2.236,5,5
	c0,2.762-2.238,5-5,5c-2.764,0-5-2.238-5-5C161,403.677,163.238,401.439,166,401.439z M166,413.439c2.762,0,5,2.236,5,5
	c0,2.762-2.238,5-5,5c-2.764,0-5-2.238-5-5C161,415.677,163.238,413.439,166,413.439z M166,425.439c2.762,0,5,2.236,5,5
	c0,2.762-2.238,5-5,5c-2.764,0-5-2.238-5-5C161,427.677,163.238,425.439,166,425.439z M166,437.439c2.762,0,5,2.236,5,5
	c0,2.762-2.238,5-5,5c-2.764,0-5-2.238-5-5C161,439.677,163.238,437.439,166,437.439z M166,449.439c2.762,0,5,2.236,5,5
	c0,2.762-2.238,5-5,5c-2.764,0-5-2.238-5-5C161,451.677,163.238,449.439,166,449.439z M166,461.439c2.762,0,5,2.236,5,5
	c0,2.762-2.238,5-5,5c-2.764,0-5-2.238-5-5C161,463.677,163.238,461.439,166,461.439z M165.999,473.44c2.762,0,5,2.236,5,5
	c0,1.069-0.35,2.051-0.929,2.858c-3.022-1.149-6.021-2.363-8.993-3.636C161.452,475.273,163.502,473.44,165.999,473.44z
	 M154,365.439c2.762,0,5,2.236,5,5c0,2.762-2.238,5-5,5c-2.764,0-5-2.238-5-5C149,367.677,151.238,365.439,154,365.439z
	 M154,377.439c2.762,0,5,2.236,5,5c0,2.762-2.238,5-5,5c-2.764,0-5-2.238-5-5C149,379.677,151.238,377.439,154,377.439z
	 M154,389.439c2.762,0,5,2.236,5,5c0,2.762-2.238,5-5,5c-2.764,0-5-2.238-5-5C149,391.677,151.238,389.439,154,389.439z
	 M154,401.439c2.762,0,5,2.236,5,5c0,2.762-2.238,5-5,5c-2.764,0-5-2.238-5-5C149,403.677,151.238,401.439,154,401.439z
	 M154,413.439c2.762,0,5,2.236,5,5c0,2.762-2.238,5-5,5c-2.764,0-5-2.238-5-5C149,415.677,151.238,413.439,154,413.439z
	 M154,425.439c2.762,0,5,2.236,5,5c0,2.762-2.238,5-5,5c-2.764,0-5-2.238-5-5C149,427.677,151.238,425.439,154,425.439z
	 M154,437.439c2.762,0,5,2.236,5,5c0,2.762-2.238,5-5,5c-2.764,0-5-2.238-5-5C149,439.677,151.238,437.439,154,437.439z
	 M154,449.439c2.762,0,5,2.236,5,5c0,2.762-2.238,5-5,5c-2.764,0-5-2.238-5-5C149,451.677,151.238,449.439,154,449.439z
	 M154,461.439c2.762,0,5,2.236,5,5c0,2.762-2.238,5-5,5c-2.764,0-5-2.238-5-5C149,463.677,151.238,461.439,154,461.439z M154,473.44
	c2.1,0,3.865,1.307,4.6,3.143c-2.093-0.925-4.174-1.877-6.241-2.861C152.872,473.541,153.423,473.44,154,473.44z M142,341.439
	c2.762,0,5,2.236,5,5c0,2.762-2.238,5-5,5c-2.764,0-5-2.238-5-5C137,343.677,139.238,341.439,142,341.439z M142,353.439
	c2.762,0,5,2.236,5,5c0,2.762-2.238,5-5,5c-2.764,0-5-2.238-5-5C137,355.677,139.238,353.439,142,353.439z M142,365.439
	c2.762,0,5,2.236,5,5c0,2.762-2.238,5-5,5c-2.764,0-5-2.238-5-5C137,367.677,139.238,365.439,142,365.439z M142,377.439
	c2.762,0,5,2.236,5,5c0,2.762-2.238,5-5,5c-2.764,0-5-2.238-5-5C137,379.677,139.238,377.439,142,377.439z M142,389.439
	c2.762,0,5,2.236,5,5c0,2.762-2.238,5-5,5c-2.764,0-5-2.238-5-5C137,391.677,139.238,389.439,142,389.439z M142,401.439
	c2.762,0,5,2.236,5,5c0,2.762-2.238,5-5,5c-2.764,0-5-2.238-5-5C137,403.677,139.238,401.439,142,401.439z M142,413.439
	c2.762,0,5,2.236,5,5c0,2.762-2.238,5-5,5c-2.764,0-5-2.238-5-5C137,415.677,139.238,413.439,142,413.439z M142,425.439
	c2.762,0,5,2.236,5,5c0,2.762-2.238,5-5,5c-2.764,0-5-2.238-5-5C137,427.677,139.238,425.439,142,425.439z M142,437.439
	c2.762,0,5,2.236,5,5c0,2.762-2.238,5-5,5c-2.764,0-5-2.238-5-5C137,439.677,139.238,437.439,142,437.439z M142,449.439
	c2.762,0,5,2.236,5,5c0,2.762-2.238,5-5,5c-2.764,0-5-2.238-5-5C137,451.677,139.238,449.439,142,449.439z M142,461.439
	c2.762,0,5,2.236,5,5c0,1.505-0.67,2.848-1.726,3.761c-2.761-1.431-5.498-2.911-8.206-4.451
	C137.408,463.316,139.474,461.439,142,461.439z M94.54,77.055C97.044,77.327,99,79.423,99,82c0,2.762-2.238,5-5,5
	c-2.698,0-4.879-2.138-4.981-4.811C90.835,80.443,92.679,78.737,94.54,77.055z M108.221,65.554C109.863,66.37,111,68.042,111,70
	c0,2.762-2.238,5-5,5c-2.326,0-4.266-1.592-4.819-3.745C103.497,69.308,105.844,67.406,108.221,65.554z M122.268,55.412
	C122.731,56.166,123,57.049,123,58c0,2.762-2.238,5-5,5c-1.578,0-2.965-0.745-3.877-1.889
	C116.803,59.152,119.519,57.252,122.268,55.412z M144.939,41.985C146.181,42.892,147,44.343,147,46c0,2.762-2.238,5-5,5
	c-2.665,0-4.821-2.088-4.972-4.715C139.64,44.799,142.278,43.369,144.939,41.985z M169.811,30.803C170.546,31.667,171,32.774,171,34
	c0,2.762-2.238,5-5,5c-2.64,0-4.776-2.049-4.964-4.64C163.938,33.118,166.862,31.929,169.811,30.803z M206.594,20.061
	C206.848,20.658,207,21.309,207,22c0,2.762-2.238,5-5,5c-2.68,0-4.846-2.109-4.976-4.754
	C200.196,21.453,203.386,20.725,206.594,20.061z M217.137,18.118C218.272,19.032,219,20.429,219,22c0,2.762-2.238,5-5,5
	c-2.764,0-5-2.238-5-5c0-0.942,0.267-1.817,0.724-2.565C212.185,18.959,214.656,18.517,217.137,18.118z M226,123
	c-2.764,0-5-2.238-5-5s2.236-5,5-5c2.762,0,5,2.238,5,5S228.762,123,226,123z M228.051,125.452
	c-1.981,0.424-3.948,0.888-5.896,1.399c0.911-1.122,2.284-1.852,3.847-1.852C226.735,125,227.427,125.166,228.051,125.452z M226,111
	c-2.764,0-5-2.238-5-5s2.236-5,5-5c2.762,0,5,2.238,5,5S228.762,111,226,111z M226,99c-2.764,0-5-2.238-5-5s2.236-5,5-5
	c2.762,0,5,2.238,5,5S228.762,99,226,99z M226,87c-2.764,0-5-2.238-5-5s2.236-5,5-5c2.762,0,5,2.238,5,5S228.762,87,226,87z M226,75
	c-2.764,0-5-2.238-5-5s2.236-5,5-5c2.762,0,5,2.238,5,5S228.762,75,226,75z M226,63c-2.764,0-5-2.238-5-5s2.236-5,5-5
	c2.762,0,5,2.238,5,5S228.762,63,226,63z M226,51c-2.764,0-5-2.238-5-5s2.236-5,5-5c2.762,0,5,2.238,5,5S228.762,51,226,51z M226,39
	c-2.764,0-5-2.238-5-5s2.236-5,5-5c2.762,0,5,2.238,5,5S228.762,39,226,39z M214,123c-2.764,0-5-2.238-5-5s2.236-5,5-5
	c2.762,0,5,2.238,5,5S216.762,123,214,123z M218.506,127.868c-3.182,0.933-6.314,1.98-9.395,3.139
	c-0.067-0.325-0.112-0.66-0.112-1.007c0.001-2.762,2.237-5,5.001-5C215.996,125,217.704,126.177,218.506,127.868z M214,111
	c-2.764,0-5-2.238-5-5s2.236-5,5-5c2.762,0,5,2.238,5,5S216.762,111,214,111z M214,99c-2.764,0-5-2.238-5-5s2.236-5,5-5
	c2.762,0,5,2.238,5,5S216.762,99,214,99z M214,87c-2.764,0-5-2.238-5-5s2.236-5,5-5c2.762,0,5,2.238,5,5S216.762,87,214,87z M214,75
	c-2.764,0-5-2.238-5-5s2.236-5,5-5c2.762,0,5,2.238,5,5S216.762,75,214,75z M214,63c-2.764,0-5-2.238-5-5s2.236-5,5-5
	c2.762,0,5,2.238,5,5S216.762,63,214,63z M214,51c-2.764,0-5-2.238-5-5s2.236-5,5-5c2.762,0,5,2.238,5,5S216.762,51,214,51z M214,39
	c-2.764,0-5-2.238-5-5s2.236-5,5-5c2.762,0,5,2.238,5,5S216.762,39,214,39z M202,123c-2.764,0-5-2.238-5-5s2.236-5,5-5
	c2.762,0,5,2.238,5,5S204.762,123,202,123z M207,130c0,0.706-0.149,1.375-0.413,1.984c-2.121,0.848-4.213,1.75-6.278,2.702
	C198.384,133.991,197,132.165,197,130c0-2.762,2.236-5,5-5C204.762,125,207,127.238,207,130z M202,111c-2.764,0-5-2.238-5-5
	s2.236-5,5-5c2.762,0,5,2.238,5,5S204.762,111,202,111z M202,99c-2.764,0-5-2.238-5-5s2.236-5,5-5c2.762,0,5,2.238,5,5
	S204.762,99,202,99z M202,87c-2.764,0-5-2.238-5-5s2.236-5,5-5c2.762,0,5,2.238,5,5S204.762,87,202,87z M202,75
	c-2.764,0-5-2.238-5-5s2.236-5,5-5c2.762,0,5,2.238,5,5S204.762,75,202,75z M202,63c-2.764,0-5-2.238-5-5s2.236-5,5-5
	c2.762,0,5,2.238,5,5S204.762,63,202,63z M202,51c-2.764,0-5-2.238-5-5s2.236-5,5-5c2.762,0,5,2.238,5,5S204.762,51,202,51z M202,39
	c-2.764,0-5-2.238-5-5s2.236-5,5-5c2.762,0,5,2.238,5,5S204.762,39,202,39z M190,135c-2.764,0-5-2.238-5-5s2.236-5,5-5
	c2.762,0,5,2.238,5,5C195,132.762,192.762,135,190,135z M193.227,138.209c-2.77,1.482-5.479,3.06-8.131,4.728
	c-0.06-0.303-0.096-0.615-0.096-0.937c0-2.762,2.236-5,5-5C191.238,137,192.358,137.462,193.227,138.209z M190,123
	c-2.764,0-5-2.238-5-5s2.236-5,5-5c2.762,0,5,2.238,5,5S192.762,123,190,123z M190,111c-2.764,0-5-2.238-5-5s2.236-5,5-5
	c2.762,0,5,2.238,5,5S192.762,111,190,111z M190,99c-2.764,0-5-2.238-5-5s2.236-5,5-5c2.762,0,5,2.238,5,5S192.762,99,190,99z
	 M190,87c-2.764,0-5-2.238-5-5s2.236-5,5-5c2.762,0,5,2.238,5,5S192.762,87,190,87z M190,75c-2.764,0-5-2.238-5-5s2.236-5,5-5
	c2.762,0,5,2.238,5,5S192.762,75,190,75z M190,63c-2.764,0-5-2.238-5-5s2.236-5,5-5c2.762,0,5,2.238,5,5S192.762,63,190,63z M190,51
	c-2.764,0-5-2.238-5-5s2.236-5,5-5c2.762,0,5,2.238,5,5S192.762,51,190,51z M190,39c-2.764,0-5-2.238-5-5s2.236-5,5-5
	c2.762,0,5,2.238,5,5S192.762,39,190,39z M194.921,22.784C194.543,25.171,192.493,27,190,27c-1.525,0-2.871-0.697-3.783-1.777
	C189.101,24.356,192.002,23.542,194.921,22.784z M178,135c-2.764,0-5-2.238-5-5s2.236-5,5-5c2.762,0,5,2.238,5,5
	C183,132.762,180.762,135,178,135z M183,142c0,1.087-0.356,2.086-0.945,2.906c-0.938,0.626-1.867,1.263-2.788,1.912
	C178.86,146.925,178.44,147,178,147c-2.764,0-5-2.238-5-5s2.236-5,5-5C180.762,137,183,139.238,183,142z M178,123
	c-2.764,0-5-2.238-5-5s2.236-5,5-5c2.762,0,5,2.238,5,5S180.762,123,178,123z M178,111c-2.764,0-5-2.238-5-5s2.236-5,5-5
	c2.762,0,5,2.238,5,5S180.762,111,178,111z M178,99c-2.764,0-5-2.238-5-5s2.236-5,5-5c2.762,0,5,2.238,5,5S180.762,99,178,99z
	 M178,87c-2.764,0-5-2.238-5-5s2.236-5,5-5c2.762,0,5,2.238,5,5S180.762,87,178,87z M178,75c-2.764,0-5-2.238-5-5s2.236-5,5-5
	c2.762,0,5,2.238,5,5S180.762,75,178,75z M178,63c-2.764,0-5-2.238-5-5s2.236-5,5-5c2.762,0,5,2.238,5,5S180.762,63,178,63z M178,51
	c-2.764,0-5-2.238-5-5s2.236-5,5-5c2.762,0,5,2.238,5,5S180.762,51,178,51z M178,39c-2.764,0-5-2.238-5-5s2.236-5,5-5
	c2.762,0,5,2.238,5,5S180.762,39,178,39z M166,147c-2.764,0-5-2.238-5-5s2.236-5,5-5c2.762,0,5,2.238,5,5S168.762,147,166,147z
	 M170.919,153.201c-2.162,1.793-4.266,3.656-6.311,5.579c-2.08-0.605-3.608-2.504-3.608-4.78c0-2.762,2.236-5,5-5
	C168.488,149,170.535,150.822,170.919,153.201z M166,135c-2.764,0-5-2.238-5-5s2.236-5,5-5c2.762,0,5,2.238,5,5
	C171,132.762,168.762,135,166,135z M166,123c-2.764,0-5-2.238-5-5s2.236-5,5-5c2.762,0,5,2.238,5,5S168.762,123,166,123z M166,111
	c-2.764,0-5-2.238-5-5s2.236-5,5-5c2.762,0,5,2.238,5,5S168.762,111,166,111z M166,99c-2.764,0-5-2.238-5-5s2.236-5,5-5
	c2.762,0,5,2.238,5,5S168.762,99,166,99z M166,87c-2.764,0-5-2.238-5-5s2.236-5,5-5c2.762,0,5,2.238,5,5S168.762,87,166,87z M166,75
	c-2.764,0-5-2.238-5-5s2.236-5,5-5c2.762,0,5,2.238,5,5S168.762,75,166,75z M166,63c-2.764,0-5-2.238-5-5s2.236-5,5-5
	c2.762,0,5,2.238,5,5S168.762,63,166,63z M166,51c-2.764,0-5-2.238-5-5s2.236-5,5-5c2.762,0,5,2.238,5,5S168.762,51,166,51z
	 M154,159c-2.764,0-5-2.238-5-5s2.236-5,5-5c2.762,0,5,2.238,5,5S156.762,159,154,159z M158.78,164.611
	c-1.923,2.044-3.784,4.146-5.577,6.309c-2.381-0.385-4.201-2.432-4.201-4.92c0-2.762,2.236-5,5-5
	C156.276,161,158.175,162.53,158.78,164.611z M154,147c-2.764,0-5-2.238-5-5s2.236-5,5-5c2.762,0,5,2.238,5,5S156.762,147,154,147z
	 M154,135c-2.764,0-5-2.238-5-5s2.236-5,5-5c2.762,0,5,2.238,5,5C159,132.762,156.762,135,154,135z M154,123c-2.764,0-5-2.238-5-5
	s2.236-5,5-5c2.762,0,5,2.238,5,5S156.762,123,154,123z M154,111c-2.764,0-5-2.238-5-5s2.236-5,5-5c2.762,0,5,2.238,5,5
	S156.762,111,154,111z M154,99c-2.764,0-5-2.238-5-5s2.236-5,5-5c2.762,0,5,2.238,5,5S156.762,99,154,99z M154,87
	c-2.764,0-5-2.238-5-5s2.236-5,5-5c2.762,0,5,2.238,5,5S156.762,87,154,87z M154,75c-2.764,0-5-2.238-5-5s2.236-5,5-5
	c2.762,0,5,2.238,5,5S156.762,75,154,75z M154,63c-2.764,0-5-2.238-5-5s2.236-5,5-5c2.762,0,5,2.238,5,5S156.762,63,154,63z M154,51
	c-2.764,0-5-2.238-5-5s2.236-5,5-5c2.762,0,5,2.238,5,5S156.762,51,154,51z M158.79,35.34C158.206,37.448,156.295,39,154,39
	c-0.763,0-1.477-0.183-2.118-0.489C154.168,37.416,156.472,36.362,158.79,35.34z M142,183c-2.764,0-5-2.238-5-5s2.236-5,5-5
	c2.762,0,5,2.238,5,5c0,0.44-0.075,0.86-0.184,1.267c-0.647,0.921-1.284,1.851-1.912,2.788C144.086,182.644,143.087,183,142,183z
	 M142.937,185.096c-1.668,2.65-3.246,5.361-4.728,8.131C137.462,192.358,137,191.238,137,190c0-2.762,2.236-5,5-5
	C142.322,185,142.634,185.036,142.937,185.096z M142,171c-2.764,0-5-2.238-5-5s2.236-5,5-5c2.762,0,5,2.238,5,5S144.762,171,142,171
	z M142,159c-2.764,0-5-2.238-5-5s2.236-5,5-5c2.762,0,5,2.238,5,5S144.762,159,142,159z M142,147c-2.764,0-5-2.238-5-5s2.236-5,5-5
	c2.762,0,5,2.238,5,5S144.762,147,142,147z M142,135c-2.764,0-5-2.238-5-5s2.236-5,5-5c2.762,0,5,2.238,5,5
	C147,132.762,144.762,135,142,135z M142,123c-2.764,0-5-2.238-5-5s2.236-5,5-5c2.762,0,5,2.238,5,5S144.762,123,142,123z M142,111
	c-2.764,0-5-2.238-5-5s2.236-5,5-5c2.762,0,5,2.238,5,5S144.762,111,142,111z M142,99c-2.764,0-5-2.238-5-5s2.236-5,5-5
	c2.762,0,5,2.238,5,5S144.762,99,142,99z M142,87c-2.764,0-5-2.238-5-5s2.236-5,5-5c2.762,0,5,2.238,5,5S144.762,87,142,87z M142,75
	c-2.764,0-5-2.238-5-5s2.236-5,5-5c2.762,0,5,2.238,5,5S144.762,75,142,75z M142,63c-2.764,0-5-2.238-5-5s2.236-5,5-5
	c2.762,0,5,2.238,5,5S144.762,63,142,63z M125.439,216c-0.273-0.611-0.434-1.284-0.434-2c0-2.762,2.238-5,5-5
	c0.347,0,0.682,0.044,1.007,0.114c-0.852,2.263-1.621,4.565-2.348,6.886H125.439z M122.344,296c0.412,0.721,0.656,1.548,0.656,2.439
	c0,2.762-2.238,5-5,5c-2.764,0-5-2.238-5-5c0-0.893,0.245-1.72,0.655-2.439H122.344z M130,447.439c-2.764,0-5-2.238-5-5
	c0-2.764,2.236-5,5-5c2.762,0,5,2.236,5,5C135,445.201,132.762,447.439,130,447.439z M135,454.439c0,2.762-2.238,5-5,5
	c-2.764,0-5-2.238-5-5c0-2.764,2.236-5,5-5C132.762,449.439,135,451.677,135,454.439z M130,435.439c-2.764,0-5-2.238-5-5
	c0-2.764,2.236-5,5-5c2.762,0,5,2.236,5,5C135,433.201,132.762,435.439,130,435.439z M130,423.439c-2.764,0-5-2.238-5-5
	c0-2.764,2.236-5,5-5c2.762,0,5,2.236,5,5C135,421.201,132.762,423.439,130,423.439z M130,411.439c-2.764,0-5-2.238-5-5
	c0-2.764,2.236-5,5-5c2.762,0,5,2.236,5,5C135,409.201,132.762,411.439,130,411.439z M130,399.439c-2.764,0-5-2.238-5-5
	c0-2.764,2.236-5,5-5c2.762,0,5,2.236,5,5C135,397.201,132.762,399.439,130,399.439z M130,387.439c-2.764,0-5-2.238-5-5
	c0-2.764,2.236-5,5-5c2.762,0,5,2.236,5,5C135,385.201,132.762,387.439,130,387.439z M130,375.439c-2.764,0-5-2.238-5-5
	c0-2.764,2.236-5,5-5c2.762,0,5,2.236,5,5C135,373.201,132.762,375.439,130,375.439z M130,363.439c-2.764,0-5-2.238-5-5
	c0-2.764,2.236-5,5-5c2.762,0,5,2.236,5,5C135,361.201,132.762,363.439,130,363.439z M130,351.439c-2.764,0-5-2.238-5-5
	c0-2.764,2.236-5,5-5c2.762,0,5,2.236,5,5C135,349.201,132.762,351.439,130,351.439z M130,339.439c-2.764,0-5-2.238-5-5
	c0-2.764,2.236-5,5-5c2.762,0,5,2.236,5,5C135,337.201,132.762,339.439,130,339.439z M118,435.439c-2.764,0-5-2.238-5-5
	c0-2.764,2.236-5,5-5c2.762,0,5,2.236,5,5C123,433.201,120.762,435.439,118,435.439z M123,442.439c0,2.762-2.238,5-5,5
	c-2.764,0-5-2.238-5-5c0-2.764,2.236-5,5-5C120.762,437.439,123,439.677,123,442.439z M118,423.439c-2.764,0-5-2.238-5-5
	c0-2.764,2.236-5,5-5c2.762,0,5,2.236,5,5C123,421.201,120.762,423.439,118,423.439z M118,411.439c-2.764,0-5-2.238-5-5
	c0-2.764,2.236-5,5-5c2.762,0,5,2.236,5,5C123,409.201,120.762,411.439,118,411.439z M118,399.439c-2.764,0-5-2.238-5-5
	c0-2.764,2.236-5,5-5c2.762,0,5,2.236,5,5C123,397.201,120.762,399.439,118,399.439z M118,387.439c-2.764,0-5-2.238-5-5
	c0-2.764,2.236-5,5-5c2.762,0,5,2.236,5,5C123,385.201,120.762,387.439,118,387.439z M118,375.439c-2.764,0-5-2.238-5-5
	c0-2.764,2.236-5,5-5c2.762,0,5,2.236,5,5C123,373.201,120.762,375.439,118,375.439z M118,363.439c-2.764,0-5-2.238-5-5
	c0-2.764,2.236-5,5-5c2.762,0,5,2.236,5,5C123,361.201,120.762,363.439,118,363.439z M118,351.439c-2.764,0-5-2.238-5-5
	c0-2.764,2.236-5,5-5c2.762,0,5,2.236,5,5C123,349.201,120.762,351.439,118,351.439z M118,339.439c-2.764,0-5-2.238-5-5
	c0-2.764,2.236-5,5-5c2.762,0,5,2.236,5,5C123,337.201,120.762,339.439,118,339.439z M118,327.439c-2.764,0-5-2.238-5-5
	c0-2.764,2.236-5,5-5c2.762,0,5,2.236,5,5C123,325.201,120.762,327.439,118,327.439z M118,315.439c-2.764,0-5-2.238-5-5
	c0-2.764,2.236-5,5-5c2.762,0,5,2.236,5,5C123,313.201,120.762,315.439,118,315.439z M110.345,296
	c0.412,0.721,0.656,1.548,0.656,2.439c0,2.762-2.238,5-5,5c-2.764,0-5-2.238-5-5c0-0.893,0.245-1.72,0.656-2.439H110.345z
	 M106,423.439c-2.764,0-5-2.238-5-5c0-2.764,2.236-5,5-5c2.762,0,5,2.236,5,5C111,421.201,108.762,423.439,106,423.439z
	 M111,430.439c0,2.762-2.238,5-5,5c-2.764,0-5-2.238-5-5c0-2.764,2.236-5,5-5C108.762,425.439,111,427.677,111,430.439z
	 M106,411.439c-2.764,0-5-2.238-5-5c0-2.764,2.236-5,5-5c2.762,0,5,2.236,5,5C111,409.201,108.762,411.439,106,411.439z
	 M106,399.439c-2.764,0-5-2.238-5-5c0-2.764,2.236-5,5-5c2.762,0,5,2.236,5,5C111,397.201,108.762,399.439,106,399.439z
	 M106,387.439c-2.764,0-5-2.238-5-5c0-2.764,2.236-5,5-5c2.762,0,5,2.236,5,5C111,385.201,108.762,387.439,106,387.439z
	 M106,375.439c-2.764,0-5-2.238-5-5c0-2.764,2.236-5,5-5c2.762,0,5,2.236,5,5C111,373.201,108.762,375.439,106,375.439z
	 M106,363.439c-2.764,0-5-2.238-5-5c0-2.764,2.236-5,5-5c2.762,0,5,2.236,5,5C111,361.201,108.762,363.439,106,363.439z
	 M106,351.439c-2.764,0-5-2.238-5-5c0-2.764,2.236-5,5-5c2.762,0,5,2.236,5,5C111,349.201,108.762,351.439,106,351.439z
	 M106,339.439c-2.764,0-5-2.238-5-5c0-2.764,2.236-5,5-5c2.762,0,5,2.236,5,5C111,337.201,108.762,339.439,106,339.439z
	 M106,327.439c-2.764,0-5-2.238-5-5c0-2.764,2.236-5,5-5c2.762,0,5,2.236,5,5C111,325.201,108.762,327.439,106,327.439z
	 M106,315.439c-2.764,0-5-2.238-5-5c0-2.764,2.236-5,5-5c2.762,0,5,2.236,5,5C111,313.201,108.762,315.439,106,315.439z M98.346,296
	c0.412,0.721,0.656,1.548,0.656,2.439c0,2.762-2.238,5-5,5s-5-2.238-5-5c0-0.893,0.245-1.72,0.656-2.439H98.346z M94,411.439
	c-2.764,0-5-2.238-5-5c0-2.764,2.236-5,5-5c2.762,0,5,2.236,5,5C99,409.201,96.762,411.439,94,411.439z M99,418.439
	c0,2.762-2.238,5-5,5c-2.764,0-5-2.238-5-5c0-2.764,2.236-5,5-5C96.762,413.439,99,415.677,99,418.439z M94,399.439
	c-2.764,0-5-2.238-5-5c0-2.764,2.236-5,5-5c2.762,0,5,2.236,5,5C99,397.201,96.762,399.439,94,399.439z M94,387.439
	c-2.764,0-5-2.238-5-5c0-2.764,2.236-5,5-5c2.762,0,5,2.236,5,5C99,385.201,96.762,387.439,94,387.439z M94,375.439
	c-2.764,0-5-2.238-5-5c0-2.764,2.236-5,5-5c2.762,0,5,2.236,5,5C99,373.201,96.762,375.439,94,375.439z M94,363.439
	c-2.764,0-5-2.238-5-5c0-2.764,2.236-5,5-5c2.762,0,5,2.236,5,5C99,361.201,96.762,363.439,94,363.439z M94,351.439
	c-2.764,0-5-2.238-5-5c0-2.764,2.236-5,5-5c2.762,0,5,2.236,5,5C99,349.201,96.762,351.439,94,351.439z M94,339.439
	c-2.764,0-5-2.238-5-5c0-2.764,2.236-5,5-5c2.762,0,5,2.236,5,5C99,337.201,96.762,339.439,94,339.439z M94,327.439
	c-2.764,0-5-2.238-5-5c0-2.764,2.236-5,5-5c2.762,0,5,2.236,5,5C99,325.201,96.762,327.439,94,327.439z M94,315.439
	c-2.764,0-5-2.238-5-5c0-2.764,2.236-5,5-5c2.762,0,5,2.236,5,5C99,313.201,96.762,315.439,94,315.439z M86.347,296
	c0.412,0.721,0.656,1.548,0.656,2.439c0,2.762-2.238,5-5,5s-5-2.238-5-5c0-0.893,0.245-1.72,0.656-2.439H86.347z M46.275,137.028
	C48.906,137.173,51,139.333,51,142c0,2.762-2.238,5-5,5c-1.657,0-3.109-0.819-4.017-2.062
	C43.367,142.278,44.79,139.637,46.275,137.028z M50.925,129.231C50.965,129.483,51,129.737,51,130c0,2.181-1.408,4.005-3.357,4.683
	C48.712,132.853,49.805,131.035,50.925,129.231z M61.112,114.124C62.256,115.036,63,116.422,63,118c0,2.762-2.238,5-5,5
	c-0.956,0-1.843-0.273-2.601-0.74C57.24,119.511,59.153,116.803,61.112,114.124z M71.266,101.185C73.413,101.743,75,103.678,75,106
	c0,2.762-2.238,5-5,5c-1.958,0-3.632-1.137-4.447-2.78C67.406,105.842,69.318,103.502,71.266,101.185z M82,195c-2.764,0-5-2.238-5-5
	s2.236-5,5-5c2.762,0,5,2.238,5,5S84.762,195,82,195z M87,202c0,2.762-2.238,5-5,5c-2.764,0-5-2.238-5-5s2.236-5,5-5
	C84.762,197,87,199.238,87,202z M82,183c-2.764,0-5-2.238-5-5s2.236-5,5-5c2.762,0,5,2.238,5,5S84.762,183,82,183z M82,171
	c-2.764,0-5-2.238-5-5s2.236-5,5-5c2.762,0,5,2.238,5,5S84.762,171,82,171z M82,159c-2.764,0-5-2.238-5-5s2.236-5,5-5
	c2.762,0,5,2.238,5,5S84.762,159,82,159z M82,147c-2.764,0-5-2.238-5-5s2.236-5,5-5c2.762,0,5,2.238,5,5S84.762,147,82,147z M82,135
	c-2.764,0-5-2.238-5-5s2.236-5,5-5c2.762,0,5,2.238,5,5C87,132.762,84.762,135,82,135z M82,123c-2.764,0-5-2.238-5-5s2.236-5,5-5
	c2.762,0,5,2.238,5,5S84.762,123,82,123z M82,111c-2.764,0-5-2.238-5-5s2.236-5,5-5c2.762,0,5,2.238,5,5S84.762,111,82,111z M58,137
	c2.762,0,5,2.238,5,5s-2.238,5-5,5c-2.764,0-5-2.238-5-5S55.238,137,58,137z M53,130c0-2.762,2.236-5,5-5c2.762,0,5,2.238,5,5
	c0,2.762-2.238,5-5,5C55.238,135,53,132.762,53,130z M58,149c2.762,0,5,2.238,5,5s-2.238,5-5,5c-2.764,0-5-2.238-5-5
	S55.238,149,58,149z M58,161c2.762,0,5,2.238,5,5s-2.238,5-5,5c-2.764,0-5-2.238-5-5S55.238,161,58,161z M58,173
	c2.762,0,5,2.238,5,5s-2.238,5-5,5c-2.764,0-5-2.238-5-5S55.238,173,58,173z M58,185c2.762,0,5,2.238,5,5s-2.238,5-5,5
	c-2.764,0-5-2.238-5-5S55.238,185,58,185z M58,197c2.762,0,5,2.238,5,5s-2.238,5-5,5c-2.764,0-5-2.238-5-5S55.238,197,58,197z
	 M70,195c-2.764,0-5-2.238-5-5s2.236-5,5-5c2.762,0,5,2.238,5,5S72.762,195,70,195z M75,202c0,2.762-2.238,5-5,5
	c-2.764,0-5-2.238-5-5s2.236-5,5-5C72.762,197,75,199.238,75,202z M70,183c-2.764,0-5-2.238-5-5s2.236-5,5-5c2.762,0,5,2.238,5,5
	S72.762,183,70,183z M70,171c-2.764,0-5-2.238-5-5s2.236-5,5-5c2.762,0,5,2.238,5,5S72.762,171,70,171z M70,159
	c-2.764,0-5-2.238-5-5s2.236-5,5-5c2.762,0,5,2.238,5,5S72.762,159,70,159z M70,147c-2.764,0-5-2.238-5-5s2.236-5,5-5
	c2.762,0,5,2.238,5,5S72.762,147,70,147z M70,135c-2.764,0-5-2.238-5-5s2.236-5,5-5c2.762,0,5,2.238,5,5
	C75,132.762,72.762,135,70,135z M70,123c-2.764,0-5-2.238-5-5s2.236-5,5-5c2.762,0,5,2.238,5,5S72.762,123,70,123z M58,375.439
	c-2.764,0-5-2.238-5-5c0-2.764,2.236-5,5-5c2.762,0,5,2.236,5,5C63,373.201,60.762,375.439,58,375.439z M63,382.439
	c0,2.762-2.238,5-5,5c-2.764,0-5-2.238-5-5c0-2.764,2.236-5,5-5C60.762,377.439,63,379.677,63,382.439z M58,363.439
	c-2.764,0-5-2.238-5-5c0-2.764,2.236-5,5-5c2.762,0,5,2.236,5,5C63,361.201,60.762,363.439,58,363.439z M58,351.439
	c-2.764,0-5-2.238-5-5c0-2.764,2.236-5,5-5c2.762,0,5,2.236,5,5C63,349.201,60.762,351.439,58,351.439z M58,339.439
	c-2.764,0-5-2.238-5-5c0-2.764,2.236-5,5-5c2.762,0,5,2.236,5,5C63,337.201,60.762,339.439,58,339.439z M58,327.439
	c-2.764,0-5-2.238-5-5c0-2.764,2.236-5,5-5c2.762,0,5,2.236,5,5C63,325.201,60.762,327.439,58,327.439z M58,315.439
	c-2.764,0-5-2.238-5-5c0-2.764,2.236-5,5-5c2.762,0,5,2.236,5,5C63,313.201,60.762,315.439,58,315.439z M51,298.439
	c0,2.762-2.238,5-5,5c-2.764,0-5-2.238-5-5c0-2.764,2.236-5,5-5c0.691,0,1.351,0.141,1.95,0.395
	c0.531,0.557,1.152,1.023,1.843,1.381C50.535,296.087,51,297.203,51,298.439z M46,351.439c-2.764,0-5-2.238-5-5c0-2.764,2.236-5,5-5
	c2.762,0,5,2.236,5,5C51,349.201,48.762,351.439,46,351.439z M51,358.439c0,2.762-2.238,5-5,5c-2.764,0-5-2.238-5-5
	c0-2.764,2.236-5,5-5C48.762,353.439,51,355.677,51,358.439z M46,339.439c-2.764,0-5-2.238-5-5c0-2.764,2.236-5,5-5
	c2.762,0,5,2.236,5,5C51,337.201,48.762,339.439,46,339.439z M46,327.439c-2.764,0-5-2.238-5-5c0-2.764,2.236-5,5-5
	c2.762,0,5,2.236,5,5C51,325.201,48.762,327.439,46,327.439z M46,315.439c-2.764,0-5-2.238-5-5c0-2.764,2.236-5,5-5
	c2.762,0,5,2.236,5,5C51,313.201,48.762,315.439,46,315.439z M46,223v8c-2.764,0-5-2.238-5-5s2.236-5,5-5
	c0.099,0,0.192,0.013,0.29,0.019C46.104,221.647,46,222.312,46,223z M46,233v10c-2.764,0-5-2.238-5-5S43.238,233,46,233z M46,245v10
	c-2.764,0-5-2.238-5-5S43.238,245,46,245z M46,257.439v10c-2.764,0-5-2.238-5-5C41,259.677,43.238,257.439,46,257.439z M46,269.439
	v10c-2.764,0-5-2.238-5-5C41,271.677,43.238,269.439,46,269.439z M46,281.439V289c0,0.848,0.159,1.657,0.437,2.41
	c-0.145,0.014-0.288,0.029-0.437,0.029c-2.764,0-5-2.238-5-5C41,283.677,43.238,281.439,46,281.439z M47.44,218.764
	C46.981,218.903,46.505,219,46,219c-2.764,0-5-2.238-5-5s2.236-5,5-5c2.762,0,5,2.238,5,5c0,0.936-0.273,1.802-0.722,2.55
	C49.149,217.029,48.176,217.801,47.44,218.764z M46,161c2.762,0,5,2.238,5,5s-2.238,5-5,5c-2.764,0-5-2.238-5-5S43.238,161,46,161z
	 M41,154c0-2.762,2.236-5,5-5c2.762,0,5,2.238,5,5s-2.238,5-5,5C43.238,159,41,156.762,41,154z M46,173c2.762,0,5,2.238,5,5
	s-2.238,5-5,5c-2.764,0-5-2.238-5-5S43.238,173,46,173z M46,185c2.762,0,5,2.238,5,5s-2.238,5-5,5c-2.764,0-5-2.238-5-5
	S43.238,185,46,185z M46,197c2.762,0,5,2.238,5,5s-2.238,5-5,5c-2.764,0-5-2.238-5-5S43.238,197,46,197z M27,286.439
	c0,2.762-2.238,5-5,5c-1.938,0-3.598-1.112-4.427-2.723l8.815-4.627C26.766,284.794,27,285.586,27,286.439z M34,185
	c2.762,0,5,2.238,5,5s-2.238,5-5,5c-2.764,0-5-2.238-5-5S31.238,185,34,185z M29,178c0-2.762,2.236-5,5-5c2.762,0,5,2.238,5,5
	s-2.238,5-5,5C31.238,183,29,180.762,29,178z M34,197c2.762,0,5,2.238,5,5s-2.238,5-5,5c-2.764,0-5-2.238-5-5S31.238,197,34,197z
	 M34,209c2.762,0,5,2.238,5,5s-2.238,5-5,5c-2.764,0-5-2.238-5-5S31.238,209,34,209z M34,221c2.762,0,5,2.238,5,5s-2.238,5-5,5
	c-2.764,0-5-2.238-5-5S31.238,221,34,221z M26.607,227.947l-8.79-4.675C18.709,221.906,20.246,221,22,221c2.762,0,5,2.238,5,5
	C27,226.691,26.86,227.349,26.607,227.947z M34,327.439c-2.764,0-5-2.238-5-5c0-2.764,2.236-5,5-5c2.762,0,5,2.236,5,5
	C39,325.201,36.762,327.439,34,327.439z M39,334.439c0,2.762-2.238,5-5,5c-2.764,0-5-2.238-5-5c0-2.764,2.236-5,5-5
	C36.762,329.439,39,331.677,39,334.439z M34,315.439c-2.764,0-5-2.238-5-5c0-2.764,2.236-5,5-5c2.762,0,5,2.236,5,5
	C39,313.201,36.762,315.439,34,315.439z M34,303.439c-2.764,0-5-2.238-5-5c0-2.764,2.236-5,5-5c2.762,0,5,2.236,5,5
	C39,301.201,36.762,303.439,34,303.439z M34,291.439c-2.764,0-5-2.238-5-5c0-2.764,2.236-5,5-5c2.762,0,5,2.236,5,5
	C39,289.201,36.762,291.439,34,291.439z M39,154c0,2.302-1.562,4.22-3.68,4.797c1.023-2.323,2.091-4.628,3.188-6.918
	C38.817,152.522,39,153.236,39,154z M34.362,161.037C36.951,161.225,39,163.362,39,166c0,2.762-2.238,5-5,5
	c-1.229,0-2.337-0.455-3.202-1.193C31.925,166.858,33.119,163.938,34.362,161.037z M27,190c0,2.496-1.834,4.547-4.226,4.922
	c0.76-2.923,1.562-5.833,2.432-8.72C26.295,187.115,27,188.467,27,190z M27,202c0,2.762-2.238,5-5,5
	c-0.694,0-1.35-0.153-1.949-0.409c0.665-3.207,1.378-6.4,2.171-9.569C24.879,197.141,27,199.314,27,202z M19.417,209.736
	C20.169,209.273,21.05,209,22,209c2.762,0,5,2.238,5,5s-2.238,5-5,5c-1.574,0-2.973-0.73-3.888-1.867
	C18.512,214.658,18.943,212.191,19.417,209.736z M18.172,295.241c0.915-1.099,2.285-1.802,3.828-1.802c2.762,0,5,2.236,5,5
	c0,2.762-2.238,5-5,5c-0.912,0-1.762-0.252-2.494-0.683C19.019,300.264,18.581,297.756,18.172,295.241z M27,310.439
	c0,2.647-2.064,4.793-4.668,4.967c-0.8-3.178-1.525-6.377-2.197-9.592c0.578-0.234,1.203-0.375,1.865-0.375
	C24.762,305.439,27,307.677,27,310.439z M22.89,317.529c2.336,0.421,4.11,2.451,4.11,4.91c0,1.485-0.663,2.803-1.696,3.713
	C24.441,323.298,23.647,320.419,22.89,317.529z M30.916,342.525c0.847-0.678,1.914-1.088,3.084-1.088c2.762,0,5,2.237,5,5
	c0,2.578-1.958,4.678-4.465,4.947C33.273,348.455,32.058,345.506,30.916,342.525z M35.537,353.723
	c2.004,0.646,3.463,2.496,3.463,4.717c0,0.678-0.149,1.312-0.395,1.898C37.553,358.146,36.522,355.943,35.537,353.723z
	 M42.113,367.33c0.914-1.146,2.308-1.891,3.888-1.891c2.762,0,5,2.237,5,5c0,2.588-1.975,4.69-4.494,4.949
	C44.987,372.729,43.528,370.041,42.113,367.33z M47.963,377.885c1.78,0.762,3.038,2.496,3.038,4.555c0,0.14-0.028,0.271-0.04,0.406
	C49.94,381.203,48.941,379.55,47.963,377.885z M55.611,390.066c0.71-0.394,1.52-0.627,2.39-0.627c2.762,0,5,2.236,5,5
	c0,1.487-0.665,2.805-1.7,3.717C59.347,395.492,57.447,392.798,55.611,390.066z M70,375.439c-2.764,0-5-2.238-5-5
	c0-2.764,2.236-5,5-5c2.762,0,5,2.236,5,5C75,373.201,72.762,375.439,70,375.439z M75,382.439c0,2.762-2.238,5-5,5
	c-2.764,0-5-2.238-5-5c0-2.764,2.236-5,5-5C72.762,377.439,75,379.677,75,382.439z M70,363.439c-2.764,0-5-2.238-5-5
	c0-2.764,2.236-5,5-5c2.762,0,5,2.236,5,5C75,361.201,72.762,363.439,70,363.439z M70,351.439c-2.764,0-5-2.238-5-5
	c0-2.764,2.236-5,5-5c2.762,0,5,2.236,5,5C75,349.201,72.762,351.439,70,351.439z M70,339.439c-2.764,0-5-2.238-5-5
	c0-2.764,2.236-5,5-5c2.762,0,5,2.236,5,5C75,337.201,72.762,339.439,70,339.439z M70,327.439c-2.764,0-5-2.238-5-5
	c0-2.764,2.236-5,5-5c2.762,0,5,2.236,5,5C75,325.201,72.762,327.439,70,327.439z M70,315.439c-2.764,0-5-2.238-5-5
	c0-2.764,2.236-5,5-5c2.762,0,5,2.236,5,5C75,313.201,72.762,315.439,70,315.439z M70,389.439c2.762,0,5,2.236,5,5
	c0,2.762-2.238,5-5,5c-2.764,0-5-2.238-5-5C65,391.677,67.238,389.439,70,389.439z M65.689,403.977
	c0.856-1.508,2.452-2.536,4.312-2.536c2.762,0,5,2.236,5,5c0,2.22-1.459,4.068-3.462,4.717
	C69.543,408.792,67.584,406.405,65.689,403.977z M82,399.439c-2.764,0-5-2.238-5-5c0-2.764,2.236-5,5-5c2.762,0,5,2.236,5,5
	C87,397.201,84.762,399.439,82,399.439z M87,406.439c0,2.762-2.238,5-5,5c-2.764,0-5-2.238-5-5c0-2.764,2.236-5,5-5
	C84.762,401.439,87,403.677,87,406.439z M82,387.439c-2.764,0-5-2.238-5-5c0-2.764,2.236-5,5-5c2.762,0,5,2.236,5,5
	C87,385.201,84.762,387.439,82,387.439z M82,375.439c-2.764,0-5-2.238-5-5c0-2.764,2.236-5,5-5c2.762,0,5,2.236,5,5
	C87,373.201,84.762,375.439,82,375.439z M82,363.439c-2.764,0-5-2.238-5-5c0-2.764,2.236-5,5-5c2.762,0,5,2.236,5,5
	C87,361.201,84.762,363.439,82,363.439z M82,351.439c-2.764,0-5-2.238-5-5c0-2.764,2.236-5,5-5c2.762,0,5,2.236,5,5
	C87,349.201,84.762,351.439,82,351.439z M82,339.439c-2.764,0-5-2.238-5-5c0-2.764,2.236-5,5-5c2.762,0,5,2.236,5,5
	C87,337.201,84.762,339.439,82,339.439z M82,327.439c-2.764,0-5-2.238-5-5c0-2.764,2.236-5,5-5c2.762,0,5,2.236,5,5
	C87,325.201,84.762,327.439,82,327.439z M82,315.439c-2.764,0-5-2.238-5-5c0-2.764,2.236-5,5-5c2.762,0,5,2.236,5,5
	C87,313.201,84.762,315.439,82,315.439z M74.348,296c0.412,0.721,0.656,1.548,0.656,2.439c0,2.762-2.238,5-5,5s-5-2.238-5-5
	c0-0.893,0.245-1.72,0.656-2.439H74.348z M62.349,296c0.412,0.721,0.656,1.548,0.656,2.439c0,2.762-2.238,5-5,5s-5-2.238-5-5
	c0-0.893,0.245-1.72,0.656-2.439H62.349z M53.431,216c-0.271-0.612-0.431-1.285-0.431-2c0-2.762,2.236-5,5-5c2.762,0,5,2.238,5,5
	c0,0.715-0.159,1.388-0.433,2H53.431z M65.432,216c-0.271-0.612-0.431-1.285-0.431-2c0-2.762,2.236-5,5-5c2.762,0,5,2.238,5,5
	c0,0.715-0.159,1.388-0.433,2H65.432z M77.433,216c-0.271-0.612-0.431-1.285-0.431-2c0-2.762,2.238-5,5-5s5,2.238,5,5
	c0,0.715-0.159,1.388-0.433,2H77.433z M94,101c2.762,0,5,2.238,5,5s-2.238,5-5,5c-2.764,0-5-2.238-5-5S91.238,101,94,101z M89,94
	c0-2.762,2.236-5,5-5c2.762,0,5,2.238,5,5s-2.238,5-5,5C91.238,99,89,96.762,89,94z M94,113c2.762,0,5,2.238,5,5s-2.238,5-5,5
	c-2.764,0-5-2.238-5-5S91.238,113,94,113z M94,125c2.762,0,5,2.238,5,5c0,2.762-2.238,5-5,5c-2.764,0-5-2.238-5-5S91.238,125,94,125
	z M94,137c2.762,0,5,2.238,5,5s-2.238,5-5,5c-2.764,0-5-2.238-5-5S91.238,137,94,137z M94,149c2.762,0,5,2.238,5,5s-2.238,5-5,5
	c-2.764,0-5-2.238-5-5S91.238,149,94,149z M94,161c2.762,0,5,2.238,5,5s-2.238,5-5,5c-2.764,0-5-2.238-5-5S91.238,161,94,161z
	 M94,173c2.762,0,5,2.238,5,5s-2.238,5-5,5c-2.764,0-5-2.238-5-5S91.238,173,94,173z M94,185c2.762,0,5,2.238,5,5s-2.238,5-5,5
	c-2.764,0-5-2.238-5-5S91.238,185,94,185z M94,197c2.762,0,5,2.238,5,5s-2.238,5-5,5c-2.764,0-5-2.238-5-5S91.238,197,94,197z
	 M89.434,216c-0.271-0.612-0.431-1.285-0.431-2c0-2.762,2.238-5,5-5s5,2.238,5,5c0,0.715-0.159,1.388-0.433,2H89.434z M106,89
	c2.762,0,5,2.238,5,5s-2.238,5-5,5c-2.764,0-5-2.238-5-5S103.238,89,106,89z M101,82c0-2.762,2.236-5,5-5c2.762,0,5,2.238,5,5
	s-2.238,5-5,5C103.238,87,101,84.762,101,82z M106,101c2.762,0,5,2.238,5,5s-2.238,5-5,5c-2.764,0-5-2.238-5-5S103.238,101,106,101z
	 M106,113c2.762,0,5,2.238,5,5s-2.238,5-5,5c-2.764,0-5-2.238-5-5S103.238,113,106,113z M106,125c2.762,0,5,2.238,5,5
	c0,2.762-2.238,5-5,5c-2.764,0-5-2.238-5-5S103.238,125,106,125z M106,137c2.762,0,5,2.238,5,5s-2.238,5-5,5c-2.764,0-5-2.238-5-5
	S103.238,137,106,137z M106,149c2.762,0,5,2.238,5,5s-2.238,5-5,5c-2.764,0-5-2.238-5-5S103.238,149,106,149z M106,161
	c2.762,0,5,2.238,5,5s-2.238,5-5,5c-2.764,0-5-2.238-5-5S103.238,161,106,161z M106,173c2.762,0,5,2.238,5,5s-2.238,5-5,5
	c-2.764,0-5-2.238-5-5S103.238,173,106,173z M106,185c2.762,0,5,2.238,5,5s-2.238,5-5,5c-2.764,0-5-2.238-5-5S103.238,185,106,185z
	 M106,197c2.762,0,5,2.238,5,5s-2.238,5-5,5c-2.764,0-5-2.238-5-5S103.238,197,106,197z M101.435,216
	c-0.271-0.612-0.431-1.285-0.431-2c0-2.762,2.238-5,5-5s5,2.238,5,5c0,0.715-0.159,1.388-0.433,2H101.435z M118,77
	c2.762,0,5,2.238,5,5s-2.238,5-5,5c-2.764,0-5-2.238-5-5S115.238,77,118,77z M113,70c0-2.762,2.236-5,5-5c2.762,0,5,2.238,5,5
	s-2.238,5-5,5C115.238,75,113,72.762,113,70z M118,89c2.762,0,5,2.238,5,5s-2.238,5-5,5c-2.764,0-5-2.238-5-5S115.238,89,118,89z
	 M118,101c2.762,0,5,2.238,5,5s-2.238,5-5,5c-2.764,0-5-2.238-5-5S115.238,101,118,101z M118,113c2.762,0,5,2.238,5,5s-2.238,5-5,5
	c-2.764,0-5-2.238-5-5S115.238,113,118,113z M118,125c2.762,0,5,2.238,5,5c0,2.762-2.238,5-5,5c-2.764,0-5-2.238-5-5
	S115.238,125,118,125z M118,137c2.762,0,5,2.238,5,5s-2.238,5-5,5c-2.764,0-5-2.238-5-5S115.238,137,118,137z M118,149
	c2.762,0,5,2.238,5,5s-2.238,5-5,5c-2.764,0-5-2.238-5-5S115.238,149,118,149z M118,161c2.762,0,5,2.238,5,5s-2.238,5-5,5
	c-2.764,0-5-2.238-5-5S115.238,161,118,161z M118,173c2.762,0,5,2.238,5,5s-2.238,5-5,5c-2.764,0-5-2.238-5-5S115.238,173,118,173z
	 M118,185c2.762,0,5,2.238,5,5s-2.238,5-5,5c-2.764,0-5-2.238-5-5S115.238,185,118,185z M118,197c2.762,0,5,2.238,5,5s-2.238,5-5,5
	c-2.764,0-5-2.238-5-5S115.238,197,118,197z M113.437,216c-0.271-0.612-0.432-1.285-0.432-2c0-2.762,2.238-5,5-5s5,2.238,5,5
	c0,0.715-0.159,1.388-0.433,2H113.437z M130,207c-2.764,0-5-2.238-5-5s2.236-5,5-5c2.165,0,3.991,1.384,4.686,3.309
	c-0.952,2.065-1.854,4.158-2.702,6.278C131.375,206.851,130.706,207,130,207z M130,195c-2.764,0-5-2.238-5-5s2.236-5,5-5
	c2.762,0,5,2.238,5,5S132.762,195,130,195z M130,183c-2.764,0-5-2.238-5-5s2.236-5,5-5c2.762,0,5,2.238,5,5S132.762,183,130,183z
	 M130,171c-2.764,0-5-2.238-5-5s2.236-5,5-5c2.762,0,5,2.238,5,5S132.762,171,130,171z M130,159c-2.764,0-5-2.238-5-5s2.236-5,5-5
	c2.762,0,5,2.238,5,5S132.762,159,130,159z M130,147c-2.764,0-5-2.238-5-5s2.236-5,5-5c2.762,0,5,2.238,5,5S132.762,147,130,147z
	 M130,135c-2.764,0-5-2.238-5-5s2.236-5,5-5c2.762,0,5,2.238,5,5C135,132.762,132.762,135,130,135z M130,123c-2.764,0-5-2.238-5-5
	s2.236-5,5-5c2.762,0,5,2.238,5,5S132.762,123,130,123z M130,111c-2.764,0-5-2.238-5-5s2.236-5,5-5c2.762,0,5,2.238,5,5
	S132.762,111,130,111z M130,99c-2.764,0-5-2.238-5-5s2.236-5,5-5c2.762,0,5,2.238,5,5S132.762,99,130,99z M130,87
	c-2.764,0-5-2.238-5-5s2.236-5,5-5c2.762,0,5,2.238,5,5S132.762,87,130,87z M130,75c-2.764,0-5-2.238-5-5s2.236-5,5-5
	c2.762,0,5,2.238,5,5S132.762,75,130,75z M130,63c-2.764,0-5-2.238-5-5s2.236-5,5-5c2.762,0,5,2.238,5,5S132.762,63,130,63z
	 M134.684,47.639C134.008,49.59,132.183,51,130,51c-0.271,0-0.531-0.036-0.789-0.078C131.021,49.8,132.848,48.711,134.684,47.639z
	 M87,94c0,2.762-2.238,5-5,5c-2.582,0-4.681-1.962-4.947-4.473c1.682-1.859,3.402-3.692,5.147-5.507C84.867,89.127,87,91.307,87,94z
	 M77.092,417.533c0.427-2.328,2.457-4.094,4.909-4.094c2.762,0,5,2.236,5,5c0,2.563-1.938,4.652-4.425,4.941
	C80.715,421.455,78.88,419.511,77.092,417.533z M89.058,429.865c0.288-2.488,2.376-4.426,4.942-4.426c2.762,0,5,2.236,5,5
	c0,2.432-1.737,4.453-4.038,4.902C92.971,433.55,90.998,431.73,89.058,429.865z M101.298,440.856
	c0.661-1.979,2.499-3.417,4.703-3.417c2.762,0,5,2.236,5,5c0,1.828-0.997,3.402-2.465,4.27
	C106.089,444.811,103.679,442.855,101.298,440.856z M114.346,451.064c0.908-0.993,2.201-1.625,3.654-1.625c2.762,0,5,2.236,5,5
	c0,0.821-0.215,1.588-0.568,2.27C119.702,454.887,117.007,453.004,114.346,451.064z M129.82,461.458
	c0.062-0.002,0.119-0.018,0.182-0.018c1.969,0,3.649,1.146,4.458,2.802C132.903,463.331,131.356,462.405,129.82,461.458z
	 M130,327.439c-2.764,0-5-2.238-5-5c0-2.764,2.236-5,5-5c2.762,0,5,2.236,5,5C135,325.201,132.762,327.439,130,327.439z
	 M129.999,315.439c-2.763,0-4.999-2.238-4.999-5c0-2.764,2.236-5,5-5c0.706,0,1.375,0.146,1.981,0.412
	c0.851,2.121,1.751,4.213,2.703,6.277C133.991,314.055,132.165,315.439,129.999,315.439z M131.007,303.325
	c-0.325,0.069-0.66,0.114-1.007,0.114c-2.764,0-5-2.238-5-5c0-0.893,0.245-1.719,0.655-2.439h2.859
	C129.284,298.47,130.101,300.918,131.007,303.325z M53,292c-1.654,0-3-1.346-3-3v-66c0-1.654,1.346-3,3-3h406c1.653,0,3,1.346,3,3
	v66c0,1.654-1.347,3-3,3H53z M370,183c-1.089,0-2.088-0.356-2.906-0.945c-0.626-0.938-1.265-1.867-1.912-2.788
	C365.073,178.86,365,178.44,365,178c0-2.762,2.236-5,5-5c2.762,0,5,2.238,5,5S372.762,183,370,183z M375,190
	c0,1.238-0.464,2.358-1.211,3.228c-1.48-2.771-3.061-5.482-4.728-8.132c0.303-0.06,0.614-0.096,0.938-0.096
	C372.762,185,375,187.238,375,190z M358,159c-2.764,0-5-2.238-5-5s2.236-5,5-5c2.762,0,5,2.238,5,5S360.762,159,358,159z M363,166
	c0,2.488-1.822,4.535-4.201,4.919c-1.793-2.162-3.656-4.264-5.579-6.309c0.604-2.081,2.504-3.611,4.78-3.611
	C360.762,161,363,163.238,363,166z M346,147c-2.764,0-5-2.238-5-5s2.236-5,5-5c2.762,0,5,2.238,5,5S348.762,147,346,147z M351,154
	c0,2.276-1.53,4.175-3.611,4.78c-2.044-1.923-4.146-3.786-6.311-5.579c0.387-2.379,2.434-4.201,4.922-4.201
	C348.762,149,351,151.238,351,154z M334,135c-2.764,0-5-2.238-5-5s2.236-5,5-5c2.762,0,5,2.238,5,5C339,132.762,336.762,135,334,135
	z M339,142c0,2.762-2.238,5-5,5c-0.44,0-0.859-0.075-1.269-0.182c-0.921-0.649-1.851-1.286-2.788-1.912
	c-0.59-0.82-0.943-1.819-0.943-2.906c0-2.762,2.236-5,5-5C336.762,137,339,139.238,339,142z M334,123c-2.764,0-5-2.238-5-5
	s2.236-5,5-5c2.762,0,5,2.238,5,5S336.762,123,334,123z M334,111c-2.764,0-5-2.238-5-5s2.236-5,5-5c2.762,0,5,2.238,5,5
	S336.762,111,334,111z M334,99c-2.764,0-5-2.238-5-5s2.236-5,5-5c2.762,0,5,2.238,5,5S336.762,99,334,99z M334,87
	c-2.764,0-5-2.238-5-5s2.236-5,5-5c2.762,0,5,2.238,5,5S336.762,87,334,87z M334,75c-2.764,0-5-2.238-5-5s2.236-5,5-5
	c2.762,0,5,2.238,5,5S336.762,75,334,75z M334,63c-2.764,0-5-2.238-5-5s2.236-5,5-5c2.762,0,5,2.238,5,5S336.762,63,334,63z M334,51
	c-2.764,0-5-2.238-5-5s2.236-5,5-5c2.762,0,5,2.238,5,5S336.762,51,334,51z M334,39c-2.764,0-5-2.238-5-5s2.236-5,5-5
	c2.762,0,5,2.238,5,5S336.762,39,334,39z M322,135c-2.764,0-5-2.238-5-5s2.236-5,5-5c2.762,0,5,2.238,5,5
	C327,132.762,324.762,135,322,135z M327,142c0,0.322-0.036,0.634-0.098,0.937c-2.648-1.668-5.359-3.246-8.132-4.728
	C319.64,137.462,320.76,137,322,137C324.762,137,327,139.238,327,142z M303,22c0,2.762-2.238,5-5,5c-2.764,0-5-2.238-5-5
	c0-1.58,0.733-2.984,1.88-3.898c2.472,0.398,4.932,0.84,7.383,1.314C302.727,20.168,303,21.049,303,22z M298,123
	c-2.764,0-5-2.238-5-5s2.236-5,5-5c2.762,0,5,2.238,5,5S300.762,123,298,123z M303,130c0,0.347-0.045,0.682-0.113,1.007
	c-3.079-1.159-6.211-2.207-9.393-3.139c0.802-1.69,2.51-2.868,4.506-2.868C300.762,125,303,127.238,303,130z M286,123
	c-2.764,0-5-2.238-5-5s2.236-5,5-5c2.762,0,5,2.238,5,5S288.762,123,286,123z M289.846,126.852
	c-1.948-0.511-3.915-0.976-5.896-1.399c0.625-0.287,1.315-0.452,2.052-0.452C287.562,125,288.935,125.729,289.846,126.852z M286,111
	c-2.764,0-5-2.238-5-5s2.236-5,5-5c2.762,0,5,2.238,5,5S288.762,111,286,111z M286,99c-2.764,0-5-2.238-5-5s2.236-5,5-5
	c2.762,0,5,2.238,5,5S288.762,99,286,99z M286,87c-2.764,0-5-2.238-5-5s2.236-5,5-5c2.762,0,5,2.238,5,5S288.762,87,286,87z M286,75
	c-2.764,0-5-2.238-5-5s2.236-5,5-5c2.762,0,5,2.238,5,5S288.762,75,286,75z M286,63c-2.764,0-5-2.238-5-5s2.236-5,5-5
	c2.762,0,5,2.238,5,5S288.762,63,286,63z M286,51c-2.764,0-5-2.238-5-5s2.236-5,5-5c2.762,0,5,2.238,5,5S288.762,51,286,51z M286,39
	c-2.764,0-5-2.238-5-5s2.236-5,5-5c2.762,0,5,2.238,5,5S288.762,39,286,39z M286,27c-2.764,0-5-2.238-5-5s2.236-5,5-5
	c2.762,0,5,2.238,5,5S288.762,27,286,27z M298,111c-2.764,0-5-2.238-5-5s2.236-5,5-5c2.762,0,5,2.238,5,5S300.762,111,298,111z
	 M298,99c-2.764,0-5-2.238-5-5s2.236-5,5-5c2.762,0,5,2.238,5,5S300.762,99,298,99z M298,87c-2.764,0-5-2.238-5-5s2.236-5,5-5
	c2.762,0,5,2.238,5,5S300.762,87,298,87z M298,75c-2.764,0-5-2.238-5-5s2.236-5,5-5c2.762,0,5,2.238,5,5S300.762,75,298,75z M298,63
	c-2.764,0-5-2.238-5-5s2.236-5,5-5c2.762,0,5,2.238,5,5S300.762,63,298,63z M298,51c-2.764,0-5-2.238-5-5s2.236-5,5-5
	c2.762,0,5,2.238,5,5S300.762,51,298,51z M298,39c-2.764,0-5-2.238-5-5s2.236-5,5-5c2.762,0,5,2.238,5,5S300.762,39,298,39z
	 M310,123c-2.764,0-5-2.238-5-5s2.236-5,5-5c2.762,0,5,2.238,5,5S312.762,123,310,123z M315,130c0,2.165-1.386,3.991-3.311,4.686
	c-2.063-0.952-4.158-1.854-6.276-2.702C305.149,131.375,305,130.706,305,130c0-2.762,2.236-5,5-5C312.762,125,315,127.238,315,130z
	 M310,111c-2.764,0-5-2.238-5-5s2.236-5,5-5c2.762,0,5,2.238,5,5S312.762,111,310,111z M310,99c-2.764,0-5-2.238-5-5s2.236-5,5-5
	c2.762,0,5,2.238,5,5S312.762,99,310,99z M310,87c-2.764,0-5-2.238-5-5s2.236-5,5-5c2.762,0,5,2.238,5,5S312.762,87,310,87z M310,75
	c-2.764,0-5-2.238-5-5s2.236-5,5-5c2.762,0,5,2.238,5,5S312.762,75,310,75z M310,63c-2.764,0-5-2.238-5-5s2.236-5,5-5
	c2.762,0,5,2.238,5,5S312.762,63,310,63z M310,51c-2.764,0-5-2.238-5-5s2.236-5,5-5c2.762,0,5,2.238,5,5S312.762,51,310,51z M310,39
	c-2.764,0-5-2.238-5-5s2.236-5,5-5c2.762,0,5,2.238,5,5S312.762,39,310,39z M310,27c-2.764,0-5-2.238-5-5
	c0-0.7,0.153-1.36,0.414-1.964c3.206,0.664,6.395,1.396,9.562,2.189C314.858,24.88,312.685,27,310,27z M322,123
	c-2.764,0-5-2.238-5-5s2.236-5,5-5c2.762,0,5,2.238,5,5S324.762,123,322,123z M322,111c-2.764,0-5-2.238-5-5s2.236-5,5-5
	c2.762,0,5,2.238,5,5S324.762,111,322,111z M322,99c-2.764,0-5-2.238-5-5s2.236-5,5-5c2.762,0,5,2.238,5,5S324.762,99,322,99z
	 M322,87c-2.764,0-5-2.238-5-5s2.236-5,5-5c2.762,0,5,2.238,5,5S324.762,87,322,87z M322,75c-2.764,0-5-2.238-5-5s2.236-5,5-5
	c2.762,0,5,2.238,5,5S324.762,75,322,75z M322,63c-2.764,0-5-2.238-5-5s2.236-5,5-5c2.762,0,5,2.238,5,5S324.762,63,322,63z M322,51
	c-2.764,0-5-2.238-5-5s2.236-5,5-5c2.762,0,5,2.238,5,5S324.762,51,322,51z M322,39c-2.764,0-5-2.238-5-5s2.236-5,5-5
	c2.762,0,5,2.238,5,5S324.762,39,322,39z M322,27c-2.5,0-4.554-1.838-4.924-4.234c2.926,0.76,5.835,1.566,8.725,2.435
	C324.889,26.293,323.534,27,322,27z M346,135c-2.764,0-5-2.238-5-5s2.236-5,5-5c2.762,0,5,2.238,5,5
	C351,132.762,348.762,135,346,135z M346,123c-2.764,0-5-2.238-5-5s2.236-5,5-5c2.762,0,5,2.238,5,5S348.762,123,346,123z M346,111
	c-2.764,0-5-2.238-5-5s2.236-5,5-5c2.762,0,5,2.238,5,5S348.762,111,346,111z M346,99c-2.764,0-5-2.238-5-5s2.236-5,5-5
	c2.762,0,5,2.238,5,5S348.762,99,346,99z M346,87c-2.764,0-5-2.238-5-5s2.236-5,5-5c2.762,0,5,2.238,5,5S348.762,87,346,87z M346,75
	c-2.764,0-5-2.238-5-5s2.236-5,5-5c2.762,0,5,2.238,5,5S348.762,75,346,75z M346,63c-2.764,0-5-2.238-5-5s2.236-5,5-5
	c2.762,0,5,2.238,5,5S348.762,63,346,63z M346,51c-2.764,0-5-2.238-5-5s2.236-5,5-5c2.762,0,5,2.238,5,5S348.762,51,346,51z M346,39
	c-2.764,0-5-2.238-5-5c0-1.228,0.454-2.336,1.191-3.202c2.948,1.126,5.873,2.308,8.772,3.549C350.782,36.944,348.643,39,346,39z
	 M358,147c-2.764,0-5-2.238-5-5s2.236-5,5-5c2.762,0,5,2.238,5,5S360.762,147,358,147z M358,135c-2.764,0-5-2.238-5-5s2.236-5,5-5
	c2.762,0,5,2.238,5,5C363,132.762,360.762,135,358,135z M358,123c-2.764,0-5-2.238-5-5s2.236-5,5-5c2.762,0,5,2.238,5,5
	S360.762,123,358,123z M358,111c-2.764,0-5-2.238-5-5s2.236-5,5-5c2.762,0,5,2.238,5,5S360.762,111,358,111z M358,99
	c-2.764,0-5-2.238-5-5s2.236-5,5-5c2.762,0,5,2.238,5,5S360.762,99,358,99z M358,87c-2.764,0-5-2.238-5-5s2.236-5,5-5
	c2.762,0,5,2.238,5,5S360.762,87,358,87z M358,75c-2.764,0-5-2.238-5-5s2.236-5,5-5c2.762,0,5,2.238,5,5S360.762,75,358,75z M358,63
	c-2.764,0-5-2.238-5-5s2.236-5,5-5c2.762,0,5,2.238,5,5S360.762,63,358,63z M358,51c-2.764,0-5-2.238-5-5s2.236-5,5-5
	c2.762,0,5,2.238,5,5S360.762,51,358,51z M358,39c-2.305,0-4.224-1.562-4.801-3.682c2.327,1.025,4.64,2.087,6.934,3.187
	C359.487,38.815,358.768,39,358,39z M370,171c-2.764,0-5-2.238-5-5s2.236-5,5-5c2.762,0,5,2.238,5,5S372.762,171,370,171z M370,159
	c-2.764,0-5-2.238-5-5s2.236-5,5-5c2.762,0,5,2.238,5,5S372.762,159,370,159z M370,147c-2.764,0-5-2.238-5-5s2.236-5,5-5
	c2.762,0,5,2.238,5,5S372.762,147,370,147z M370,135c-2.764,0-5-2.238-5-5s2.236-5,5-5c2.762,0,5,2.238,5,5
	C375,132.762,372.762,135,370,135z M370,123c-2.764,0-5-2.238-5-5s2.236-5,5-5c2.762,0,5,2.238,5,5S372.762,123,370,123z M370,111
	c-2.764,0-5-2.238-5-5s2.236-5,5-5c2.762,0,5,2.238,5,5S372.762,111,370,111z M370,99c-2.764,0-5-2.238-5-5s2.236-5,5-5
	c2.762,0,5,2.238,5,5S372.762,99,370,99z M370,87c-2.764,0-5-2.238-5-5s2.236-5,5-5c2.762,0,5,2.238,5,5S372.762,87,370,87z M370,75
	c-2.764,0-5-2.238-5-5s2.236-5,5-5c2.762,0,5,2.238,5,5S372.762,75,370,75z M370,63c-2.764,0-5-2.238-5-5s2.236-5,5-5
	c2.762,0,5,2.238,5,5S372.762,63,370,63z M370,51c-2.764,0-5-2.238-5-5c0-1.664,0.823-3.121,2.075-4.026
	c2.658,1.382,5.289,2.818,7.896,4.301C374.826,48.907,372.668,51,370,51z M465.502,375.391c-2.525-0.254-4.502-2.359-4.502-4.951
	c0-2.763,2.236-5,5-5c1.582,0,2.979,0.748,3.892,1.897C468.479,370.046,467.021,372.732,465.502,375.391z M461.04,382.859
	c-0.012-0.142-0.04-0.276-0.04-0.42c0-2.063,1.263-3.803,3.05-4.56C463.068,379.551,462.065,381.211,461.04,382.859z
	 M450.706,398.162c-1.038-0.911-1.706-2.23-1.706-3.723c0-2.764,2.236-5,5-5c0.872,0,1.686,0.234,2.396,0.631
	C454.562,392.803,452.659,395.498,450.706,398.162z M440.473,411.16c-2.01-0.646-3.473-2.497-3.473-4.721c0-2.764,2.236-5,5-5
	c1.862,0,3.462,1.032,4.316,2.547C444.424,406.413,442.466,408.798,440.473,411.16z M423,298.439c0,2.762-2.238,5-5,5
	c-2.764,0-5-2.238-5-5c0-0.893,0.243-1.72,0.654-2.439h8.688C422.756,296.721,423,297.548,423,298.439z M411,298.439
	c0,2.762-2.238,5-5,5c-2.764,0-5-2.238-5-5c0-0.893,0.243-1.72,0.654-2.439h8.688C410.756,296.721,411,297.548,411,298.439z
	 M399,298.439c0,2.762-2.238,5-5,5c-2.764,0-5-2.238-5-5c0-0.893,0.243-1.72,0.654-2.439h8.688
	C398.756,296.721,399,297.548,399,298.439z M394,435.439c-2.764,0-5-2.238-5-5c0-2.764,2.236-5,5-5c2.762,0,5,2.236,5,5
	C399,433.201,396.762,435.439,394,435.439z M399,442.439c0,2.762-2.238,5-5,5c-2.764,0-5-2.238-5-5c0-2.764,2.236-5,5-5
	C396.762,437.439,399,439.677,399,442.439z M394,423.439c-2.764,0-5-2.238-5-5c0-2.764,2.236-5,5-5c2.762,0,5,2.236,5,5
	C399,421.201,396.762,423.439,394,423.439z M394,411.439c-2.764,0-5-2.238-5-5c0-2.764,2.236-5,5-5c2.762,0,5,2.236,5,5
	C399,409.201,396.762,411.439,394,411.439z M394,399.439c-2.764,0-5-2.238-5-5c0-2.764,2.236-5,5-5c2.762,0,5,2.236,5,5
	C399,397.201,396.762,399.439,394,399.439z M394,387.439c-2.764,0-5-2.238-5-5c0-2.764,2.236-5,5-5c2.762,0,5,2.236,5,5
	C399,385.201,396.762,387.439,394,387.439z M394,375.439c-2.764,0-5-2.238-5-5c0-2.764,2.236-5,5-5c2.762,0,5,2.236,5,5
	C399,373.201,396.762,375.439,394,375.439z M394,363.439c-2.764,0-5-2.238-5-5c0-2.764,2.236-5,5-5c2.762,0,5,2.236,5,5
	C399,361.201,396.762,363.439,394,363.439z M394,351.439c-2.764,0-5-2.238-5-5c0-2.764,2.236-5,5-5c2.762,0,5,2.236,5,5
	C399,349.201,396.762,351.439,394,351.439z M394,339.439c-2.764,0-5-2.238-5-5c0-2.764,2.236-5,5-5c2.762,0,5,2.236,5,5
	C399,337.201,396.762,339.439,394,339.439z M394,327.439c-2.764,0-5-2.238-5-5c0-2.764,2.236-5,5-5c2.762,0,5,2.236,5,5
	C399,325.201,396.762,327.439,394,327.439z M394,315.439c-2.764,0-5-2.238-5-5c0-2.764,2.236-5,5-5c2.762,0,5,2.236,5,5
	C399,313.201,396.762,315.439,394,315.439z M406,423.439c-2.764,0-5-2.238-5-5c0-2.764,2.236-5,5-5c2.762,0,5,2.236,5,5
	C411,421.201,408.762,423.439,406,423.439z M411,430.439c0,2.762-2.238,5-5,5c-2.764,0-5-2.238-5-5c0-2.764,2.236-5,5-5
	C408.762,425.439,411,427.677,411,430.439z M406,411.439c-2.764,0-5-2.238-5-5c0-2.764,2.236-5,5-5c2.762,0,5,2.236,5,5
	C411,409.201,408.762,411.439,406,411.439z M406,399.439c-2.764,0-5-2.238-5-5c0-2.764,2.236-5,5-5c2.762,0,5,2.236,5,5
	C411,397.201,408.762,399.439,406,399.439z M406,387.439c-2.764,0-5-2.238-5-5c0-2.764,2.236-5,5-5c2.762,0,5,2.236,5,5
	C411,385.201,408.762,387.439,406,387.439z M406,375.439c-2.764,0-5-2.238-5-5c0-2.764,2.236-5,5-5c2.762,0,5,2.236,5,5
	C411,373.201,408.762,375.439,406,375.439z M406,363.439c-2.764,0-5-2.238-5-5c0-2.764,2.236-5,5-5c2.762,0,5,2.236,5,5
	C411,361.201,408.762,363.439,406,363.439z M406,351.439c-2.764,0-5-2.238-5-5c0-2.764,2.236-5,5-5c2.762,0,5,2.236,5,5
	C411,349.201,408.762,351.439,406,351.439z M406,339.439c-2.764,0-5-2.238-5-5c0-2.764,2.236-5,5-5c2.762,0,5,2.236,5,5
	C411,337.201,408.762,339.439,406,339.439z M406,327.439c-2.764,0-5-2.238-5-5c0-2.764,2.236-5,5-5c2.762,0,5,2.236,5,5
	C411,325.201,408.762,327.439,406,327.439z M406,315.439c-2.764,0-5-2.238-5-5c0-2.764,2.236-5,5-5c2.762,0,5,2.236,5,5
	C411,313.201,408.762,315.439,406,315.439z M418,411.439c-2.764,0-5-2.238-5-5c0-2.764,2.236-5,5-5c2.762,0,5,2.236,5,5
	C423,409.201,420.762,411.439,418,411.439z M423,418.439c0,2.762-2.238,5-5,5c-2.764,0-5-2.238-5-5c0-2.764,2.236-5,5-5
	C420.762,413.439,423,415.677,423,418.439z M418,399.439c-2.764,0-5-2.238-5-5c0-2.764,2.236-5,5-5c2.762,0,5,2.236,5,5
	C423,397.201,420.762,399.439,418,399.439z M418,387.439c-2.764,0-5-2.238-5-5c0-2.764,2.236-5,5-5c2.762,0,5,2.236,5,5
	C423,385.201,420.762,387.439,418,387.439z M418,375.439c-2.764,0-5-2.238-5-5c0-2.764,2.236-5,5-5c2.762,0,5,2.236,5,5
	C423,373.201,420.762,375.439,418,375.439z M418,363.439c-2.764,0-5-2.238-5-5c0-2.764,2.236-5,5-5c2.762,0,5,2.236,5,5
	C423,361.201,420.762,363.439,418,363.439z M418,351.439c-2.764,0-5-2.238-5-5c0-2.764,2.236-5,5-5c2.762,0,5,2.236,5,5
	C423,349.201,420.762,351.439,418,351.439z M418,339.439c-2.764,0-5-2.238-5-5c0-2.764,2.236-5,5-5c2.762,0,5,2.236,5,5
	C423,337.201,420.762,339.439,418,339.439z M418,327.439c-2.764,0-5-2.238-5-5c0-2.764,2.236-5,5-5c2.762,0,5,2.236,5,5
	C423,325.201,420.762,327.439,418,327.439z M418,315.439c-2.764,0-5-2.238-5-5c0-2.764,2.236-5,5-5c2.762,0,5,2.236,5,5
	C423,313.201,420.762,315.439,418,315.439z M434.344,296c0.412,0.721,0.656,1.548,0.656,2.439c0,2.762-2.238,5-5,5
	c-2.764,0-5-2.238-5-5c0-0.893,0.243-1.72,0.654-2.439H434.344z M389.438,216c-0.272-0.612-0.432-1.285-0.432-2c0-2.762,2.236-5,5-5
	c2.762,0,5,2.238,5,5c0,0.715-0.159,1.388-0.433,2H389.438z M394,77c2.762,0,5,2.238,5,5s-2.238,5-5,5c-2.764,0-5-2.238-5-5
	S391.238,77,394,77z M389,70c0-2.762,2.236-5,5-5c2.762,0,5,2.238,5,5s-2.238,5-5,5C391.238,75,389,72.762,389,70z M394,89
	c2.762,0,5,2.238,5,5s-2.238,5-5,5c-2.764,0-5-2.238-5-5S391.238,89,394,89z M394,101c2.762,0,5,2.238,5,5s-2.238,5-5,5
	c-2.764,0-5-2.238-5-5S391.238,101,394,101z M394,113c2.762,0,5,2.238,5,5s-2.238,5-5,5c-2.764,0-5-2.238-5-5S391.238,113,394,113z
	 M394,125c2.762,0,5,2.238,5,5c0,2.762-2.238,5-5,5c-2.764,0-5-2.238-5-5S391.238,125,394,125z M394,137c2.762,0,5,2.238,5,5
	s-2.238,5-5,5c-2.764,0-5-2.238-5-5S391.238,137,394,137z M394,149c2.762,0,5,2.238,5,5s-2.238,5-5,5c-2.764,0-5-2.238-5-5
	S391.238,149,394,149z M394,161c2.762,0,5,2.238,5,5s-2.238,5-5,5c-2.764,0-5-2.238-5-5S391.238,161,394,161z M394,173
	c2.762,0,5,2.238,5,5s-2.238,5-5,5c-2.764,0-5-2.238-5-5S391.238,173,394,173z M394,185c2.762,0,5,2.238,5,5s-2.238,5-5,5
	c-2.764,0-5-2.238-5-5S391.238,185,394,185z M394,197c2.762,0,5,2.238,5,5s-2.238,5-5,5c-2.764,0-5-2.238-5-5S391.238,197,394,197z
	 M406,89c2.762,0,5,2.238,5,5s-2.238,5-5,5c-2.764,0-5-2.238-5-5S403.238,89,406,89z M401,82c0-2.762,2.236-5,5-5
	c2.762,0,5,2.238,5,5s-2.238,5-5,5C403.238,87,401,84.762,401,82z M406,101c2.762,0,5,2.238,5,5s-2.238,5-5,5c-2.764,0-5-2.238-5-5
	S403.238,101,406,101z M406,113c2.762,0,5,2.238,5,5s-2.238,5-5,5c-2.764,0-5-2.238-5-5S403.238,113,406,113z M406,125
	c2.762,0,5,2.238,5,5c0,2.762-2.238,5-5,5c-2.764,0-5-2.238-5-5S403.238,125,406,125z M406,137c2.762,0,5,2.238,5,5s-2.238,5-5,5
	c-2.764,0-5-2.238-5-5S403.238,137,406,137z M406,149c2.762,0,5,2.238,5,5s-2.238,5-5,5c-2.764,0-5-2.238-5-5S403.238,149,406,149z
	 M406,161c2.762,0,5,2.238,5,5s-2.238,5-5,5c-2.764,0-5-2.238-5-5S403.238,161,406,161z M406,173c2.762,0,5,2.238,5,5s-2.238,5-5,5
	c-2.764,0-5-2.238-5-5S403.238,173,406,173z M406,185c2.762,0,5,2.238,5,5s-2.238,5-5,5c-2.764,0-5-2.238-5-5S403.238,185,406,185z
	 M406,197c2.762,0,5,2.238,5,5s-2.238,5-5,5c-2.764,0-5-2.238-5-5S403.238,197,406,197z M401.439,216
	c-0.272-0.612-0.432-1.285-0.432-2c0-2.762,2.236-5,5-5c2.762,0,5,2.238,5,5c0,0.715-0.159,1.388-0.433,2H401.439z M418,101
	c2.762,0,5,2.238,5,5s-2.238,5-5,5c-2.764,0-5-2.238-5-5S415.238,101,418,101z M413,94c0-2.762,2.236-5,5-5c2.762,0,5,2.238,5,5
	s-2.238,5-5,5C415.238,99,413,96.762,413,94z M418,113c2.762,0,5,2.238,5,5s-2.238,5-5,5c-2.764,0-5-2.238-5-5S415.238,113,418,113z
	 M418,125c2.762,0,5,2.238,5,5c0,2.762-2.238,5-5,5c-2.764,0-5-2.238-5-5S415.238,125,418,125z M418,137c2.762,0,5,2.238,5,5
	s-2.238,5-5,5c-2.764,0-5-2.238-5-5S415.238,137,418,137z M418,149c2.762,0,5,2.238,5,5s-2.238,5-5,5c-2.764,0-5-2.238-5-5
	S415.238,149,418,149z M418,161c2.762,0,5,2.238,5,5s-2.238,5-5,5c-2.764,0-5-2.238-5-5S415.238,161,418,161z M418,173
	c2.762,0,5,2.238,5,5s-2.238,5-5,5c-2.764,0-5-2.238-5-5S415.238,173,418,173z M418,185c2.762,0,5,2.238,5,5s-2.238,5-5,5
	c-2.764,0-5-2.238-5-5S415.238,185,418,185z M418,197c2.762,0,5,2.238,5,5s-2.238,5-5,5c-2.764,0-5-2.238-5-5S415.238,197,418,197z
	 M413.44,216c-0.271-0.612-0.432-1.285-0.432-2c0-2.762,2.236-5,5-5c2.762,0,5,2.238,5,5c0,0.715-0.159,1.388-0.433,2H413.44z
	 M485,226c0-2.762,2.236-5,5-5c1.754,0,3.29,0.906,4.183,2.272l-8.789,4.675C485.14,227.349,485,226.691,485,226z M478,185
	c2.762,0,5,2.238,5,5s-2.238,5-5,5c-2.764,0-5-2.238-5-5S475.238,185,478,185z M473,178c0-2.762,2.236-5,5-5c2.762,0,5,2.238,5,5
	s-2.238,5-5,5C475.238,183,473,180.762,473,178z M478,197c2.762,0,5,2.238,5,5s-2.238,5-5,5c-2.764,0-5-2.238-5-5
	S475.238,197,478,197z M478,209c2.762,0,5,2.238,5,5s-2.238,5-5,5c-2.764,0-5-2.238-5-5S475.238,209,478,209z M478,221
	c2.762,0,5,2.238,5,5s-2.238,5-5,5c-2.764,0-5-2.238-5-5S475.238,221,478,221z M478,327.439c-2.764,0-5-2.238-5-5
	c0-2.764,2.236-5,5-5c2.762,0,5,2.236,5,5C483,325.201,480.762,327.439,478,327.439z M483,334.439c0,2.762-2.238,5-5,5
	c-2.764,0-5-2.238-5-5c0-2.764,2.236-5,5-5C480.762,329.439,483,331.677,483,334.439z M478,315.439c-2.764,0-5-2.238-5-5
	c0-2.764,2.236-5,5-5c2.762,0,5,2.236,5,5C483,313.201,480.762,315.439,478,315.439z M478,303.439c-2.764,0-5-2.238-5-5
	c0-2.764,2.236-5,5-5c2.762,0,5,2.236,5,5C483,301.201,480.762,303.439,478,303.439z M478,291.439c-2.764,0-5-2.238-5-5
	c0-2.764,2.236-5,5-5c2.762,0,5,2.236,5,5C483,289.201,480.762,291.439,478,291.439z M485.611,284.091l8.816,4.627
	c-0.83,1.609-2.49,2.722-4.427,2.722c-2.764,0-5-2.237-5-5C485,285.586,485.234,284.794,485.611,284.091z M493.888,217.131
	C492.973,218.27,491.573,219,490,219c-2.764,0-5-2.238-5-5s2.236-5,5-5c0.949,0,1.831,0.273,2.585,0.738
	C493.059,212.192,493.49,214.657,493.888,217.131z M485,202c0-2.687,2.121-4.86,4.779-4.978c0.792,3.169,1.506,6.361,2.17,9.568
	c-0.601,0.256-1.257,0.41-1.949,0.41C487.238,207,485,204.762,485,202z M489.228,194.922C486.835,194.549,485,192.497,485,190
	c0-1.535,0.704-2.888,1.797-3.8C487.664,189.088,488.469,191.998,489.228,194.922z M481.205,169.803
	C480.34,170.543,479.23,171,478,171c-2.764,0-5-2.238-5-5c0-2.64,2.051-4.779,4.645-4.964
	C478.887,163.936,480.079,166.856,481.205,169.803z M476.687,158.8c-2.123-0.575-3.687-2.496-3.687-4.8
	c0-0.767,0.184-1.484,0.492-2.13C474.593,154.164,475.66,156.472,476.687,158.8z M466,351.439c-2.764,0-5-2.238-5-5
	c0-2.764,2.236-5,5-5c2.762,0,5,2.236,5,5C471,349.201,468.762,351.439,466,351.439z M471,358.439c0,2.762-2.238,5-5,5
	c-2.764,0-5-2.238-5-5c0-2.764,2.236-5,5-5C468.762,353.439,471,355.677,471,358.439z M466,339.439c-2.764,0-5-2.238-5-5
	c0-2.764,2.236-5,5-5c2.762,0,5,2.236,5,5C471,337.201,468.762,339.439,466,339.439z M466,327.439c-2.764,0-5-2.238-5-5
	c0-2.764,2.236-5,5-5c2.762,0,5,2.236,5,5C471,325.201,468.762,327.439,466,327.439z M466,315.439c-2.764,0-5-2.238-5-5
	c0-2.764,2.236-5,5-5c2.762,0,5,2.236,5,5C471,313.201,468.762,315.439,466,315.439z M466,303.439c-2.764,0-5-2.238-5-5
	c0-1.236,0.465-2.354,1.206-3.226c0.689-0.356,1.312-0.825,1.845-1.381c0.599-0.254,1.258-0.396,1.949-0.396c2.762,0,5,2.237,5,5
	C471,301.201,468.762,303.439,466,303.439z M466,291.439c-0.148,0-0.293-0.017-0.438-0.029c0.277-0.753,0.438-1.562,0.438-2.41
	v-7.561c2.762,0,5,2.236,5,5C471,289.201,468.762,291.439,466,291.439z M466,279.439v-10c2.762,0,5,2.236,5,5
	C471,277.201,468.762,279.439,466,279.439z M466,267.439v-10c2.762,0,5,2.236,5,5C471,265.201,468.762,267.439,466,267.439z
	 M466,255v-10c2.762,0,5,2.238,5,5S468.762,255,466,255z M466,243v-10c2.762,0,5,2.238,5,5S468.762,243,466,243z M466,231v-8
	c0-0.688-0.104-1.353-0.29-1.981c0.097-0.006,0.19-0.019,0.29-0.019c2.762,0,5,2.238,5,5S468.762,231,466,231z M466,219
	c-0.505,0-0.981-0.097-1.44-0.236c-0.735-0.963-1.709-1.735-2.839-2.214c-0.447-0.749-0.721-1.614-0.721-2.55c0-2.762,2.236-5,5-5
	c2.762,0,5,2.238,5,5S468.762,219,466,219z M466,207c-2.764,0-5-2.238-5-5s2.236-5,5-5c2.762,0,5,2.238,5,5S468.762,207,466,207z
	 M466,195c-2.764,0-5-2.238-5-5s2.236-5,5-5c2.762,0,5,2.238,5,5S468.762,195,466,195z M466,183c-2.764,0-5-2.238-5-5s2.236-5,5-5
	c2.762,0,5,2.238,5,5S468.762,183,466,183z M466,171c-2.764,0-5-2.238-5-5s2.236-5,5-5c2.762,0,5,2.238,5,5S468.762,171,466,171z
	 M466,159c-2.764,0-5-2.238-5-5s2.236-5,5-5c2.762,0,5,2.238,5,5S468.762,159,466,159z M470.021,144.931
	C469.115,146.178,467.659,147,466,147c-2.764,0-5-2.238-5-5c0-2.671,2.098-4.832,4.733-4.973
	C467.218,139.634,468.639,142.273,470.021,144.931z M464.369,134.688C462.412,134.014,461,132.187,461,130
	c0-0.268,0.034-0.526,0.076-0.783C462.199,131.027,463.297,132.851,464.369,134.688z M454,195c-2.764,0-5-2.238-5-5s2.236-5,5-5
	c2.762,0,5,2.238,5,5S456.762,195,454,195z M459,202c0,2.762-2.238,5-5,5c-2.764,0-5-2.238-5-5s2.236-5,5-5
	C456.762,197,459,199.238,459,202z M454,183c-2.764,0-5-2.238-5-5s2.236-5,5-5c2.762,0,5,2.238,5,5S456.762,183,454,183z M454,171
	c-2.764,0-5-2.238-5-5s2.236-5,5-5c2.762,0,5,2.238,5,5S456.762,171,454,171z M454,159c-2.764,0-5-2.238-5-5s2.236-5,5-5
	c2.762,0,5,2.238,5,5S456.762,159,454,159z M454,147c-2.764,0-5-2.238-5-5s2.236-5,5-5c2.762,0,5,2.238,5,5S456.762,147,454,147z
	 M454,135c-2.764,0-5-2.238-5-5s2.236-5,5-5c2.762,0,5,2.238,5,5C459,132.762,456.762,135,454,135z M456.608,122.254
	c-0.759,0.47-1.647,0.746-2.606,0.746c-2.764,0-5-2.238-5-5c0-1.582,0.747-2.971,1.896-3.883
	C452.855,116.797,454.767,119.505,456.608,122.254z M442,195c-2.764,0-5-2.238-5-5s2.236-5,5-5c2.762,0,5,2.238,5,5
	S444.762,195,442,195z M447,202c0,2.762-2.238,5-5,5c-2.764,0-5-2.238-5-5s2.236-5,5-5C444.762,197,447,199.238,447,202z M442,183
	c-2.764,0-5-2.238-5-5s2.236-5,5-5c2.762,0,5,2.238,5,5S444.762,183,442,183z M442,171c-2.764,0-5-2.238-5-5s2.236-5,5-5
	c2.762,0,5,2.238,5,5S444.762,171,442,171z M442,159c-2.764,0-5-2.238-5-5s2.236-5,5-5c2.762,0,5,2.238,5,5S444.762,159,442,159z
	 M442,147c-2.764,0-5-2.238-5-5s2.236-5,5-5c2.762,0,5,2.238,5,5S444.762,147,442,147z M442,135c-2.764,0-5-2.238-5-5s2.236-5,5-5
	c2.762,0,5,2.238,5,5C447,132.762,444.762,135,442,135z M442,123c-2.764,0-5-2.238-5-5s2.236-5,5-5c2.762,0,5,2.238,5,5
	S444.762,123,442,123z M446.452,108.211C445.639,109.858,443.963,111,442,111c-2.764,0-5-2.238-5-5c0-2.326,1.592-4.265,3.743-4.819
	C442.691,103.496,444.602,105.834,446.452,108.211z M430,113c2.762,0,5,2.238,5,5s-2.238,5-5,5c-2.764,0-5-2.238-5-5
	S427.238,113,430,113z M425,106c0-2.762,2.236-5,5-5c2.762,0,5,2.238,5,5s-2.238,5-5,5C427.238,111,425,108.762,425,106z M430,125
	c2.762,0,5,2.238,5,5c0,2.762-2.238,5-5,5c-2.764,0-5-2.238-5-5S427.238,125,430,125z M430,137c2.762,0,5,2.238,5,5s-2.238,5-5,5
	c-2.764,0-5-2.238-5-5S427.238,137,430,137z M430,149c2.762,0,5,2.238,5,5s-2.238,5-5,5c-2.764,0-5-2.238-5-5S427.238,149,430,149z
	 M430,161c2.762,0,5,2.238,5,5s-2.238,5-5,5c-2.764,0-5-2.238-5-5S427.238,161,430,161z M430,173c2.762,0,5,2.238,5,5s-2.238,5-5,5
	c-2.764,0-5-2.238-5-5S427.238,173,430,173z M430,185c2.762,0,5,2.238,5,5s-2.238,5-5,5c-2.764,0-5-2.238-5-5S427.238,185,430,185z
	 M430,197c2.762,0,5,2.238,5,5s-2.238,5-5,5c-2.764,0-5-2.238-5-5S427.238,197,430,197z M425.441,216
	c-0.271-0.612-0.432-1.285-0.432-2c0-2.762,2.236-5,5-5c2.762,0,5,2.238,5,5c0,0.715-0.159,1.388-0.433,2H425.441z M437.442,216
	c-0.271-0.612-0.432-1.285-0.432-2c0-2.762,2.236-5,5-5c2.762,0,5,2.238,5,5c0,0.715-0.159,1.388-0.433,2H437.442z M449.443,216
	c-0.271-0.612-0.432-1.285-0.432-2c0-2.762,2.236-5,5-5c2.762,0,5,2.238,5,5c0,0.715-0.159,1.388-0.433,2H449.443z M458.344,296
	c0.412,0.721,0.656,1.548,0.656,2.439c0,2.762-2.238,5-5,5c-2.764,0-5-2.238-5-5c0-0.893,0.243-1.72,0.654-2.439H458.344z
	 M454,375.439c-2.764,0-5-2.238-5-5c0-2.764,2.236-5,5-5c2.762,0,5,2.236,5,5C459,373.201,456.762,375.439,454,375.439z
	 M459,382.439c0,2.762-2.238,5-5,5c-2.764,0-5-2.238-5-5c0-2.764,2.236-5,5-5C456.762,377.439,459,379.677,459,382.439z
	 M454,363.439c-2.764,0-5-2.238-5-5c0-2.764,2.236-5,5-5c2.762,0,5,2.236,5,5C459,361.201,456.762,363.439,454,363.439z
	 M454,351.439c-2.764,0-5-2.238-5-5c0-2.764,2.236-5,5-5c2.762,0,5,2.236,5,5C459,349.201,456.762,351.439,454,351.439z
	 M454,339.439c-2.764,0-5-2.238-5-5c0-2.764,2.236-5,5-5c2.762,0,5,2.236,5,5C459,337.201,456.762,339.439,454,339.439z
	 M454,327.439c-2.764,0-5-2.238-5-5c0-2.764,2.236-5,5-5c2.762,0,5,2.236,5,5C459,325.201,456.762,327.439,454,327.439z
	 M454,315.439c-2.764,0-5-2.238-5-5c0-2.764,2.236-5,5-5c2.762,0,5,2.236,5,5C459,313.201,456.762,315.439,454,315.439z
	 M446.344,296c0.412,0.721,0.656,1.548,0.656,2.439c0,2.762-2.238,5-5,5c-2.764,0-5-2.238-5-5c0-0.893,0.243-1.72,0.654-2.439
	H446.344z M442,387.439c-2.764,0-5-2.238-5-5c0-2.764,2.236-5,5-5c2.762,0,5,2.236,5,5C447,385.201,444.762,387.439,442,387.439z
	 M447,394.439c0,2.762-2.238,5-5,5c-2.764,0-5-2.238-5-5c0-2.764,2.236-5,5-5C444.762,389.439,447,391.677,447,394.439z
	 M442,375.439c-2.764,0-5-2.238-5-5c0-2.764,2.236-5,5-5c2.762,0,5,2.236,5,5C447,373.201,444.762,375.439,442,375.439z
	 M442,363.439c-2.764,0-5-2.238-5-5c0-2.764,2.236-5,5-5c2.762,0,5,2.236,5,5C447,361.201,444.762,363.439,442,363.439z
	 M442,351.439c-2.764,0-5-2.238-5-5c0-2.764,2.236-5,5-5c2.762,0,5,2.236,5,5C447,349.201,444.762,351.439,442,351.439z
	 M442,339.439c-2.764,0-5-2.238-5-5c0-2.764,2.236-5,5-5c2.762,0,5,2.236,5,5C447,337.201,444.762,339.439,442,339.439z
	 M442,327.439c-2.764,0-5-2.238-5-5c0-2.764,2.236-5,5-5c2.762,0,5,2.236,5,5C447,325.201,444.762,327.439,442,327.439z
	 M442,315.439c-2.764,0-5-2.238-5-5c0-2.764,2.236-5,5-5c2.762,0,5,2.236,5,5C447,313.201,444.762,315.439,442,315.439z
	 M430,387.439c-2.764,0-5-2.238-5-5c0-2.764,2.236-5,5-5c2.762,0,5,2.236,5,5C435,385.201,432.762,387.439,430,387.439z
	 M435,394.439c0,2.762-2.238,5-5,5c-2.764,0-5-2.238-5-5c0-2.764,2.236-5,5-5C432.762,389.439,435,391.677,435,394.439z
	 M430,375.439c-2.764,0-5-2.238-5-5c0-2.764,2.236-5,5-5c2.762,0,5,2.236,5,5C435,373.201,432.762,375.439,430,375.439z
	 M430,363.439c-2.764,0-5-2.238-5-5c0-2.764,2.236-5,5-5c2.762,0,5,2.236,5,5C435,361.201,432.762,363.439,430,363.439z
	 M430,351.439c-2.764,0-5-2.238-5-5c0-2.764,2.236-5,5-5c2.762,0,5,2.236,5,5C435,349.201,432.762,351.439,430,351.439z
	 M430,339.439c-2.764,0-5-2.238-5-5c0-2.764,2.236-5,5-5c2.762,0,5,2.236,5,5C435,337.201,432.762,339.439,430,339.439z
	 M430,327.439c-2.764,0-5-2.238-5-5c0-2.764,2.236-5,5-5c2.762,0,5,2.236,5,5C435,325.201,432.762,327.439,430,327.439z
	 M430,315.439c-2.764,0-5-2.238-5-5c0-2.764,2.236-5,5-5c2.762,0,5,2.236,5,5C435,313.201,432.762,315.439,430,315.439z
	 M430,401.439c2.762,0,5,2.236,5,5c0,2.762-2.238,5-5,5c-2.764,0-5-2.238-5-5C425,403.677,427.238,401.439,430,401.439z
	 M473,358.439c0-2.226,1.463-4.078,3.472-4.724c-0.986,2.228-2.021,4.433-3.074,6.63C473.151,359.758,473,359.12,473,358.439z
	 M477.471,351.386c-2.51-0.267-4.471-2.364-4.471-4.946c0-2.762,2.236-5,5-5c1.173,0,2.239,0.412,3.088,1.093
	C479.946,345.509,478.732,348.457,477.471,351.386z M485,322.439c0-2.459,1.774-4.491,4.112-4.91
	c-0.758,2.891-1.552,5.771-2.415,8.625C485.662,325.244,485,323.928,485,322.439z M485,310.439c0-2.763,2.236-5,5-5
	c0.661,0,1.288,0.142,1.866,0.375c-0.672,3.215-1.396,6.416-2.195,9.592C487.065,315.232,485,313.09,485,310.439z M492.494,302.758
	c-0.731,0.432-1.582,0.682-2.494,0.682c-2.764,0-5-2.236-5-5c0-2.762,2.236-5,5-5c1.543,0,2.912,0.705,3.827,1.806
	C493.42,297.759,492.983,300.266,492.494,302.758z M434.948,94.513C434.689,97.03,432.586,99,430,99c-2.764,0-5-2.238-5-5
	c0-2.698,2.14-4.881,4.812-4.981C431.555,90.829,433.271,92.658,434.948,94.513z M422.983,82.176C422.888,84.855,420.7,87,418,87
	c-2.764,0-5-2.238-5-5c0-2.583,1.963-4.682,4.476-4.947C419.331,78.731,421.171,80.435,422.983,82.176z M410.823,71.237
	C410.274,73.398,408.331,75,406,75c-2.764,0-5-2.238-5-5c0-1.961,1.14-3.636,2.784-4.45C406.159,67.4,408.509,69.292,410.823,71.237
	z M397.888,61.099C396.975,62.25,395.582,63,394,63c-2.764,0-5-2.238-5-5c0-0.958,0.274-1.847,0.742-2.604
	C392.492,57.237,395.206,59.139,397.888,61.099z M382,171c-2.764,0-5-2.238-5-5s2.236-5,5-5c2.762,0,5,2.238,5,5
	S384.762,171,382,171z M387,178c0,2.762-2.238,5-5,5c-2.764,0-5-2.238-5-5s2.236-5,5-5C384.762,173,387,175.238,387,178z M382,159
	c-2.764,0-5-2.238-5-5s2.236-5,5-5c2.762,0,5,2.238,5,5S384.762,159,382,159z M382,147c-2.764,0-5-2.238-5-5s2.236-5,5-5
	c2.762,0,5,2.238,5,5S384.762,147,382,147z M382,135c-2.764,0-5-2.238-5-5s2.236-5,5-5c2.762,0,5,2.238,5,5
	C387,132.762,384.762,135,382,135z M382,123c-2.764,0-5-2.238-5-5s2.236-5,5-5c2.762,0,5,2.238,5,5S384.762,123,382,123z M382,111
	c-2.764,0-5-2.238-5-5s2.236-5,5-5c2.762,0,5,2.238,5,5S384.762,111,382,111z M382,99c-2.764,0-5-2.238-5-5s2.236-5,5-5
	c2.762,0,5,2.238,5,5S384.762,99,382,99z M382,87c-2.764,0-5-2.238-5-5s2.236-5,5-5c2.762,0,5,2.238,5,5S384.762,87,382,87z M382,75
	c-2.764,0-5-2.238-5-5s2.236-5,5-5c2.762,0,5,2.238,5,5S384.762,75,382,75z M382,63c-2.764,0-5-2.238-5-5s2.236-5,5-5
	c2.762,0,5,2.238,5,5S384.762,63,382,63z M382.794,50.922C382.533,50.965,382.272,51,382,51c-2.196,0-4.033-1.427-4.699-3.397
	C379.147,48.681,380.975,49.792,382.794,50.922z M382,185c2.762,0,5,2.238,5,5s-2.238,5-5,5c-2.764,0-5-2.238-5-5
	S379.238,185,382,185z M382.001,197c2.761,0,4.999,2.238,4.999,5s-2.238,5-5,5c-0.706,0-1.375-0.149-1.983-0.413
	c-0.849-2.121-1.751-4.213-2.703-6.278C378.009,198.384,379.835,197,382.001,197z M380.997,209.114
	c0.325-0.069,0.66-0.114,1.009-0.114c2.762,0,5,2.238,5,5c0,0.716-0.16,1.389-0.436,2h-3.225
	C382.618,213.68,381.85,211.377,380.997,209.114z M386.344,296c0.411,0.721,0.656,1.548,0.656,2.439c0,2.762-2.238,5-5,5
	c-0.35,0-0.684-0.045-1.009-0.114c0.906-2.407,1.724-4.855,2.49-7.325H386.344z M381.997,305.439c2.764,0,5,2.237,5,5
	c0,2.762-2.235,5-4.997,5c-2.165,0-3.99-1.385-4.688-3.311c0.951-2.064,1.854-4.156,2.701-6.277
	C380.622,305.587,381.294,305.439,381.997,305.439z M382,317.439c2.762,0,5,2.236,5,5c0,2.762-2.238,5-5,5c-2.764,0-5-2.238-5-5
	C377,319.677,379.238,317.439,382,317.439z M382,329.439c2.762,0,5,2.236,5,5c0,2.762-2.238,5-5,5c-2.764,0-5-2.238-5-5
	C377,331.677,379.238,329.439,382,329.439z M382,341.439c2.762,0,5,2.236,5,5c0,2.762-2.238,5-5,5c-2.764,0-5-2.238-5-5
	C377,343.677,379.238,341.439,382,341.439z M382,353.439c2.762,0,5,2.236,5,5c0,2.762-2.238,5-5,5c-2.764,0-5-2.238-5-5
	C377,355.677,379.238,353.439,382,353.439z M382,365.439c2.762,0,5,2.236,5,5c0,2.762-2.238,5-5,5c-2.764,0-5-2.238-5-5
	C377,367.677,379.238,365.439,382,365.439z M382,377.439c2.762,0,5,2.236,5,5c0,2.762-2.238,5-5,5c-2.764,0-5-2.238-5-5
	C377,379.677,379.238,377.439,382,377.439z M382,389.439c2.762,0,5,2.236,5,5c0,2.762-2.238,5-5,5c-2.764,0-5-2.238-5-5
	C377,391.677,379.238,389.439,382,389.439z M382,401.439c2.762,0,5,2.236,5,5c0,2.762-2.238,5-5,5c-2.764,0-5-2.238-5-5
	C377,403.677,379.238,401.439,382,401.439z M382,413.439c2.762,0,5,2.236,5,5c0,2.762-2.238,5-5,5c-2.764,0-5-2.238-5-5
	C377,415.677,379.238,413.439,382,413.439z M382,425.439c2.762,0,5,2.236,5,5c0,2.762-2.238,5-5,5c-2.764,0-5-2.238-5-5
	C377,427.677,379.238,425.439,382,425.439z M382,437.439c2.762,0,5,2.236,5,5c0,2.762-2.238,5-5,5c-2.764,0-5-2.238-5-5
	C377,439.677,379.238,437.439,382,437.439z M382,449.439c2.762,0,5,2.236,5,5c0,2.762-2.238,5-5,5c-2.764,0-5-2.238-5-5
	C377,451.677,379.238,449.439,382,449.439z M377.53,464.271c0.803-1.673,2.49-2.832,4.472-2.832c0.069,0,0.135,0.018,0.203,0.021
	C380.656,462.414,379.098,463.354,377.53,464.271z M425,418.44c0-2.764,2.236-5,5-5c2.455,0,4.487,1.771,4.909,4.107
	c-1.784,1.974-3.614,3.913-5.473,5.835C426.944,423.102,425,421.01,425,418.44z M276.215,17.539C277.859,18.357,279,20.038,279,22
	c0,2.762-2.238,5-5,5c-0.959,0-1.848-0.284-2.607-0.751C273.645,23.811,275.315,20.836,276.215,17.539z M274,29c2.762,0,5,2.238,5,5
	s-2.238,5-5,5c-2.764,0-5-2.238-5-5S271.238,29,274,29z M274,41c2.762,0,5,2.238,5,5s-2.238,5-5,5c-2.764,0-5-2.238-5-5
	S271.238,41,274,41z M274,53c2.762,0,5,2.238,5,5s-2.238,5-5,5c-2.764,0-5-2.238-5-5S271.238,53,274,53z M274,65
	c2.762,0,5,2.238,5,5s-2.238,5-5,5c-2.764,0-5-2.238-5-5S271.238,65,274,65z M274,77c2.762,0,5,2.238,5,5s-2.238,5-5,5
	c-2.764,0-5-2.238-5-5S271.238,77,274,77z M274,89c2.762,0,5,2.238,5,5s-2.238,5-5,5c-2.764,0-5-2.238-5-5S271.238,89,274,89z
	 M274,101c2.762,0,5,2.238,5,5s-2.238,5-5,5c-2.764,0-5-2.238-5-5S271.238,101,274,101z M274,113c2.762,0,5,2.238,5,5s-2.238,5-5,5
	c-2.764,0-5-2.238-5-5S271.238,113,274,113z M257.115,32.948c3.075-0.162,5.973-0.977,8.555-2.323C266.488,31.516,267,32.694,267,34
	c0,2.762-2.238,5-5,5c-2.764,0-5-2.238-5-5C257,33.639,257.042,33.288,257.115,32.948z M262,41c2.762,0,5,2.238,5,5s-2.238,5-5,5
	c-2.764,0-5-2.238-5-5S259.238,41,262,41z M262,53c2.762,0,5,2.238,5,5s-2.238,5-5,5c-2.764,0-5-2.238-5-5S259.238,53,262,53z
	 M262,65c2.762,0,5,2.238,5,5s-2.238,5-5,5c-2.764,0-5-2.238-5-5S259.238,65,262,65z M262,77c2.762,0,5,2.238,5,5s-2.238,5-5,5
	c-2.764,0-5-2.238-5-5S259.238,77,262,77z M262,89c2.762,0,5,2.238,5,5s-2.238,5-5,5c-2.764,0-5-2.238-5-5S259.238,89,262,89z
	 M262,101c2.762,0,5,2.238,5,5s-2.238,5-5,5c-2.764,0-5-2.238-5-5S259.238,101,262,101z M262,113c2.762,0,5,2.238,5,5
	c0,2.205-1.438,4.055-3.417,4.72c-1.199-0.068-2.401-0.121-3.608-0.156c-1.75-0.778-2.975-2.525-2.975-4.564
	C257,115.238,259.238,113,262,113z M256.006,127.5c56.889,0,105.222,37.177,122.076,88.5H133.927
	C150.784,164.677,199.116,127.5,256.006,127.5z M245.001,118c-0.001-2.762,2.235-5,4.999-5c2.762,0,5,2.238,5,5
	c0,2.039-1.226,3.786-2.976,4.564c-1.207,0.036-2.408,0.088-3.606,0.156C246.437,122.055,245.001,120.205,245.001,118z
	 M246.332,30.625c2.582,1.346,5.477,2.162,8.553,2.323C254.958,33.288,255,33.639,255,34c0,2.762-2.238,5-5,5c-2.764,0-5-2.238-5-5
	C245,32.694,245.512,31.516,246.332,30.625z M250,41c2.762,0,5,2.238,5,5s-2.238,5-5,5c-2.764,0-5-2.238-5-5S247.238,41,250,41z
	 M250,53c2.762,0,5,2.238,5,5s-2.238,5-5,5c-2.764,0-5-2.238-5-5S247.238,53,250,53z M250,65c2.762,0,5,2.238,5,5s-2.238,5-5,5
	c-2.764,0-5-2.238-5-5S247.238,65,250,65z M250,77c2.762,0,5,2.238,5,5s-2.238,5-5,5c-2.764,0-5-2.238-5-5S247.238,77,250,77z
	 M250,89c2.762,0,5,2.238,5,5s-2.238,5-5,5c-2.764,0-5-2.238-5-5S247.238,89,250,89z M250,101c2.762,0,5,2.238,5,5s-2.238,5-5,5
	c-2.764,0-5-2.238-5-5S247.238,101,250,101z M235.785,17.539c0.898,3.297,2.569,6.271,4.82,8.709C239.846,26.717,238.959,27,238,27
	c-2.764,0-5-2.238-5-5C233,20.038,234.14,18.357,235.785,17.539z M238,29c2.762,0,5,2.238,5,5s-2.238,5-5,5c-2.764,0-5-2.238-5-5
	S235.238,29,238,29z M238,41c2.762,0,5,2.238,5,5s-2.238,5-5,5c-2.764,0-5-2.238-5-5S235.238,41,238,41z M238,53
	c2.762,0,5,2.238,5,5s-2.238,5-5,5c-2.764,0-5-2.238-5-5S235.238,53,238,53z M238,65c2.762,0,5,2.238,5,5s-2.238,5-5,5
	c-2.764,0-5-2.238-5-5S235.238,65,238,65z M238,77c2.762,0,5,2.238,5,5s-2.238,5-5,5c-2.764,0-5-2.238-5-5S235.238,77,238,77z
	 M238,89c2.762,0,5,2.238,5,5s-2.238,5-5,5c-2.764,0-5-2.238-5-5S235.238,89,238,89z M238,101c2.762,0,5,2.238,5,5s-2.238,5-5,5
	c-2.764,0-5-2.238-5-5S235.238,101,238,101z M238,113c2.762,0,5,2.238,5,5s-2.238,5-5,5c-2.764,0-5-2.238-5-5S235.238,113,238,113z
	 M231,22c0,2.762-2.238,5-5,5c-2.764,0-5-2.238-5-5s2.236-5,5-5C228.762,17,231,19.238,231,22z M227.179,495.285
	c-1.167-0.139-2.332-0.284-3.495-0.438c-1.589-0.837-2.685-2.484-2.685-4.406c0-2.764,2.236-5,5-5c2.762,0,5,2.236,5,5
	C231,492.793,229.369,494.753,227.179,495.285z M226,483.439c-2.764,0-5-2.238-5-5c0-2.764,2.236-5,5-5c2.762,0,5,2.236,5,5
	C231,481.201,228.762,483.439,226,483.439z M226,471.439c-2.764,0-5-2.238-5-5c0-2.764,2.236-5,5-5c2.762,0,5,2.236,5,5
	C231,469.201,228.762,471.439,226,471.439z M226,459.439c-2.764,0-5-2.238-5-5c0-2.764,2.236-5,5-5c2.762,0,5,2.236,5,5
	C231,457.201,228.762,459.439,226,459.439z M226,447.439c-2.764,0-5-2.238-5-5c0-2.764,2.236-5,5-5c2.762,0,5,2.236,5,5
	C231,445.201,228.762,447.439,226,447.439z M226,435.439c-2.764,0-5-2.238-5-5c0-2.764,2.236-5,5-5c2.762,0,5,2.236,5,5
	C231,433.201,228.762,435.439,226,435.439z M226,423.439c-2.764,0-5-2.238-5-5c0-2.764,2.236-5,5-5c2.762,0,5,2.236,5,5
	C231,421.201,228.762,423.439,226,423.439z M226,411.439c-2.764,0-5-2.238-5-5c0-2.764,2.236-5,5-5c2.762,0,5,2.236,5,5
	C231,409.201,228.762,411.439,226,411.439z M226,399.439c-2.764,0-5-2.238-5-5c0-2.764,2.236-5,5-5c2.762,0,5,2.236,5,5
	C231,397.201,228.762,399.439,226,399.439z M222.154,385.588c1.948,0.51,3.915,0.975,5.897,1.398
	c-0.625,0.287-1.317,0.453-2.052,0.453C224.438,387.439,223.065,386.709,222.154,385.588z M235.785,494.9
	c-1.646-0.818-2.785-2.5-2.785-4.461c0-2.764,2.236-5,5-5c0.959,0,1.846,0.281,2.605,0.751
	C238.355,488.629,236.685,491.603,235.785,494.9z M238,483.439c-2.764,0-5-2.238-5-5c0-2.764,2.236-5,5-5c2.762,0,5,2.236,5,5
	C243,481.201,240.762,483.439,238,483.439z M238,471.439c-2.764,0-5-2.238-5-5c0-2.764,2.236-5,5-5c2.762,0,5,2.236,5,5
	C243,469.201,240.762,471.439,238,471.439z M238,459.439c-2.764,0-5-2.238-5-5c0-2.764,2.236-5,5-5c2.762,0,5,2.236,5,5
	C243,457.201,240.762,459.439,238,459.439z M238,447.439c-2.764,0-5-2.238-5-5c0-2.764,2.236-5,5-5c2.762,0,5,2.236,5,5
	C243,445.201,240.762,447.439,238,447.439z M238,435.439c-2.764,0-5-2.238-5-5c0-2.764,2.236-5,5-5c2.762,0,5,2.236,5,5
	C243,433.201,240.762,435.439,238,435.439z M238,423.439c-2.764,0-5-2.238-5-5c0-2.764,2.236-5,5-5c2.762,0,5,2.236,5,5
	C243,421.201,240.762,423.439,238,423.439z M238,411.439c-2.764,0-5-2.238-5-5c0-2.764,2.236-5,5-5c2.762,0,5,2.236,5,5
	C243,409.201,240.762,411.439,238,411.439z M238,399.439c-2.764,0-5-2.238-5-5c0-2.764,2.236-5,5-5c2.762,0,5,2.236,5,5
	C243,397.201,240.762,399.439,238,399.439z M254.885,479.49c-3.075,0.162-5.971,0.978-8.553,2.324
	c-0.82-0.893-1.332-2.069-1.332-3.375c0-2.764,2.236-5,5-5c2.762,0,5,2.236,5,5C255,478.801,254.958,479.15,254.885,479.49z
	 M250,471.439c-2.764,0-5-2.238-5-5c0-2.764,2.236-5,5-5c2.762,0,5,2.236,5,5C255,469.201,252.762,471.439,250,471.439z
	 M250,459.439c-2.764,0-5-2.238-5-5c0-2.764,2.236-5,5-5c2.762,0,5,2.236,5,5C255,457.201,252.762,459.439,250,459.439z
	 M250,447.439c-2.764,0-5-2.238-5-5c0-2.764,2.236-5,5-5c2.762,0,5,2.236,5,5C255,445.201,252.762,447.439,250,447.439z
	 M250,435.439c-2.764,0-5-2.238-5-5c0-2.764,2.236-5,5-5c2.762,0,5,2.236,5,5C255,433.201,252.762,435.439,250,435.439z
	 M250,423.439c-2.764,0-5-2.238-5-5c0-2.764,2.236-5,5-5c2.762,0,5,2.236,5,5C255,421.201,252.762,423.439,250,423.439z
	 M250,411.439c-2.764,0-5-2.238-5-5c0-2.764,2.236-5,5-5c2.762,0,5,2.236,5,5C255,409.201,252.762,411.439,250,411.439z
	 M250,399.439c-2.764,0-5-2.238-5-5c0-2.205,1.437-4.058,3.417-4.723c1.199,0.068,2.399,0.121,3.606,0.156
	c1.75,0.775,2.977,2.523,2.977,4.562C255,397.201,252.762,399.439,250,399.439z M133.906,296h244.188
	c-16.841,51.391-65.186,88.5-122.094,88.5C199.09,384.5,150.746,347.391,133.906,296z M265.668,481.814
	c-2.582-1.349-5.479-2.162-8.555-2.324c-0.07-0.34-0.113-0.689-0.113-1.051c0-2.764,2.236-5,5-5c2.762,0,5,2.236,5,5
	C267,479.745,266.488,480.924,265.668,481.814z M262,471.439c-2.764,0-5-2.238-5-5c0-2.764,2.236-5,5-5c2.762,0,5,2.236,5,5
	C267,469.201,264.762,471.439,262,471.439z M262,459.439c-2.764,0-5-2.238-5-5c0-2.764,2.236-5,5-5c2.762,0,5,2.236,5,5
	C267,457.201,264.762,459.439,262,459.439z M262,447.439c-2.764,0-5-2.238-5-5c0-2.764,2.236-5,5-5c2.762,0,5,2.236,5,5
	C267,445.201,264.762,447.439,262,447.439z M262,435.439c-2.764,0-5-2.238-5-5c0-2.764,2.236-5,5-5c2.762,0,5,2.236,5,5
	C267,433.201,264.762,435.439,262,435.439z M262,423.439c-2.764,0-5-2.238-5-5c0-2.764,2.236-5,5-5c2.762,0,5,2.236,5,5
	C267,421.201,264.762,423.439,262,423.439z M262,411.439c-2.764,0-5-2.238-5-5c0-2.764,2.236-5,5-5c2.762,0,5,2.236,5,5
	C267,409.201,264.762,411.439,262,411.439z M262,399.439c-2.764,0-5-2.238-5-5c0-2.039,1.225-3.787,2.975-4.564
	c1.207-0.035,2.409-0.088,3.607-0.156c1.979,0.665,3.418,2.516,3.418,4.721C267,397.201,264.762,399.439,262,399.439z
	 M276.215,494.9c-0.899-3.3-2.57-6.271-4.822-8.71c0.762-0.47,1.648-0.751,2.607-0.751c2.762,0,5,2.236,5,5
	C279,492.4,277.859,494.082,276.215,494.9z M274,483.439c-2.764,0-5-2.238-5-5c0-2.764,2.236-5,5-5c2.762,0,5,2.236,5,5
	C279,481.201,276.762,483.439,274,483.439z M274,471.439c-2.764,0-5-2.238-5-5c0-2.764,2.236-5,5-5c2.762,0,5,2.236,5,5
	C279,469.201,276.762,471.439,274,471.439z M274,459.439c-2.764,0-5-2.238-5-5c0-2.764,2.236-5,5-5c2.762,0,5,2.236,5,5
	C279,457.201,276.762,459.439,274,459.439z M274,447.439c-2.764,0-5-2.238-5-5c0-2.764,2.236-5,5-5c2.762,0,5,2.236,5,5
	C279,445.201,276.762,447.439,274,447.439z M274,435.439c-2.764,0-5-2.238-5-5c0-2.764,2.236-5,5-5c2.762,0,5,2.236,5,5
	C279,433.201,276.762,435.439,274,435.439z M274,423.439c-2.764,0-5-2.238-5-5c0-2.764,2.236-5,5-5c2.762,0,5,2.236,5,5
	C279,421.201,276.762,423.439,274,423.439z M274,411.439c-2.764,0-5-2.238-5-5c0-2.764,2.236-5,5-5c2.762,0,5,2.236,5,5
	C279,409.201,276.762,411.439,274,411.439z M274,399.439c-2.764,0-5-2.238-5-5c0-2.764,2.236-5,5-5c2.762,0,5,2.236,5,5
	C279,397.201,276.762,399.439,274,399.439z"/>
</svg>
