<?xml version="1.0" encoding="utf-8"?>
<!-- Generator: Adobe Illustrator 16.0.0, SVG Export Plug-In . SVG Version: 6.00 Build 0)  -->
<!DOCTYPE svg PUBLIC "-//W3C//DTD SVG 1.1 Tiny//EN" "http://www.w3.org/Graphics/SVG/1.1/DTD/svg11-tiny.dtd">
<svg version="1.1" baseProfile="tiny" id="Layer_1" xmlns="http://www.w3.org/2000/svg" xmlns:xlink="http://www.w3.org/1999/xlink"
	 x="0px" y="0px" width="512px" height="512px" viewBox="0 0 512 512" xml:space="preserve">
<path fill="#00FFFF" d="M509.3,274.695c0.041-0.565,0.093-1.129,0.13-1.695h-0.019c0.375-5.635,0.589-11.3,0.589-17
	c0-7.608-0.345-15.162-1.008-22.649c-0.013-0.149-0.027-0.298-0.042-0.448c-0.139-1.532-0.291-3.061-0.456-4.587
	c-0.061-0.559-0.123-1.116-0.187-1.673c-0.136-1.181-0.281-2.358-0.434-3.535c-0.074-0.587-0.146-1.174-0.226-1.76
	c-0.016-0.116-0.029-0.232-0.045-0.348H507.6c-7.474-54.573-32.373-104.983-71.994-144.605C387.631,28.42,323.846,2,256,2
	C188.154,2,124.369,28.42,76.395,76.395C32.45,120.34,6.607,177.553,2.573,239h0.021c-0.371,5.623-0.565,11.281-0.565,16.971
	c0,5.708,0.215,11.384,0.591,17.029H2.571c4.027,61.55,29.872,118.613,73.824,162.564c47.975,47.975,111.759,74.438,179.605,74.438
	c67.846,0,131.631-26.38,179.604-74.354c41.562-41.562,66.92-94.914,72.962-152.647h0.009c0.043-0.407,0.072-0.817,0.113-1.226
	c0.146-1.463,0.283-2.926,0.404-4.395C509.169,276.486,509.234,275.592,509.3,274.695z M252.5,7h7l3.5,6l-3.5,6h-7l-3.5-6L252.5,7z
	 M259.5,505h-7l-3.5-6l3.5-6h7l3.5,6L259.5,505z M270.561,503.602c0.281-1.141,0.439-2.354,0.439-3.583
	c0-8.284-6.716-15.016-15-15.016s-15,6.699-15,14.984c0,1.229,0.158,2.396,0.438,3.537C120.469,496.484,22.535,402.299,9.517,283
	h0.15c-2.237-20.613-1.924-41.454,0.979-62h-0.143C26.896,105.48,123.158,15.322,241.439,8.439C241.158,9.581,241,10.771,241,12
	c0,8.285,6.716,15,15,15s15-6.715,15-15c0-1.229-0.158-2.419-0.439-3.56c118.28,6.883,214.543,97.039,230.937,212.56h-0.104
	c2.905,20.545,3.22,41.387,0.981,62h0.128C489.556,402.372,391.587,496.559,270.561,503.602z"/>
<path fill="#00FFFF" d="M28.683,268.376l-10.489,2.64h11.364c0.629,0,1.103,0.142,1.416,0.422c0.314,0.28,0.471,0.652,0.471,1.117
	c0,0.448-0.153,0.815-0.466,1.101c-0.311,0.284-0.784,0.427-1.421,0.427H16.532c-0.72,0-1.204-0.188-1.455-0.562
	c-0.25-0.373-0.376-0.879-0.376-1.516v-1.033c0-0.621,0.057-1.072,0.169-1.354c0.111-0.28,0.313-0.488,0.605-0.623
	s0.769-0.288,1.426-0.461l9.019-2.393l-9.019-2.393c-0.657-0.172-1.134-0.325-1.426-0.46s-0.494-0.343-0.605-0.623
	c-0.112-0.281-0.169-0.731-0.169-1.354v-1.032c0-0.638,0.126-1.142,0.376-1.517c0.251-0.375,0.735-0.562,1.455-0.562h13.025
	c0.629,0,1.103,0.141,1.416,0.422c0.314,0.279,0.471,0.656,0.471,1.128c0,0.442-0.155,0.806-0.471,1.09
	c-0.313,0.284-0.787,0.427-1.416,0.427H18.194l10.489,2.64c0.681,0.173,1.181,0.312,1.499,0.422c0.317,0.108,0.608,0.31,0.87,0.601
	c0.262,0.293,0.393,0.696,0.393,1.213c0,0.39-0.084,0.72-0.252,0.988c-0.169,0.27-0.384,0.479-0.646,0.629
	c-0.262,0.149-0.552,0.269-0.87,0.354S29.027,268.286,28.683,268.376z"/>
<path fill="#00FFFF" d="M17.553,253.439c0,0.427-0.131,0.792-0.393,1.095c-0.264,0.303-0.634,0.455-1.112,0.455
	c-0.435,0-0.792-0.155-1.072-0.466c-0.281-0.311-0.421-0.672-0.421-1.083c0-0.397,0.127-0.749,0.382-1.056
	c0.254-0.307,0.625-0.46,1.111-0.46c0.472,0,0.841,0.15,1.105,0.449C17.419,252.672,17.553,253.028,17.553,253.439z M20.72,251.923
	h8.861c0.612,0,1.078,0.146,1.393,0.438c0.315,0.292,0.471,0.663,0.471,1.112c0,0.449-0.159,0.814-0.481,1.095
	c-0.322,0.281-0.782,0.421-1.381,0.421H20.81c-0.605,0-1.062-0.14-1.37-0.421c-0.307-0.28-0.46-0.646-0.46-1.095
	c0-0.449,0.153-0.82,0.46-1.112C19.748,252.069,20.174,251.923,20.72,251.923z"/>
<path fill="#00FFFF" d="M20.675,245.971h0.371c-0.712-0.539-1.233-1.128-1.567-1.769c-0.333-0.64-0.499-1.375-0.499-2.207
	c0-0.809,0.176-1.531,0.527-2.167c0.353-0.636,0.85-1.112,1.494-1.426c0.374-0.202,0.777-0.333,1.213-0.393
	c0.434-0.06,0.988-0.09,1.662-0.09h5.705c0.612,0,1.078,0.141,1.393,0.421c0.314,0.281,0.471,0.646,0.471,1.095
	c0,0.457-0.159,0.827-0.481,1.112s-0.782,0.427-1.381,0.427h-5.11c-1.011,0-1.783,0.141-2.319,0.421
	c-0.534,0.281-0.803,0.841-0.803,1.679c0,0.546,0.163,1.044,0.488,1.494c0.326,0.449,0.772,0.779,1.343,0.988
	c0.456,0.15,1.311,0.225,2.561,0.225h3.842c0.621,0,1.087,0.144,1.396,0.433c0.312,0.288,0.466,0.661,0.466,1.117
	c0,0.442-0.159,0.805-0.481,1.089s-0.782,0.427-1.381,0.427H20.72c-0.584,0-1.02-0.127-1.309-0.382
	c-0.288-0.254-0.433-0.603-0.433-1.044c0-0.27,0.063-0.513,0.19-0.73c0.128-0.217,0.317-0.391,0.573-0.522
	C19.998,246.037,20.309,245.971,20.675,245.971z"/>
<path fill="#00FFFF" d="M483.39,240.435l10.49-2.639h-11.365c-0.629,0-1.103-0.141-1.416-0.421
	c-0.314-0.281-0.471-0.653-0.471-1.118c0-0.449,0.153-0.815,0.466-1.1c0.311-0.285,0.784-0.428,1.421-0.428h13.027
	c0.719,0,1.202,0.188,1.453,0.562s0.376,0.879,0.376,1.516v1.033c0,0.621-0.057,1.072-0.168,1.354
	c-0.112,0.28-0.313,0.488-0.606,0.623c-0.291,0.135-0.769,0.288-1.426,0.461l-9.019,2.392l9.019,2.392
	c0.657,0.173,1.135,0.326,1.426,0.461c0.293,0.135,0.494,0.343,0.606,0.623c0.111,0.281,0.168,0.732,0.168,1.354v1.033
	c0,0.637-0.125,1.142-0.376,1.516c-0.251,0.375-0.734,0.562-1.453,0.562h-13.027c-0.629,0-1.103-0.141-1.416-0.422
	c-0.314-0.28-0.471-0.656-0.471-1.129c0-0.441,0.155-0.805,0.471-1.089c0.314-0.284,0.787-0.427,1.416-0.427h11.365l-10.49-2.639
	c-0.681-0.173-1.181-0.312-1.499-0.422c-0.317-0.108-0.608-0.309-0.87-0.601s-0.393-0.696-0.393-1.213
	c0-0.39,0.084-0.719,0.252-0.988c0.169-0.27,0.384-0.479,0.646-0.629c0.262-0.149,0.552-0.268,0.87-0.354
	C482.714,240.612,483.046,240.524,483.39,240.435z"/>
<path fill="#00FFFF" d="M482.356,261.571c-0.576-0.742-1.008-1.46-1.297-2.151c-0.288-0.691-0.432-1.47-0.432-2.33
	c0-0.786,0.153-1.477,0.466-2.072c0.311-0.595,0.73-1.054,1.263-1.376c0.532-0.321,1.108-0.482,1.73-0.482
	c0.838,0,1.553,0.266,2.145,0.797c0.592,0.532,0.988,1.262,1.19,2.19c0.045,0.194,0.146,0.678,0.304,1.448
	c0.156,0.771,0.301,1.433,0.432,1.982c0.131,0.551,0.29,1.147,0.479,1.791c0.809-0.037,1.4-0.199,1.779-0.488
	c0.379-0.288,0.566-0.885,0.566-1.791c0-0.778-0.107-1.364-0.325-1.758s-0.543-0.729-0.978-1.011
	c-0.435-0.28-0.722-0.479-0.858-0.595c-0.139-0.116-0.208-0.365-0.208-0.747c0-0.345,0.11-0.642,0.331-0.893
	c0.222-0.251,0.504-0.376,0.849-0.376c0.539,0,1.062,0.19,1.572,0.572c0.509,0.382,0.928,0.977,1.258,1.785
	c0.329,0.809,0.494,1.816,0.494,3.021c0,1.349-0.16,2.407-0.478,3.179c-0.318,0.771-0.821,1.315-1.511,1.635
	c-0.69,0.318-1.603,0.477-2.74,0.477c-0.719,0-1.329-0.002-1.83-0.005c-0.502-0.004-1.062-0.011-1.674-0.017
	c-0.576,0-1.179,0.095-1.804,0.285s-1.026,0.286-1.207,0.286c-0.313,0-0.601-0.147-0.858-0.442
	c-0.258-0.297-0.387-0.631-0.387-1.006c0-0.314,0.146-0.625,0.442-0.933C481.365,262.241,481.796,261.915,482.356,261.571z
	 M486.793,261.368c-0.165-0.449-0.34-1.103-0.522-1.959c-0.183-0.857-0.318-1.451-0.404-1.78s-0.254-0.645-0.505-0.943
	c-0.251-0.298-0.601-0.449-1.05-0.449c-0.465,0-0.859,0.176-1.186,0.529c-0.325,0.352-0.488,0.812-0.488,1.381
	c0,0.605,0.133,1.166,0.397,1.679c0.266,0.513,0.608,0.89,1.027,1.129c0.465,0.276,1.229,0.415,2.291,0.415L486.793,261.368
	L486.793,261.368z"/>
<path fill="#00FFFF" d="M481.896,274.139l3.269-2.225l-3.269-2.28c-0.456-0.329-0.782-0.606-0.978-0.836
	c-0.194-0.229-0.291-0.519-0.291-0.871c0-0.389,0.12-0.721,0.363-0.993s0.522-0.41,0.837-0.41c0.322,0,0.782,0.211,1.382,0.629
	l3.977,2.774l3.312-2.46c0.547-0.427,1.021-0.64,1.426-0.64c0.313,0,0.588,0.127,0.819,0.381c0.232,0.255,0.349,0.588,0.349,1
	c0,0.358-0.102,0.656-0.304,0.894c-0.201,0.236-0.521,0.512-0.954,0.825l-2.718,1.987l2.718,1.932
	c0.448,0.321,0.771,0.602,0.967,0.838c0.193,0.235,0.291,0.528,0.291,0.881c0,0.403-0.113,0.74-0.342,1.006
	c-0.229,0.266-0.505,0.397-0.826,0.397c-0.231,0-0.454-0.055-0.668-0.161c-0.213-0.109-0.467-0.275-0.758-0.5l-3.312-2.461
	l-3.977,2.774c-0.621,0.435-1.09,0.649-1.403,0.649c-0.321,0-0.599-0.135-0.831-0.403s-0.348-0.603-0.348-0.999
	c0-0.354,0.101-0.648,0.303-0.895C481.133,274.73,481.453,274.452,481.896,274.139z"/>
</svg>
