<?xml version="1.0" encoding="utf-8"?>
<!-- Generator: Adobe Illustrator 16.0.0, SVG Export Plug-In . SVG Version: 6.00 Build 0)  -->
<!DOCTYPE svg PUBLIC "-//W3C//DTD SVG 1.1//EN" "http://www.w3.org/Graphics/SVG/1.1/DTD/svg11.dtd">
<svg version="1.1" id="레이어_1" xmlns="http://www.w3.org/2000/svg" xmlns:xlink="http://www.w3.org/1999/xlink" x="0px"
	 y="0px" width="256px" height="256px" viewBox="0 0 256 256" enable-background="new 0 0 256 256" xml:space="preserve">
<path fill="#75E5C2" d="M44.502,154.059v-51.436c0-29.945,7.458-53.605,22.375-70.981C81.793,14.27,102.11,5.582,127.828,5.582
	c25.717,0,46.061,8.688,61.036,26.061c14.973,17.375,22.46,41.036,22.46,70.981v51.436c0,29.947-7.487,53.637-22.46,71.065
	c-14.976,17.433-35.319,26.146-61.036,26.146c-25.718,0-46.035-8.714-60.951-26.146C51.961,207.695,44.502,184.006,44.502,154.059z
	 M111.197,88.907v78.868c0,14.289,5.542,21.431,16.631,21.431c11.2,0,16.802-7.142,16.802-21.431V88.907
	c0-14.287-5.602-21.431-16.802-21.431C116.739,67.476,111.197,74.62,111.197,88.907z"/>
</svg>
