<?xml version="1.0" encoding="utf-8"?>
<!-- Generator: Adobe Illustrator 16.0.0, SVG Export Plug-In . SVG Version: 6.00 Build 0)  -->
<!DOCTYPE svg PUBLIC "-//W3C//DTD SVG 1.1//EN" "http://www.w3.org/Graphics/SVG/1.1/DTD/svg11.dtd">
<svg version="1.1" id="레이어_1" xmlns="http://www.w3.org/2000/svg" xmlns:xlink="http://www.w3.org/1999/xlink" x="0px"
	 y="0px" width="256px" height="256px" viewBox="0 0 256 256" enable-background="new 0 0 256 256" xml:space="preserve">
<path fill="#1EDCDC" d="M195.241,144.427l-35.448-38.64l0.032-67.015l15.213-21.55c2.075-2.941,2.431-15.717-7.104-15.717
	L87.726,1.498c-10.249,0-9.178,12.804-7.091,15.734l15.253,21.55l-0.025,66.987l-35.428,38.618
	c-2.569,2.801-3.331,6.995-1.958,10.659c1.404,3.653,4.672,6.019,8.288,6.007l49.783-0.007v47.308
	c0,12.459,5.056,45.146,11.286,45.146c6.208,0,11.284-32.687,11.284-45.146v-47.261l49.802-0.007c2.424,0,6.54-1.496,8.491-5.4
	C199.161,152.184,197.791,147.204,195.241,144.427z"/>
</svg>
