<?xml version="1.0" encoding="utf-8"?>
<!-- Generator: Adobe Illustrator 16.0.0, SVG Export Plug-In . SVG Version: 6.00 Build 0)  -->
<!DOCTYPE svg PUBLIC "-//W3C//DTD SVG 1.1//EN" "http://www.w3.org/Graphics/SVG/1.1/DTD/svg11.dtd">
<svg version="1.1" id="레이어_1" xmlns="http://www.w3.org/2000/svg" xmlns:xlink="http://www.w3.org/1999/xlink" x="0px"
	 y="0px" width="256px" height="256px" viewBox="0 0 256 256" enable-background="new 0 0 256 256" xml:space="preserve">
<path fill="#1EDCDC" d="M128,79.726c-4.838,0-9,3.968-9,8.856v60.283c0,4.887,4.176,8.859,9,8.859c4.833,0,9-3.978,9-8.859V88.582
	C137,83.694,132.824,79.726,128,79.726z"/>
<path fill="#1EDCDC" d="M212.5,89.621c0-46.596-37.908-84.5-84.495-84.5c-46.597,0-84.505,37.904-84.505,84.5
	c0,19.09,6.261,37.119,18.088,52.124c8.272,10.495,16.432,22.515,23.244,33.926l-0.027,42.903c0,18.248,14.846,32.427,33.104,32.427
	h20.184c18.259,0,33.103-14.179,33.103-32.427l-0.059-43.313c6.883-11.522,14.883-23.026,23.275-33.682
	C206.238,126.564,212.5,108.71,212.5,89.621z M152,222.104c0,6.863-6.271,8.896-13.908,8.896h-20.184
	c-7.632,0-13.908-2.211-13.908-8.896c0-6.681,0-38.104,0-38.104h48C152,184,152,215.24,152,222.104z M157.768,165H98.233
	c-6.878-15-14.738-23.167-22.904-33.536c-9.38-11.892-14.34-26.452-14.34-41.566c0-36.949,30.063-67.147,67.016-67.147
	c36.948,0,67.007,29.982,67.007,66.935c0,15.122-4.961,29.916-14.332,41.816C172.365,142.033,164.673,150,157.768,165z"/>
<path fill="#1EDCDC" d="M140,62.731c0,6.625-5.37,12.005-12,12.005c-6.635,0-12-5.38-12-12.005c0-6.634,5.365-12.005,12-12.005
	C134.63,50.727,140,56.097,140,62.731z"/>
</svg>
