<?xml version="1.0" encoding="utf-8"?>
<!-- Generator: Adobe Illustrator 16.0.0, SVG Export Plug-In . SVG Version: 6.00 Build 0)  -->
<!DOCTYPE svg PUBLIC "-//W3C//DTD SVG 1.1//EN" "http://www.w3.org/Graphics/SVG/1.1/DTD/svg11.dtd">
<svg version="1.1" id="레이어_2" xmlns="http://www.w3.org/2000/svg" xmlns:xlink="http://www.w3.org/1999/xlink" x="0px"
	 y="0px" width="256px" height="256px" viewBox="0 0 256 256" enable-background="new 0 0 256 256" xml:space="preserve">
<path fill-rule="evenodd" clip-rule="evenodd" fill="none" stroke="#00FFFF" stroke-width="4" stroke-miterlimit="10" d="M126,187
	H49.861c-3.783,0-8.861-2.802-8.861-6.561V66.604C41,62.845,46.078,60,49.861,60h162.011c3.781,0,5.128,2.845,5.128,6.604v113.835
	c0,3.759-1.347,6.561-5.128,6.561H192"/>
<path fill-rule="evenodd" clip-rule="evenodd" fill="none" stroke="#00FFFF" stroke-width="3" stroke-miterlimit="10" d="
	M192.702,160.116c0-8.56,0-14.43,0-25.68c0-3.49-1.413-6.15-4.757-6.15c-3.244,0-4.778,2.856-4.778,6.15c0,7.427,0,15.933,0,21.98
	c0,1.612-0.784,3.186-2.648,3.186c-1.865,0-2.577-1.563-2.577-3.186c0-9.058,0-26.503,0-35.364c0-2.596-1.842-5.012-4.842-5.012
	c-2.756,0-4.417,2.612-4.417,5.012c-0.002,10.939-0.002,21.9-0.002,32.837c0,1.839-0.893,3.314-2.565,3.314
	c-1.775,0-2.661-1.527-2.661-3.314c0-4.259-0.027-29.63-0.027-37.326c0-2.926-1.491-5.335-4.784-5.335
	c-3.197,0-4.705,2.874-4.705,5.335c0,7.598,0,31.642,0,37.764c0,1.549-0.803,3.024-2.573,3.024c-1.524,0-2.435-1.28-2.435-3.024
	c0-1.304,0-22.545,0-30.362c0-3.394-1.745-5.41-4.893-5.41c-3.048,0-4.601,2.352-4.603,5.41
	c-0.012,16.685-0.005,32.735-0.005,49.419c0,0.317,0.021,0.639-0.007,0.953c-0.111,1.292-0.83,2.289-2.001,2.587
	c-1.146,0.29-2.15-0.276-2.791-1.093c-2.35-2.996-4.545-6.112-6.886-9.114c-1.283-1.646-2.36-3.521-4.409-4.446
	c-4.277-2.611-8.556,0.782-7.818,4.911c0.341,1.912,1.479,4.161,2.361,5.753c3.11,5.647,7.08,11.801,11.209,17.554
	c2.972,5.29,4.86,8.479,8.894,13.078c3.016,3.436,12.201,9.606,27.252,9.606c12.828,0,18.563-5.61,21.79-10.127
	c3.993-5.584,5.6-11.932,5.678-18.677C192.795,176.288,192.702,170.186,192.702,160.116z"/>
<line fill-rule="evenodd" clip-rule="evenodd" fill="none" stroke="#00FFFF" stroke-width="3" stroke-miterlimit="10" x1="16" y1="98.5" x2="50" y2="98.5"/>
<line fill-rule="evenodd" clip-rule="evenodd" fill="none" stroke="#00FFFF" stroke-width="3" stroke-miterlimit="10" x1="1" y1="84.5" x2="35" y2="84.5"/>
<line fill-rule="evenodd" clip-rule="evenodd" fill="none" stroke="#00FFFF" stroke-width="3" stroke-miterlimit="10" x1="118" y1="112.5" x2="156" y2="112.5"/>
<line fill-rule="evenodd" clip-rule="evenodd" fill="none" stroke="#00FFFF" stroke-width="3" stroke-miterlimit="10" x1="102" y1="121.5" x2="139" y2="121.5"/>
<line fill-rule="evenodd" clip-rule="evenodd" fill="none" stroke="#00FFFF" stroke-width="3" stroke-miterlimit="10" x1="76" y1="165.5" x2="114" y2="165.5"/>
<g>
</g>
<g>
</g>
<g>
</g>
<g>
</g>
<g>
</g>
<g>
</g>
<g>
</g>
<g>
</g>
<g>
</g>
<g>
</g>
<g>
</g>
<g>
</g>
<g>
</g>
<g>
</g>
<g>
</g>
</svg>
