<?xml version="1.0" encoding="utf-8"?>
<!-- Generator: Adobe Illustrator 16.0.0, SVG Export Plug-In . SVG Version: 6.00 Build 0)  -->
<!DOCTYPE svg PUBLIC "-//W3C//DTD SVG 1.1//EN" "http://www.w3.org/Graphics/SVG/1.1/DTD/svg11.dtd">
<svg version="1.1" id="레이어_1" xmlns="http://www.w3.org/2000/svg" xmlns:xlink="http://www.w3.org/1999/xlink" x="0px"
	 y="0px" width="60px" height="52px" viewBox="0 0 60 52" enable-background="new 0 0 60 52" xml:space="preserve">
<path fill="#1EDCDC" d="M33.646,26.009c0,2.147-0.283,4.146-0.854,5.99c-0.572,1.847-1.438,3.728-2.602,5.642
	c-0.653,1.073-1.173,1.748-1.554,2.021c-0.381,0.272-0.896,0.409-1.553,0.409c-0.488,0-0.732-0.131-0.732-0.396
	c0-0.089,0.205-0.56,0.615-1.414c0.41-0.854,0.837-1.872,1.282-3.055c0.443-1.183,0.83-2.57,1.156-4.167
	c0.328-1.598,0.491-3.273,0.491-5.031c0-1.769-0.166-3.452-0.498-5.055c-0.332-1.602-0.72-2.987-1.157-4.16
	c-0.439-1.172-0.864-2.189-1.274-3.054c-0.41-0.865-0.614-1.335-0.614-1.414c0-0.264,0.243-0.396,0.731-0.396
	c0.685,0,1.211,0.129,1.582,0.388c0.371,0.259,0.879,0.93,1.523,2.014c0.575,0.957,1.079,1.899,1.509,2.827
	c0.43,0.928,0.788,1.855,1.075,2.783c0.289,0.928,0.506,1.895,0.65,2.9C33.573,23.847,33.646,24.904,33.646,26.009z"/>
</svg>
