<?xml version="1.0" encoding="utf-8"?>
<!-- Generator: Adobe Illustrator 16.0.0, SVG Export Plug-In . SVG Version: 6.00 Build 0)  -->
<!DOCTYPE svg PUBLIC "-//W3C//DTD SVG 1.1//EN" "http://www.w3.org/Graphics/SVG/1.1/DTD/svg11.dtd">
<svg version="1.1" id="레이어_1" xmlns="http://www.w3.org/2000/svg" xmlns:xlink="http://www.w3.org/1999/xlink" x="0px"
	 y="0px" width="60px" height="52px" viewBox="0 0 60 52" enable-background="new 0 0 60 52" xml:space="preserve">
<path fill="#1EDCDC" d="M27.523,33.346h7.646c0.763,0,1.345,0.156,1.743,0.469c0.398,0.313,0.602,0.737,0.602,1.274
	c0,0.479-0.158,0.884-0.477,1.216s-0.798,0.498-1.441,0.498H24.814c-0.731,0-1.303-0.203-1.713-0.607
	c-0.41-0.405-0.615-0.881-0.615-1.428c0-0.354,0.132-0.817,0.396-1.399c0.265-0.58,0.552-1.037,0.864-1.369
	c1.299-1.349,2.471-2.503,3.516-3.465c1.045-0.962,1.793-1.595,2.241-1.896c0.802-0.567,1.468-1.136,2-1.708
	c0.533-0.572,0.938-1.157,1.216-1.758c0.278-0.602,0.418-1.189,0.418-1.766c0-0.625-0.148-1.184-0.447-1.677
	s-0.703-0.876-1.217-1.15c-0.513-0.273-1.072-0.409-1.677-0.409c-1.278,0-2.284,0.562-3.019,1.685
	c-0.098,0.146-0.26,0.547-0.49,1.201c-0.23,0.654-0.488,1.157-0.775,1.509c-0.289,0.352-0.711,0.527-1.268,0.527
	c-0.488,0-0.895-0.161-1.217-0.483c-0.321-0.322-0.482-0.762-0.482-1.318c0-0.674,0.151-1.377,0.454-2.108
	c0.304-0.732,0.754-1.396,1.354-1.992c0.602-0.596,1.362-1.077,2.285-1.443c0.924-0.365,2.004-0.549,3.246-0.549
	c1.493,0,2.769,0.234,3.822,0.703c0.685,0.313,1.284,0.742,1.803,1.289c0.519,0.547,0.921,1.179,1.207,1.897
	c0.288,0.718,0.433,1.462,0.433,2.233c0,1.211-0.299,2.313-0.9,3.303c-0.602,0.991-1.213,1.769-1.838,2.329
	c-0.625,0.562-1.672,1.442-3.143,2.646c-1.471,1.2-2.479,2.133-3.024,2.797C28.008,32.656,27.768,32.975,27.523,33.346z"/>
</svg>
