<?xml version="1.0" encoding="utf-8"?>
<!-- Generator: Adobe Illustrator 16.0.0, SVG Export Plug-In . SVG Version: 6.00 Build 0)  -->
<!DOCTYPE svg PUBLIC "-//W3C//DTD SVG 1.1//EN" "http://www.w3.org/Graphics/SVG/1.1/DTD/svg11.dtd">
<svg version="1.1" id="레이어_1" xmlns="http://www.w3.org/2000/svg" xmlns:xlink="http://www.w3.org/1999/xlink" x="0px"
	 y="0px" width="60px" height="52px" viewBox="0 0 60 52" enable-background="new 0 0 60 52" xml:space="preserve">
<path fill="#1EDCDC" d="M33.492,33.353l-3.471-12.877l-3.518,12.877c-0.271,0.977-0.49,1.676-0.65,2.102
	c-0.162,0.425-0.443,0.806-0.844,1.145c-0.398,0.336-0.932,0.504-1.596,0.504c-0.537,0-0.979-0.101-1.326-0.299
	c-0.348-0.201-0.627-0.484-0.842-0.852c-0.215-0.366-0.391-0.801-0.527-1.305c-0.136-0.502-0.26-0.969-0.365-1.397l-3.574-14.458
	c-0.215-0.84-0.322-1.479-0.322-1.919c0-0.558,0.195-1.025,0.586-1.406s0.873-0.571,1.449-0.571c0.791,0,1.324,0.254,1.598,0.763
	c0.273,0.508,0.514,1.244,0.719,2.212l2.813,12.539l3.148-11.733c0.234-0.898,0.443-1.582,0.631-2.051
	c0.186-0.469,0.486-0.874,0.908-1.216c0.42-0.343,0.99-0.514,1.713-0.514c0.732,0,1.301,0.179,1.707,0.535
	c0.406,0.357,0.687,0.745,0.842,1.165c0.156,0.42,0.367,1.113,0.632,2.08l3.178,11.733l2.813-12.539
	c0.138-0.654,0.267-1.167,0.388-1.538c0.123-0.371,0.332-0.703,0.631-0.996c0.297-0.293,0.729-0.439,1.295-0.439
	c0.566,0,1.048,0.188,1.443,0.564s0.594,0.847,0.594,1.414c0,0.399-0.106,1.04-0.321,1.919l-3.574,14.458
	c-0.244,0.978-0.447,1.69-0.607,2.146c-0.162,0.455-0.436,0.854-0.82,1.194c-0.384,0.341-0.93,0.513-1.633,0.513
	c-0.664,0-1.197-0.166-1.598-0.498c-0.401-0.332-0.678-0.705-0.834-1.121C34,35.071,33.775,34.356,33.492,33.353z"/>
</svg>
