<?xml version="1.0" encoding="utf-8"?>
<!-- Generator: Adobe Illustrator 16.0.0, SVG Export Plug-In . SVG Version: 6.00 Build 0)  -->
<!DOCTYPE svg PUBLIC "-//W3C//DTD SVG 1.1//EN" "http://www.w3.org/Graphics/SVG/1.1/DTD/svg11.dtd">
<svg version="1.1" id="레이어_1" xmlns="http://www.w3.org/2000/svg" xmlns:xlink="http://www.w3.org/1999/xlink" x="0px"
	 y="0px" width="60px" height="52px" viewBox="0 0 60 52" enable-background="new 0 0 60 52" xml:space="preserve">
<path fill="#1EDCDC" d="M25.199,17.533v7.529l8.54-8.906c0.409-0.43,0.764-0.747,1.047-0.952c0.289-0.205,0.676-0.308,1.149-0.308
	c0.625,0,1.131,0.183,1.517,0.55c0.391,0.365,0.58,0.813,0.58,1.34c0,0.635-0.328,1.266-0.979,1.891l-5.289,5.013l6.094,8.729
	c0.431,0.604,0.752,1.136,0.968,1.588c0.217,0.455,0.321,0.896,0.321,1.326c0,0.479-0.188,0.896-0.563,1.244
	c-0.377,0.354-0.889,0.526-1.529,0.526c-0.604,0-1.104-0.131-1.479-0.389c-0.382-0.262-0.703-0.604-0.968-1.033
	c-0.264-0.429-0.498-0.817-0.703-1.172l-5.14-7.91L25.2,30.012v4.439c0,0.895-0.205,1.563-0.611,2
	c-0.41,0.436-0.938,0.65-1.582,0.65c-0.371,0-0.729-0.101-1.069-0.295c-0.34-0.193-0.604-0.459-0.791-0.791
	c-0.137-0.271-0.22-0.593-0.249-0.949c-0.029-0.361-0.044-0.887-0.044-1.568V17.532c0-0.879,0.193-1.538,0.578-1.979
	c0.387-0.438,0.911-0.656,1.575-0.656c0.65,0,1.185,0.218,1.589,0.648C24.996,15.983,25.199,16.644,25.199,17.533z"/>
</svg>
