<?xml version="1.0" encoding="utf-8"?>
<!-- Generator: Adobe Illustrator 16.0.0, SVG Export Plug-In . SVG Version: 6.00 Build 0)  -->
<!DOCTYPE svg PUBLIC "-//W3C//DTD SVG 1.1//EN" "http://www.w3.org/Graphics/SVG/1.1/DTD/svg11.dtd">
<svg version="1.1" id="레이어_1" xmlns="http://www.w3.org/2000/svg" xmlns:xlink="http://www.w3.org/1999/xlink" x="0px"
	 y="0px" width="60px" height="52px" viewBox="0 0 60 52" enable-background="new 0 0 60 52" xml:space="preserve">
<path fill="#1EDCDC" d="M26.937,27.369h-1.522v6.898c0,0.908-0.2,1.578-0.601,2.008c-0.401,0.43-0.924,0.646-1.567,0.646
	c-0.691,0-1.229-0.226-1.61-0.675c-0.382-0.448-0.571-1.107-0.571-1.979V17.745c0-0.938,0.211-1.615,0.631-2.035
	c0.42-0.421,1.099-0.631,2.035-0.631h7.076c0.977,0,1.812,0.042,2.504,0.125s1.317,0.251,1.875,0.506
	c0.674,0.282,1.271,0.688,1.787,1.216c0.518,0.527,0.91,1.14,1.18,1.838c0.268,0.698,0.402,1.438,0.402,2.219
	c0,1.603-0.451,2.881-1.354,3.838c-0.903,0.957-2.272,1.636-4.109,2.037c0.771,0.41,1.509,1.017,2.212,1.815
	c0.703,0.8,1.331,1.653,1.883,2.556c0.552,0.903,0.98,1.72,1.289,2.446c0.309,0.728,0.461,1.228,0.461,1.501
	c0,0.283-0.09,0.564-0.271,0.842c-0.183,0.278-0.428,0.498-0.74,0.659c-0.312,0.161-0.674,0.242-1.084,0.242
	c-0.487,0-0.897-0.114-1.229-0.345c-0.332-0.229-0.617-0.52-0.856-0.871c-0.239-0.354-0.563-0.869-0.974-1.553l-1.743-2.9
	c-0.625-1.064-1.185-1.875-1.677-2.432c-0.494-0.559-0.994-0.938-1.502-1.145C28.351,27.471,27.708,27.369,26.937,27.369z
	 M29.429,18.347h-4.016v5.902h3.896c1.045,0,1.923-0.09,2.637-0.271s1.258-0.488,1.634-0.923c0.376-0.436,0.563-1.033,0.563-1.794
	c0-0.597-0.149-1.121-0.453-1.575c-0.303-0.454-0.724-0.793-1.26-1.019C31.922,18.453,30.921,18.347,29.429,18.347z"/>
</svg>
