<?xml version="1.0" encoding="utf-8"?>
<!-- Generator: Adobe Illustrator 16.0.0, SVG Export Plug-In . SVG Version: 6.00 Build 0)  -->
<!DOCTYPE svg PUBLIC "-//W3C//DTD SVG 1.1//EN" "http://www.w3.org/Graphics/SVG/1.1/DTD/svg11.dtd">
<svg version="1.1" id="레이어_1" xmlns="http://www.w3.org/2000/svg" xmlns:xlink="http://www.w3.org/1999/xlink" x="0px"
	 y="0px" width="60px" height="52px" viewBox="0 0 60 52" enable-background="new 0 0 60 52" xml:space="preserve">
<path fill="#1EDCDC" d="M26.353,26.008c0-1.475,0.127-2.854,0.381-4.138c0.254-1.284,0.64-2.549,1.155-3.794
	c0.519-1.245,1.157-2.493,1.92-3.743c0.459-0.762,0.845-1.312,1.156-1.648c0.313-0.337,0.608-0.547,0.887-0.63
	c0.279-0.083,0.64-0.125,1.076-0.125c0.479,0,0.721,0.132,0.721,0.396c0,0.088-0.228,0.618-0.676,1.589
	c-0.447,0.971-0.869,1.99-1.269,3.054c-0.396,1.064-0.763,2.394-1.099,3.984c-0.338,1.592-0.506,3.275-0.506,5.054
	c0,1.759,0.166,3.423,0.497,4.995c0.332,1.572,0.713,2.936,1.137,4.087c0.427,1.152,0.851,2.185,1.273,3.099
	c0.424,0.912,0.639,1.408,0.639,1.486c0,0.264-0.238,0.396-0.72,0.396c-0.446,0-0.813-0.047-1.091-0.141
	c-0.277-0.093-0.566-0.31-0.872-0.65c-0.303-0.344-0.688-0.891-1.156-1.643c-0.771-1.289-1.407-2.531-1.911-3.728
	c-0.503-1.196-0.888-2.438-1.149-3.729C26.485,28.891,26.353,27.502,26.353,26.008z"/>
</svg>
