<?xml version="1.0" encoding="utf-8"?>
<!-- Generator: Adobe Illustrator 16.0.0, SVG Export Plug-In . SVG Version: 6.00 Build 0)  -->
<!DOCTYPE svg PUBLIC "-//W3C//DTD SVG 1.1//EN" "http://www.w3.org/Graphics/SVG/1.1/DTD/svg11.dtd">
<svg version="1.1" id="레이어_1" xmlns="http://www.w3.org/2000/svg" xmlns:xlink="http://www.w3.org/1999/xlink" x="0px"
	 y="0px" width="60px" height="52px" viewBox="0 0 60 52" enable-background="new 0 0 60 52" xml:space="preserve">
<path fill="#1EDCDC" d="M37.963,25.999c0,1.19-0.186,2.29-0.557,3.296s-0.908,1.87-1.611,2.594c-0.703,0.723-1.543,1.276-2.52,1.663
	c-0.979,0.386-2.074,0.578-3.299,0.578c-1.211,0-2.3-0.194-3.267-0.586s-1.804-0.948-2.513-1.677
	c-0.707-0.729-1.244-1.588-1.611-2.578c-0.365-0.99-0.549-2.087-0.549-3.289c0-1.211,0.186-2.319,0.557-3.325
	c0.371-1.006,0.903-1.865,1.597-2.578c0.694-0.713,1.533-1.262,2.521-1.648c0.987-0.386,2.075-0.579,3.267-0.579
	c1.211,0,2.313,0.195,3.297,0.586c0.983,0.391,1.83,0.947,2.533,1.67c0.702,0.723,1.237,1.582,1.604,2.578
	C37.781,23.699,37.963,24.798,37.963,25.999z M33.949,25.999c0-1.631-0.357-2.9-1.076-3.809c-0.717-0.908-1.684-1.362-2.897-1.362
	c-0.777,0-1.47,0.203-2.063,0.608c-0.595,0.405-1.055,1.003-1.377,1.794c-0.322,0.791-0.483,1.714-0.483,2.769
	c0,1.046,0.158,1.958,0.479,2.739c0.313,0.781,0.771,1.379,1.357,1.794c0.596,0.415,1.287,0.622,2.089,0.622
	c1.213,0,2.179-0.456,2.896-1.369S33.949,27.609,33.949,25.999z"/>
</svg>
