<?xml version="1.0" encoding="utf-8"?>
<!-- Generator: Adobe Illustrator 16.0.0, SVG Export Plug-In . SVG Version: 6.00 Build 0)  -->
<!DOCTYPE svg PUBLIC "-//W3C//DTD SVG 1.1//EN" "http://www.w3.org/Graphics/SVG/1.1/DTD/svg11.dtd">
<svg version="1.1" id="레이어_1" xmlns="http://www.w3.org/2000/svg" xmlns:xlink="http://www.w3.org/1999/xlink" x="0px"
	 y="0px" width="60px" height="52px" viewBox="0 0 60 52" enable-background="new 0 0 60 52" xml:space="preserve">
<path fill="#1EDCDC" d="M37.129,17.533v11.25c0,0.978-0.041,1.808-0.125,2.49c-0.082,0.685-0.271,1.377-0.564,2.08
	c-0.483,1.182-1.293,2.103-2.416,2.761c-1.123,0.659-2.489,0.989-4.103,0.989c-1.455,0-2.668-0.229-3.645-0.688
	c-0.971-0.459-1.755-1.201-2.351-2.228c-0.313-0.547-0.566-1.178-0.762-1.891c-0.196-0.713-0.293-1.395-0.293-2.035
	c0-0.688,0.188-1.207,0.567-1.566c0.379-0.36,0.869-0.543,1.466-0.543c0.575,0,1.014,0.166,1.307,0.498s0.518,0.851,0.674,1.554
	c0.166,0.752,0.332,1.354,0.498,1.803s0.441,0.834,0.835,1.156c0.391,0.321,0.947,0.483,1.67,0.483c1.923,0,2.886-1.412,2.886-4.233
	v-11.88c0-0.879,0.191-1.538,0.58-1.978c0.385-0.439,0.91-0.659,1.573-0.659c0.675,0,1.209,0.22,1.604,0.659
	C36.932,15.995,37.129,16.654,37.129,17.533z"/>
</svg>
