<?xml version="1.0" encoding="utf-8"?>
<!-- Generator: Adobe Illustrator 16.0.0, SVG Export Plug-In . SVG Version: 6.00 Build 0)  -->
<!DOCTYPE svg PUBLIC "-//W3C//DTD SVG 1.1//EN" "http://www.w3.org/Graphics/SVG/1.1/DTD/svg11.dtd">
<svg version="1.1" id="레이어_1" xmlns="http://www.w3.org/2000/svg" xmlns:xlink="http://www.w3.org/1999/xlink" x="0px"
	 y="0px" width="60px" height="52px" viewBox="0 0 60 52" enable-background="new 0 0 60 52" xml:space="preserve">
<path fill="#1EDCDC" d="M34.307,26.998h-7.821c0.01,0.906,0.192,1.709,0.549,2.4c0.355,0.692,0.83,1.217,1.42,1.567
	c0.592,0.351,1.244,0.525,1.957,0.525c0.479,0,0.916-0.056,1.311-0.168c0.396-0.111,0.779-0.287,1.15-0.525
	c0.371-0.239,0.713-0.496,1.023-0.771c0.313-0.272,0.719-0.645,1.217-1.112c0.205-0.176,0.498-0.265,0.879-0.265
	c0.41,0,0.742,0.111,0.996,0.336c0.254,0.228,0.381,0.543,0.381,0.953c0,0.361-0.143,0.783-0.424,1.269
	c-0.283,0.481-0.711,0.944-1.283,1.392c-0.571,0.444-1.289,0.813-2.152,1.106s-1.857,0.438-2.98,0.438
	c-2.567,0-4.564-0.73-5.99-2.197c-1.426-1.465-2.139-3.451-2.139-5.961c0-1.182,0.176-2.277,0.526-3.289
	c0.352-1.012,0.864-1.877,1.538-2.6c0.674-0.724,1.504-1.277,2.489-1.663c0.986-0.387,2.08-0.579,3.281-0.579
	c1.563,0,2.903,0.33,4.021,0.988c1.117,0.66,1.956,1.512,2.513,2.557s0.834,2.109,0.834,3.193c0,1.006-0.287,1.658-0.863,1.955
	C36.161,26.848,35.352,26.998,34.307,26.998z M26.485,24.727h7.25c-0.098-1.367-0.465-2.391-1.104-3.07
	c-0.641-0.678-1.481-1.018-2.527-1.018c-0.996,0-1.814,0.344-2.453,1.033C27.009,22.361,26.622,23.379,26.485,24.727z"/>
</svg>
