<?xml version="1.0" encoding="utf-8"?>
<!-- Generator: Adobe Illustrator 16.0.0, SVG Export Plug-In . SVG Version: 6.00 Build 0)  -->
<!DOCTYPE svg PUBLIC "-//W3C//DTD SVG 1.1//EN" "http://www.w3.org/Graphics/SVG/1.1/DTD/svg11.dtd">
<svg version="1.1" id="레이어_1" xmlns="http://www.w3.org/2000/svg" xmlns:xlink="http://www.w3.org/1999/xlink" x="0px"
	 y="0px" width="60px" height="52px" viewBox="0 0 60 52" enable-background="new 0 0 60 52" xml:space="preserve">
<path fill="#1EDCDC" d="M35.316,34.302l-1.024-2.694h-8.729l-1.025,2.754c-0.4,1.074-0.742,1.799-1.025,2.176
	c-0.283,0.375-0.747,0.563-1.392,0.563c-0.547,0-1.03-0.199-1.45-0.601s-0.63-0.854-0.63-1.363c0-0.293,0.049-0.596,0.146-0.907
	s0.259-0.746,0.483-1.304l5.493-13.945c0.156-0.4,0.344-0.881,0.564-1.443c0.22-0.561,0.454-1.027,0.703-1.398
	c0.249-0.367,0.576-0.672,0.981-0.896c0.405-0.229,0.906-0.345,1.501-0.345c0.605,0,1.111,0.11,1.515,0.345
	c0.406,0.229,0.732,0.521,0.981,0.889c0.249,0.359,0.459,0.75,0.63,1.166c0.172,0.412,0.389,0.969,0.651,1.658l5.61,13.856
	c0.439,1.055,0.66,1.817,0.66,2.299c0,0.498-0.209,0.955-0.623,1.371c-0.416,0.414-0.916,0.621-1.502,0.621
	c-0.342,0-0.635-0.063-0.879-0.187s-0.449-0.289-0.615-0.498c-0.166-0.211-0.344-0.533-0.534-0.967
	C35.617,35.018,35.454,34.634,35.316,34.302z M26.705,28.339h6.416l-3.237-8.861L26.705,28.339z"/>
</svg>
