<?xml version="1.0" encoding="utf-8"?>
<!-- Generator: Adobe Illustrator 16.0.0, SVG Export Plug-In . SVG Version: 6.00 Build 0)  -->
<!DOCTYPE svg PUBLIC "-//W3C//DTD SVG 1.1//EN" "http://www.w3.org/Graphics/SVG/1.1/DTD/svg11.dtd">
<svg version="1.1" id="레이어_1" xmlns="http://www.w3.org/2000/svg" xmlns:xlink="http://www.w3.org/1999/xlink" x="0px"
	 y="0px" width="60px" height="26px" viewBox="0 0 60 26" enable-background="new 0 0 60 26" xml:space="preserve">
<path fill="#1EDCDC" d="M28.219,9.216h-4.285v2.747h3.582c0.332,0,0.58,0.075,0.743,0.224c0.163,0.149,0.245,0.348,0.245,0.597
	s-0.082,0.447-0.248,0.594c-0.166,0.146-0.413,0.22-0.74,0.22h-3.582v3.538c0,0.449-0.102,0.783-0.304,1
	c-0.202,0.218-0.462,0.326-0.78,0.326c-0.317,0-0.584-0.11-0.787-0.33c-0.2-0.221-0.304-0.553-0.304-0.996V8.873
	c0-0.313,0.046-0.567,0.14-0.767c0.097-0.197,0.237-0.341,0.438-0.432c0.197-0.09,0.45-0.136,0.758-0.136h5.127
	c0.35,0,0.604,0.076,0.772,0.229c0.169,0.154,0.253,0.355,0.253,0.604c0,0.254-0.084,0.458-0.253,0.61
	C28.823,9.139,28.565,9.216,28.219,9.216z"/>
<path fill="#1EDCDC" d="M32.027,7.641h4.881c0.469,0,0.808,0.073,1.019,0.22c0.209,0.146,0.314,0.389,0.314,0.726
	c0,0.205-0.123,0.476-0.369,0.813c-0.248,0.337-0.526,0.709-0.849,1.117c-0.313,0.408-0.64,0.914-0.974,1.52
	c-0.336,0.605-0.642,1.346-0.92,2.22c-0.116,0.386-0.2,0.706-0.249,0.958c-0.049,0.254-0.104,0.584-0.16,0.989
	c-0.059,0.405-0.105,0.716-0.154,0.931c-0.103,0.498-0.244,0.844-0.437,1.035c-0.188,0.193-0.438,0.291-0.75,0.291
	c-0.299,0-0.537-0.104-0.719-0.313c-0.185-0.207-0.271-0.515-0.271-0.918c0-0.313,0.064-0.737,0.197-1.273
	c0.131-0.537,0.346-1.182,0.646-1.932c0.299-0.749,0.672-1.518,1.113-2.307c0.445-0.789,0.979-1.574,1.596-2.354h-3.92
	c-0.406,0-0.719-0.073-0.92-0.223C30.902,8.99,30.8,8.758,30.8,8.439c0-0.337,0.107-0.554,0.322-0.651
	C31.34,7.689,31.643,7.641,32.027,7.641z"/>
</svg>
