<?xml version="1.0" encoding="utf-8"?>
<!-- Generator: Adobe Illustrator 16.0.0, SVG Export Plug-In . SVG Version: 6.00 Build 0)  -->
<!DOCTYPE svg PUBLIC "-//W3C//DTD SVG 1.1//EN" "http://www.w3.org/Graphics/SVG/1.1/DTD/svg11.dtd">
<svg version="1.1" id="레이어_1" xmlns="http://www.w3.org/2000/svg" xmlns:xlink="http://www.w3.org/1999/xlink" x="0px"
	 y="0px" width="60px" height="52px" viewBox="0 0 60 52" enable-background="new 0 0 60 52" xml:space="preserve">
<path fill="#1EDCDC" d="M30.146,28.189h-3.98v6.078c0,0.869-0.205,1.528-0.615,1.979c-0.41,0.448-0.928,0.674-1.553,0.674
	c-0.654,0-1.186-0.223-1.582-0.667c-0.4-0.445-0.604-1.097-0.604-1.956V17.745c0-0.957,0.224-1.642,0.659-2.051
	c0.439-0.41,1.139-0.615,2.095-0.615h5.581c1.65,0,2.919,0.127,3.813,0.381c0.879,0.244,1.638,0.649,2.274,1.216
	c0.643,0.566,1.125,1.26,1.457,2.08c0.332,0.82,0.498,1.743,0.498,2.77c0,2.188-0.674,3.845-2.021,4.972
	C34.82,27.626,32.813,28.189,30.146,28.189z M29.092,18.346h-2.93v6.563h2.93c1.025,0,1.883-0.107,2.571-0.322
	s1.213-0.566,1.569-1.055c0.361-0.489,0.543-1.128,0.543-1.919c0-0.947-0.274-1.72-0.836-2.314
	C32.318,18.663,31.035,18.346,29.092,18.346z"/>
</svg>
