<?xml version="1.0" encoding="utf-8"?>
<!-- Generator: Adobe Illustrator 16.0.0, SVG Export Plug-In . SVG Version: 6.00 Build 0)  -->
<!DOCTYPE svg PUBLIC "-//W3C//DTD SVG 1.1//EN" "http://www.w3.org/Graphics/SVG/1.1/DTD/svg11.dtd">
<svg version="1.1" id="레이어_1" xmlns="http://www.w3.org/2000/svg" xmlns:xlink="http://www.w3.org/1999/xlink" x="0px"
	 y="0px" width="60px" height="26px" viewBox="0 0 60 26" enable-background="new 0 0 60 26" xml:space="preserve">
<path fill="#1EDCDC" d="M28.419,9.248h-4.285v2.747h3.582c0.332,0,0.58,0.075,0.743,0.224c0.163,0.149,0.245,0.348,0.245,0.597
	s-0.082,0.448-0.248,0.595c-0.166,0.146-0.413,0.219-0.74,0.219h-3.582v3.539c0,0.449-0.102,0.783-0.304,1s-0.462,0.326-0.78,0.326
	c-0.317,0-0.584-0.111-0.787-0.33c-0.2-0.222-0.304-0.554-0.304-0.996V8.905c0-0.313,0.046-0.567,0.14-0.767
	c0.097-0.197,0.237-0.341,0.438-0.432c0.197-0.09,0.45-0.136,0.758-0.136h5.127c0.35,0,0.604,0.076,0.772,0.229
	c0.169,0.154,0.253,0.355,0.253,0.604c0,0.254-0.084,0.458-0.253,0.61C29.023,9.171,28.766,9.248,28.419,9.248z"/>
<path fill="#1EDCDC" d="M35.999,13.496c-0.322,0.381-0.683,0.668-1.08,0.861c-0.396,0.192-0.838,0.289-1.321,0.289
	c-0.459,0-0.888-0.09-1.281-0.269c-0.397-0.178-0.741-0.428-1.032-0.748c-0.29-0.318-0.519-0.693-0.67-1.12
	c-0.156-0.427-0.234-0.875-0.234-1.344c0-0.503,0.088-0.98,0.265-1.433c0.181-0.45,0.433-0.843,0.76-1.175
	c0.322-0.332,0.716-0.591,1.169-0.775c0.446-0.187,0.944-0.278,1.497-0.278c0.63,0,1.188,0.115,1.685,0.344s0.908,0.563,1.245,1
	c0.337,0.438,0.596,0.987,0.771,1.651c0.185,0.664,0.271,1.416,0.271,2.256c0,0.938-0.097,1.766-0.286,2.479
	c-0.188,0.716-0.468,1.316-0.831,1.804c-0.364,0.483-0.8,0.846-1.308,1.084c-0.508,0.233-1.084,0.354-1.729,0.354
	c-0.636,0-1.188-0.121-1.65-0.361c-0.475-0.242-0.825-0.543-1.069-0.9c-0.244-0.359-0.366-0.705-0.366-1.037
	c0-0.205,0.076-0.389,0.229-0.549c0.147-0.162,0.346-0.242,0.577-0.242c0.218,0,0.404,0.062,0.578,0.178
	c0.17,0.121,0.303,0.302,0.392,0.539c0.104,0.293,0.284,0.529,0.53,0.707c0.25,0.181,0.529,0.271,0.847,0.271
	c0.274,0,0.542-0.072,0.791-0.213c0.249-0.142,0.462-0.343,0.638-0.603C35.723,15.742,35.932,14.818,35.999,13.496z M35.831,11.255
	c0-0.332-0.045-0.638-0.136-0.919c-0.092-0.28-0.221-0.523-0.381-0.729c-0.164-0.205-0.358-0.365-0.586-0.482
	C34.5,9.007,34.25,8.948,33.984,8.948c-0.463,0-0.856,0.198-1.185,0.597c-0.317,0.397-0.479,0.924-0.479,1.579
	c0,0.648,0.16,1.167,0.479,1.553c0.322,0.386,0.729,0.579,1.229,0.579c0.303,0,0.592-0.078,0.867-0.238
	c0.271-0.158,0.5-0.389,0.674-0.691C35.744,12.021,35.831,11.665,35.831,11.255z"/>
</svg>
