<?xml version="1.0" encoding="utf-8"?>
<!-- Generator: Adobe Illustrator 16.0.0, SVG Export Plug-In . SVG Version: 6.00 Build 0)  -->
<!DOCTYPE svg PUBLIC "-//W3C//DTD SVG 1.1//EN" "http://www.w3.org/Graphics/SVG/1.1/DTD/svg11.dtd">
<svg version="1.1" id="레이어_1" xmlns="http://www.w3.org/2000/svg" xmlns:xlink="http://www.w3.org/1999/xlink" x="0px"
	 y="0px" width="139px" height="52px" viewBox="0 0 139 52" enable-background="new 0 0 139 52" xml:space="preserve">
<path fill="#1EDCDC" d="M92.227,48.368h-3.281c-0.473,0-0.812-0.106-1.014-0.318c-0.203-0.213-0.305-0.551-0.305-1.016v-8.07
	c0-0.475,0.104-0.813,0.313-1.021c0.207-0.207,0.543-0.313,1.006-0.313h3.479c0.513,0,0.957,0.032,1.332,0.096
	c0.377,0.063,0.714,0.186,1.013,0.365c0.254,0.151,0.479,0.344,0.674,0.575s0.349,0.487,0.445,0.771
	c0.104,0.28,0.153,0.576,0.153,0.891c0,1.074-0.537,1.859-1.61,2.357c1.411,0.448,2.116,1.322,2.116,2.621
	c0,0.602-0.153,1.143-0.461,1.623c-0.313,0.479-0.726,0.836-1.246,1.065c-0.325,0.137-0.702,0.231-1.127,0.289
	C93.288,48.34,92.793,48.368,92.227,48.368z M89.802,39.264v2.776h1.992c0.543,0,0.961-0.051,1.257-0.154
	c0.295-0.104,0.521-0.298,0.678-0.586c0.123-0.204,0.188-0.436,0.188-0.688c0-0.543-0.193-0.901-0.578-1.082
	c-0.39-0.178-0.979-0.266-1.771-0.266H89.802L89.802,39.264z M92.064,43.6h-2.264v3.137h2.338c1.469,0,2.203-0.531,2.203-1.59
	c0-0.543-0.189-0.937-0.57-1.18C93.393,43.723,92.823,43.6,92.064,43.6z"/>
<path fill="#1EDCDC" d="M103.346,47.423c-0.484,0.376-0.951,0.658-1.402,0.847c-0.45,0.188-0.959,0.281-1.521,0.281
	c-0.516,0-0.963-0.103-1.354-0.304c-0.389-0.203-0.688-0.478-0.896-0.824c-0.209-0.348-0.315-0.723-0.315-1.129
	c0-0.547,0.179-1.012,0.521-1.397c0.348-0.387,0.822-0.646,1.43-0.775c0.127-0.029,0.44-0.096,0.943-0.198s0.936-0.196,1.292-0.282
	c0.354-0.084,0.749-0.188,1.169-0.313c-0.023-0.526-0.131-0.914-0.318-1.16c-0.188-0.246-0.576-0.37-1.168-0.37
	c-0.509,0-0.89,0.071-1.146,0.212c-0.26,0.143-0.479,0.354-0.658,0.637c-0.186,0.283-0.313,0.472-0.393,0.562
	c-0.072,0.091-0.234,0.136-0.482,0.136c-0.229,0-0.42-0.072-0.582-0.216c-0.164-0.146-0.246-0.329-0.246-0.553
	c0-0.353,0.125-0.693,0.373-1.025c0.25-0.332,0.639-0.604,1.165-0.819c0.525-0.215,1.185-0.322,1.97-0.322
	c0.879,0,1.57,0.104,2.073,0.313c0.503,0.207,0.854,0.535,1.063,0.984s0.313,1.045,0.313,1.787c0,0.469-0.001,0.865-0.003,1.193
	c-0.004,0.326-0.007,0.69-0.014,1.092c0,0.375,0.063,0.768,0.188,1.176c0.123,0.408,0.188,0.67,0.188,0.787
	c0,0.205-0.098,0.391-0.286,0.561c-0.192,0.168-0.411,0.252-0.655,0.252c-0.205,0-0.406-0.098-0.607-0.289
	C103.782,48.068,103.568,47.788,103.346,47.423z M103.213,44.529c-0.293,0.106-0.722,0.222-1.277,0.341
	c-0.557,0.121-0.943,0.209-1.16,0.265c-0.215,0.057-0.42,0.166-0.612,0.329c-0.192,0.164-0.293,0.392-0.293,0.687
	c0,0.303,0.11,0.559,0.346,0.771c0.229,0.212,0.526,0.317,0.896,0.317c0.396,0,0.767-0.087,1.102-0.261
	c0.334-0.172,0.578-0.396,0.73-0.67c0.186-0.303,0.271-0.801,0.271-1.494L103.213,44.529L103.213,44.529z"/>
<path fill="#1EDCDC" d="M114.375,46.075c0,0.25-0.075,0.516-0.229,0.799c-0.146,0.283-0.377,0.553-0.682,0.81
	c-0.307,0.256-0.689,0.463-1.152,0.619c-0.465,0.155-0.981,0.233-1.563,0.233c-1.233,0-2.199-0.359-2.896-1.08
	c-0.688-0.722-1.041-1.687-1.041-2.896c0-0.82,0.16-1.545,0.479-2.176c0.313-0.63,0.772-1.117,1.377-1.461
	c0.603-0.345,1.315-0.517,2.151-0.517c0.521,0,0.99,0.075,1.427,0.228c0.433,0.151,0.799,0.348,1.099,0.586
	c0.301,0.239,0.53,0.494,0.688,0.768c0.155,0.271,0.235,0.521,0.235,0.758c0,0.238-0.09,0.441-0.268,0.607s-0.396,0.248-0.648,0.248
	c-0.166,0-0.304-0.041-0.412-0.127c-0.105-0.086-0.229-0.224-0.371-0.414c-0.241-0.371-0.5-0.648-0.766-0.836
	c-0.266-0.187-0.604-0.277-1.014-0.277c-0.592,0-1.066,0.23-1.432,0.691c-0.358,0.463-0.541,1.094-0.541,1.895
	c0,0.377,0.048,0.723,0.141,1.037c0.094,0.313,0.229,0.584,0.398,0.805c0.181,0.225,0.393,0.393,0.643,0.507
	c0.248,0.114,0.521,0.173,0.816,0.173c0.398,0,0.742-0.094,1.026-0.279c0.286-0.186,0.538-0.469,0.759-0.85
	c0.121-0.225,0.256-0.4,0.396-0.527c0.143-0.127,0.313-0.188,0.521-0.188c0.244,0,0.445,0.093,0.607,0.276
	C114.294,45.667,114.375,45.866,114.375,46.075z"/>
<path fill="#1EDCDC" d="M120.527,47.636l-1.766-2.899l-1.084,1.024v1.589c0,0.387-0.104,0.684-0.305,0.891
	c-0.203,0.207-0.438,0.312-0.699,0.312c-0.308,0-0.549-0.103-0.727-0.308c-0.18-0.205-0.268-0.508-0.268-0.908v-8.525
	c0-0.443,0.086-0.781,0.256-1.015c0.174-0.231,0.416-0.348,0.732-0.348c0.309,0,0.553,0.104,0.729,0.313
	c0.185,0.211,0.271,0.521,0.271,0.93v4.851l2.248-2.358c0.275-0.293,0.488-0.492,0.637-0.601c0.147-0.108,0.325-0.161,0.535-0.161
	c0.249,0,0.457,0.079,0.623,0.237c0.166,0.159,0.248,0.358,0.248,0.598c0,0.293-0.271,0.685-0.813,1.173l-1.063,0.975l2.051,3.223
	c0.152,0.238,0.261,0.421,0.326,0.546c0.063,0.124,0.101,0.243,0.101,0.354c0,0.316-0.088,0.568-0.261,0.75
	c-0.174,0.184-0.401,0.274-0.688,0.274c-0.24,0-0.434-0.065-0.563-0.198C120.932,48.223,120.752,47.98,120.527,47.636z"/>
<polygon fill="#1EDCDC" points="99.443,3.875 90.436,9.123 99.443,14.271 98.432,10.748 118.625,10.748 118.625,7.748 98.34,7.748 
	"/>
</svg>
