<?xml version="1.0" encoding="utf-8"?>
<!-- Generator: Adobe Illustrator 16.0.0, SVG Export Plug-In . SVG Version: 6.00 Build 0)  -->
<!DOCTYPE svg PUBLIC "-//W3C//DTD SVG 1.1//EN" "http://www.w3.org/Graphics/SVG/1.1/DTD/svg11.dtd">
<svg version="1.1" id="레이어_1" xmlns="http://www.w3.org/2000/svg" xmlns:xlink="http://www.w3.org/1999/xlink" x="0px"
	 y="0px" width="60px" height="52px" viewBox="0 0 60 52" enable-background="new 0 0 60 52" xml:space="preserve">
<path fill="#1EDCDC" d="M37.801,17.831v11.616c0,1.328-0.143,2.472-0.426,3.429s-0.736,1.748-1.361,2.373s-1.439,1.088-2.453,1.392
	c-1.013,0.307-2.27,0.455-3.771,0.455c-1.377,0-2.606-0.189-3.691-0.58c-1.084-0.386-1.919-0.884-2.505-1.49
	c-0.586-0.607-0.879-1.237-0.879-1.885c0-0.486,0.166-0.888,0.498-1.191c0.332-0.305,0.732-0.461,1.201-0.461
	c0.586,0,1.099,0.26,1.538,0.772c0.215,0.267,0.437,0.529,0.667,0.802c0.229,0.271,0.479,0.494,0.762,0.688
	c0.278,0.188,0.613,0.332,1.003,0.424c0.395,0.096,0.84,0.143,1.351,0.143c1.032,0,1.839-0.146,2.407-0.436
	c0.571-0.287,0.977-0.688,1.201-1.207c0.229-0.52,0.364-1.07,0.403-1.664c0.039-0.59,0.065-1.539,0.088-2.85
	c-0.615,0.859-1.326,1.516-2.131,1.963c-0.808,0.449-1.766,0.676-2.878,0.676c-1.338,0-2.507-0.344-3.508-1.023
	c-1.001-0.686-1.771-1.643-2.311-2.871c-0.54-1.228-0.806-2.647-0.806-4.265c0-1.198,0.164-2.282,0.491-3.252
	c0.325-0.967,0.793-1.779,1.396-2.443c0.606-0.664,1.305-1.165,2.096-1.501c0.791-0.34,1.659-0.509,2.606-0.509
	c1.133,0,2.114,0.22,2.944,0.652c0.83,0.436,1.602,1.114,2.313,2.043v-0.543c0-0.69,0.171-1.229,0.516-1.608
	c0.344-0.384,0.778-0.571,1.315-0.571c0.772,0,1.284,0.252,1.538,0.754C37.674,16.159,37.801,16.884,37.801,17.831z M26.213,22.899
	c0,1.621,0.354,2.848,1.063,3.677c0.709,0.83,1.624,1.244,2.747,1.244c0.665,0,1.292-0.178,1.881-0.534
	c0.592-0.354,1.072-0.893,1.439-1.611c0.371-0.717,0.561-1.588,0.561-2.61c0-1.634-0.358-2.899-1.076-3.812
	c-0.719-0.91-1.663-1.363-2.834-1.363c-1.146,0-2.059,0.438-2.747,1.308C26.559,20.068,26.213,21.298,26.213,22.899z"/>
</svg>
