<?xml version="1.0" encoding="utf-8"?>
<!-- Generator: Adobe Illustrator 16.0.0, SVG Export Plug-In . SVG Version: 6.00 Build 0)  -->
<!DOCTYPE svg PUBLIC "-//W3C//DTD SVG 1.1//EN" "http://www.w3.org/Graphics/SVG/1.1/DTD/svg11.dtd">
<svg version="1.1" id="레이어_1" xmlns="http://www.w3.org/2000/svg" xmlns:xlink="http://www.w3.org/1999/xlink" x="0px"
	 y="0px" width="60px" height="52px" viewBox="0 0 60 52" enable-background="new 0 0 60 52" xml:space="preserve">
<path fill="#1EDCDC" d="M28.678,17.717v15.63h8.814c0.703,0,1.244,0.172,1.619,0.514c0.377,0.346,0.563,0.771,0.563,1.289
	c0,0.526-0.188,0.953-0.559,1.281c-0.371,0.325-0.914,0.489-1.627,0.489H26.992c-0.947,0-1.629-0.209-2.043-0.629
	c-0.416-0.42-0.623-1.101-0.623-2.037V17.717c0-0.879,0.197-1.538,0.594-1.978c0.397-0.44,0.915-0.659,1.563-0.659
	c0.65,0,1.185,0.218,1.589,0.651C28.476,16.168,28.678,16.829,28.678,17.717z"/>
</svg>
