<?xml version="1.0" encoding="utf-8"?>
<!-- Generator: Adobe Illustrator 16.0.0, SVG Export Plug-In . SVG Version: 6.00 Build 0)  -->
<!DOCTYPE svg PUBLIC "-//W3C//DTD SVG 1.1//EN" "http://www.w3.org/Graphics/SVG/1.1/DTD/svg11.dtd">
<svg version="1.1" id="레이어_1" xmlns="http://www.w3.org/2000/svg" xmlns:xlink="http://www.w3.org/1999/xlink" x="0px"
	 y="0px" width="60px" height="26px" viewBox="0 0 60 26" enable-background="new 0 0 60 26" xml:space="preserve">
<path fill="#1EDCDC" d="M23.936,9.256H19.65v2.747h3.582c0.332,0,0.58,0.075,0.743,0.224s0.245,0.348,0.245,0.597
	s-0.082,0.447-0.248,0.594c-0.166,0.146-0.413,0.221-0.74,0.221H19.65v3.537c0,0.449-0.102,0.783-0.304,1
	c-0.202,0.217-0.462,0.326-0.78,0.326c-0.317,0-0.584-0.109-0.787-0.33c-0.2-0.221-0.304-0.553-0.304-0.996V8.913
	c0-0.313,0.046-0.567,0.14-0.767c0.097-0.197,0.237-0.341,0.438-0.432c0.197-0.09,0.45-0.136,0.758-0.136h5.127
	c0.35,0,0.604,0.076,0.772,0.229c0.169,0.154,0.253,0.355,0.253,0.604c0,0.254-0.084,0.458-0.253,0.61
	C24.54,9.179,24.282,9.256,23.936,9.256z"/>
<path fill="#1EDCDC" d="M29.641,17.313v-6.665c-1.24,0.952-2.074,1.428-2.504,1.428c-0.205,0-0.388-0.081-0.547-0.244
	c-0.158-0.164-0.237-0.354-0.237-0.568c0-0.249,0.078-0.432,0.234-0.549c0.155-0.117,0.433-0.27,0.827-0.454
	c0.592-0.278,1.063-0.571,1.418-0.879C29.186,9.073,29.5,8.73,29.77,8.349c0.273-0.381,0.451-0.615,0.534-0.703
	s0.239-0.132,0.469-0.132c0.261,0,0.468,0.1,0.621,0.3c0.156,0.2,0.234,0.477,0.234,0.828v8.385c0,0.98-0.334,1.474-1.003,1.474
	c-0.298,0-0.537-0.101-0.718-0.301C29.729,17.999,29.641,17.702,29.641,17.313z"/>
<path fill="#1EDCDC" d="M42.523,13.05c0,0.802-0.049,1.489-0.146,2.064c-0.103,0.575-0.278,1.1-0.542,1.567
	c-0.332,0.574-0.768,1.021-1.289,1.332c-0.527,0.313-1.113,0.469-1.758,0.469c-0.742,0-1.408-0.209-1.996-0.629
	s-1.031-1.002-1.329-1.744c-0.151-0.403-0.263-0.853-0.333-1.344c-0.07-0.49-0.105-1.021-0.105-1.593
	c0-0.737,0.039-1.401,0.117-1.992c0.078-0.591,0.199-1.099,0.365-1.523c0.288-0.702,0.707-1.238,1.256-1.606
	c0.551-0.369,1.205-0.553,1.967-0.553c0.504,0,0.959,0.082,1.369,0.246c0.41,0.163,0.771,0.401,1.082,0.718
	c0.311,0.313,0.571,0.704,0.786,1.168C42.339,10.435,42.523,11.574,42.523,13.05z M40.518,12.902c0-0.894-0.054-1.625-0.16-2.193
	c-0.104-0.568-0.289-0.998-0.543-1.289c-0.254-0.29-0.604-0.437-1.055-0.437c-0.646,0-1.093,0.325-1.344,0.975
	c-0.252,0.648-0.377,1.649-0.377,3.003c0,0.918,0.053,1.67,0.154,2.256c0.107,0.586,0.289,1.029,0.543,1.329
	c0.26,0.302,0.604,0.451,1.033,0.451c0.448,0,0.801-0.156,1.059-0.47c0.255-0.313,0.434-0.76,0.529-1.34
	C40.467,14.607,40.518,13.846,40.518,12.902z"/>
</svg>
