<?xml version="1.0" encoding="utf-8"?>
<!-- Generator: Adobe Illustrator 16.0.0, SVG Export Plug-In . SVG Version: 6.00 Build 0)  -->
<!DOCTYPE svg PUBLIC "-//W3C//DTD SVG 1.1//EN" "http://www.w3.org/Graphics/SVG/1.1/DTD/svg11.dtd">
<svg version="1.1" id="레이어_1" xmlns="http://www.w3.org/2000/svg" xmlns:xlink="http://www.w3.org/1999/xlink" x="0px"
	 y="0px" width="60px" height="52px" viewBox="0 0 60 52" enable-background="new 0 0 60 52" xml:space="preserve">
<path fill="#1EDCDC" d="M33.375,31.875v-0.514c-0.479,0.605-0.979,1.113-1.509,1.523c-0.528,0.41-1.104,0.715-1.729,0.916
	c-0.625,0.2-1.338,0.299-2.139,0.299c-0.967,0-1.834-0.199-2.6-0.601c-0.771-0.399-1.36-0.952-1.78-1.655
	c-0.498-0.85-0.747-2.068-0.747-3.66v-7.926c0-0.801,0.181-1.399,0.542-1.794c0.361-0.395,0.84-0.593,1.436-0.593
	c0.605,0,1.098,0.2,1.469,0.601c0.371,0.401,0.557,0.996,0.557,1.787v6.401c0,0.928,0.078,1.707,0.234,2.336
	c0.152,0.629,0.437,1.123,0.843,1.479c0.404,0.355,0.954,0.535,1.646,0.535c0.678,0,1.313-0.201,1.904-0.602s1.03-0.924,1.305-1.567
	c0.229-0.565,0.338-1.807,0.338-3.721v-4.863c0-0.791,0.188-1.387,0.559-1.787c0.373-0.4,0.854-0.601,1.451-0.601
	c0.596,0,1.07,0.198,1.436,0.593c0.366,0.395,0.541,0.994,0.541,1.794v11.587c0,0.763-0.172,1.332-0.52,1.714
	c-0.351,0.381-0.795,0.571-1.344,0.571c-0.547,0-0.996-0.198-1.354-0.594C33.553,33.143,33.375,32.589,33.375,31.875z"/>
</svg>
