<?xml version="1.0" encoding="utf-8"?>
<!-- Generator: Adobe Illustrator 16.0.0, SVG Export Plug-In . SVG Version: 6.00 Build 0)  -->
<!DOCTYPE svg PUBLIC "-//W3C//DTD SVG 1.1//EN" "http://www.w3.org/Graphics/SVG/1.1/DTD/svg11.dtd">
<svg version="1.1" id="레이어_1" xmlns="http://www.w3.org/2000/svg" xmlns:xlink="http://www.w3.org/1999/xlink" x="0px"
	 y="0px" width="60px" height="26px" viewBox="0 0 60 26" enable-background="new 0 0 60 26" xml:space="preserve">
<path fill="#1EDCDC" d="M29.188,5.351c0-0.563,0.363-1.017,0.813-1.017s0.813,0.454,0.813,1.017v6.025
	c0,0.62-0.359,1.017-0.813,1.017c-0.449,0-0.813-0.456-0.813-1.017V5.351L29.188,5.351z M30.001,21.666
	c-4.312,0-7.812-3.504-7.812-7.813c0-2.794,1.478-5.396,3.905-6.786c0.533-0.305,1.25-0.26,1.559,0.275
	c0.309,0.534-0.148,1.188-0.729,1.556c-1.613,1.146-2.682,2.957-2.682,4.955c0,3.078,2.683,5.896,5.759,5.896
	c3.078,0,5.828-2.818,5.828-5.896c0-1.999-1.002-3.786-2.712-4.955c-0.617-0.38-1.07-1.021-0.77-1.556
	c0.312-0.535,1.021-0.58,1.562-0.275c2.433,1.39,3.901,3.99,3.901,6.786C37.814,18.162,34.313,21.666,30.001,21.666z"/>
</svg>
