<?xml version="1.0" encoding="utf-8"?>
<!-- Generator: Adobe Illustrator 16.0.0, SVG Export Plug-In . SVG Version: 6.00 Build 0)  -->
<!DOCTYPE svg PUBLIC "-//W3C//DTD SVG 1.1//EN" "http://www.w3.org/Graphics/SVG/1.1/DTD/svg11.dtd">
<svg version="1.1" id="레이어_1" xmlns="http://www.w3.org/2000/svg" xmlns:xlink="http://www.w3.org/1999/xlink" x="0px"
	 y="0px" width="60px" height="52px" viewBox="0 0 60 52" enable-background="new 0 0 60 52" xml:space="preserve">
<path fill="#1EDCDC" d="M22.193,31.729l11.03-13.199h-9.479c-0.664,0-1.165-0.146-1.501-0.438s-0.505-0.68-0.505-1.158
	c0-0.494,0.168-0.896,0.505-1.209c0.337-0.307,0.837-0.461,1.501-0.461h12.217c1.582,0,2.373,0.738,2.373,2.216
	c0,0.7-0.132,1.265-0.396,1.685c-0.264,0.42-0.795,1.102-1.597,2.036L26.029,33.473h11.366c0.674,0,1.179,0.143,1.51,0.416
	c0.332,0.278,0.498,0.668,0.498,1.166c0,0.521-0.166,0.93-0.498,1.229c-0.331,0.3-0.834,0.453-1.506,0.453H23.454
	c-0.947,0-1.66-0.213-2.139-0.637c-0.479-0.426-0.719-0.994-0.719-1.707c0-0.244,0.039-0.469,0.117-0.674s0.184-0.398,0.315-0.578
	c0.132-0.182,0.314-0.41,0.549-0.688C21.813,32.175,22.019,31.934,22.193,31.729z"/>
</svg>
