<?xml version="1.0" encoding="utf-8"?>
<!-- Generator: Adobe Illustrator 16.0.0, SVG Export Plug-In . SVG Version: 6.00 Build 0)  -->
<!DOCTYPE svg PUBLIC "-//W3C//DTD SVG 1.1//EN" "http://www.w3.org/Graphics/SVG/1.1/DTD/svg11.dtd">
<svg version="1.1" id="레이어_1" xmlns="http://www.w3.org/2000/svg" xmlns:xlink="http://www.w3.org/1999/xlink" x="0px"
	 y="0px" width="60px" height="52px" viewBox="0 0 60 52" enable-background="new 0 0 60 52" xml:space="preserve">
<path fill="#1EDCDC" d="M30.023,18.896c-0.561,0-1.032-0.171-1.433-0.513c-0.395-0.342-0.593-0.825-0.593-1.45
	c0-0.566,0.202-1.033,0.608-1.399c0.4-0.365,0.876-0.549,1.411-0.549c0.52,0,0.979,0.166,1.378,0.498
	c0.396,0.332,0.602,0.815,0.602,1.45c0,0.615-0.195,1.096-0.586,1.443C31.023,18.723,30.561,18.896,30.023,18.896z M32.002,23.026
	v11.56c0,0.801-0.188,1.404-0.572,1.814c-0.381,0.41-0.859,0.615-1.446,0.615c-0.586,0-1.063-0.209-1.432-0.63
	c-0.363-0.42-0.55-1.021-0.55-1.803v-11.44c0-0.791,0.187-1.387,0.55-1.787c0.365-0.4,0.846-0.601,1.432-0.601
	c0.586,0,1.065,0.199,1.446,0.601C31.813,21.758,32.002,22.313,32.002,23.026z"/>
</svg>
