<?xml version="1.0" encoding="utf-8"?>
<!-- Generator: Adobe Illustrator 16.0.0, SVG Export Plug-In . SVG Version: 6.00 Build 0)  -->
<!DOCTYPE svg PUBLIC "-//W3C//DTD SVG 1.1//EN" "http://www.w3.org/Graphics/SVG/1.1/DTD/svg11.dtd">
<svg version="1.1" id="레이어_1" xmlns="http://www.w3.org/2000/svg" xmlns:xlink="http://www.w3.org/1999/xlink" x="0px"
	 y="0px" width="60px" height="52px" viewBox="0 0 60 52" enable-background="new 0 0 60 52" xml:space="preserve">
<path fill="#1EDCDC" d="M28.389,27.45l-0.469-7.018c-0.088-1.366-0.132-2.349-0.132-2.943c0-0.813,0.212-1.443,0.638-1.897
	c0.424-0.454,0.983-0.681,1.676-0.681c0.839,0,1.401,0.291,1.686,0.872s0.425,1.418,0.425,2.512c0,0.646-0.033,1.299-0.104,1.963
	l-0.631,7.223c-0.066,0.858-0.215,1.52-0.438,1.979s-0.596,0.688-1.112,0.688c-0.527,0-0.895-0.223-1.1-0.666
	C28.623,29.034,28.477,28.357,28.389,27.45z M30.016,37.089c-0.597,0-1.117-0.192-1.561-0.579c-0.443-0.386-0.667-0.925-0.667-1.619
	c0-0.604,0.212-1.119,0.638-1.545c0.424-0.424,0.944-0.637,1.56-0.637c0.614,0,1.14,0.212,1.575,0.637
	c0.436,0.426,0.651,0.94,0.651,1.545c0,0.686-0.22,1.223-0.659,1.611C31.114,36.893,30.602,37.089,30.016,37.089z"/>
</svg>
