<?xml version="1.0" encoding="utf-8"?>
<!-- Generator: Adobe Illustrator 16.0.0, SVG Export Plug-In . SVG Version: 6.00 Build 0)  -->
<!DOCTYPE svg PUBLIC "-//W3C//DTD SVG 1.1//EN" "http://www.w3.org/Graphics/SVG/1.1/DTD/svg11.dtd">
<svg version="1.1" id="레이어_1" xmlns="http://www.w3.org/2000/svg" xmlns:xlink="http://www.w3.org/1999/xlink" x="0px"
	 y="0px" width="60px" height="52px" viewBox="0 0 60 52" enable-background="new 0 0 60 52" xml:space="preserve">
<path fill="#1EDCDC" d="M26.876,17.331v5.937c0.508-0.586,1.003-1.054,1.483-1.396c0.484-0.342,1.021-0.598,1.604-0.77
	c0.586-0.17,1.217-0.256,1.891-0.256c1.02,0,1.916,0.215,2.703,0.645c0.785,0.43,1.403,1.055,1.854,1.875
	c0.279,0.479,0.475,1.014,0.568,1.604c0.102,0.592,0.146,1.272,0.146,2.043v7.661c0,0.802-0.187,1.405-0.552,1.815
	c-0.363,0.406-0.854,0.611-1.456,0.611c-1.317,0-1.979-0.813-1.979-2.435v-6.754c0-1.274-0.189-2.262-0.57-2.948
	c-0.381-0.688-1.104-1.032-2.168-1.032c-0.713,0-1.354,0.202-1.926,0.605c-0.571,0.404-0.999,0.959-1.282,1.662
	c-0.215,0.599-0.318,1.653-0.318,3.182v5.285c0,0.791-0.182,1.396-0.535,1.812c-0.356,0.416-0.854,0.623-1.487,0.623
	c-1.317,0-1.978-0.813-1.978-2.435V17.325c0-0.812,0.173-1.418,0.52-1.824c0.347-0.401,0.833-0.604,1.458-0.604
	c0.635,0,1.13,0.205,1.487,0.615C26.697,15.925,26.876,16.53,26.876,17.331z"/>
</svg>
