<?xml version="1.0" encoding="utf-8"?>
<!-- Generator: Adobe Illustrator 16.0.0, SVG Export Plug-In . SVG Version: 6.00 Build 0)  -->
<!DOCTYPE svg PUBLIC "-//W3C//DTD SVG 1.1//EN" "http://www.w3.org/Graphics/SVG/1.1/DTD/svg11.dtd">
<svg version="1.1" id="레이어_1" xmlns="http://www.w3.org/2000/svg" xmlns:xlink="http://www.w3.org/1999/xlink" x="0px"
	 y="0px" width="60px" height="52px" viewBox="0 0 60 52" enable-background="new 0 0 60 52" xml:space="preserve">
<path fill="#1EDCDC" d="M31.677,34.834v-2.725h-7.354c-0.928,0-1.624-0.211-2.087-0.631c-0.463-0.42-0.696-0.99-0.696-1.715
	c0-0.187,0.034-0.373,0.103-0.563c0.069-0.191,0.171-0.392,0.308-0.603c0.137-0.211,0.278-0.412,0.425-0.607
	c0.147-0.194,0.327-0.436,0.542-0.719l7.764-10.386c0.508-0.685,0.926-1.179,1.252-1.487c0.327-0.308,0.721-0.461,1.181-0.461
	c1.483,0,2.227,0.851,2.227,2.549v11.338h0.63c0.752,0,1.354,0.104,1.811,0.309c0.453,0.205,0.681,0.654,0.681,1.349
	c0,0.565-0.187,0.979-0.558,1.238c-0.371,0.258-0.928,0.389-1.67,0.389H35.34v2.725c0,0.752-0.166,1.311-0.498,1.676
	c-0.332,0.367-0.775,0.551-1.333,0.551c-0.547,0-0.989-0.188-1.325-0.563C31.846,36.119,31.677,35.566,31.677,34.834z
	 M25.378,28.828h6.299v-8.512L25.378,28.828z"/>
</svg>
