<?xml version="1.0" encoding="utf-8"?>
<!-- Generator: Adobe Illustrator 16.0.0, SVG Export Plug-In . SVG Version: 6.00 Build 0)  -->
<!DOCTYPE svg PUBLIC "-//W3C//DTD SVG 1.1//EN" "http://www.w3.org/Graphics/SVG/1.1/DTD/svg11.dtd">
<svg version="1.1" id="레이어_1" xmlns="http://www.w3.org/2000/svg" xmlns:xlink="http://www.w3.org/1999/xlink" x="0px"
	 y="0px" width="75px" height="52px" viewBox="0 0 75 52" enable-background="new 0 0 75 52" xml:space="preserve">
<path fill="#1EDCDC" d="M24.099,46.154l-0.513-1.35h-4.365l-0.513,1.377c-0.2,0.536-0.371,0.896-0.513,1.09
	c-0.142,0.188-0.374,0.278-0.696,0.278c-0.273,0-0.515-0.102-0.725-0.303c-0.21-0.197-0.315-0.429-0.315-0.683
	c0-0.146,0.024-0.297,0.073-0.453c0.049-0.155,0.129-0.372,0.242-0.651l2.747-6.974c0.078-0.198,0.172-0.438,0.282-0.723
	c0.11-0.279,0.228-0.518,0.352-0.699c0.125-0.188,0.288-0.334,0.491-0.448c0.202-0.115,0.453-0.173,0.75-0.173
	c0.303,0,0.555,0.058,0.758,0.173c0.202,0.114,0.366,0.262,0.49,0.442c0.125,0.181,0.229,0.375,0.315,0.582
	c0.085,0.205,0.194,0.48,0.326,0.83l2.805,6.93c0.22,0.525,0.33,0.91,0.33,1.146c0,0.248-0.104,0.479-0.311,0.688
	c-0.208,0.207-0.458,0.313-0.751,0.313c-0.171,0-0.317-0.026-0.439-0.092c-0.122-0.063-0.225-0.146-0.308-0.25
	s-0.172-0.267-0.268-0.479C24.249,46.514,24.167,46.32,24.099,46.154z M19.792,43.174H23l-1.619-4.432L19.792,43.174z"/>
<path fill="#1EDCDC" d="M27.878,46.338v-8.672c0-0.4,0.089-0.703,0.267-0.908c0.179-0.205,0.42-0.307,0.723-0.307
	c0.303,0,0.547,0.102,0.732,0.303c0.185,0.203,0.277,0.508,0.277,0.912v8.672c0,0.406-0.094,0.709-0.281,0.912
	c-0.188,0.203-0.432,0.305-0.729,0.305c-0.293,0-0.531-0.104-0.714-0.313C27.97,47.029,27.878,46.729,27.878,46.338z"/>
<path fill="#1EDCDC" d="M32.053,39.6h0.221v-1.197c0-0.321,0.008-0.573,0.025-0.762c0.016-0.184,0.064-0.34,0.143-0.473
	c0.078-0.137,0.189-0.248,0.337-0.334c0.146-0.084,0.31-0.127,0.491-0.127c0.254,0,0.482,0.096,0.688,0.285
	c0.137,0.127,0.225,0.281,0.26,0.465c0.037,0.188,0.055,0.443,0.055,0.781v1.359h0.732c0.283,0,0.499,0.063,0.648,0.2
	c0.148,0.138,0.224,0.31,0.224,0.521c0,0.268-0.106,0.455-0.317,0.563c-0.213,0.107-0.518,0.16-0.912,0.16h-0.375v3.678
	c0,0.313,0.012,0.557,0.033,0.727c0.022,0.169,0.082,0.306,0.176,0.408c0.097,0.104,0.25,0.154,0.466,0.154
	c0.116,0,0.276-0.021,0.476-0.063c0.2-0.041,0.356-0.063,0.469-0.063c0.162,0,0.307,0.063,0.437,0.191
	c0.129,0.129,0.194,0.288,0.194,0.479c0,0.32-0.176,0.566-0.527,0.738s-0.857,0.258-1.516,0.258c-0.625,0-1.1-0.104-1.422-0.313
	c-0.322-0.211-0.533-0.502-0.633-0.873c-0.101-0.37-0.15-0.864-0.15-1.485v-3.838H32.01c-0.287,0-0.508-0.065-0.658-0.205
	c-0.151-0.138-0.228-0.312-0.228-0.521c0-0.211,0.079-0.385,0.238-0.52C31.521,39.664,31.75,39.6,32.053,39.6z"/>
</svg>
