<?xml version="1.0" encoding="utf-8"?>
<!-- Generator: Adobe Illustrator 16.0.0, SVG Export Plug-In . SVG Version: 6.00 Build 0)  -->
<!DOCTYPE svg PUBLIC "-//W3C//DTD SVG 1.1//EN" "http://www.w3.org/Graphics/SVG/1.1/DTD/svg11.dtd">
<svg version="1.1" id="레이어_1" xmlns="http://www.w3.org/2000/svg" xmlns:xlink="http://www.w3.org/1999/xlink" x="0px"
	 y="0px" width="60px" height="52px" viewBox="0 0 60 52" enable-background="new 0 0 60 52" xml:space="preserve">
<path fill="#1EDCDC" d="M34.051,34.814v-0.396c-0.537,0.614-1.066,1.116-1.59,1.501c-0.521,0.388-1.088,0.681-1.697,0.879
	c-0.611,0.201-1.278,0.302-2,0.302c-0.957,0-1.843-0.203-2.659-0.607c-0.815-0.402-1.521-0.98-2.117-1.732
	c-0.596-0.752-1.047-1.639-1.355-2.65c-0.308-1.014-0.461-2.11-0.461-3.297c0-2.5,0.61-4.444,1.831-5.845
	c1.221-1.4,2.827-2.099,4.819-2.099c1.152,0,2.125,0.197,2.916,0.598c0.791,0.396,1.563,1.003,2.313,1.82v-5.9
	c0-0.818,0.164-1.438,0.492-1.857c0.326-0.423,0.793-0.633,1.398-0.633c0.604,0,1.071,0.193,1.397,0.578
	c0.328,0.391,0.492,0.955,0.492,1.707V34.82c0,0.764-0.177,1.334-0.527,1.715c-0.352,0.381-0.807,0.568-1.362,0.568
	c-0.547,0-0.998-0.193-1.354-0.595C34.229,36.111,34.051,35.547,34.051,34.814z M26.185,28.941c0,1.084,0.168,2.006,0.505,2.771
	c0.337,0.763,0.798,1.336,1.384,1.722c0.586,0.391,1.226,0.578,1.919,0.578c0.702,0,1.345-0.187,1.925-0.554
	c0.582-0.36,1.045-0.929,1.393-1.685c0.348-0.758,0.521-1.7,0.521-2.834c0-1.063-0.173-1.979-0.521-2.748
	c-0.348-0.766-0.813-1.352-1.406-1.758c-0.59-0.404-1.237-0.607-1.94-0.607c-0.732,0-1.387,0.207-1.963,0.623
	c-0.576,0.414-1.023,1.014-1.34,1.787C26.342,27.014,26.185,27.914,26.185,28.941z"/>
</svg>
