<?xml version="1.0" encoding="utf-8"?>
<!-- Generator: Adobe Illustrator 16.0.0, SVG Export Plug-In . SVG Version: 6.00 Build 0)  -->
<!DOCTYPE svg PUBLIC "-//W3C//DTD SVG 1.1//EN" "http://www.w3.org/Graphics/SVG/1.1/DTD/svg11.dtd">
<svg version="1.1" id="레이어_1" xmlns="http://www.w3.org/2000/svg" xmlns:xlink="http://www.w3.org/1999/xlink" x="0px"
	 y="0px" width="60px" height="52px" viewBox="0 0 60 52" enable-background="new 0 0 60 52" xml:space="preserve">
<path fill="#1EDCDC" d="M37.559,29.208c0,0.498-0.147,1.026-0.447,1.597c-0.297,0.567-0.752,1.106-1.36,1.618
	c-0.608,0.515-1.379,0.927-2.308,1.238c-0.928,0.312-1.973,0.469-3.135,0.469c-2.471,0-4.399-0.721-5.786-2.159
	c-1.387-1.441-2.08-3.373-2.08-5.795c0-1.642,0.317-3.091,0.952-4.351c0.635-1.264,1.553-2.234,2.754-2.926s2.637-1.029,4.307-1.029
	c1.036,0,1.984,0.147,2.85,0.45c0.863,0.306,1.596,0.693,2.195,1.175c0.602,0.479,1.061,0.986,1.377,1.527
	c0.318,0.543,0.477,1.048,0.477,1.52c0,0.479-0.178,0.885-0.535,1.217c-0.356,0.332-0.789,0.498-1.295,0.498
	c-0.332,0-0.608-0.086-0.828-0.256c-0.221-0.172-0.467-0.447-0.739-0.828c-0.488-0.742-1-1.299-1.531-1.67
	c-0.532-0.371-1.209-0.561-2.029-0.561c-1.182,0-2.134,0.461-2.856,1.389c-0.723,0.922-1.084,2.185-1.084,3.782
	c0,0.755,0.093,1.442,0.278,2.073c0.186,0.629,0.454,1.166,0.806,1.607c0.352,0.443,0.776,0.781,1.274,1.014
	c0.498,0.233,1.045,0.346,1.641,0.346c0.8,0,1.486-0.188,2.059-0.557c0.569-0.371,1.075-0.938,1.516-1.699
	c0.244-0.449,0.508-0.801,0.791-1.059c0.283-0.254,0.631-0.381,1.041-0.381c0.488,0,0.893,0.188,1.215,0.561
	C37.396,28.393,37.559,28.788,37.559,29.208z"/>
</svg>
