<?xml version="1.0" encoding="utf-8"?>
<!-- Generator: Adobe Illustrator 16.0.0, SVG Export Plug-In . SVG Version: 6.00 Build 0)  -->
<!DOCTYPE svg PUBLIC "-//W3C//DTD SVG 1.1//EN" "http://www.w3.org/Graphics/SVG/1.1/DTD/svg11.dtd">
<svg version="1.1" id="레이어_1" xmlns="http://www.w3.org/2000/svg" xmlns:xlink="http://www.w3.org/1999/xlink" x="0px"
	 y="0px" width="60px" height="52px" viewBox="0 0 60 52" enable-background="new 0 0 60 52" xml:space="preserve">
<path fill="#1EDCDC" d="M23.099,20.625c0-0.977,0.271-1.897,0.798-2.761c0.533-0.864,1.314-1.555,2.348-2.073
	c1.028-0.518,2.23-0.776,3.607-0.776c1.162,0,2.188,0.151,3.064,0.454c0.879,0.303,1.607,0.72,2.193,1.252
	c0.586,0.532,1.021,1.133,1.307,1.802c0.287,0.669,0.426,1.379,0.426,2.131c0,0.957-0.248,1.812-0.74,2.563
	c-0.494,0.752-1.229,1.367-2.205,1.846c0.83,0.321,1.521,0.745,2.066,1.267c0.543,0.521,0.959,1.129,1.234,1.816
	c0.277,0.688,0.42,1.453,0.42,2.291c0,1.229-0.301,2.347-0.896,3.348c-0.596,1.002-1.471,1.785-2.623,2.352
	c-1.149,0.565-2.51,0.85-4.07,0.85c-1.62,0-3.01-0.282-4.158-0.85c-1.152-0.566-2.021-1.346-2.607-2.336
	c-0.586-0.99-0.879-2.103-0.879-3.334c0-2.627,1.24-4.428,3.721-5.404C24.1,24.125,23.099,22.646,23.099,20.625z M33.602,30.32
	c0-0.762-0.153-1.426-0.469-1.991c-0.313-0.565-0.752-1-1.318-1.304c-0.563-0.303-1.196-0.455-1.899-0.455
	c-0.996,0-1.831,0.332-2.505,0.996c-0.678,0.664-1.015,1.593-1.015,2.783c0,0.762,0.158,1.434,0.479,2.015
	c0.313,0.581,0.749,1.03,1.296,1.348s1.158,0.478,1.832,0.478c0.684,0,1.299-0.162,1.846-0.482c0.547-0.322,0.979-0.777,1.289-1.363
	C33.447,31.758,33.602,31.083,33.602,30.32z M29.939,17.812c-0.918,0-1.654,0.286-2.219,0.857c-0.563,0.571-0.843,1.306-0.843,2.205
	c0,0.83,0.288,1.521,0.864,2.073c0.572,0.552,1.314,0.828,2.227,0.828c0.459,0,0.878-0.073,1.253-0.22
	c0.377-0.146,0.698-0.349,0.967-0.608c0.271-0.259,0.479-0.566,0.623-0.923c0.146-0.357,0.221-0.75,0.221-1.179
	c0-0.576-0.131-1.094-0.389-1.553c-0.261-0.459-0.623-0.82-1.093-1.084C31.082,17.943,30.545,17.812,29.939,17.812z"/>
</svg>
