<?xml version="1.0" encoding="utf-8"?>
<!-- Generator: Adobe Illustrator 16.0.0, SVG Export Plug-In . SVG Version: 6.00 Build 0)  -->
<!DOCTYPE svg PUBLIC "-//W3C//DTD SVG 1.1//EN" "http://www.w3.org/Graphics/SVG/1.1/DTD/svg11.dtd">
<svg version="1.1" id="레이어_1" xmlns="http://www.w3.org/2000/svg" xmlns:xlink="http://www.w3.org/1999/xlink" x="0px"
	 y="0px" width="60px" height="52px" viewBox="0 0 60 52" enable-background="new 0 0 60 52" xml:space="preserve">
<path fill="#1EDCDC" d="M36.855,28.902c0,1.104-0.27,2.048-0.808,2.834c-0.537,0.785-1.33,1.382-2.379,1.787
	c-1.051,0.404-2.328,0.607-3.832,0.607c-1.436,0-2.666-0.224-3.691-0.66c-1.025-0.438-1.782-0.988-2.271-1.646
	c-0.488-0.66-0.732-1.32-0.732-1.984c0-0.438,0.156-0.813,0.469-1.129c0.313-0.313,0.708-0.469,1.187-0.469
	c0.42,0,0.742,0.104,0.967,0.309c0.225,0.205,0.439,0.492,0.645,0.863c0.41,0.713,0.901,1.245,1.472,1.599
	c0.571,0.354,1.35,0.526,2.336,0.526c0.801,0,1.458-0.181,1.971-0.535s0.769-0.765,0.769-1.224c0-0.703-0.267-1.217-0.798-1.538
	c-0.532-0.322-1.409-0.63-2.629-0.923c-1.377-0.342-2.498-0.7-3.362-1.077c-0.864-0.375-1.555-0.871-2.073-1.486
	c-0.518-0.612-0.776-1.371-0.776-2.271c0-0.801,0.239-1.558,0.718-2.271c0.479-0.713,1.184-1.281,2.117-1.707
	c0.933-0.424,2.058-0.641,3.376-0.641c1.035,0,1.965,0.107,2.791,0.322s1.515,0.503,2.064,0.861c0.551,0.361,0.973,0.765,1.26,1.201
	c0.289,0.438,0.433,0.869,0.433,1.289c0,0.459-0.154,0.834-0.461,1.127c-0.308,0.293-0.744,0.439-1.312,0.439
	c-0.41,0-0.76-0.117-1.047-0.352c-0.289-0.235-0.619-0.586-0.988-1.057c-0.305-0.393-0.66-0.701-1.069-0.938
	c-0.41-0.234-0.967-0.354-1.67-0.354c-0.723,0-1.323,0.153-1.802,0.463c-0.479,0.309-0.718,0.688-0.718,1.147
	c0,0.42,0.176,0.765,0.527,1.032c0.352,0.269,0.825,0.488,1.421,0.666c0.596,0.177,1.416,0.392,2.46,0.646
	c1.24,0.306,2.254,0.664,3.041,1.084c0.786,0.422,1.381,0.916,1.786,1.487C36.652,27.52,36.855,28.171,36.855,28.902z"/>
</svg>
