<?xml version="1.0" encoding="utf-8"?>
<!-- Generator: Adobe Illustrator 16.0.0, SVG Export Plug-In . SVG Version: 6.00 Build 0)  -->
<!DOCTYPE svg PUBLIC "-//W3C//DTD SVG 1.1//EN" "http://www.w3.org/Graphics/SVG/1.1/DTD/svg11.dtd">
<svg version="1.1" id="레이어_1" xmlns="http://www.w3.org/2000/svg" xmlns:xlink="http://www.w3.org/1999/xlink" x="0px"
	 y="0px" width="75px" height="52px" viewBox="0 0 75 52" enable-background="new 0 0 75 52" xml:space="preserve">
<path fill="#1EDCDC" d="M43.411,43.979c0,0.342-0.084,0.711-0.252,1.104c-0.168,0.397-0.435,0.789-0.795,1.174
	c-0.36,0.388-0.822,0.693-1.384,0.938c-0.562,0.242-1.217,0.354-1.963,0.354c-0.566,0-1.083-0.057-1.545-0.157
	c-0.463-0.107-0.885-0.275-1.264-0.504c-0.379-0.23-0.727-0.523-1.043-0.896c-0.283-0.338-0.525-0.715-0.725-1.133
	c-0.201-0.416-0.352-0.861-0.451-1.336c-0.101-0.479-0.149-0.98-0.149-1.51c0-0.863,0.125-1.644,0.377-2.32
	c0.252-0.688,0.612-1.271,1.081-1.754c0.469-0.486,1.018-0.855,1.648-1.109c0.629-0.254,1.301-0.381,2.014-0.381
	c0.869,0,1.644,0.172,2.321,0.52c0.68,0.35,1.199,0.775,1.561,1.285c0.361,0.514,0.542,0.992,0.542,1.447
	c0,0.248-0.088,0.469-0.265,0.658c-0.176,0.188-0.387,0.285-0.637,0.285c-0.277,0-0.486-0.064-0.625-0.197
	c-0.142-0.131-0.295-0.359-0.467-0.684c-0.283-0.529-0.617-0.935-1-1.191c-0.384-0.266-0.854-0.396-1.416-0.396
	c-0.895,0-1.604,0.342-2.136,1.021c-0.53,0.678-0.794,1.643-0.794,2.893c0,0.836,0.117,1.529,0.352,2.084
	c0.234,0.559,0.566,0.973,0.996,1.242c0.43,0.273,0.934,0.41,1.509,0.41c0.625,0,1.154-0.156,1.584-0.467
	c0.435-0.314,0.76-0.769,0.979-1.365c0.093-0.283,0.208-0.514,0.345-0.691c0.135-0.177,0.355-0.268,0.658-0.268
	c0.26,0,0.48,0.09,0.668,0.271C43.318,43.484,43.411,43.709,43.411,43.979z"/>
<path fill="#1EDCDC" d="M45.339,39.598h0.22V38.4c0-0.322,0.01-0.574,0.025-0.762c0.018-0.185,0.064-0.341,0.143-0.474
	c0.078-0.138,0.19-0.248,0.338-0.334c0.146-0.084,0.311-0.127,0.49-0.127c0.254,0,0.483,0.096,0.688,0.285
	c0.137,0.127,0.224,0.28,0.26,0.465c0.037,0.188,0.056,0.442,0.056,0.78v1.359h0.731c0.283,0,0.498,0.064,0.647,0.201
	c0.148,0.137,0.224,0.309,0.224,0.52c0,0.269-0.104,0.455-0.317,0.563c-0.213,0.106-0.517,0.16-0.912,0.16h-0.373v3.678
	c0,0.313,0.012,0.558,0.032,0.728c0.021,0.168,0.081,0.305,0.177,0.408s0.25,0.153,0.465,0.153c0.117,0,0.275-0.021,0.477-0.063
	c0.199-0.041,0.355-0.063,0.469-0.063c0.161,0,0.307,0.063,0.437,0.191c0.129,0.128,0.194,0.289,0.194,0.479
	c0,0.32-0.177,0.566-0.526,0.738c-0.353,0.172-0.857,0.258-1.517,0.258c-0.625,0-1.1-0.104-1.422-0.313s-0.533-0.502-0.633-0.873
	c-0.102-0.371-0.15-0.865-0.15-1.486v-3.838h-0.264c-0.288,0-0.508-0.066-0.658-0.205c-0.152-0.137-0.229-0.311-0.229-0.52
	c0-0.211,0.08-0.386,0.238-0.521C44.807,39.662,45.034,39.598,45.339,39.598z"/>
<path fill="#1EDCDC" d="M52.523,44.666v1.67c0,0.406-0.096,0.709-0.287,0.912c-0.188,0.203-0.432,0.305-0.725,0.305
	c-0.287,0-0.525-0.104-0.71-0.309s-0.278-0.508-0.278-0.908V40.77c0-0.897,0.326-1.354,0.976-1.354c0.332,0,0.569,0.105,0.718,0.314
	c0.147,0.211,0.229,0.521,0.242,0.932c0.239-0.41,0.482-0.721,0.734-0.932c0.252-0.209,0.589-0.314,1.009-0.314
	s0.827,0.105,1.223,0.314c0.396,0.211,0.593,0.485,0.593,0.836c0,0.244-0.084,0.442-0.252,0.604
	c-0.168,0.16-0.351,0.238-0.545,0.238c-0.072,0-0.25-0.045-0.531-0.137c-0.281-0.09-0.527-0.138-0.742-0.138
	c-0.293,0-0.533,0.074-0.719,0.229c-0.187,0.154-0.33,0.383-0.433,0.688s-0.173,0.662-0.212,1.08
	C52.544,43.557,52.523,44.066,52.523,44.666z"/>
<path fill="#1EDCDC" d="M56.909,46.336v-8.672c0-0.4,0.09-0.703,0.268-0.908c0.179-0.205,0.419-0.307,0.724-0.307
	c0.303,0,0.547,0.102,0.73,0.303c0.186,0.203,0.278,0.508,0.278,0.912v8.672c0,0.406-0.095,0.709-0.282,0.912
	s-0.432,0.305-0.729,0.305c-0.293,0-0.531-0.104-0.715-0.313C57.003,47.027,56.909,46.727,56.909,46.336z"/>
</svg>
