<?xml version="1.0" encoding="utf-8"?>
<!-- Generator: Adobe Illustrator 16.0.0, SVG Export Plug-In . SVG Version: 6.00 Build 0)  -->
<!DOCTYPE svg PUBLIC "-//W3C//DTD SVG 1.1//EN" "http://www.w3.org/Graphics/SVG/1.1/DTD/svg11.dtd">
<svg version="1.1" id="레이어_1" xmlns="http://www.w3.org/2000/svg" xmlns:xlink="http://www.w3.org/1999/xlink" x="0px"
	 y="0px" width="60px" height="52px" viewBox="0 0 60 52" enable-background="new 0 0 60 52" xml:space="preserve">
<path fill="#1EDCDC" d="M35.873,18.617h-9.8v5.272h9.022c0.664,0,1.16,0.149,1.488,0.447c0.326,0.299,0.49,0.691,0.49,1.18
	c0,0.489-0.16,0.886-0.482,1.193c-0.322,0.309-0.82,0.461-1.494,0.461h-9.022v6.107h10.136c0.684,0,1.199,0.16,1.545,0.478
	s0.52,0.74,0.52,1.269c0,0.508-0.172,0.92-0.52,1.237c-0.346,0.316-0.861,0.478-1.545,0.478H24.389
	c-0.947,0-1.628-0.211-2.043-0.631c-0.415-0.42-0.623-1.099-0.623-2.035V17.928c0-0.625,0.094-1.135,0.278-1.531
	s0.476-0.684,0.872-0.864c0.396-0.18,0.9-0.271,1.516-0.271h11.484c0.693,0,1.209,0.154,1.545,0.461
	c0.338,0.307,0.506,0.71,0.506,1.208c0,0.508-0.168,0.916-0.506,1.223C37.082,18.461,36.566,18.617,35.873,18.617z"/>
</svg>
