<?xml version="1.0" encoding="utf-8"?>
<!-- Generator: Adobe Illustrator 16.0.0, SVG Export Plug-In . SVG Version: 6.00 Build 0)  -->
<!DOCTYPE svg PUBLIC "-//W3C//DTD SVG 1.1//EN" "http://www.w3.org/Graphics/SVG/1.1/DTD/svg11.dtd">
<svg version="1.1" id="레이어_1" xmlns="http://www.w3.org/2000/svg" xmlns:xlink="http://www.w3.org/1999/xlink" x="0px"
	 y="0px" width="60px" height="52px" viewBox="0 0 60 52" enable-background="new 0 0 60 52" xml:space="preserve">
<path fill="#1EDCDC" d="M30.838,25.251c0.656-0.303,1.281-0.604,1.877-0.907c0.598-0.304,1.07-0.524,1.426-0.666
	c0.354-0.142,0.635-0.212,0.849-0.212c0.354,0,0.657,0.118,0.915,0.355c0.257,0.237,0.386,0.532,0.386,0.885
	c0,0.202-0.063,0.411-0.188,0.628c-0.125,0.218-0.262,0.355-0.399,0.416c-1.302,0.516-2.734,0.889-4.3,1.12
	c0.283,0.264,0.632,0.61,1.046,1.044c0.413,0.436,0.631,0.666,0.647,0.695c0.152,0.213,0.363,0.477,0.639,0.787
	c0.271,0.313,0.461,0.559,0.564,0.734c0.105,0.178,0.16,0.393,0.16,0.645c0,0.322-0.121,0.604-0.363,0.848
	c-0.24,0.243-0.557,0.363-0.938,0.363c-0.383,0-0.814-0.297-1.295-0.894c-0.479-0.596-1.096-1.665-1.854-3.209
	c-0.768,1.394-1.279,2.312-1.543,2.755c-0.264,0.443-0.516,0.78-0.758,1.006c-0.242,0.229-0.52,0.342-0.832,0.342
	c-0.373,0-0.684-0.129-0.932-0.387c-0.246-0.258-0.371-0.531-0.371-0.824c0-0.271,0.051-0.479,0.152-0.621
	c0.928-1.262,1.895-2.355,2.904-3.285c-0.848-0.131-1.604-0.276-2.271-0.438c-0.666-0.161-1.371-0.398-2.119-0.711
	c-0.121-0.062-0.238-0.199-0.355-0.416c-0.113-0.217-0.174-0.417-0.174-0.599c0-0.353,0.129-0.647,0.389-0.885
	c0.256-0.237,0.553-0.355,0.885-0.355c0.242,0,0.545,0.072,0.908,0.219c0.361,0.146,0.822,0.357,1.385,0.636
	c0.561,0.278,1.199,0.588,1.916,0.931c-0.133-0.636-0.24-1.364-0.326-2.187c-0.086-0.823-0.129-1.385-0.129-1.688
	c0-0.372,0.119-0.693,0.354-0.961c0.238-0.267,0.543-0.4,0.916-0.4c0.363,0,0.664,0.134,0.9,0.4
	c0.238,0.269,0.354,0.624,0.354,1.067c0,0.121-0.018,0.361-0.053,0.719c-0.035,0.358-0.086,0.792-0.148,1.303
	C30.992,24.013,30.92,24.596,30.838,25.251z"/>
</svg>
