<?xml version="1.0" encoding="utf-8"?>
<!-- Generator: Adobe Illustrator 16.0.0, SVG Export Plug-In . SVG Version: 6.00 Build 0)  -->
<!DOCTYPE svg PUBLIC "-//W3C//DTD SVG 1.1//EN" "http://www.w3.org/Graphics/SVG/1.1/DTD/svg11.dtd">
<svg version="1.1" id="레이어_1" xmlns="http://www.w3.org/2000/svg" xmlns:xlink="http://www.w3.org/1999/xlink" x="0px"
	 y="0px" width="60px" height="52px" viewBox="0 0 60 52" enable-background="new 0 0 60 52" xml:space="preserve">
<path fill="#1EDCDC" d="M30.505,28.357v3.341c0,0.811-0.19,1.418-0.571,1.823s-0.864,0.607-1.45,0.607
	c-0.576,0-1.05-0.205-1.421-0.613c-0.371-0.41-0.557-1.018-0.557-1.816V20.565c0-1.797,0.649-2.695,1.948-2.695
	c0.664,0,1.143,0.21,1.436,0.63s0.454,1.04,0.483,1.86c0.479-0.82,0.969-1.44,1.473-1.86s1.174-0.63,2.014-0.63
	c0.842,0,1.656,0.21,2.447,0.63s1.188,0.977,1.188,1.67c0,0.488-0.168,0.891-0.506,1.208s-0.701,0.476-1.092,0.476
	c-0.146,0-0.5-0.09-1.062-0.271c-0.563-0.181-1.06-0.271-1.487-0.271c-0.587,0-1.063,0.154-1.438,0.461
	c-0.372,0.307-0.659,0.764-0.864,1.37c-0.204,0.606-0.346,1.326-0.424,2.161C30.544,26.139,30.505,27.157,30.505,28.357z"/>
</svg>
