<?xml version="1.0" encoding="utf-8"?>
<!-- Generator: Adobe Illustrator 16.0.0, SVG Export Plug-In . SVG Version: 6.00 Build 0)  -->
<!DOCTYPE svg PUBLIC "-//W3C//DTD SVG 1.1//EN" "http://www.w3.org/Graphics/SVG/1.1/DTD/svg11.dtd">
<svg version="1.1" id="레이어_1" xmlns="http://www.w3.org/2000/svg" xmlns:xlink="http://www.w3.org/1999/xlink" x="0px"
	 y="0px" width="60px" height="26px" viewBox="0 0 60 26" enable-background="new 0 0 60 26" xml:space="preserve">
<path fill="#1EDCDC" d="M28.323,9.249h-4.284v2.748h3.581c0.332,0,0.58,0.074,0.743,0.224c0.163,0.15,0.246,0.348,0.246,0.597
	s-0.083,0.447-0.249,0.594c-0.166,0.146-0.413,0.219-0.74,0.219h-3.581v3.539c0,0.449-0.103,0.783-0.305,1
	c-0.203,0.217-0.462,0.326-0.78,0.326c-0.321,0-0.585-0.11-0.787-0.33c-0.203-0.221-0.305-0.553-0.305-0.996V8.906
	c0-0.313,0.046-0.567,0.14-0.766c0.093-0.197,0.237-0.341,0.436-0.433c0.197-0.09,0.45-0.136,0.758-0.136h5.127
	c0.347,0,0.604,0.077,0.772,0.23c0.168,0.153,0.252,0.354,0.252,0.604c0,0.254-0.084,0.458-0.252,0.611
	C28.927,9.172,28.671,9.249,28.323,9.249z"/>
<path fill="#1EDCDC" d="M33.143,16.581h3.823c0.382,0,0.67,0.078,0.871,0.233c0.201,0.156,0.302,0.369,0.302,0.638
	c0,0.237-0.08,0.44-0.238,0.606c-0.159,0.166-0.398,0.25-0.724,0.25h-5.391c-0.365,0-0.652-0.102-0.856-0.305
	c-0.205-0.203-0.309-0.441-0.309-0.715c0-0.176,0.066-0.408,0.197-0.699c0.133-0.29,0.275-0.52,0.433-0.686
	c0.649-0.674,1.235-1.25,1.758-1.731c0.522-0.479,0.896-0.798,1.121-0.948c0.399-0.283,0.733-0.566,1-0.854
	c0.267-0.285,0.47-0.578,0.606-0.879c0.142-0.301,0.209-0.595,0.209-0.883c0-0.313-0.074-0.592-0.225-0.838
	c-0.147-0.246-0.352-0.438-0.605-0.575c-0.258-0.137-0.536-0.205-0.84-0.205c-0.641,0-1.143,0.281-1.508,0.842
	c-0.051,0.073-0.133,0.273-0.246,0.602c-0.114,0.327-0.244,0.579-0.389,0.754c-0.145,0.175-0.355,0.265-0.633,0.265
	c-0.244,0-0.447-0.082-0.607-0.243c-0.162-0.16-0.242-0.381-0.242-0.658c0-0.337,0.076-0.688,0.228-1.056
	c0.149-0.367,0.377-0.697,0.679-0.996c0.299-0.298,0.68-0.539,1.143-0.721c0.461-0.184,1.002-0.275,1.621-0.275
	c0.748,0,1.385,0.117,1.912,0.353c0.343,0.156,0.643,0.371,0.901,0.645s0.459,0.59,0.604,0.949c0.145,0.358,0.216,0.731,0.216,1.117
	c0,0.605-0.149,1.156-0.45,1.652c-0.301,0.496-0.605,0.884-0.918,1.164c-0.313,0.28-0.836,0.723-1.572,1.321
	c-0.734,0.603-1.238,1.067-1.512,1.399C33.384,16.236,33.266,16.396,33.143,16.581z"/>
</svg>
