<?xml version="1.0" encoding="utf-8"?>
<!-- Generator: Adobe Illustrator 16.0.0, SVG Export Plug-In . SVG Version: 6.00 Build 0)  -->
<!DOCTYPE svg PUBLIC "-//W3C//DTD SVG 1.1//EN" "http://www.w3.org/Graphics/SVG/1.1/DTD/svg11.dtd">
<svg version="1.1" id="레이어_1" xmlns="http://www.w3.org/2000/svg" xmlns:xlink="http://www.w3.org/1999/xlink" x="0px"
	 y="0px" width="60px" height="52px" viewBox="0 0 60 52" enable-background="new 0 0 60 52" xml:space="preserve">
<path fill="#1EDCDC" d="M27.771,34.451v-6.813l-5.244-8.13c-0.459-0.731-0.78-1.304-0.974-1.714c-0.19-0.41-0.286-0.767-0.286-1.068
	c0-0.498,0.193-0.929,0.579-1.289c0.386-0.361,0.862-0.542,1.428-0.542c0.6,0,1.047,0.168,1.355,0.505s0.769,1.008,1.384,2.014
	l4.014,6.52l4.062-6.52c0.244-0.4,0.449-0.737,0.615-1.011c0.163-0.274,0.349-0.53,0.549-0.77c0.2-0.238,0.422-0.422,0.667-0.549
	s0.542-0.189,0.895-0.189c0.547,0,1.002,0.178,1.369,0.534c0.367,0.357,0.549,0.77,0.549,1.238c0,0.381-0.092,0.762-0.273,1.144
	c-0.188,0.381-0.503,0.907-0.952,1.582l-5.376,8.247v6.813c0,0.889-0.205,1.553-0.615,1.992c-0.41,0.438-0.933,0.658-1.566,0.658
	c-0.645,0-1.167-0.217-1.563-0.652C27.975,36.016,27.771,35.35,27.771,34.451z"/>
</svg>
