<?xml version="1.0" encoding="utf-8"?>
<!-- Generator: Adobe Illustrator 16.0.0, SVG Export Plug-In . SVG Version: 6.00 Build 0)  -->
<!DOCTYPE svg PUBLIC "-//W3C//DTD SVG 1.1//EN" "http://www.w3.org/Graphics/SVG/1.1/DTD/svg11.dtd">
<svg version="1.1" id="레이어_1" xmlns="http://www.w3.org/2000/svg" xmlns:xlink="http://www.w3.org/1999/xlink" x="0px"
	 y="0px" width="60px" height="52px" viewBox="0 0 60 52" enable-background="new 0 0 60 52" xml:space="preserve">
<path fill="#1EDCDC" d="M29.296,34.614v-13.33c-2.479,1.903-4.149,2.855-5.01,2.855c-0.41,0-0.773-0.164-1.091-0.491
	c-0.317-0.326-0.476-0.706-0.476-1.135c0-0.498,0.155-0.864,0.469-1.099c0.313-0.235,0.864-0.537,1.655-0.908
	c1.182-0.557,2.126-1.143,2.834-1.758c0.708-0.615,1.335-1.304,1.882-2.065c0.547-0.761,0.902-1.229,1.068-1.405
	c0.166-0.177,0.479-0.265,0.938-0.265c0.52,0,0.935,0.2,1.246,0.602c0.313,0.4,0.469,0.951,0.469,1.654v16.772
	c0,1.963-0.668,2.943-2.008,2.943c-0.596,0-1.072-0.199-1.436-0.602C29.476,35.984,29.296,35.395,29.296,34.614z"/>
</svg>
