<?xml version="1.0" encoding="utf-8"?>
<!-- Generator: Adobe Illustrator 16.0.0, SVG Export Plug-In . SVG Version: 6.00 Build 0)  -->
<!DOCTYPE svg PUBLIC "-//W3C//DTD SVG 1.1//EN" "http://www.w3.org/Graphics/SVG/1.1/DTD/svg11.dtd">
<svg version="1.1" id="레이어_1" xmlns="http://www.w3.org/2000/svg" xmlns:xlink="http://www.w3.org/1999/xlink" x="0px"
	 y="0px" width="60px" height="52px" viewBox="0 0 60 52" enable-background="new 0 0 60 52" xml:space="preserve">
<path fill="#1EDCDC" d="M30.273,36.736h-6.562c-0.947,0-1.624-0.213-2.029-0.637c-0.405-0.426-0.604-1.102-0.604-2.029V17.929
	c0-0.947,0.208-1.629,0.619-2.043c0.416-0.416,1.09-0.623,2.018-0.623h6.957c1.023,0,1.914,0.063,2.666,0.188
	s1.426,0.371,2.021,0.73c0.512,0.305,0.957,0.688,1.352,1.147c0.391,0.466,0.688,0.979,0.893,1.539
	c0.205,0.562,0.312,1.154,0.312,1.779c0,2.147-1.072,3.721-3.226,4.717c2.822,0.897,4.232,2.646,4.232,5.245
	c0,1.199-0.311,2.281-0.922,3.244c-0.615,0.963-1.445,1.672-2.49,2.131c-0.654,0.271-1.406,0.467-2.256,0.58
	C32.398,36.68,31.406,36.736,30.273,36.736z M25.426,18.529v5.552h3.984c1.084,0,1.92-0.103,2.512-0.308
	c0.59-0.205,1.041-0.597,1.354-1.173c0.244-0.409,0.365-0.868,0.365-1.377c0-1.084-0.385-1.803-1.156-2.16
	c-0.771-0.355-1.944-0.534-3.526-0.534H25.426L25.426,18.529z M29.951,27.201h-4.525v6.271h4.672c2.939,0,4.41-1.062,4.41-3.181
	c0-1.084-0.381-1.869-1.143-2.354C32.602,27.445,31.465,27.201,29.951,27.201z"/>
</svg>
