<?xml version="1.0" encoding="utf-8"?>
<!-- Generator: Adobe Illustrator 16.0.0, SVG Export Plug-In . SVG Version: 6.00 Build 0)  -->
<!DOCTYPE svg PUBLIC "-//W3C//DTD SVG 1.1//EN" "http://www.w3.org/Graphics/SVG/1.1/DTD/svg11.dtd">
<svg version="1.1" id="레이어_1" xmlns="http://www.w3.org/2000/svg" xmlns:xlink="http://www.w3.org/1999/xlink" x="0px"
	 y="0px" width="60px" height="52px" viewBox="0 0 60 52" enable-background="new 0 0 60 52" xml:space="preserve">
<path fill="#1EDCDC" d="M23.438,34.127l0.542-2.738c-1.348-0.029-2.021-0.565-2.021-1.611c0-0.487,0.168-0.887,0.505-1.194
	s0.833-0.461,1.486-0.461h0.688l0.835-4.262H23.95c-0.635,0-1.125-0.159-1.472-0.476c-0.347-0.317-0.52-0.706-0.52-1.165
	c0-0.488,0.168-0.881,0.505-1.179s0.833-0.447,1.486-0.447h2.184l0.688-3.354c0.107-0.566,0.228-1.011,0.359-1.333
	c0.132-0.322,0.313-0.566,0.542-0.732s0.529-0.249,0.9-0.249c0.518,0,0.913,0.137,1.188,0.41c0.273,0.273,0.41,0.625,0.41,1.055
	c0,0.098-0.084,0.591-0.25,1.479l-0.541,2.725h3.207l0.703-3.354c0.099-0.508,0.19-0.918,0.278-1.23
	c0.088-0.312,0.247-0.576,0.476-0.791c0.229-0.215,0.564-0.322,1.005-0.322c0.508,0,0.899,0.132,1.178,0.396
	c0.279,0.264,0.418,0.62,0.418,1.069c0,0.205-0.012,0.405-0.037,0.601c-0.025,0.196-0.057,0.383-0.096,0.564
	c-0.039,0.181-0.063,0.295-0.072,0.344l-0.543,2.754c1.396,0.029,2.096,0.571,2.096,1.626c0,0.488-0.166,0.879-0.498,1.172
	s-0.824,0.439-1.479,0.439h-0.748l-0.879,4.262h1.627c0.653,0,1.146,0.155,1.479,0.47s0.498,0.708,0.498,1.188
	c0,0.479-0.164,0.867-0.49,1.166c-0.328,0.297-0.824,0.445-1.486,0.445h-2.258l-0.688,3.369c-0.107,0.537-0.203,0.952-0.285,1.245
	c-0.084,0.293-0.242,0.55-0.477,0.771c-0.234,0.219-0.571,0.328-1.012,0.328c-0.488,0-0.874-0.137-1.157-0.408
	c-0.283-0.273-0.426-0.631-0.426-1.07c0-0.398,0.068-0.896,0.205-1.493l0.543-2.739h-3.237l-0.688,3.369
	c-0.177,0.83-0.359,1.428-0.55,1.795c-0.189,0.365-0.598,0.549-1.223,0.549c-0.498,0-0.889-0.137-1.172-0.409
	c-0.283-0.273-0.425-0.632-0.425-1.07c0-0.226,0.026-0.476,0.081-0.754C23.353,34.594,23.398,34.342,23.438,34.127z M32.008,23.858
	H28.77l-0.863,4.263h3.268L32.008,23.858z"/>
</svg>
