<?xml version="1.0" encoding="utf-8"?>
<!-- Generator: Adobe Illustrator 16.0.0, SVG Export Plug-In . SVG Version: 6.00 Build 0)  -->
<!DOCTYPE svg PUBLIC "-//W3C//DTD SVG 1.1//EN" "http://www.w3.org/Graphics/SVG/1.1/DTD/svg11.dtd">
<svg version="1.1" id="레이어_1" xmlns="http://www.w3.org/2000/svg" xmlns:xlink="http://www.w3.org/1999/xlink" x="0px"
	 y="0px" width="60px" height="52px" viewBox="0 0 60 52" enable-background="new 0 0 60 52" xml:space="preserve">
<path fill="#1EDCDC" d="M33.589,27.012c-0.646,0.764-1.364,1.336-2.159,1.723c-0.798,0.385-1.679,0.578-2.646,0.578
	c-0.918,0-1.775-0.179-2.57-0.535c-0.797-0.355-1.48-0.854-2.063-1.494c-0.58-0.641-1.027-1.387-1.344-2.24
	c-0.313-0.854-0.469-1.75-0.469-2.688c0-1.006,0.176-1.96,0.527-2.864c0.351-0.903,0.854-1.687,1.509-2.351
	c0.655-0.664,1.433-1.183,2.337-1.553c0.902-0.371,1.901-0.558,2.995-0.558c1.26,0,2.383,0.229,3.369,0.688
	c0.985,0.459,1.813,1.125,2.489,2c0.675,0.875,1.188,1.975,1.554,3.303c0.36,1.328,0.542,2.832,0.542,4.512
	c0,1.876-0.189,3.528-0.571,4.958c-0.381,1.431-0.935,2.633-1.663,3.604c-0.727,0.973-1.599,1.694-2.613,2.168
	c-1.016,0.475-2.168,0.711-3.458,0.711c-1.27,0-2.369-0.242-3.311-0.726c-0.938-0.483-1.65-1.084-2.139-1.804
	c-0.489-0.717-0.732-1.407-0.732-2.071c0-0.41,0.151-0.776,0.454-1.101c0.303-0.321,0.688-0.481,1.157-0.481
	c0.43,0,0.813,0.119,1.157,0.358c0.342,0.238,0.601,0.599,0.772,1.076c0.215,0.586,0.571,1.058,1.069,1.414
	c0.498,0.357,1.06,0.535,1.685,0.535c0.561,0,1.084-0.143,1.582-0.425c0.498-0.283,0.924-0.685,1.274-1.201
	C33.032,31.504,33.452,29.657,33.589,27.012z M33.252,22.529c0-0.664-0.091-1.276-0.271-1.838c-0.186-0.562-0.438-1.047-0.766-1.458
	c-0.328-0.41-0.719-0.731-1.172-0.967c-0.455-0.234-0.95-0.353-1.483-0.353c-0.932,0-1.718,0.398-2.358,1.194
	c-0.644,0.796-0.967,1.848-0.967,3.157c0,1.299,0.318,2.334,0.967,3.104c0.646,0.771,1.46,1.157,2.446,1.157
	c0.604,0,1.185-0.159,1.731-0.477c0.557-0.316,1.002-0.779,1.352-1.384C33.079,24.063,33.252,23.35,33.252,22.529z"/>
</svg>
