<?xml version="1.0" encoding="utf-8"?>
<!-- Generator: Adobe Illustrator 16.0.0, SVG Export Plug-In . SVG Version: 6.00 Build 0)  -->
<!DOCTYPE svg PUBLIC "-//W3C//DTD SVG 1.1//EN" "http://www.w3.org/Graphics/SVG/1.1/DTD/svg11.dtd">
<svg version="1.1" id="레이어_1" xmlns="http://www.w3.org/2000/svg" xmlns:xlink="http://www.w3.org/1999/xlink" x="0px"
	 y="0px" width="60px" height="52px" viewBox="0 0 60 52" enable-background="new 0 0 60 52" xml:space="preserve">
<path fill="#1EDCDC" d="M26.809,25.984h0.205c0.557,0,1.057,0.213,1.502,0.638c0.439,0.425,0.666,0.954,0.666,1.589
	c0,0.625-0.227,1.141-0.666,1.546c-0.445,0.405-0.994,0.608-1.648,0.608c-0.713,0-1.307-0.286-1.779-0.857
	c-0.475-0.57-0.711-1.385-0.711-2.439c0-0.966,0.207-1.867,0.623-2.716c0.414-0.845,0.922-1.514,1.523-2.006
	c0.6-0.494,1.135-0.74,1.604-0.74c0.313,0,0.561,0.096,0.732,0.277c0.175,0.186,0.264,0.426,0.264,0.719
	c0,0.434-0.188,0.746-0.571,0.951c-0.518,0.283-0.928,0.615-1.229,0.996C27.023,24.93,26.848,25.408,26.809,25.984z M33.283,25.984
	h0.189c0.547,0,1.043,0.213,1.483,0.638c0.442,0.425,0.666,0.954,0.666,1.589c0,0.615-0.224,1.133-0.666,1.553
	c-0.44,0.42-0.994,0.631-1.646,0.631c-0.728,0-1.318-0.293-1.787-0.879s-0.703-1.397-0.703-2.447c0-0.751,0.121-1.458,0.365-2.118
	c0.244-0.664,0.561-1.243,0.94-1.736c0.392-0.49,0.806-0.884,1.246-1.172c0.442-0.288,0.844-0.436,1.192-0.436
	c0.322,0,0.567,0.094,0.74,0.271c0.17,0.182,0.256,0.423,0.256,0.727c0,0.438-0.189,0.756-0.57,0.951
	c-0.537,0.303-0.94,0.637-1.217,1.004C33.506,24.924,33.342,25.398,33.283,25.984z"/>
</svg>
