<?xml version="1.0" encoding="utf-8"?>
<!-- Generator: Adobe Illustrator 16.0.0, SVG Export Plug-In . SVG Version: 6.00 Build 0)  -->
<!DOCTYPE svg PUBLIC "-//W3C//DTD SVG 1.1//EN" "http://www.w3.org/Graphics/SVG/1.1/DTD/svg11.dtd">
<svg version="1.1" id="레이어_1" xmlns="http://www.w3.org/2000/svg" xmlns:xlink="http://www.w3.org/1999/xlink" x="0px"
	 y="0px" width="60px" height="52px" viewBox="0 0 60 52" enable-background="new 0 0 60 52" xml:space="preserve">
<path fill="#1EDCDC" d="M32.66,20.893l0.305-1.355h3.223l-1.854,8.752c-0.113,0.556-0.171,0.92-0.171,1.101
	c0,0.188,0.047,0.334,0.142,0.438c0.094,0.105,0.204,0.158,0.334,0.158c0.438,0,1.008-0.286,1.703-0.86
	c0.696-0.571,1.303-1.354,1.819-2.344c0.517-0.988,0.774-2.069,0.774-3.241c0-0.977-0.186-1.896-0.556-2.759
	c-0.371-0.862-0.905-1.611-1.604-2.246c-0.7-0.635-1.563-1.131-2.594-1.488c-1.031-0.358-2.197-0.537-3.498-0.537
	c-1.328,0-2.543,0.173-3.65,0.519c-1.107,0.346-2.08,0.842-2.917,1.489c-0.838,0.646-1.538,1.446-2.1,2.397
	c-0.497,0.83-0.875,1.75-1.135,2.76c-0.261,1.009-0.391,2.039-0.391,3.088c0,1.399,0.279,2.68,0.836,3.84
	c0.558,1.158,1.367,2.131,2.43,2.916c1.062,0.787,2.345,1.344,3.851,1.674c1.505,0.328,3.206,0.396,5.103,0.201
	c1.505-0.181,2.78-0.521,3.827-1.025c1.046-0.505,1.931-1.213,2.654-2.124h2.601c-0.423,0.871-0.976,1.647-1.653,2.332
	c-0.681,0.685-1.477,1.259-2.388,1.728c-0.912,0.469-1.933,0.823-3.063,1.067s-2.364,0.366-3.699,0.366
	c-2.002,0-3.805-0.264-5.408-0.787c-1.604-0.524-2.952-1.282-4.046-2.271c-1.095-0.988-1.923-2.168-2.484-3.539
	c-0.562-1.373-0.842-2.889-0.842-4.548c0-1.733,0.289-3.354,0.867-4.858c0.578-1.505,1.41-2.814,2.496-3.924
	c1.087-1.111,2.413-1.979,3.979-2.606c1.567-0.626,3.294-0.939,5.183-0.939c1.545,0,2.963,0.226,4.254,0.677
	c1.289,0.452,2.394,1.101,3.313,1.947c0.919,0.847,1.622,1.85,2.105,3.009c0.484,1.16,0.727,2.439,0.727,3.839
	c0,1.091-0.193,2.159-0.586,3.206c-0.393,1.045-0.949,1.984-1.679,2.818s-1.584,1.493-2.569,1.979
	c-0.984,0.484-2.047,0.728-3.188,0.728c-0.657,0-1.172-0.112-1.536-0.337c-0.366-0.224-0.61-0.579-0.732-1.066
	c-0.708,0.699-1.522,1.141-2.441,1.324c-0.92,0.184-1.811,0.098-2.673-0.258c-0.863-0.354-1.561-0.949-2.093-1.787
	c-0.533-0.839-0.8-1.871-0.8-3.102c0-1.277,0.274-2.535,0.824-3.771c0.549-1.237,1.33-2.25,2.344-3.04
	c1.013-0.789,2.158-1.185,3.436-1.185C30.902,19.244,31.977,19.793,32.66,20.893z M25.983,27.216c0,0.978,0.203,1.726,0.61,2.245
	c0.407,0.521,0.94,0.781,1.599,0.781c0.765,0,1.438-0.305,2.02-0.916c0.582-0.609,1.022-1.381,1.325-2.313
	c0.301-0.934,0.451-1.833,0.451-2.705c0-0.432-0.051-0.82-0.151-1.166c-0.103-0.346-0.252-0.648-0.452-0.909
	c-0.199-0.26-0.439-0.458-0.72-0.592c-0.281-0.135-0.601-0.202-0.958-0.202c-0.716,0-1.361,0.279-1.935,0.836
	c-0.573,0.557-1.015,1.281-1.324,2.173C26.137,25.342,25.983,26.264,25.983,27.216z"/>
</svg>
