<?xml version="1.0" encoding="utf-8"?>
<!-- Generator: Adobe Illustrator 16.0.0, SVG Export Plug-In . SVG Version: 6.00 Build 0)  -->
<!DOCTYPE svg PUBLIC "-//W3C//DTD SVG 1.1//EN" "http://www.w3.org/Graphics/SVG/1.1/DTD/svg11.dtd">
<svg version="1.1" id="레이어_1" xmlns="http://www.w3.org/2000/svg" xmlns:xlink="http://www.w3.org/1999/xlink" x="0px"
	 y="0px" width="60px" height="52px" viewBox="0 0 60 52" enable-background="new 0 0 60 52" xml:space="preserve">
<path fill="#1EDCDC" d="M32.174,15.38h-2.441v21.241h2.441c1.264,0,1.895,0.521,1.895,1.566c0,1.035-0.631,1.553-1.895,1.553h-3.645
	c-0.596,0-1.086-0.098-1.473-0.293c-0.389-0.195-0.67-0.49-0.854-0.887c-0.18-0.396-0.271-0.892-0.271-1.486V14.926
	c0-0.918,0.205-1.592,0.611-2.021c0.41-0.43,1.07-0.646,1.98-0.646h3.645c0.64,0,1.108,0.142,1.422,0.425
	c0.313,0.283,0.474,0.664,0.474,1.144C34.064,14.863,33.434,15.38,32.174,15.38z"/>
</svg>
