<?xml version="1.0" encoding="utf-8"?>
<!-- Generator: Adobe Illustrator 16.0.0, SVG Export Plug-In . SVG Version: 6.00 Build 0)  -->
<!DOCTYPE svg PUBLIC "-//W3C//DTD SVG 1.1//EN" "http://www.w3.org/Graphics/SVG/1.1/DTD/svg11.dtd">
<svg version="1.1" id="레이어_1" xmlns="http://www.w3.org/2000/svg" xmlns:xlink="http://www.w3.org/1999/xlink" x="0px"
	 y="0px" width="60px" height="52px" viewBox="0 0 60 52" enable-background="new 0 0 60 52" xml:space="preserve">
<path fill="#1EDCDC" d="M30.271,36.619v-21.24h-2.417c-0.625,0-1.102-0.144-1.428-0.432c-0.328-0.288-0.491-0.662-0.491-1.121
	c0-0.469,0.163-0.847,0.491-1.135c0.326-0.288,0.803-0.432,1.428-0.432h3.619c0.897,0,1.555,0.215,1.969,0.645
	c0.416,0.43,0.623,1.104,0.623,2.021v22.148c0,0.907-0.205,1.579-0.615,2.014c-0.406,0.435-1.064,0.652-1.977,0.652h-3.619
	c-0.625,0-1.102-0.146-1.428-0.433c-0.328-0.289-0.491-0.662-0.491-1.121c0-0.47,0.163-0.848,0.491-1.136
	c0.326-0.288,0.803-0.433,1.428-0.433h2.417V36.619z"/>
</svg>
