<?xml version="1.0" encoding="utf-8"?>
<!-- Generator: Adobe Illustrator 16.0.0, SVG Export Plug-In . SVG Version: 6.00 Build 0)  -->
<!DOCTYPE svg PUBLIC "-//W3C//DTD SVG 1.1//EN" "http://www.w3.org/Graphics/SVG/1.1/DTD/svg11.dtd">
<svg version="1.1" id="레이어_1" xmlns="http://www.w3.org/2000/svg" xmlns:xlink="http://www.w3.org/1999/xlink" x="0px"
	 y="0px" width="60px" height="26px" viewBox="0 0 60 26" enable-background="new 0 0 60 26" xml:space="preserve">
<path fill="#1EDCDC" d="M24.927,9.249h-4.285v2.747h3.582c0.332,0,0.58,0.075,0.743,0.224c0.163,0.149,0.245,0.348,0.245,0.597
	s-0.082,0.447-0.248,0.594c-0.166,0.146-0.413,0.22-0.74,0.22h-3.582v3.538c0,0.449-0.102,0.783-0.304,1s-0.462,0.326-0.78,0.326
	c-0.317,0-0.584-0.11-0.787-0.33c-0.2-0.222-0.304-0.554-0.304-0.996V8.906c0-0.313,0.046-0.567,0.14-0.767
	c0.097-0.197,0.237-0.341,0.438-0.432c0.197-0.09,0.45-0.136,0.758-0.136h5.127c0.35,0,0.604,0.076,0.772,0.229
	c0.169,0.154,0.253,0.355,0.253,0.604c0,0.254-0.084,0.458-0.253,0.61C25.531,9.172,25.273,9.249,24.927,9.249z"/>
<path fill="#1EDCDC" d="M30.632,17.307v-6.666c-1.24,0.952-2.074,1.428-2.504,1.428c-0.205,0-0.388-0.081-0.547-0.244
	c-0.158-0.164-0.237-0.354-0.237-0.568c0-0.249,0.078-0.432,0.234-0.549c0.155-0.117,0.433-0.27,0.827-0.454
	c0.592-0.278,1.063-0.571,1.418-0.879c0.354-0.309,0.668-0.652,0.938-1.033c0.273-0.381,0.451-0.615,0.534-0.703
	c0.083-0.088,0.239-0.132,0.469-0.132c0.262,0,0.469,0.1,0.622,0.3c0.156,0.2,0.234,0.477,0.234,0.828v8.387
	c0,0.979-0.334,1.474-1.003,1.474c-0.299,0-0.537-0.103-0.719-0.302C30.721,17.992,30.632,17.695,30.632,17.307z"/>
<path fill="#1EDCDC" d="M39.545,17.307v-6.666c-1.24,0.952-2.074,1.428-2.504,1.428c-0.205,0-0.391-0.081-0.547-0.244
	c-0.158-0.163-0.238-0.354-0.238-0.568c0-0.249,0.078-0.432,0.234-0.549c0.152-0.117,0.434-0.27,0.826-0.454
	c0.594-0.278,1.063-0.571,1.418-0.879c0.354-0.309,0.67-0.652,0.938-1.033c0.271-0.381,0.451-0.615,0.533-0.703
	c0.084-0.088,0.238-0.132,0.469-0.132c0.262,0,0.469,0.1,0.623,0.3c0.156,0.2,0.234,0.477,0.234,0.828v8.387
	c0,0.979-0.334,1.474-1.006,1.474c-0.301,0-0.535-0.103-0.721-0.302C39.635,17.992,39.545,17.695,39.545,17.307z"/>
</svg>
