<?xml version="1.0" encoding="utf-8"?>
<!-- Generator: Adobe Illustrator 16.0.0, SVG Export Plug-In . SVG Version: 6.00 Build 0)  -->
<!DOCTYPE svg PUBLIC "-//W3C//DTD SVG 1.1//EN" "http://www.w3.org/Graphics/SVG/1.1/DTD/svg11.dtd">
<svg version="1.1" id="레이어_1" xmlns="http://www.w3.org/2000/svg" xmlns:xlink="http://www.w3.org/1999/xlink" x="0px"
	 y="0px" width="60px" height="26px" viewBox="0 0 60 26" enable-background="new 0 0 60 26" xml:space="preserve">
<path fill="#1EDCDC" d="M28.322,9.216h-4.285v2.747h3.582c0.332,0,0.58,0.075,0.743,0.224c0.163,0.149,0.246,0.348,0.246,0.597
	s-0.083,0.447-0.249,0.594c-0.166,0.146-0.413,0.22-0.74,0.22h-3.582v3.538c0,0.449-0.102,0.783-0.304,1
	c-0.203,0.218-0.462,0.326-0.78,0.326c-0.317,0-0.585-0.11-0.788-0.33c-0.201-0.221-0.304-0.553-0.304-0.996V8.873
	c0-0.313,0.046-0.567,0.141-0.767c0.096-0.197,0.236-0.341,0.438-0.432c0.197-0.09,0.45-0.136,0.758-0.136h5.127
	c0.352,0,0.604,0.076,0.772,0.229c0.169,0.154,0.253,0.355,0.253,0.604c0,0.254-0.084,0.458-0.253,0.61
	C28.927,9.139,28.669,9.216,28.322,9.216z"/>
<path fill="#1EDCDC" d="M36.736,9.348h-3.479l-0.417,2.373c0.688-0.371,1.333-0.557,1.919-0.557c0.469,0,0.901,0.088,1.313,0.264
	c0.408,0.176,0.771,0.419,1.074,0.729c0.303,0.311,0.549,0.678,0.725,1.103c0.178,0.426,0.268,0.881,0.268,1.37
	c0,0.707-0.158,1.353-0.479,1.935c-0.313,0.58-0.771,1.041-1.373,1.384c-0.6,0.343-1.288,0.513-2.064,0.513
	c-0.873,0-1.582-0.16-2.127-0.482c-0.547-0.321-0.936-0.691-1.158-1.109c-0.229-0.417-0.34-0.782-0.34-1.096
	c0-0.188,0.079-0.371,0.233-0.541c0.159-0.172,0.358-0.256,0.603-0.256c0.408,0,0.715,0.236,0.916,0.709
	c0.189,0.436,0.459,0.771,0.791,1.016c0.332,0.24,0.7,0.361,1.107,0.361c0.376,0,0.706-0.098,0.988-0.293
	c0.283-0.194,0.502-0.465,0.656-0.807c0.147-0.342,0.229-0.729,0.229-1.164c0-0.47-0.082-0.869-0.248-1.201
	c-0.166-0.332-0.389-0.58-0.668-0.744c-0.271-0.163-0.587-0.245-0.93-0.245c-0.42,0-0.719,0.051-0.9,0.154s-0.438,0.282-0.775,0.539
	c-0.34,0.257-0.619,0.384-0.839,0.384c-0.239,0-0.452-0.086-0.642-0.26c-0.186-0.173-0.273-0.37-0.273-0.589
	c0-0.024,0.022-0.19,0.08-0.498l0.611-3.508c0.068-0.421,0.195-0.726,0.381-0.916c0.188-0.191,0.488-0.286,0.908-0.286h3.867
	c0.762,0,1.143,0.291,1.143,0.872c0,0.254-0.094,0.459-0.273,0.614C37.373,9.27,37.1,9.348,36.736,9.348z"/>
</svg>
