<?xml version="1.0" encoding="utf-8"?>
<!-- Generator: Adobe Illustrator 16.0.0, SVG Export Plug-In . SVG Version: 6.00 Build 0)  -->
<!DOCTYPE svg PUBLIC "-//W3C//DTD SVG 1.1//EN" "http://www.w3.org/Graphics/SVG/1.1/DTD/svg11.dtd">
<svg version="1.1" id="레이어_1" xmlns="http://www.w3.org/2000/svg" xmlns:xlink="http://www.w3.org/1999/xlink" x="0px"
	 y="0px" width="60px" height="26px" viewBox="0 0 60 26" enable-background="new 0 0 60 26" xml:space="preserve">
<path fill="#1EDCDC" d="M41.5,12.424h-2.33c-0.287-4.612-3.98-8.307-8.594-8.595V1.5h-1.151v2.33
	c-4.612,0.288-8.308,3.981-8.595,8.595H18.5v1.151h2.329c0.287,4.613,3.981,8.307,8.595,8.595V24.5h1.151v-2.329
	c4.612-0.288,8.307-3.981,8.595-8.595h2.33V12.424z M37.253,12.424h-2.521c-0.266-2.177-1.979-3.894-4.156-4.158v-2.52
	C34.133,6.028,36.973,8.868,37.253,12.424z M32.816,13.577c-0.229,1.124-1.117,2.012-2.24,2.241v-0.518h-1.151v0.518
	c-1.125-0.229-2.014-1.116-2.242-2.241h0.519v-1.151h-0.518c0.229-1.124,1.117-2.013,2.242-2.241v0.517h1.151v-0.517
	c1.124,0.229,2.012,1.117,2.239,2.241H32.3v1.151H32.816z M29.424,5.747v2.52c-2.178,0.265-3.894,1.98-4.159,4.158h-2.52
	C23.026,8.868,25.868,6.028,29.424,5.747z M22.746,13.577h2.52c0.264,2.176,1.98,3.894,4.159,4.159v2.52
	C25.868,19.975,23.026,17.133,22.746,13.577z M30.576,20.254v-2.52c2.177-0.266,3.893-1.981,4.156-4.159h2.521
	C36.973,17.133,34.133,19.975,30.576,20.254z"/>
</svg>
