<?xml version="1.0" encoding="utf-8"?>
<!-- Generator: Adobe Illustrator 16.0.0, SVG Export Plug-In . SVG Version: 6.00 Build 0)  -->
<!DOCTYPE svg PUBLIC "-//W3C//DTD SVG 1.1//EN" "http://www.w3.org/Graphics/SVG/1.1/DTD/svg11.dtd">
<svg version="1.1" id="레이어_1" xmlns="http://www.w3.org/2000/svg" xmlns:xlink="http://www.w3.org/1999/xlink" x="0px"
	 y="0px" width="75px" height="52px" viewBox="0 0 75 52" enable-background="new 0 0 75 52" xml:space="preserve">
<path fill="#1EDCDC" d="M24.006,38.164h-2.373v7.799c0,0.449-0.1,0.783-0.299,1c-0.201,0.219-0.459,0.326-0.777,0.326
	c-0.321,0-0.584-0.109-0.787-0.33c-0.203-0.22-0.305-0.552-0.305-0.996v-7.799h-2.373c-0.371,0-0.647-0.082-0.828-0.246
	c-0.181-0.164-0.271-0.379-0.271-0.648c0-0.276,0.094-0.498,0.282-0.658s0.46-0.24,0.815-0.24h6.914c0.377,0,0.655,0.082,0.84,0.248
	c0.183,0.166,0.273,0.383,0.273,0.65c0,0.271-0.093,0.484-0.277,0.648C24.656,38.082,24.377,38.164,24.006,38.164z"/>
<path fill="#1EDCDC" d="M30.575,46.162c-0.483,0.375-0.95,0.656-1.403,0.846c-0.451,0.188-0.957,0.281-1.52,0.281
	c-0.514,0-0.963-0.102-1.352-0.305c-0.389-0.201-0.688-0.479-0.897-0.822c-0.21-0.348-0.315-0.725-0.315-1.129
	c0-0.547,0.174-1.014,0.521-1.398c0.347-0.387,0.823-0.646,1.428-0.775c0.127-0.027,0.442-0.096,0.945-0.197
	s0.935-0.195,1.292-0.281c0.359-0.086,0.749-0.188,1.168-0.313c-0.023-0.526-0.131-0.914-0.318-1.16
	c-0.188-0.246-0.578-0.37-1.169-0.37c-0.508,0-0.89,0.071-1.146,0.213s-0.477,0.354-0.659,0.638
	c-0.182,0.282-0.313,0.469-0.388,0.56c-0.076,0.092-0.238,0.137-0.487,0.137c-0.226,0-0.419-0.071-0.582-0.216
	c-0.164-0.145-0.246-0.329-0.246-0.555c0-0.353,0.125-0.69,0.374-1.022s0.637-0.604,1.165-0.819c0.528-0.216,1.185-0.322,1.97-0.322
	c0.879,0,1.57,0.104,2.073,0.312c0.503,0.209,0.858,0.536,1.065,0.985c0.207,0.449,0.313,1.045,0.313,1.787
	c0,0.469-0.001,0.865-0.003,1.192c-0.003,0.326-0.006,0.69-0.012,1.093c0,0.375,0.063,0.768,0.188,1.176
	c0.124,0.408,0.188,0.67,0.188,0.787c0,0.205-0.098,0.392-0.289,0.562c-0.193,0.168-0.412,0.252-0.656,0.252
	c-0.205,0-0.408-0.099-0.607-0.291C31.012,46.809,30.801,46.527,30.575,46.162z M30.444,43.27c-0.293,0.105-0.72,0.222-1.278,0.34
	c-0.56,0.121-0.945,0.209-1.16,0.266c-0.215,0.059-0.42,0.166-0.615,0.33c-0.195,0.163-0.293,0.393-0.293,0.686
	c0,0.303,0.115,0.561,0.344,0.771s0.529,0.316,0.9,0.316c0.396,0,0.761-0.086,1.096-0.26s0.58-0.396,0.736-0.67
	c0.181-0.303,0.271-0.801,0.271-1.494L30.444,43.27L30.444,43.27z"/>
<path fill="#1EDCDC" d="M35.815,47.342c-0.179,0.192-0.409,0.289-0.692,0.289c-0.287,0-0.515-0.094-0.681-0.281
	s-0.249-0.473-0.249-0.854v-8.629c0-0.434,0.061-0.766,0.184-0.992c0.121-0.229,0.37-0.341,0.746-0.341
	c0.639,0,0.959,0.438,0.959,1.317v3.004c0.353-0.445,0.721-0.782,1.11-1.014c0.388-0.229,0.869-0.344,1.438-0.344
	c0.476,0,0.918,0.094,1.33,0.281c0.412,0.188,0.771,0.457,1.073,0.807c0.302,0.352,0.54,0.781,0.714,1.297s0.26,1.08,0.26,1.695
	c0,0.836-0.149,1.561-0.448,2.168c-0.302,0.609-0.711,1.074-1.228,1.395c-0.519,0.314-1.085,0.476-1.699,0.476
	c-0.514,0-0.973-0.108-1.377-0.325c-0.406-0.219-0.797-0.559-1.172-1.021v0.24C36.084,46.871,35.994,47.148,35.815,47.342z
	 M39.746,42.203c-0.171-0.387-0.398-0.676-0.682-0.867c-0.282-0.193-0.59-0.289-0.922-0.289c-0.559,0-1.023,0.221-1.399,0.662
	s-0.563,1.061-0.563,1.855c0,0.846,0.188,1.482,0.566,1.92c0.378,0.436,0.844,0.65,1.396,0.65c0.346,0,0.662-0.102,0.945-0.305
	c0.287-0.203,0.512-0.492,0.67-0.871C39.92,44.58,40,44.127,40,43.602C40.002,43.057,39.918,42.59,39.746,42.203z"/>
</svg>
