<?xml version="1.0" encoding="utf-8"?>
<!-- Generator: Adobe Illustrator 16.0.0, SVG Export Plug-In . SVG Version: 6.00 Build 0)  -->
<!DOCTYPE svg PUBLIC "-//W3C//DTD SVG 1.1//EN" "http://www.w3.org/Graphics/SVG/1.1/DTD/svg11.dtd">
<svg version="1.1" id="레이어_1" xmlns="http://www.w3.org/2000/svg" xmlns:xlink="http://www.w3.org/1999/xlink" x="0px"
	 y="0px" width="60px" height="52px" viewBox="0 0 60 52" enable-background="new 0 0 60 52" xml:space="preserve">
<path fill="#1EDCDC" d="M20.969,27.859V17.533c0-0.879,0.197-1.538,0.594-1.979c0.396-0.438,0.916-0.658,1.564-0.658
	c0.674,0,1.207,0.22,1.604,0.658c0.396,0.439,0.592,1.1,0.592,1.979v10.561c0,1.201,0.139,2.205,0.404,3.012
	c0.271,0.806,0.744,1.431,1.428,1.875c0.688,0.443,1.645,0.666,2.871,0.666c1.699,0,2.9-0.451,3.604-1.354
	c0.705-0.901,1.056-2.271,1.056-4.108V17.534c0-0.889,0.194-1.55,0.586-1.985c0.393-0.435,0.914-0.651,1.567-0.651
	c0.65,0,1.185,0.217,1.588,0.651c0.406,0.436,0.605,1.097,0.605,1.985v10.327c0,1.68-0.162,3.08-0.488,4.203
	s-0.942,2.108-1.854,2.959c-0.78,0.723-1.688,1.25-2.725,1.582s-2.246,0.498-3.633,0.498c-1.65,0-3.072-0.179-4.268-0.535
	c-1.188-0.357-2.162-0.908-2.914-1.654c-0.752-0.748-1.305-1.705-1.652-2.871C21.146,30.875,20.969,29.48,20.969,27.859z"/>
</svg>
