<?xml version="1.0" encoding="utf-8"?>
<!-- Generator: Adobe Illustrator 16.0.0, SVG Export Plug-In . SVG Version: 6.00 Build 0)  -->
<!DOCTYPE svg PUBLIC "-//W3C//DTD SVG 1.1//EN" "http://www.w3.org/Graphics/SVG/1.1/DTD/svg11.dtd">
<svg version="1.1" id="레이어_1" xmlns="http://www.w3.org/2000/svg" xmlns:xlink="http://www.w3.org/1999/xlink" x="0px"
	 y="0px" width="60px" height="52px" viewBox="0 0 60 52" enable-background="new 0 0 60 52" xml:space="preserve">
<path fill="#1EDCDC" d="M26.965,17.184v6.108c0.752-0.78,1.521-1.38,2.3-1.794c0.781-0.416,1.749-0.623,2.9-0.623
	c1.328,0,2.493,0.314,3.494,0.945c1.001,0.629,1.776,1.543,2.329,2.738c0.552,1.193,0.828,2.611,0.828,4.256
	c0,1.211-0.154,2.321-0.461,3.332c-0.313,1.012-0.754,1.888-1.345,2.629c-0.586,0.742-1.296,1.313-2.131,1.723
	c-0.835,0.404-1.755,0.607-2.761,0.607c-0.615,0-1.194-0.073-1.736-0.225c-0.542-0.146-1.003-0.339-1.384-0.574
	c-0.381-0.238-0.706-0.486-0.974-0.74c-0.271-0.254-0.623-0.635-1.063-1.146v0.396c0,0.754-0.181,1.319-0.542,1.707
	c-0.357,0.387-0.816,0.58-1.377,0.58c-0.563,0-1.018-0.193-1.354-0.58c-0.337-0.388-0.507-0.953-0.507-1.707V17.355
	c0-0.813,0.162-1.424,0.489-1.838c0.327-0.416,0.784-0.623,1.37-0.623c0.615,0,1.089,0.197,1.421,0.596
	C26.799,15.887,26.965,16.451,26.965,17.184z M27.155,29.063c0,1.592,0.364,2.813,1.091,3.67c0.729,0.854,1.682,1.281,2.863,1.281
	c1.007,0,1.873-0.438,2.601-1.313c0.729-0.873,1.091-2.126,1.091-3.76c0-1.055-0.146-1.963-0.453-2.726
	c-0.304-0.763-0.729-1.352-1.287-1.766c-0.56-0.416-1.205-0.623-1.946-0.623c-0.766,0-1.44,0.207-2.036,0.623
	c-0.596,0.414-1.064,1.016-1.406,1.801C27.326,27.045,27.155,27.979,27.155,29.063z"/>
</svg>
