<?xml version="1.0" encoding="utf-8"?>
<!-- Generator: Adobe Illustrator 16.0.0, SVG Export Plug-In . SVG Version: 6.00 Build 0)  -->
<!DOCTYPE svg PUBLIC "-//W3C//DTD SVG 1.1//EN" "http://www.w3.org/Graphics/SVG/1.1/DTD/svg11.dtd">
<svg version="1.1" id="레이어_1" xmlns="http://www.w3.org/2000/svg" xmlns:xlink="http://www.w3.org/1999/xlink" x="0px"
	 y="0px" width="60px" height="52px" viewBox="0 0 60 52" enable-background="new 0 0 60 52" xml:space="preserve">
<path fill="#1EDCDC" d="M34.747,18.609h-6.958l-0.835,4.746c1.387-0.742,2.666-1.113,3.838-1.113c0.938,0,1.813,0.176,2.629,0.527
	s1.531,0.837,2.146,1.458c0.615,0.621,1.1,1.355,1.451,2.205c0.351,0.85,0.524,1.763,0.524,2.739c0,1.416-0.315,2.705-0.95,3.867
	c-0.637,1.161-1.552,2.085-2.748,2.769c-1.195,0.685-2.574,1.025-4.138,1.025c-1.748,0-3.167-0.322-4.255-0.967
	c-1.088-0.646-1.86-1.385-2.314-2.219c-0.453-0.836-0.681-1.565-0.681-2.19c0-0.382,0.159-0.742,0.477-1.084
	c0.316-0.343,0.715-0.513,1.193-0.513c0.82,0,1.432,0.474,1.831,1.42c0.392,0.869,0.918,1.545,1.582,2.029
	c0.664,0.483,1.406,0.725,2.228,0.725c0.752,0,1.411-0.194,1.978-0.586c0.567-0.391,1.004-0.928,1.313-1.61
	c0.308-0.683,0.461-1.46,0.461-2.329c0-0.938-0.166-1.738-0.498-2.402c-0.332-0.664-0.776-1.16-1.334-1.486
	c-0.558-0.327-1.177-0.491-1.859-0.491c-0.84,0-1.44,0.103-1.802,0.308c-0.362,0.205-0.881,0.564-1.561,1.078
	c-0.679,0.512-1.237,0.769-1.677,0.769c-0.479,0-0.903-0.173-1.272-0.521c-0.371-0.347-0.558-0.74-0.558-1.179
	c0-0.049,0.054-0.381,0.161-0.996l1.23-7.017c0.137-0.84,0.391-1.45,0.762-1.831c0.371-0.381,0.977-0.571,1.815-0.571h7.734
	c1.523,0,2.285,0.581,2.285,1.743c0,0.508-0.187,0.918-0.557,1.23C36.018,18.453,35.471,18.609,34.747,18.609z"/>
</svg>
