<?xml version="1.0" encoding="utf-8"?>
<!-- Generator: Adobe Illustrator 16.0.0, SVG Export Plug-In . SVG Version: 6.00 Build 0)  -->
<!DOCTYPE svg PUBLIC "-//W3C//DTD SVG 1.1//EN" "http://www.w3.org/Graphics/SVG/1.1/DTD/svg11.dtd">
<svg version="1.1" id="레이어_1" xmlns="http://www.w3.org/2000/svg" xmlns:xlink="http://www.w3.org/1999/xlink" x="0px"
	 y="0px" width="60px" height="52px" viewBox="0 0 60 52" enable-background="new 0 0 60 52" xml:space="preserve">
<path fill="#1EDCDC" d="M25.298,17.537v6.152h9.395v-6.152c0-0.879,0.193-1.538,0.592-1.978c0.396-0.44,0.916-0.659,1.563-0.659
	c0.652,0,1.186,0.218,1.592,0.651c0.4,0.436,0.604,1.097,0.604,1.981v16.919c0,0.893-0.205,1.557-0.613,1.992
	c-0.408,0.438-0.939,0.658-1.582,0.658c-0.65,0-1.178-0.226-1.564-0.668c-0.393-0.441-0.586-1.104-0.586-1.982V27.23h-9.394v7.222
	c0,0.894-0.202,1.557-0.611,1.991c-0.41,0.438-0.938,0.658-1.582,0.658c-0.654,0-1.179-0.225-1.567-0.668
	c-0.391-0.44-0.586-1.104-0.586-1.981V17.533c0-0.879,0.193-1.538,0.579-1.979c0.386-0.438,0.911-0.656,1.575-0.656
	c0.651,0,1.184,0.218,1.589,0.648C25.096,15.987,25.298,16.648,25.298,17.537z"/>
</svg>
