<?xml version="1.0" encoding="utf-8"?>
<!-- Generator: Adobe Illustrator 16.0.0, SVG Export Plug-In . SVG Version: 6.00 Build 0)  -->
<!DOCTYPE svg PUBLIC "-//W3C//DTD SVG 1.1//EN" "http://www.w3.org/Graphics/SVG/1.1/DTD/svg11.dtd">
<svg version="1.1" id="레이어_1" xmlns="http://www.w3.org/2000/svg" xmlns:xlink="http://www.w3.org/1999/xlink" x="0px"
	 y="0px" width="60px" height="52px" viewBox="0 0 60 52" enable-background="new 0 0 60 52" xml:space="preserve">
<path fill="#1EDCDC" d="M37.162,33.266c0.637,0.43,1.328,0.849,2.08,1.252c0.752,0.404,1.25,0.729,1.494,0.967
	c0.244,0.238,0.367,0.578,0.367,1.019c0,0.313-0.146,0.625-0.433,0.938c-0.289,0.313-0.639,0.471-1.047,0.471
	c-0.332,0-0.735-0.107-1.209-0.322s-1.029-0.527-1.67-0.939c-0.642-0.409-1.341-0.889-2.103-1.436
	c-1.416,0.723-3.153,1.084-5.214,1.084c-1.67,0-3.167-0.266-4.49-0.797c-1.323-0.533-2.434-1.299-3.333-2.301
	c-0.899-1-1.575-2.189-2.029-3.566c-0.454-1.377-0.681-2.876-0.681-4.498c0-1.65,0.237-3.164,0.71-4.541
	c0.473-1.377,1.16-2.549,2.058-3.516c0.898-0.967,1.992-1.707,3.281-2.219c1.289-0.512,2.754-0.769,4.395-0.769
	c2.226,0,4.138,0.452,5.734,1.355c1.598,0.903,2.807,2.188,3.625,3.853c0.819,1.665,1.229,3.621,1.229,5.867
	C39.932,28.574,39.01,31.273,37.162,33.266z M33.75,30.893c0.605-0.692,1.053-1.514,1.34-2.461c0.289-0.947,0.432-2.046,0.432-3.296
	c0-1.572-0.254-2.935-0.762-4.087c-0.508-1.152-1.232-2.024-2.174-2.615c-0.943-0.591-2.025-0.886-3.246-0.886
	c-0.869,0-1.672,0.164-2.41,0.491c-0.738,0.327-1.372,0.803-1.904,1.428c-0.532,0.625-0.952,1.423-1.26,2.395
	c-0.308,0.972-0.461,2.063-0.461,3.274c0,2.47,0.576,4.373,1.729,5.707c1.153,1.332,2.607,2,4.365,2
	c0.724,0,1.465-0.151,2.228-0.454c-0.459-0.343-1.034-0.685-1.722-1.023c-0.688-0.342-1.16-0.605-1.414-0.791
	c-0.254-0.188-0.381-0.449-0.381-0.791c0-0.293,0.123-0.553,0.367-0.777c0.243-0.223,0.512-0.336,0.805-0.336
	C30.171,28.666,31.66,29.408,33.75,30.893z"/>
</svg>
