<?xml version="1.0" encoding="utf-8"?>
<!-- Generator: Adobe Illustrator 16.0.0, SVG Export Plug-In . SVG Version: 6.00 Build 0)  -->
<!DOCTYPE svg PUBLIC "-//W3C//DTD SVG 1.1//EN" "http://www.w3.org/Graphics/SVG/1.1/DTD/svg11.dtd">
<svg version="1.1" id="레이어_1" xmlns="http://www.w3.org/2000/svg" xmlns:xlink="http://www.w3.org/1999/xlink" x="0px"
	 y="0px" width="60px" height="52px" viewBox="0 0 60 52" enable-background="new 0 0 60 52" xml:space="preserve">
<g id="레이어_3">
	<path fill="#1EDCDC" d="M39.572,29.957c0,0.684-0.168,1.422-0.506,2.219c-0.336,0.795-0.867,1.576-1.588,2.348
		c-0.724,0.767-1.646,1.39-2.771,1.863c-1.123,0.48-2.433,0.723-3.926,0.723c-1.133,0-2.163-0.106-3.091-0.321
		c-0.928-0.215-1.77-0.552-2.527-1.004c-0.757-0.455-1.453-1.054-2.087-1.795c-0.565-0.675-1.05-1.433-1.45-2.269
		c-0.399-0.834-0.7-1.725-0.9-2.672c-0.2-0.945-0.3-1.953-0.3-3.019c0-1.729,0.251-3.276,0.754-4.644
		c0.503-1.369,1.223-2.537,2.161-3.508c0.938-0.977,2.035-1.716,3.296-2.224c1.26-0.508,2.603-0.765,4.027-0.765
		c1.737,0,3.285,0.35,4.646,1.039c1.356,0.693,2.396,1.555,3.119,2.57c0.723,1.021,1.084,1.985,1.084,2.896
		c0,0.498-0.177,0.938-0.527,1.316c-0.351,0.377-0.775,0.569-1.273,0.569c-0.557,0-0.975-0.132-1.252-0.396
		c-0.277-0.265-0.588-0.717-0.93-1.359c-0.566-1.063-1.232-1.857-2-2.391c-0.768-0.525-1.711-0.789-2.834-0.789
		c-1.787,0-3.21,0.68-4.271,2.035c-1.061,1.355-1.589,3.285-1.589,5.785c0,1.67,0.233,3.063,0.702,4.168
		c0.47,1.107,1.134,1.938,1.992,2.482c0.859,0.543,1.865,0.817,3.019,0.817c1.25,0,2.307-0.313,3.172-0.932
		c0.862-0.619,1.516-1.529,1.954-2.729c0.187-0.564,0.416-1.027,0.688-1.386c0.273-0.356,0.713-0.535,1.318-0.535
		c0.518,0,0.963,0.183,1.334,0.543C39.389,28.959,39.572,29.42,39.572,29.957z"/>
</g>
</svg>
