<?xml version="1.0" encoding="utf-8"?>
<!-- Generator: Adobe Illustrator 16.0.0, SVG Export Plug-In . SVG Version: 6.00 Build 0)  -->
<!DOCTYPE svg PUBLIC "-//W3C//DTD SVG 1.1//EN" "http://www.w3.org/Graphics/SVG/1.1/DTD/svg11.dtd">
<svg version="1.1" id="레이어_1" xmlns="http://www.w3.org/2000/svg" xmlns:xlink="http://www.w3.org/1999/xlink" x="0px"
	 y="0px" width="107px" height="52px" viewBox="0 0 107 52" enable-background="new 0 0 107 52" xml:space="preserve">
<path fill="#1EDCDC" d="M59.76,38.214h-4.9v2.638h4.519c0.332,0,0.576,0.073,0.738,0.223c0.163,0.15,0.243,0.348,0.243,0.592
	c0,0.242-0.077,0.441-0.237,0.596c-0.158,0.154-0.408,0.23-0.744,0.23h-4.519v3.055h5.068c0.342,0,0.6,0.08,0.771,0.238
	c0.174,0.158,0.262,0.369,0.262,0.633c0,0.254-0.088,0.461-0.262,0.619c-0.178,0.158-0.434,0.238-0.771,0.238h-5.91
	c-0.475,0-0.813-0.105-1.021-0.314c-0.208-0.211-0.313-0.551-0.313-1.02v-8.07c0-0.313,0.047-0.566,0.142-0.766
	c0.096-0.197,0.236-0.342,0.437-0.433c0.197-0.09,0.451-0.141,0.758-0.141h5.742c0.348,0,0.604,0.075,0.771,0.229
	c0.17,0.152,0.254,0.354,0.254,0.604c0,0.258-0.084,0.459-0.254,0.611C60.365,38.139,60.105,38.214,59.76,38.214z"/>
<path fill="#1EDCDC" d="M64.365,40.434v0.241c0.354-0.463,0.734-0.805,1.152-1.021c0.416-0.217,0.896-0.326,1.438-0.326
	c0.521,0,0.998,0.115,1.412,0.346c0.414,0.229,0.728,0.557,0.932,0.977c0.132,0.244,0.218,0.509,0.257,0.791
	c0.039,0.279,0.063,0.646,0.063,1.084v3.726c0,0.396-0.094,0.699-0.273,0.903c-0.186,0.205-0.422,0.314-0.715,0.314
	c-0.299,0-0.539-0.104-0.729-0.316c-0.188-0.209-0.275-0.51-0.275-0.899v-3.332c0-0.657-0.092-1.162-0.273-1.514
	c-0.184-0.349-0.549-0.521-1.096-0.521c-0.355,0-0.682,0.105-0.975,0.316c-0.293,0.215-0.51,0.506-0.646,0.877
	c-0.098,0.297-0.145,0.854-0.145,1.67v2.504c0,0.406-0.098,0.711-0.283,0.912c-0.188,0.203-0.432,0.306-0.729,0.306
	c-0.285,0-0.521-0.104-0.711-0.313c-0.187-0.212-0.275-0.515-0.275-0.898v-5.776c0-0.383,0.084-0.664,0.25-0.854
	s0.393-0.278,0.682-0.278c0.176,0,0.334,0.041,0.477,0.125c0.146,0.082,0.259,0.207,0.345,0.373
	C64.324,39.995,64.365,40.193,64.365,40.434z"/>
<path fill="#1EDCDC" d="M71.719,39.503h0.221v-1.201c0-0.317,0.011-0.569,0.025-0.758c0.018-0.185,0.063-0.34,0.143-0.474
	c0.078-0.137,0.191-0.247,0.338-0.334c0.146-0.084,0.313-0.127,0.49-0.127c0.254,0,0.482,0.097,0.689,0.285
	c0.137,0.127,0.225,0.281,0.26,0.465c0.037,0.185,0.055,0.443,0.055,0.781v1.361h0.732c0.283,0,0.5,0.063,0.646,0.201
	c0.147,0.135,0.229,0.307,0.229,0.518c0,0.269-0.107,0.455-0.318,0.563c-0.213,0.106-0.518,0.159-0.912,0.159h-0.373v3.679
	c0,0.313,0.015,0.553,0.031,0.724c0.023,0.172,0.082,0.309,0.176,0.409c0.101,0.104,0.252,0.156,0.472,0.156
	c0.112,0,0.271-0.021,0.478-0.063c0.2-0.041,0.354-0.063,0.469-0.063c0.162,0,0.311,0.063,0.438,0.189
	c0.131,0.129,0.191,0.289,0.191,0.479c0,0.32-0.176,0.566-0.523,0.736c-0.354,0.172-0.857,0.26-1.521,0.26
	c-0.625,0-1.098-0.104-1.42-0.313c-0.321-0.213-0.532-0.504-0.633-0.872c-0.104-0.371-0.149-0.865-0.149-1.486v-3.838h-0.265
	c-0.289,0-0.508-0.063-0.66-0.205c-0.146-0.137-0.227-0.313-0.227-0.52c0-0.211,0.078-0.383,0.234-0.52
	C71.186,39.57,71.416,39.503,71.719,39.503z"/>
<path fill="#1EDCDC" d="M82.5,43.884h-3.91c0.004,0.453,0.096,0.854,0.273,1.201c0.18,0.347,0.412,0.604,0.709,0.776
	c0.295,0.183,0.619,0.271,0.979,0.271c0.238,0,0.457-0.026,0.656-0.084c0.193-0.063,0.389-0.146,0.57-0.271
	c0.188-0.112,0.354-0.241,0.516-0.385c0.158-0.141,0.355-0.322,0.605-0.561c0.104-0.088,0.248-0.131,0.438-0.131
	c0.205,0,0.371,0.059,0.498,0.168c0.127,0.111,0.188,0.271,0.188,0.479c0,0.187-0.065,0.396-0.213,0.635
	c-0.141,0.24-0.354,0.478-0.641,0.695c-0.285,0.223-0.646,0.402-1.076,0.553c-0.434,0.146-0.93,0.226-1.49,0.226
	c-1.283,0-2.281-0.367-2.996-1.104c-0.713-0.731-1.063-1.729-1.063-2.979c0-0.594,0.088-1.143,0.265-1.646
	c0.176-0.506,0.436-0.938,0.771-1.301c0.338-0.361,0.752-0.641,1.241-0.83c0.49-0.193,1.037-0.289,1.646-0.289
	c0.781,0,1.451,0.164,2.011,0.494c0.561,0.326,0.979,0.756,1.256,1.271c0.278,0.523,0.418,1.057,0.418,1.602
	c0,0.504-0.146,0.826-0.433,0.979C83.43,43.807,83.023,43.884,82.5,43.884z M78.59,42.749h3.625
	c-0.049-0.687-0.232-1.194-0.553-1.535c-0.321-0.34-0.74-0.51-1.268-0.51c-0.498,0-0.904,0.174-1.228,0.521
	C78.852,41.564,78.658,42.073,78.59,42.749z"/>
<path fill="#1EDCDC" d="M87.818,44.57v1.671c0,0.405-0.096,0.709-0.283,0.911c-0.189,0.203-0.436,0.306-0.729,0.306
	c-0.287,0-0.521-0.104-0.709-0.31c-0.188-0.205-0.279-0.508-0.279-0.907v-5.566c0-0.897,0.324-1.354,0.979-1.354
	c0.332,0,0.563,0.105,0.718,0.314c0.146,0.211,0.229,0.521,0.241,0.932c0.236-0.403,0.479-0.721,0.729-0.932
	c0.252-0.211,0.589-0.314,1.011-0.314s0.826,0.105,1.228,0.314c0.396,0.211,0.592,0.486,0.592,0.836c0,0.24-0.084,0.441-0.252,0.604
	c-0.168,0.157-0.351,0.235-0.545,0.235c-0.074,0-0.252-0.045-0.531-0.137c-0.277-0.09-0.525-0.137-0.74-0.137
	c-0.297,0-0.531,0.076-0.721,0.229c-0.187,0.152-0.33,0.383-0.435,0.689c-0.104,0.303-0.172,0.66-0.211,1.08
	C87.838,43.462,87.818,43.973,87.818,44.57z"/>
</svg>
