<?xml version="1.0" encoding="utf-8"?>
<!-- Generator: Adobe Illustrator 16.0.0, SVG Export Plug-In . SVG Version: 6.00 Build 0)  -->
<!DOCTYPE svg PUBLIC "-//W3C//DTD SVG 1.1//EN" "http://www.w3.org/Graphics/SVG/1.1/DTD/svg11.dtd">
<svg version="1.1" id="레이어_1" xmlns="http://www.w3.org/2000/svg" xmlns:xlink="http://www.w3.org/1999/xlink" x="0px"
	 y="0px" width="60px" height="26px" viewBox="0 0 60 26" enable-background="new 0 0 60 26" xml:space="preserve">
<path fill="#1EDCDC" d="M22.496,9.31h-4.9v2.638h4.512c0.332,0,0.58,0.074,0.744,0.223c0.163,0.149,0.245,0.346,0.245,0.59
	s-0.081,0.443-0.242,0.597c-0.161,0.154-0.41,0.231-0.747,0.231h-4.512v3.054h5.068c0.342,0,0.599,0.08,0.773,0.238
	c0.173,0.159,0.26,0.37,0.26,0.633c0,0.254-0.087,0.461-0.26,0.618c-0.173,0.16-0.431,0.238-0.772,0.238h-5.911
	c-0.474,0-0.814-0.105-1.021-0.314c-0.208-0.21-0.312-0.549-0.312-1.018V8.966c0-0.313,0.046-0.567,0.139-0.766
	c0.093-0.197,0.238-0.341,0.436-0.433c0.197-0.09,0.45-0.136,0.758-0.136h5.742c0.347,0,0.604,0.077,0.772,0.23
	c0.169,0.153,0.253,0.354,0.253,0.604c0,0.254-0.084,0.458-0.253,0.611C23.101,9.232,22.843,9.31,22.496,9.31z"/>
<path fill="#1EDCDC" d="M33.585,15.146c0,0.649-0.167,1.233-0.502,1.75c-0.335,0.518-0.824,0.924-1.468,1.217
	s-1.409,0.438-2.292,0.438c-1.06,0-1.934-0.199-2.622-0.6c-0.488-0.288-0.885-0.672-1.19-1.154c-0.305-0.48-0.458-0.948-0.458-1.402
	c0-0.264,0.091-0.488,0.275-0.678c0.183-0.188,0.416-0.282,0.699-0.282c0.229,0,0.423,0.073,0.582,0.221
	c0.159,0.146,0.294,0.363,0.407,0.651c0.137,0.342,0.284,0.627,0.443,0.857c0.159,0.229,0.382,0.419,0.67,0.567
	c0.288,0.149,0.667,0.224,1.135,0.224c0.645,0,1.168-0.15,1.571-0.451c0.402-0.3,0.604-0.675,0.604-1.124
	c0-0.356-0.108-0.646-0.326-0.868c-0.217-0.222-0.497-0.392-0.842-0.509s-0.805-0.242-1.38-0.374
	c-0.771-0.181-1.417-0.392-1.937-0.633c-0.521-0.242-0.933-0.571-1.238-0.989c-0.305-0.417-0.458-0.936-0.458-1.556
	c0-0.591,0.161-1.116,0.483-1.575c0.322-0.459,0.789-0.813,1.399-1.06c0.61-0.245,1.328-0.369,2.153-0.369
	c0.659,0,1.229,0.082,1.71,0.246c0.481,0.163,0.88,0.381,1.198,0.65c0.316,0.271,0.549,0.556,0.695,0.854
	c0.147,0.298,0.221,0.588,0.221,0.872c0,0.259-0.092,0.491-0.274,0.699c-0.184,0.208-0.411,0.312-0.685,0.312
	c-0.249,0-0.438-0.063-0.568-0.188c-0.129-0.124-0.27-0.328-0.421-0.61c-0.194-0.405-0.431-0.723-0.703-0.948
	c-0.273-0.229-0.713-0.341-1.318-0.341c-0.562,0-1.015,0.124-1.358,0.37c-0.345,0.247-0.517,0.543-0.517,0.89
	c0,0.215,0.059,0.4,0.176,0.557c0.117,0.157,0.278,0.291,0.483,0.403s0.413,0.2,0.623,0.264c0.21,0.064,0.557,0.156,1.04,0.278
	c0.605,0.142,1.154,0.298,1.643,0.469c0.492,0.171,0.908,0.378,1.254,0.623c0.344,0.244,0.611,0.554,0.806,0.927
	C33.487,14.146,33.585,14.604,33.585,15.146z"/>
<path fill="#1EDCDC" d="M44.579,14.979c0,0.343-0.084,0.712-0.252,1.11c-0.169,0.398-0.434,0.789-0.795,1.172
	s-0.823,0.694-1.385,0.935c-0.561,0.238-1.215,0.357-1.963,0.357c-0.565,0-1.082-0.053-1.545-0.16s-0.885-0.275-1.264-0.501
	c-0.378-0.228-0.727-0.525-1.043-0.896c-0.283-0.337-0.525-0.714-0.725-1.132c-0.2-0.417-0.352-0.863-0.45-1.336
	c-0.101-0.475-0.15-0.978-0.15-1.51c0-0.863,0.125-1.638,0.378-2.321c0.252-0.685,0.611-1.269,1.08-1.754
	c0.469-0.486,1.018-0.856,1.648-1.11c0.63-0.254,1.301-0.381,2.014-0.381c0.869,0,1.643,0.173,2.322,0.52
	c0.679,0.348,1.199,0.775,1.561,1.285c0.36,0.511,0.541,0.993,0.541,1.447c0,0.249-0.088,0.469-0.264,0.659
	c-0.176,0.189-0.389,0.285-0.637,0.285c-0.278,0-0.487-0.065-0.627-0.197c-0.139-0.132-0.293-0.359-0.465-0.682
	c-0.283-0.531-0.617-0.93-1-1.193c-0.384-0.265-0.855-0.396-1.416-0.396c-0.895,0-1.605,0.339-2.136,1.019
	c-0.53,0.679-0.794,1.643-0.794,2.893c0,0.835,0.117,1.53,0.352,2.083c0.234,0.555,0.566,0.968,0.996,1.242
	c0.431,0.273,0.934,0.41,1.51,0.41c0.625,0,1.154-0.155,1.585-0.465c0.433-0.311,0.758-0.766,0.978-1.366
	c0.094-0.283,0.208-0.515,0.344-0.692c0.137-0.178,0.356-0.268,0.66-0.268c0.258,0,0.48,0.09,0.666,0.271
	C44.49,14.486,44.579,14.71,44.579,14.979z"/>
<g>
</g>
<g>
</g>
<g>
</g>
<g>
</g>
<g>
</g>
<g>
</g>
<g>
</g>
<g>
</g>
<g>
</g>
<g>
</g>
<g>
</g>
<g>
</g>
<g>
</g>
<g>
</g>
<g>
</g>
</svg>
