<?xml version="1.0" encoding="utf-8"?>
<!-- Generator: Adobe Illustrator 16.0.0, SVG Export Plug-In . SVG Version: 6.00 Build 0)  -->
<!DOCTYPE svg PUBLIC "-//W3C//DTD SVG 1.1//EN" "http://www.w3.org/Graphics/SVG/1.1/DTD/svg11.dtd">
<svg version="1.1" id="레이어_1" xmlns="http://www.w3.org/2000/svg" xmlns:xlink="http://www.w3.org/1999/xlink" x="0px"
	 y="0px" width="60px" height="52px" viewBox="0 0 60 52" enable-background="new 0 0 60 52" xml:space="preserve">
<path fill="#1EDCDC" d="M23.46,20.437c0-0.817,0.213-1.563,0.641-2.235c0.426-0.672,1.053-1.206,1.879-1.603
	c0.825-0.396,1.797-0.593,2.914-0.593c1.105,0,2.063,0.207,2.874,0.62c0.809,0.413,1.414,0.954,1.813,1.622s0.601,1.362,0.601,2.083
	c0,0.984-0.324,1.841-0.977,2.571c-0.652,0.729-1.607,1.472-2.874,2.228c0.438,0.52,0.849,1.006,1.228,1.463
	s0.741,0.884,1.094,1.279c0.352,0.396,0.674,0.733,0.963,1.015c0.133-0.246,0.337-0.707,0.611-1.384
	c0.276-0.677,0.535-1.165,0.777-1.463c0.241-0.299,0.582-0.448,1.021-0.448c0.414,0,0.776,0.147,1.096,0.441
	c0.316,0.295,0.475,0.652,0.475,1.074c0,0.388-0.137,0.935-0.408,1.642c-0.271,0.708-0.668,1.492-1.188,2.354
	c0.324,0.28,0.842,0.707,1.549,1.278c0.707,0.57,1.145,0.959,1.307,1.166s0.242,0.481,0.242,0.824c0,0.457-0.164,0.842-0.494,1.153
	c-0.328,0.312-0.694,0.468-1.102,0.468c-0.412,0-0.813-0.132-1.199-0.396c-0.387-0.265-1.207-0.91-2.465-1.938
	c-0.57,0.536-1.162,0.977-1.771,1.317c-0.61,0.344-1.268,0.599-1.965,0.766c-0.697,0.167-1.479,0.25-2.34,0.25
	c-1.099,0-2.085-0.161-2.959-0.481c-0.875-0.319-1.602-0.754-2.182-1.299s-1.011-1.147-1.292-1.813
	c-0.281-0.664-0.422-1.338-0.422-2.023c0-0.659,0.104-1.264,0.314-1.813c0.21-0.551,0.507-1.047,0.892-1.489
	c0.382-0.444,0.852-0.866,1.409-1.267c0.559-0.399,1.206-0.789,1.944-1.167c-0.659-0.825-1.158-1.563-1.497-2.208
	C23.629,21.787,23.46,21.121,23.46,20.437z M27.191,26.751c-0.896,0.521-1.567,1.037-2.011,1.556
	c-0.444,0.521-0.666,1.135-0.666,1.848c0,0.402,0.081,0.791,0.244,1.16c0.161,0.367,0.398,0.711,0.712,1.027
	c0.312,0.315,0.675,0.559,1.088,0.725c0.413,0.168,0.848,0.25,1.305,0.25c0.448,0,0.883-0.069,1.305-0.211
	c0.422-0.141,0.822-0.34,1.2-0.6c0.378-0.261,0.771-0.584,1.173-0.97c-0.782-0.722-1.483-1.435-2.107-2.142
	S28.062,27.805,27.191,26.751z M28.536,23.138c0.896-0.57,1.544-1.052,1.944-1.442c0.398-0.392,0.6-0.864,0.6-1.417
	c0-0.545-0.2-1.002-0.6-1.371c-0.4-0.369-0.903-0.554-1.509-0.554s-1.114,0.188-1.523,0.566c-0.408,0.378-0.613,0.822-0.613,1.332
	c0,0.264,0.077,0.547,0.231,0.851c0.153,0.304,0.345,0.604,0.573,0.902C27.867,22.304,28.167,22.681,28.536,23.138z"/>
</svg>
