<?xml version="1.0" encoding="utf-8"?>
<!-- Generator: Adobe Illustrator 16.0.0, SVG Export Plug-In . SVG Version: 6.00 Build 0)  -->
<!DOCTYPE svg PUBLIC "-//W3C//DTD SVG 1.1//EN" "http://www.w3.org/Graphics/SVG/1.1/DTD/svg11.dtd">
<svg version="1.1" id="레이어_1" xmlns="http://www.w3.org/2000/svg" xmlns:xlink="http://www.w3.org/1999/xlink" x="0px"
	 y="0px" width="60px" height="52px" viewBox="0 0 60 52" enable-background="new 0 0 60 52" xml:space="preserve">
<path fill="#1EDCDC" d="M32.921,32.477l-2.9-4.263l-2.974,4.263c-0.43,0.597-0.793,1.021-1.091,1.273
	c-0.298,0.254-0.676,0.381-1.135,0.381c-0.509,0-0.94-0.158-1.296-0.475c-0.356-0.318-0.535-0.686-0.535-1.096
	c0-0.42,0.272-1.021,0.819-1.804l3.618-5.188l-3.208-4.322c-0.557-0.713-0.835-1.332-0.835-1.856c0-0.41,0.166-0.771,0.498-1.065
	c0.332-0.306,0.768-0.455,1.304-0.455c0.47,0,0.857,0.133,1.165,0.396c0.309,0.265,0.667,0.681,1.077,1.245l2.593,3.545l2.521-3.545
	c0.42-0.586,0.784-1.007,1.091-1.262c0.307-0.254,0.691-0.381,1.15-0.381c0.525,0,0.964,0.147,1.311,0.444
	c0.348,0.302,0.521,0.657,0.521,1.077c0,0.305-0.072,0.596-0.213,0.872c-0.143,0.274-0.359,0.604-0.651,0.985l-3.208,4.322
	l3.617,5.188c0.566,0.813,0.851,1.42,0.851,1.83c0,0.42-0.177,0.779-0.526,1.084c-0.352,0.304-0.785,0.453-1.305,0.453
	c-0.459,0-0.847-0.133-1.164-0.396C33.695,33.469,33.331,33.053,32.921,32.477z"/>
</svg>
