<?xml version="1.0" encoding="utf-8"?>
<!-- Generator: Adobe Illustrator 16.0.0, SVG Export Plug-In . SVG Version: 6.00 Build 0)  -->
<!DOCTYPE svg PUBLIC "-//W3C//DTD SVG 1.1//EN" "http://www.w3.org/Graphics/SVG/1.1/DTD/svg11.dtd">
<svg version="1.1" id="레이어_1" xmlns="http://www.w3.org/2000/svg" xmlns:xlink="http://www.w3.org/1999/xlink" x="0px"
	 y="0px" width="60px" height="52px" viewBox="0 0 60 52" enable-background="new 0 0 60 52" xml:space="preserve">
<path fill="#1EDCDC" d="M27.383,21.07c0,1.679-0.369,2.927-1.107,3.744c-0.738,0.817-1.749,1.226-3.032,1.226
	c-0.791,0-1.501-0.173-2.129-0.521c-0.629-0.347-1.119-0.89-1.47-1.628c-0.352-0.738-0.527-1.639-0.527-2.703
	c0-1.143,0.136-2.096,0.409-2.861c0.273-0.765,0.714-1.345,1.325-1.74c0.609-0.396,1.391-0.593,2.34-0.593
	c0.686,0,1.288,0.105,1.806,0.316c0.519,0.211,0.958,0.534,1.318,0.969s0.628,0.964,0.804,1.588
	C27.296,19.491,27.383,20.226,27.383,21.07z M24.916,20.938c0-1.151-0.123-1.988-0.368-2.512c-0.246-0.522-0.682-0.784-1.306-0.784
	c-0.422,0-0.758,0.125-1.009,0.376c-0.25,0.25-0.422,0.619-0.514,1.107c-0.094,0.487-0.14,1.109-0.14,1.865
	c0,0.782,0.046,1.419,0.14,1.912c0.092,0.492,0.261,0.864,0.507,1.114c0.246,0.251,0.584,0.376,1.015,0.376
	c0.65,0,1.092-0.277,1.325-0.831C24.801,23.008,24.916,22.133,24.916,20.938z M36.176,17.734L25.193,35.439
	c-0.281,0.482-0.598,0.726-0.949,0.726c-0.202,0-0.403-0.077-0.605-0.231c-0.202-0.152-0.304-0.354-0.304-0.6
	c0-0.186,0.089-0.408,0.265-0.672l11.048-17.851c0.192-0.325,0.362-0.569,0.506-0.732c0.146-0.162,0.354-0.244,0.627-0.244
	c0.264,0,0.478,0.077,0.639,0.231c0.162,0.154,0.244,0.358,0.244,0.613C36.663,16.864,36.5,17.216,36.176,17.734z M40.883,30.602
	c0,1.68-0.369,2.928-1.107,3.744c-0.737,0.816-1.748,1.227-3.031,1.227c-0.801,0-1.514-0.178-2.143-0.527s-1.121-0.893-1.479-1.622
	c-0.354-0.729-0.533-1.63-0.533-2.702c0-1.715,0.326-3.003,0.98-3.869c0.656-0.867,1.695-1.3,3.119-1.3
	c0.686,0,1.285,0.105,1.799,0.316c0.515,0.211,0.953,0.527,1.318,0.948c0.364,0.423,0.635,0.949,0.812,1.576
	C40.794,29.021,40.883,29.758,40.883,30.602z M38.416,30.471c0-1.135-0.123-1.963-0.368-2.484c-0.246-0.523-0.682-0.785-1.306-0.785
	c-0.438,0-0.782,0.123-1.027,0.369c-0.246,0.244-0.421,0.607-0.521,1.087c-0.102,0.479-0.151,1.101-0.151,1.864
	c0,1.18,0.125,2.039,0.375,2.584c0.251,0.545,0.692,0.817,1.325,0.817c0.643,0,1.081-0.278,1.318-0.837
	C38.299,32.529,38.416,31.656,38.416,30.471z"/>
</svg>
