<?xml version="1.0" encoding="utf-8"?>
<!-- Generator: Adobe Illustrator 16.0.0, SVG Export Plug-In . SVG Version: 6.00 Build 0)  -->
<!DOCTYPE svg PUBLIC "-//W3C//DTD SVG 1.1//EN" "http://www.w3.org/Graphics/SVG/1.1/DTD/svg11.dtd">
<svg version="1.1" id="레이어_1" xmlns="http://www.w3.org/2000/svg" xmlns:xlink="http://www.w3.org/1999/xlink" x="0px"
	 y="0px" width="60px" height="52px" viewBox="0 0 60 52" enable-background="new 0 0 60 52" xml:space="preserve">
<path fill="#1EDCDC" d="M36.9,18.667h-4.746v15.601c0,0.898-0.199,1.564-0.6,2C31.152,36.703,30.637,36.92,30,36.92
	c-0.645,0-1.17-0.221-1.574-0.659c-0.406-0.438-0.607-1.104-0.607-1.991V18.668h-4.746c-0.742,0-1.294-0.164-1.655-0.491
	c-0.359-0.327-0.542-0.759-0.542-1.296c0-0.557,0.188-0.996,0.564-1.318c0.376-0.321,0.92-0.482,1.633-0.482H36.9
	c0.752,0,1.311,0.166,1.676,0.498c0.367,0.332,0.549,0.767,0.549,1.304c0,0.537-0.186,0.969-0.557,1.296
	C38.197,18.506,37.643,18.667,36.9,18.667z"/>
</svg>
