<?xml version="1.0" encoding="utf-8"?>
<!-- Generator: Adobe Illustrator 16.0.0, SVG Export Plug-In . SVG Version: 6.00 Build 0)  -->
<!DOCTYPE svg PUBLIC "-//W3C//DTD SVG 1.1//EN" "http://www.w3.org/Graphics/SVG/1.1/DTD/svg11.dtd">
<svg version="1.1" id="레이어_1" xmlns="http://www.w3.org/2000/svg" xmlns:xlink="http://www.w3.org/1999/xlink" x="0px"
	 y="0px" width="60px" height="52px" viewBox="0 0 60 52" enable-background="new 0 0 60 52" xml:space="preserve">
<path fill="#1EDCDC" d="M22.362,20.36l2.606,8.937l2.373-8.307c0.254-0.869,0.442-1.462,0.564-1.779
	c0.122-0.318,0.352-0.62,0.688-0.908c0.336-0.288,0.798-0.433,1.384-0.433c0.597,0,1.063,0.145,1.399,0.433
	c0.336,0.288,0.573,0.601,0.71,0.938c0.137,0.337,0.326,0.92,0.57,1.75l2.373,8.307l2.638-8.937c0.176-0.645,0.317-1.11,0.425-1.398
	c0.108-0.288,0.288-0.542,0.542-0.763c0.255-0.22,0.62-0.33,1.099-0.33c0.479,0,0.896,0.166,1.246,0.498
	c0.35,0.332,0.526,0.724,0.526,1.173c0,0.409-0.151,1.029-0.454,1.859l-3.268,9.581c-0.282,0.812-0.502,1.396-0.658,1.759
	s-0.402,0.684-0.74,0.967c-0.337,0.283-0.798,0.426-1.384,0.426c-0.604,0-1.082-0.151-1.429-0.455
	c-0.346-0.303-0.604-0.674-0.77-1.112s-0.347-1.01-0.542-1.713l-2.285-7.794l-2.212,7.794c-0.293,1.084-0.609,1.901-0.952,2.453
	c-0.342,0.553-0.941,0.827-1.802,0.827c-0.438,0-0.813-0.084-1.121-0.256c-0.308-0.172-0.563-0.414-0.769-0.731
	c-0.205-0.316-0.386-0.693-0.542-1.127c-0.156-0.437-0.278-0.779-0.366-1.033l-3.237-9.582c-0.321-0.897-0.482-1.519-0.482-1.859
	c0-0.431,0.171-0.815,0.513-1.157c0.342-0.342,0.762-0.514,1.26-0.514c0.664,0,1.113,0.188,1.349,0.564
	C21.85,18.812,22.098,19.451,22.362,20.36z"/>
</svg>
