<?xml version="1.0" encoding="utf-8"?>
<!-- Generator: Adobe Illustrator 16.0.0, SVG Export Plug-In . SVG Version: 6.00 Build 0)  -->
<!DOCTYPE svg PUBLIC "-//W3C//DTD SVG 1.1//EN" "http://www.w3.org/Graphics/SVG/1.1/DTD/svg11.dtd">
<svg version="1.1" id="레이어_1" xmlns="http://www.w3.org/2000/svg" xmlns:xlink="http://www.w3.org/1999/xlink" x="0px"
	 y="0px" width="60px" height="52px" viewBox="0 0 60 52" enable-background="new 0 0 60 52" xml:space="preserve">
<path fill="#1EDCDC" d="M27.177,21.192h0.952v-1.201c0-1.25,0.159-2.244,0.477-2.979c0.316-0.738,0.854-1.273,1.61-1.609
	c0.759-0.34,1.796-0.508,3.114-0.508c2.334,0,3.502,0.571,3.502,1.715c0,0.37-0.123,0.688-0.367,0.951
	c-0.244,0.266-0.531,0.396-0.863,0.396c-0.156,0-0.426-0.028-0.807-0.088c-0.381-0.062-0.703-0.088-0.967-0.088
	c-0.723,0-1.188,0.213-1.393,0.639c-0.205,0.424-0.308,1.031-0.308,1.822v0.953h0.979c1.523,0,2.285,0.459,2.285,1.377
	c0,0.65-0.203,1.065-0.608,1.244c-0.404,0.176-0.964,0.264-1.677,0.264h-0.979v10.592c0,0.791-0.188,1.395-0.563,1.809
	c-0.377,0.416-0.864,0.623-1.46,0.623c-0.565,0-1.037-0.207-1.413-0.623c-0.376-0.414-0.564-1.018-0.564-1.809V24.081h-1.099
	c-0.597,0-1.056-0.133-1.377-0.402c-0.322-0.268-0.483-0.617-0.483-1.047C25.17,21.671,25.839,21.192,27.177,21.192z"/>
</svg>
