<?xml version="1.0" encoding="utf-8"?>
<!-- Generator: Adobe Illustrator 16.0.0, SVG Export Plug-In . SVG Version: 6.00 Build 0)  -->
<!DOCTYPE svg PUBLIC "-//W3C//DTD SVG 1.1//EN" "http://www.w3.org/Graphics/SVG/1.1/DTD/svg11.dtd">
<svg version="1.1" id="레이어_1" xmlns="http://www.w3.org/2000/svg" xmlns:xlink="http://www.w3.org/1999/xlink" x="0px"
	 y="0px" width="60px" height="52px" viewBox="0 0 60 52" enable-background="new 0 0 60 52" xml:space="preserve">
<path fill="#1EDCDC" d="M40.248,28.007v4.117c0,0.547-0.055,0.981-0.161,1.313c-0.104,0.323-0.305,0.621-0.593,0.886
	s-0.657,0.519-1.105,0.763c-1.3,0.702-2.55,1.217-3.75,1.537c-1.197,0.322-2.511,0.482-3.927,0.482
	c-1.646,0-3.153-0.254-4.512-0.763c-1.359-0.508-2.515-1.245-3.472-2.213c-0.957-0.969-1.692-2.141-2.205-3.519
	c-0.517-1.377-0.771-2.914-0.771-4.61c0-1.673,0.249-3.199,0.747-4.588c0.498-1.387,1.23-2.563,2.197-3.527
	c0.967-0.964,2.144-1.707,3.53-2.223c1.387-0.512,2.959-0.769,4.717-0.769c1.441,0,2.725,0.19,3.838,0.577
	c1.113,0.387,2.017,0.871,2.71,1.457c0.692,0.586,1.216,1.205,1.563,1.859c0.354,0.653,0.526,1.234,0.526,1.742
	c0,0.547-0.203,1.016-0.604,1.396c-0.404,0.389-0.895,0.58-1.457,0.58c-0.313,0-0.613-0.072-0.901-0.223
	c-0.288-0.146-0.53-0.352-0.726-0.613c-0.537-0.841-0.99-1.477-1.361-1.902c-0.371-0.428-0.872-0.791-1.502-1.084
	c-0.629-0.293-1.437-0.439-2.409-0.439c-1.006,0-1.904,0.176-2.695,0.521c-0.791,0.348-1.467,0.85-2.025,1.51
	c-0.563,0.658-0.991,1.467-1.289,2.424c-0.299,0.957-0.447,2.018-0.447,3.18c0,2.521,0.579,4.457,1.736,5.814
	c1.153,1.356,2.771,2.035,4.841,2.035c1.006,0,1.95-0.131,2.834-0.396c0.883-0.269,1.78-0.644,2.688-1.131v-3.481h-3.367
	c-0.813,0-1.426-0.121-1.84-0.365c-0.416-0.244-0.623-0.66-0.623-1.246c0-0.479,0.175-0.874,0.521-1.187
	c0.347-0.313,0.818-0.473,1.414-0.473h4.938c0.604,0,1.117,0.057,1.537,0.161s0.764,0.351,1.021,0.722
	C40.117,26.708,40.248,27.266,40.248,28.007z"/>
</svg>
