<?xml version="1.0" encoding="utf-8"?>
<!-- Generator: Adobe Illustrator 16.0.0, SVG Export Plug-In . SVG Version: 6.00 Build 0)  -->
<!DOCTYPE svg PUBLIC "-//W3C//DTD SVG 1.1//EN" "http://www.w3.org/Graphics/SVG/1.1/DTD/svg11.dtd">
<svg version="1.1" id="레이어_1" xmlns="http://www.w3.org/2000/svg" xmlns:xlink="http://www.w3.org/1999/xlink" x="0px"
	 y="0px" width="60px" height="52px" viewBox="0 0 60 52" enable-background="new 0 0 60 52" xml:space="preserve">
<path fill="#1EDCDC" d="M26.623,20.091v0.479c0.703-0.928,1.477-1.604,2.311-2.044c0.836-0.436,1.794-0.648,2.878-0.648
	c1.056,0,1.996,0.229,2.826,0.688s1.451,1.107,1.857,1.948c0.268,0.487,0.438,1.016,0.516,1.581
	c0.078,0.566,0.117,1.289,0.117,2.169v7.44c0,0.801-0.186,1.403-0.553,1.813c-0.361,0.408-0.842,0.611-1.428,0.611
	c-0.597,0-1.08-0.209-1.451-0.629s-0.557-1.021-0.557-1.803v-6.664c0-1.318-0.183-2.326-0.55-3.025
	c-0.364-0.695-1.099-1.047-2.189-1.047c-0.713,0-1.359,0.213-1.947,0.639c-0.587,0.426-1.017,1.009-1.287,1.751
	c-0.194,0.597-0.295,1.709-0.295,3.34v5.013c0,0.812-0.188,1.418-0.563,1.819c-0.377,0.406-0.862,0.605-1.458,0.605
	c-0.576,0-1.05-0.209-1.421-0.629c-0.371-0.42-0.561-1.021-0.561-1.805V20.14c0-0.764,0.166-1.33,0.498-1.707
	c0.332-0.375,0.786-0.563,1.362-0.563c0.354,0,0.669,0.084,0.952,0.25c0.283,0.166,0.51,0.414,0.682,0.744
	C26.538,19.208,26.623,19.612,26.623,20.091z"/>
</svg>
