<?xml version="1.0" encoding="utf-8"?>
<!-- Generator: Adobe Illustrator 16.0.0, SVG Export Plug-In . SVG Version: 6.00 Build 0)  -->
<!DOCTYPE svg PUBLIC "-//W3C//DTD SVG 1.1//EN" "http://www.w3.org/Graphics/SVG/1.1/DTD/svg11.dtd">
<svg version="1.1" id="레이어_1" xmlns="http://www.w3.org/2000/svg" xmlns:xlink="http://www.w3.org/1999/xlink" x="0px"
	 y="0px" width="60px" height="52px" viewBox="0 0 60 52" enable-background="new 0 0 60 52" xml:space="preserve">
<path fill="#1EDCDC" d="M29.972,31.971c-0.646,0-1.201-0.197-1.67-0.597c-0.469-0.396-0.703-0.946-0.703-1.659
	c0-0.615,0.229-1.137,0.688-1.557s1.005-0.631,1.63-0.631c0.469,0,0.894,0.127,1.271,0.382c0.377,0.254,0.68,0.627,0.896,1.12
	c0.215,0.492,0.318,1.104,0.318,1.822c0,0.969-0.205,1.871-0.611,2.721c-0.41,0.844-0.911,1.516-1.505,2.006
	c-0.592,0.494-1.125,0.74-1.604,0.74c-0.303,0-0.547-0.104-0.732-0.305c-0.186-0.195-0.274-0.433-0.274-0.691
	c0-0.398,0.191-0.727,0.586-0.969C29.4,33.732,29.972,32.936,29.972,31.971z M27.965,17.863c0-0.693,0.217-1.23,0.648-1.611
	c0.437-0.381,0.959-0.57,1.574-0.57c0.596,0,1.108,0.191,1.538,0.578c0.43,0.385,0.646,0.92,0.646,1.604
	c0,0.558-0.229,1.063-0.686,1.517c-0.455,0.455-0.955,0.685-1.501,0.685c-0.41,0-0.783-0.101-1.121-0.296
	c-0.336-0.192-0.604-0.454-0.805-0.78C28.064,18.656,27.965,18.283,27.965,17.863z"/>
</svg>
