<?xml version="1.0" encoding="utf-8"?>
<!-- Generator: Adobe Illustrator 16.0.0, SVG Export Plug-In . SVG Version: 6.00 Build 0)  -->
<!DOCTYPE svg PUBLIC "-//W3C//DTD SVG 1.1//EN" "http://www.w3.org/Graphics/SVG/1.1/DTD/svg11.dtd">
<svg version="1.1" id="레이어_1" xmlns="http://www.w3.org/2000/svg" xmlns:xlink="http://www.w3.org/1999/xlink" x="0px"
	 y="0px" width="60px" height="52px" viewBox="0 0 60 52" enable-background="new 0 0 60 52" xml:space="preserve">
<path fill="#1EDCDC" d="M29.971,31.048c-0.646,0-1.201-0.198-1.67-0.597c-0.473-0.396-0.703-0.946-0.703-1.659
	c0-0.615,0.229-1.138,0.688-1.558s1.002-0.629,1.627-0.629c0.469,0,0.896,0.127,1.272,0.381c0.379,0.254,0.681,0.627,0.896,1.121
	c0.215,0.492,0.321,1.104,0.321,1.82c0,0.969-0.204,1.871-0.614,2.721c-0.41,0.844-0.91,1.517-1.502,2.006
	c-0.59,0.494-1.125,0.74-1.604,0.74c-0.307,0-0.553-0.104-0.74-0.305c-0.189-0.195-0.285-0.432-0.285-0.691
	c0-0.397,0.199-0.727,0.602-0.969C29.4,32.8,29.971,32.005,29.971,31.048z"/>
</svg>
