<?xml version="1.0" encoding="utf-8"?>
<!-- Generator: Adobe Illustrator 16.0.0, SVG Export Plug-In . SVG Version: 6.00 Build 0)  -->
<!DOCTYPE svg PUBLIC "-//W3C//DTD SVG 1.1//EN" "http://www.w3.org/Graphics/SVG/1.1/DTD/svg11.dtd">
<svg version="1.1" id="레이어_1" xmlns="http://www.w3.org/2000/svg" xmlns:xlink="http://www.w3.org/1999/xlink" x="0px"
	 y="0px" width="60px" height="52px" viewBox="0 0 60 52" enable-background="new 0 0 60 52" xml:space="preserve">
<path fill="#1EDCDC" d="M26.764,20.365l3.237,9.082l3.483-9.479c0.272-0.766,0.543-1.305,0.809-1.619
	c0.264-0.316,0.664-0.479,1.201-0.479c0.508,0,0.938,0.171,1.295,0.517c0.355,0.342,0.535,0.733,0.535,1.187
	c0,0.176-0.031,0.381-0.096,0.614c-0.063,0.234-0.138,0.455-0.222,0.66c-0.082,0.205-0.178,0.438-0.284,0.703l-3.839,9.521
	c-0.106,0.272-0.248,0.62-0.418,1.038c-0.17,0.421-0.36,0.777-0.569,1.076c-0.211,0.299-0.47,0.529-0.774,0.695
	c-0.31,0.166-0.683,0.25-1.121,0.25c-0.566,0-1.02-0.133-1.355-0.391c-0.337-0.262-0.586-0.543-0.747-0.854
	c-0.161-0.31-0.432-0.916-0.813-1.82l-3.811-9.419c-0.088-0.234-0.178-0.473-0.271-0.703c-0.093-0.234-0.171-0.477-0.234-0.721
	c-0.063-0.241-0.095-0.451-0.095-0.631c0-0.271,0.083-0.543,0.249-0.813c0.166-0.268,0.396-0.488,0.688-0.658
	c0.293-0.172,0.61-0.257,0.952-0.257c0.664,0,1.121,0.19,1.37,0.571S26.462,19.468,26.764,20.365z"/>
</svg>
