<?xml version="1.0" encoding="utf-8"?>
<!-- Generator: Adobe Illustrator 16.0.0, SVG Export Plug-In . SVG Version: 6.00 Build 0)  -->
<!DOCTYPE svg PUBLIC "-//W3C//DTD SVG 1.1//EN" "http://www.w3.org/Graphics/SVG/1.1/DTD/svg11.dtd">
<svg version="1.1" id="레이어_1" xmlns="http://www.w3.org/2000/svg" xmlns:xlink="http://www.w3.org/1999/xlink" x="0px"
	 y="0px" width="60px" height="52px" viewBox="0 0 60 52" enable-background="new 0 0 60 52" xml:space="preserve">
<path fill="#1EDCDC" d="M26.971,17.145v0.483c0.752-0.928,1.533-1.609,2.344-2.043s1.729-0.652,2.753-0.652
	c1.23,0,2.363,0.317,3.398,0.952c1.031,0.635,1.852,1.563,2.453,2.783c0.6,1.221,0.896,2.666,0.896,4.336
	c0,1.23-0.174,2.361-0.521,3.391c-0.353,1.03-0.821,1.896-1.432,2.594c-0.604,0.696-1.318,1.233-2.146,1.608
	c-0.827,0.377-1.711,0.564-2.657,0.564c-1.146,0-2.104-0.229-2.878-0.688c-0.777-0.459-1.519-1.134-2.22-2.021v6.005
	c0,1.758-0.644,2.638-1.92,2.638c-0.753,0-1.25-0.228-1.493-0.681c-0.244-0.455-0.366-1.117-0.366-1.985V17.175
	c0-0.762,0.166-1.331,0.498-1.707s0.786-0.563,1.361-0.563c0.563,0,1.024,0.192,1.386,0.579
	C26.792,15.868,26.971,16.422,26.971,17.145z M34.807,22.96c0-1.055-0.16-1.96-0.481-2.717c-0.318-0.757-0.769-1.338-1.341-1.743
	c-0.57-0.405-1.203-0.608-1.896-0.608c-1.104,0-2.033,0.436-2.791,1.305c-0.76,0.869-1.139,2.147-1.139,3.838
	c0,1.592,0.376,2.83,1.128,3.713s1.688,1.326,2.802,1.326c0.66,0,1.275-0.193,1.846-0.579c0.563-0.386,1.021-0.964,1.361-1.736
	C34.637,24.986,34.807,24.054,34.807,22.96z"/>
</svg>
