<?xml version="1.0" encoding="utf-8"?>
<!-- Generator: Adobe Illustrator 16.0.0, SVG Export Plug-In . SVG Version: 6.00 Build 0)  -->
<!DOCTYPE svg PUBLIC "-//W3C//DTD SVG 1.1//EN" "http://www.w3.org/Graphics/SVG/1.1/DTD/svg11.dtd">
<svg version="1.1" id="레이어_1" xmlns="http://www.w3.org/2000/svg" xmlns:xlink="http://www.w3.org/1999/xlink" x="0px"
	 y="0px" width="60px" height="26px" viewBox="0 0 60 26" enable-background="new 0 0 60 26" xml:space="preserve">
<path fill="#1EDCDC" d="M28.379,9.241h-4.285v2.747h3.582c0.332,0,0.58,0.075,0.743,0.224s0.246,0.348,0.246,0.597
	s-0.083,0.447-0.249,0.594c-0.166,0.146-0.413,0.219-0.74,0.219h-3.582v3.539c0,0.448-0.102,0.782-0.304,1
	c-0.203,0.217-0.462,0.325-0.78,0.325c-0.322,0-0.585-0.109-0.788-0.329c-0.203-0.222-0.304-0.554-0.304-0.996V8.898
	c0-0.313,0.046-0.567,0.139-0.766c0.093-0.197,0.238-0.341,0.437-0.432c0.196-0.09,0.45-0.136,0.758-0.136h5.127
	c0.347,0,0.604,0.077,0.771,0.23c0.17,0.154,0.254,0.355,0.254,0.604c0,0.254-0.084,0.458-0.254,0.611
	C28.982,9.164,28.726,9.241,28.379,9.241z"/>
<path fill="#1EDCDC" d="M33.959,11.819c0.449,0,0.836-0.132,1.162-0.396c0.324-0.264,0.486-0.642,0.486-1.135
	c0-0.376-0.129-0.699-0.389-0.971c-0.259-0.271-0.607-0.406-1.048-0.406c-0.297,0-0.543,0.042-0.735,0.125
	c-0.191,0.083-0.345,0.193-0.457,0.33c-0.112,0.137-0.22,0.313-0.318,0.527c-0.102,0.214-0.191,0.417-0.274,0.608
	c-0.049,0.103-0.137,0.183-0.264,0.242c-0.127,0.059-0.272,0.088-0.438,0.088c-0.194,0-0.375-0.079-0.539-0.238
	c-0.164-0.158-0.246-0.37-0.246-0.633c0-0.254,0.078-0.521,0.231-0.802c0.153-0.28,0.378-0.548,0.675-0.802
	c0.295-0.254,0.662-0.458,1.103-0.611c0.438-0.154,0.93-0.231,1.471-0.231c0.476,0,0.906,0.065,1.297,0.194
	c0.392,0.13,0.729,0.316,1.019,0.561s0.506,0.527,0.652,0.85c0.146,0.323,0.221,0.669,0.221,1.04c0,0.488-0.107,0.907-0.32,1.256
	c-0.211,0.35-0.516,0.69-0.912,1.021c0.381,0.205,0.703,0.439,0.963,0.703c0.262,0.264,0.459,0.556,0.59,0.875
	c0.131,0.319,0.197,0.666,0.197,1.036c0,0.444-0.088,0.874-0.268,1.289c-0.178,0.415-0.439,0.785-0.787,1.108
	c-0.346,0.326-0.758,0.58-1.234,0.763c-0.477,0.185-1.002,0.274-1.578,0.274c-0.586,0-1.109-0.104-1.574-0.314
	c-0.463-0.21-0.846-0.473-1.146-0.787c-0.302-0.314-0.526-0.641-0.683-0.979c-0.152-0.336-0.229-0.614-0.229-0.834
	c0-0.283,0.092-0.512,0.272-0.687c0.186-0.173,0.412-0.26,0.687-0.26c0.138,0,0.269,0.04,0.396,0.121
	c0.127,0.08,0.211,0.177,0.25,0.289c0.254,0.679,0.525,1.183,0.816,1.513c0.289,0.329,0.699,0.494,1.227,0.494
	c0.304,0,0.595-0.074,0.875-0.225c0.281-0.147,0.515-0.371,0.695-0.664c0.184-0.293,0.275-0.631,0.275-1.018
	c0-0.57-0.156-1.02-0.471-1.344c-0.313-0.325-0.746-0.487-1.303-0.487c-0.099,0-0.25,0.011-0.455,0.029s-0.336,0.028-0.396,0.028
	c-0.271,0-0.478-0.066-0.623-0.201c-0.147-0.134-0.222-0.321-0.222-0.561c0-0.234,0.09-0.423,0.266-0.567
	c0.175-0.144,0.438-0.216,0.784-0.216h0.3V11.819z"/>
</svg>
