<?xml version="1.0" encoding="utf-8"?>
<!-- Generator: Adobe Illustrator 16.0.0, SVG Export Plug-In . SVG Version: 6.00 Build 0)  -->
<!DOCTYPE svg PUBLIC "-//W3C//DTD SVG 1.1//EN" "http://www.w3.org/Graphics/SVG/1.1/DTD/svg11.dtd">
<svg version="1.1" id="레이어_1" xmlns="http://www.w3.org/2000/svg" xmlns:xlink="http://www.w3.org/1999/xlink" x="0px"
	 y="0px" width="60px" height="52px" viewBox="0 0 60 52" enable-background="new 0 0 60 52" xml:space="preserve">
<path fill="#1EDCDC" d="M35.083,22.459l-7.324,8.188h7.837c0.635,0,1.112,0.149,1.438,0.447c0.32,0.299,0.482,0.686,0.482,1.149
	c0,0.448-0.16,0.815-0.478,1.099c-0.315,0.284-0.797,0.426-1.442,0.426h-10.84c-0.762,0-1.331-0.166-1.707-0.498
	s-0.563-0.787-0.563-1.358c0-0.347,0.132-0.688,0.396-1.032c0.264-0.348,0.812-0.98,1.641-1.911c0.88-0.978,1.678-1.856,2.396-2.648
	c0.718-0.791,1.384-1.53,2-2.221c0.615-0.688,1.125-1.271,1.531-1.75c0.405-0.479,0.729-0.892,0.974-1.229h-5.947
	c-0.819,0-1.439-0.073-1.859-0.22s-0.63-0.532-0.63-1.157c0-0.46,0.158-0.825,0.476-1.099c0.317-0.274,0.769-0.41,1.354-0.41h9.186
	c0.85,0,1.5,0.123,1.955,0.373c0.455,0.248,0.682,0.692,0.682,1.34c0,0.216-0.043,0.438-0.132,0.666
	c-0.089,0.229-0.187,0.418-0.293,0.563c-0.106,0.146-0.255,0.324-0.438,0.535C35.585,21.914,35.355,22.166,35.083,22.459z"/>
</svg>
