<?xml version="1.0" encoding="utf-8"?>
<!-- Generator: Adobe Illustrator 16.0.0, SVG Export Plug-In . SVG Version: 6.00 Build 0)  -->
<!DOCTYPE svg PUBLIC "-//W3C//DTD SVG 1.1//EN" "http://www.w3.org/Graphics/SVG/1.1/DTD/svg11.dtd">
<svg version="1.1" id="레이어_1" xmlns="http://www.w3.org/2000/svg" xmlns:xlink="http://www.w3.org/1999/xlink" x="0px"
	 y="0px" width="75px" height="52px" viewBox="0 0 75 52" enable-background="new 0 0 75 52" xml:space="preserve">
<path fill="#1EDCDC" d="M25.036,43.979c0,0.342-0.084,0.711-0.252,1.104c-0.168,0.397-0.434,0.789-0.795,1.174
	c-0.36,0.388-0.822,0.693-1.383,0.938c-0.561,0.242-1.216,0.354-1.963,0.354c-0.566,0-1.082-0.057-1.545-0.157
	c-0.463-0.107-0.885-0.275-1.264-0.504c-0.378-0.23-0.726-0.523-1.043-0.896c-0.283-0.338-0.525-0.715-0.725-1.133
	c-0.2-0.416-0.351-0.861-0.45-1.336c-0.101-0.479-0.15-0.98-0.15-1.51c0-0.863,0.125-1.644,0.377-2.32
	c0.252-0.688,0.612-1.271,1.081-1.754c0.469-0.486,1.018-0.855,1.648-1.109c0.63-0.254,1.301-0.381,2.014-0.381
	c0.869,0,1.643,0.172,2.321,0.52c0.68,0.35,1.199,0.775,1.561,1.285c0.361,0.514,0.542,0.992,0.542,1.447
	c0,0.248-0.088,0.469-0.265,0.658c-0.176,0.188-0.387,0.285-0.637,0.285c-0.277,0-0.486-0.064-0.625-0.197
	c-0.141-0.131-0.295-0.359-0.466-0.684c-0.283-0.529-0.617-0.935-1-1.191c-0.384-0.266-0.856-0.396-1.417-0.396
	c-0.894,0-1.605,0.342-2.135,1.021c-0.53,0.678-0.794,1.643-0.794,2.893c0,0.836,0.117,1.529,0.352,2.084
	c0.234,0.559,0.566,0.973,0.996,1.242c0.43,0.273,0.933,0.41,1.509,0.41c0.625,0,1.154-0.156,1.585-0.467
	c0.433-0.314,0.758-0.769,0.978-1.365c0.093-0.283,0.208-0.514,0.344-0.691c0.136-0.177,0.356-0.268,0.659-0.268
	c0.26,0,0.48,0.09,0.667,0.271C24.944,43.484,25.036,43.709,25.036,43.979z"/>
<path fill="#1EDCDC" d="M26.964,39.598h0.22V38.4c0-0.322,0.009-0.574,0.025-0.762c0.017-0.185,0.065-0.341,0.143-0.474
	c0.078-0.138,0.19-0.248,0.337-0.334c0.146-0.084,0.311-0.127,0.491-0.127c0.254,0,0.483,0.096,0.688,0.285
	c0.137,0.127,0.224,0.28,0.26,0.465c0.037,0.188,0.055,0.442,0.055,0.78v1.359h0.732c0.283,0,0.498,0.064,0.648,0.201
	c0.148,0.137,0.223,0.309,0.223,0.52c0,0.269-0.105,0.455-0.317,0.563c-0.213,0.106-0.517,0.16-0.912,0.16h-0.374v3.678
	c0,0.313,0.012,0.558,0.033,0.728c0.021,0.168,0.081,0.305,0.176,0.408c0.096,0.104,0.25,0.153,0.465,0.153
	c0.117,0,0.276-0.021,0.477-0.063c0.199-0.041,0.355-0.063,0.469-0.063c0.161,0,0.307,0.063,0.436,0.191
	c0.129,0.128,0.194,0.289,0.194,0.479c0,0.32-0.176,0.566-0.526,0.738c-0.352,0.172-0.857,0.258-1.517,0.258
	c-0.625,0-1.099-0.104-1.421-0.313c-0.322-0.209-0.534-0.502-0.633-0.873c-0.102-0.371-0.15-0.865-0.15-1.486v-3.838h-0.264
	c-0.288,0-0.508-0.066-0.659-0.205c-0.151-0.137-0.228-0.311-0.228-0.52c0-0.211,0.08-0.386,0.238-0.521
	C26.431,39.662,26.659,39.598,26.964,39.598z"/>
<path fill="#1EDCDC" d="M34.149,44.666v1.67c0,0.406-0.096,0.709-0.287,0.912c-0.189,0.203-0.432,0.305-0.725,0.305
	c-0.288,0-0.525-0.104-0.71-0.309c-0.185-0.205-0.278-0.508-0.278-0.908V40.77c0-0.897,0.325-1.354,0.975-1.354
	c0.332,0,0.57,0.105,0.718,0.314c0.147,0.211,0.228,0.521,0.242,0.932c0.239-0.41,0.483-0.721,0.735-0.932
	c0.252-0.209,0.588-0.314,1.008-0.314s0.828,0.105,1.223,0.314c0.395,0.211,0.593,0.485,0.593,0.836
	c0,0.244-0.084,0.442-0.252,0.604c-0.169,0.16-0.351,0.238-0.546,0.238c-0.072,0-0.25-0.045-0.531-0.137
	c-0.281-0.09-0.527-0.138-0.742-0.138c-0.293,0-0.533,0.074-0.719,0.229c-0.186,0.154-0.33,0.383-0.432,0.688
	s-0.173,0.662-0.212,1.08C34.169,43.557,34.149,44.066,34.149,44.666z"/>
<path fill="#1EDCDC" d="M38.534,46.336v-8.672c0-0.4,0.09-0.703,0.268-0.908c0.179-0.205,0.419-0.307,0.724-0.307
	c0.303,0,0.547,0.102,0.73,0.303c0.186,0.203,0.278,0.508,0.278,0.912v8.672c0,0.406-0.095,0.709-0.282,0.912
	s-0.432,0.305-0.729,0.305c-0.293,0-0.531-0.104-0.715-0.313C38.628,47.027,38.534,46.727,38.534,46.336z"/>
</svg>
