<?xml version="1.0" encoding="utf-8"?>
<!-- Generator: Adobe Illustrator 16.0.0, SVG Export Plug-In . SVG Version: 6.00 Build 0)  -->
<!DOCTYPE svg PUBLIC "-//W3C//DTD SVG 1.1//EN" "http://www.w3.org/Graphics/SVG/1.1/DTD/svg11.dtd">
<svg version="1.1" id="레이어_1" xmlns="http://www.w3.org/2000/svg" xmlns:xlink="http://www.w3.org/1999/xlink" x="0px"
	 y="0px" width="60px" height="52px" viewBox="0 0 60 52" enable-background="new 0 0 60 52" xml:space="preserve">
<path fill="#1EDCDC" d="M33.296,31.889c-0.967,0.752-1.901,1.316-2.805,1.691c-0.903,0.377-1.918,0.563-3.041,0.563
	c-1.024,0-1.926-0.203-2.703-0.604c-0.775-0.406-1.375-0.955-1.793-1.646c-0.42-0.693-0.631-1.445-0.631-2.259
	c0-1.094,0.348-2.024,1.041-2.799c0.692-0.771,1.646-1.289,2.854-1.554c0.254-0.059,0.884-0.188,1.891-0.396
	c1.006-0.205,1.867-0.396,2.583-0.563c0.72-0.17,1.498-0.378,2.336-0.622c-0.049-1.055-0.26-1.828-0.637-2.32
	c-0.375-0.494-1.153-0.737-2.335-0.737c-1.016,0-1.779,0.142-2.292,0.425c-0.512,0.283-0.952,0.708-1.317,1.271
	c-0.367,0.565-0.625,0.938-0.776,1.121c-0.151,0.183-0.476,0.271-0.974,0.271c-0.449,0-0.838-0.145-1.166-0.434
	c-0.326-0.287-0.49-0.655-0.49-1.104c0-0.703,0.248-1.387,0.746-2.051s1.274-1.211,2.33-1.642c1.055-0.433,2.367-0.646,3.939-0.646
	c1.757,0,3.141,0.207,4.146,0.623c1.006,0.414,1.716,1.07,2.131,1.97c0.414,0.899,0.623,2.091,0.623,3.574
	c0,0.938-0.002,1.731-0.008,2.39c-0.004,0.653-0.012,1.381-0.021,2.182c0,0.755,0.125,1.537,0.374,2.354
	c0.249,0.816,0.374,1.344,0.374,1.574c0,0.41-0.193,0.785-0.578,1.121c-0.387,0.338-0.824,0.506-1.313,0.506
	c-0.41,0-0.814-0.191-1.215-0.578C34.17,33.18,33.745,32.621,33.296,31.889z M33.032,26.103c-0.587,0.215-1.438,0.442-2.556,0.681
	c-1.118,0.239-1.892,0.416-2.321,0.526c-0.431,0.113-0.84,0.332-1.23,0.66c-0.391,0.326-0.586,0.783-0.586,1.369
	c0,0.604,0.229,1.121,0.688,1.545c0.459,0.426,1.061,0.639,1.803,0.639c0.791,0,1.521-0.174,2.189-0.521
	c0.668-0.35,1.16-0.793,1.473-1.34c0.359-0.605,0.541-1.604,0.541-2.988L33.032,26.103L33.032,26.103z"/>
</svg>
