<?xml version="1.0" encoding="utf-8"?>
<!-- Generator: Adobe Illustrator 16.0.0, SVG Export Plug-In . SVG Version: 6.00 Build 0)  -->
<!DOCTYPE svg PUBLIC "-//W3C//DTD SVG 1.1//EN" "http://www.w3.org/Graphics/SVG/1.1/DTD/svg11.dtd">
<svg version="1.1" id="레이어_1" xmlns="http://www.w3.org/2000/svg" xmlns:xlink="http://www.w3.org/1999/xlink" x="0px"
	 y="0px" width="60px" height="52px" viewBox="0 0 60 52" enable-background="new 0 0 60 52" xml:space="preserve">
<path fill="#1EDCDC" d="M26.206,26.951c-1.377,0-2.705,0.669-3.984,2.007v-3.779c0.645-0.723,1.321-1.238,2.029-1.545
	c0.708-0.307,1.501-0.461,2.38-0.461c0.674,0,1.315,0.088,1.926,0.264c0.61,0.176,1.238,0.393,1.882,0.652
	c0.645,0.259,1.274,0.5,1.891,0.725c0.615,0.225,1.094,0.337,1.436,0.337c0.615,0,1.277-0.181,1.985-0.542
	c0.708-0.361,1.384-0.884,2.028-1.567v3.94c-0.293,0.303-0.676,0.606-1.149,0.916c-0.476,0.308-0.959,0.557-1.458,0.746
	s-0.967,0.287-1.406,0.287c-0.703,0-1.354-0.084-1.955-0.25c-0.602-0.166-1.285-0.412-2.052-0.74
	c-0.768-0.326-1.399-0.573-1.897-0.739C27.364,27.036,26.812,26.951,26.206,26.951z"/>
</svg>
