<?xml version="1.0" encoding="utf-8"?>
<!-- Generator: Adobe Illustrator 16.0.0, SVG Export Plug-In . SVG Version: 6.00 Build 0)  -->
<!DOCTYPE svg PUBLIC "-//W3C//DTD SVG 1.1//EN" "http://www.w3.org/Graphics/SVG/1.1/DTD/svg11.dtd">
<svg version="1.1" id="레이어_1" xmlns="http://www.w3.org/2000/svg" xmlns:xlink="http://www.w3.org/1999/xlink" x="0px"
	 y="0px" width="60px" height="52px" viewBox="0 0 60 52" enable-background="new 0 0 60 52" xml:space="preserve">
<path fill="#1EDCDC" d="M30.882,13.502v1.425c0.94,0.097,1.747,0.29,2.418,0.579c0.675,0.29,1.261,0.729,1.761,1.318
	c0.396,0.448,0.7,0.91,0.918,1.384c0.215,0.476,0.321,0.91,0.321,1.306c0,0.438-0.159,0.819-0.479,1.14
	c-0.32,0.321-0.711,0.481-1.168,0.481c-0.859,0-1.418-0.467-1.674-1.397c-0.289-1.099-0.988-1.828-2.096-2.188v5.483
	c1.09,0.299,1.958,0.571,2.604,0.817c0.646,0.246,1.225,0.602,1.734,1.067c0.545,0.483,0.965,1.062,1.26,1.733
	c0.293,0.673,0.44,1.408,0.44,2.209c0,1.002-0.235,1.939-0.705,2.813c-0.471,0.875-1.164,1.589-2.077,2.144
	c-0.914,0.554-2,0.884-3.256,0.988v3.283c0,0.52-0.051,0.896-0.15,1.135c-0.103,0.236-0.323,0.355-0.667,0.355
	c-0.316,0-0.539-0.098-0.666-0.291c-0.127-0.191-0.191-0.492-0.191-0.896v-3.56c-1.028-0.114-1.927-0.356-2.696-0.726
	c-0.77-0.369-1.411-0.828-1.925-1.379c-0.515-0.549-0.895-1.119-1.141-1.713c-0.246-0.595-0.369-1.176-0.369-1.748
	c0-0.422,0.165-0.802,0.494-1.141c0.33-0.338,0.741-0.508,1.233-0.508c0.396,0,0.729,0.092,1.002,0.277
	c0.273,0.185,0.461,0.443,0.567,0.777c0.237,0.721,0.444,1.271,0.62,1.653c0.176,0.383,0.442,0.731,0.797,1.048
	c0.356,0.316,0.829,0.559,1.417,0.727v-6.131c-1.178-0.325-2.162-0.688-2.953-1.087c-0.791-0.399-1.433-0.97-1.925-1.708
	c-0.492-0.739-0.738-1.688-0.738-2.849c0-1.512,0.481-2.751,1.444-3.718c0.962-0.967,2.353-1.529,4.172-1.688v-1.397
	c0-0.738,0.277-1.107,0.831-1.107C30.602,12.421,30.882,12.782,30.882,13.502z M29.208,22.546v-5.049
	c-0.738,0.221-1.314,0.51-1.727,0.87c-0.413,0.36-0.62,0.905-0.62,1.635c0,0.694,0.193,1.221,0.58,1.575
	C27.828,21.935,28.417,22.256,29.208,22.546z M30.882,26.462v5.774c0.888-0.176,1.573-0.532,2.058-1.068
	c0.483-0.536,0.725-1.159,0.725-1.872c0-0.765-0.234-1.354-0.705-1.772C32.486,27.105,31.797,26.752,30.882,26.462z"/>
</svg>
