<?xml version="1.0" encoding="utf-8"?>
<!-- Generator: Adobe Illustrator 16.0.0, SVG Export Plug-In . SVG Version: 6.00 Build 0)  -->
<!DOCTYPE svg PUBLIC "-//W3C//DTD SVG 1.1//EN" "http://www.w3.org/Graphics/SVG/1.1/DTD/svg11.dtd">
<svg version="1.1" id="레이어_1" xmlns="http://www.w3.org/2000/svg" xmlns:xlink="http://www.w3.org/1999/xlink" x="0px"
	 y="0px" width="139px" height="52px" viewBox="0 0 139 52" enable-background="new 0 0 139 52" xml:space="preserve">
<path fill="#1EDCDC" d="M98.688,45.146c0,0.646-0.166,1.229-0.502,1.752c-0.334,0.519-0.824,0.922-1.468,1.216
	c-0.644,0.293-1.409,0.438-2.292,0.438c-1.061,0-1.934-0.194-2.621-0.6c-0.488-0.289-0.886-0.675-1.19-1.154
	c-0.306-0.479-0.457-0.944-0.457-1.397c0-0.269,0.091-0.488,0.274-0.683c0.183-0.188,0.416-0.276,0.698-0.276
	c0.229,0,0.423,0.067,0.582,0.219c0.159,0.146,0.294,0.363,0.407,0.652c0.137,0.342,0.283,0.627,0.443,0.854
	c0.158,0.23,0.381,0.418,0.67,0.566c0.287,0.146,0.666,0.225,1.135,0.225c0.645,0,1.168-0.148,1.57-0.451
	c0.401-0.299,0.604-0.674,0.604-1.123c0-0.354-0.107-0.646-0.326-0.867c-0.218-0.223-0.498-0.393-0.843-0.51
	c-0.345-0.115-0.806-0.24-1.38-0.375c-0.771-0.18-1.417-0.391-1.938-0.633s-0.934-0.568-1.238-0.986
	c-0.306-0.418-0.459-0.938-0.459-1.559c0-0.592,0.162-1.115,0.483-1.574c0.322-0.459,0.789-0.813,1.399-1.061
	c0.609-0.244,1.328-0.369,2.152-0.369c0.658,0,1.229,0.082,1.711,0.246c0.479,0.164,0.879,0.381,1.196,0.647
	c0.317,0.271,0.55,0.56,0.696,0.854s0.22,0.59,0.22,0.873c0,0.258-0.092,0.49-0.272,0.697c-0.186,0.207-0.412,0.313-0.687,0.313
	c-0.249,0-0.438-0.063-0.567-0.188s-0.271-0.328-0.42-0.611c-0.195-0.404-0.432-0.723-0.703-0.947
	c-0.273-0.229-0.713-0.342-1.318-0.342c-0.563,0-1.016,0.125-1.357,0.371c-0.346,0.244-0.518,0.543-0.518,0.889
	c0,0.217,0.059,0.4,0.176,0.563c0.117,0.154,0.278,0.289,0.482,0.398c0.205,0.111,0.414,0.199,0.623,0.268
	c0.211,0.063,0.558,0.154,1.041,0.273c0.604,0.146,1.154,0.301,1.644,0.473c0.491,0.172,0.908,0.379,1.253,0.621
	c0.344,0.242,0.612,0.555,0.807,0.93C98.591,44.146,98.688,44.605,98.688,45.146z"/>
<path fill="#1EDCDC" d="M102.35,38.667v2.967c0.254-0.293,0.502-0.521,0.743-0.692c0.242-0.172,0.509-0.303,0.802-0.387
	c0.293-0.087,0.608-0.13,0.945-0.13c0.508,0,0.958,0.107,1.352,0.322c0.395,0.215,0.703,0.526,0.928,0.938
	c0.142,0.233,0.236,0.506,0.285,0.803c0.05,0.297,0.072,0.637,0.072,1.021v3.83c0,0.4-0.092,0.703-0.272,0.908
	c-0.185,0.205-0.427,0.308-0.729,0.308c-0.66,0-0.99-0.4-0.99-1.216v-3.377c0-0.642-0.094-1.133-0.284-1.478
	c-0.19-0.348-0.554-0.521-1.084-0.521c-0.356,0-0.679,0.104-0.964,0.31c-0.284,0.201-0.5,0.479-0.641,0.832
	c-0.107,0.299-0.162,0.824-0.162,1.59v2.645c0,0.396-0.088,0.697-0.268,0.904s-0.426,0.311-0.743,0.311
	c-0.659,0-0.989-0.4-0.989-1.215v-8.672c0-0.406,0.086-0.709,0.26-0.912c0.175-0.203,0.416-0.305,0.729-0.305
	c0.317,0,0.565,0.104,0.743,0.309S102.35,38.268,102.35,38.667z"/>
<path fill="#1EDCDC" d="M110.465,39.493c-0.277,0-0.516-0.084-0.714-0.257c-0.196-0.17-0.296-0.411-0.296-0.729
	c0-0.279,0.102-0.518,0.304-0.695c0.202-0.188,0.438-0.274,0.707-0.274c0.259,0,0.488,0.084,0.688,0.25
	c0.199,0.166,0.3,0.405,0.3,0.726c0,0.313-0.099,0.553-0.293,0.727C110.966,39.407,110.734,39.493,110.465,39.493z M111.454,41.561
	v5.772c0,0.399-0.095,0.703-0.286,0.908c-0.191,0.204-0.432,0.309-0.725,0.309s-0.531-0.104-0.715-0.313
	c-0.185-0.209-0.274-0.51-0.274-0.9v-5.721c0-0.395,0.091-0.693,0.274-0.895c0.184-0.197,0.422-0.302,0.715-0.302
	s0.535,0.104,0.725,0.302C111.357,40.925,111.454,41.202,111.454,41.561z"/>
<path fill="#1EDCDC" d="M113.357,40.602h0.477v-0.605c0-0.625,0.079-1.121,0.238-1.49c0.158-0.367,0.427-0.637,0.806-0.805
	c0.378-0.168,0.897-0.254,1.556-0.254c1.168,0,1.75,0.287,1.75,0.854c0,0.188-0.061,0.347-0.183,0.479
	c-0.122,0.131-0.267,0.197-0.433,0.197c-0.078,0-0.211-0.021-0.402-0.045c-0.191-0.029-0.352-0.048-0.482-0.048
	c-0.36,0-0.594,0.105-0.697,0.316c-0.103,0.213-0.152,0.521-0.152,0.912v0.479h0.491c0.762,0,1.143,0.229,1.143,0.688
	c0,0.326-0.102,0.533-0.304,0.623c-0.203,0.088-0.48,0.131-0.839,0.131h-0.491v5.297c0,0.396-0.096,0.695-0.282,0.902
	s-0.431,0.313-0.729,0.313c-0.283,0-0.521-0.104-0.707-0.313c-0.188-0.207-0.282-0.51-0.282-0.902v-5.297h-0.55
	c-0.298,0-0.526-0.064-0.688-0.201c-0.16-0.133-0.242-0.311-0.242-0.52C112.355,40.839,112.689,40.602,113.357,40.602z"/>
<path fill="#1EDCDC" d="M118.625,40.602h0.221V39.4c0-0.322,0.008-0.576,0.024-0.762c0.017-0.187,0.065-0.345,0.144-0.476
	c0.077-0.138,0.189-0.248,0.336-0.334c0.146-0.084,0.312-0.127,0.491-0.127c0.255,0,0.483,0.094,0.688,0.284
	c0.137,0.128,0.224,0.281,0.26,0.466c0.037,0.187,0.055,0.442,0.055,0.778v1.359h0.732c0.281,0,0.499,0.066,0.646,0.201
	c0.149,0.137,0.226,0.311,0.226,0.52c0,0.271-0.106,0.457-0.318,0.563c-0.213,0.106-0.519,0.162-0.912,0.162h-0.374v3.676
	c0,0.313,0.012,0.56,0.033,0.728s0.081,0.307,0.176,0.408c0.098,0.104,0.25,0.153,0.467,0.153c0.115,0,0.274-0.021,0.476-0.063
	c0.2-0.041,0.356-0.063,0.469-0.063c0.161,0,0.306,0.064,0.437,0.193c0.129,0.131,0.193,0.291,0.193,0.479
	c0,0.32-0.176,0.568-0.527,0.738c-0.351,0.172-0.855,0.256-1.516,0.256c-0.625,0-1.099-0.104-1.421-0.313
	c-0.321-0.211-0.534-0.5-0.633-0.871c-0.103-0.371-0.149-0.866-0.149-1.485v-3.838h-0.265c-0.288,0-0.508-0.066-0.659-0.205
	c-0.15-0.138-0.229-0.312-0.229-0.521s0.08-0.384,0.238-0.521C118.093,40.663,118.322,40.602,118.625,40.602z"/>
</svg>
