<?xml version="1.0" encoding="utf-8"?>
<!-- Generator: Adobe Illustrator 16.0.0, SVG Export Plug-In . SVG Version: 6.00 Build 0)  -->
<!DOCTYPE svg PUBLIC "-//W3C//DTD SVG 1.1//EN" "http://www.w3.org/Graphics/SVG/1.1/DTD/svg11.dtd">
<svg version="1.1" id="레이어_1" xmlns="http://www.w3.org/2000/svg" xmlns:xlink="http://www.w3.org/1999/xlink" x="0px"
	 y="0px" width="60px" height="26px" viewBox="0 0 60 26" enable-background="new 0 0 60 26" xml:space="preserve">
<path fill="#1EDCDC" d="M28.174,9.286h-4.285v2.747h3.582c0.332,0,0.58,0.075,0.743,0.224c0.163,0.149,0.246,0.348,0.246,0.597
	s-0.083,0.447-0.249,0.593s-0.413,0.22-0.74,0.22h-3.582v3.539c0,0.448-0.102,0.783-0.304,1c-0.203,0.217-0.462,0.326-0.78,0.326
	c-0.32,0-0.585-0.11-0.788-0.33c-0.201-0.222-0.304-0.554-0.304-0.996V8.943c0-0.313,0.046-0.567,0.139-0.766
	c0.095-0.197,0.238-0.341,0.438-0.432c0.197-0.09,0.45-0.136,0.758-0.136h5.127c0.348,0,0.604,0.077,0.772,0.23
	C29.116,7.993,29.2,8.194,29.2,8.443c0,0.254-0.084,0.458-0.253,0.611C28.778,9.208,28.521,9.286,28.174,9.286z"/>
<path fill="#1EDCDC" d="M34.898,17.416v-1.361h-3.678c-0.465,0-0.813-0.104-1.044-0.315c-0.23-0.21-0.348-0.496-0.348-0.856
	c0-0.093,0.017-0.188,0.051-0.281c0.034-0.096,0.085-0.195,0.154-0.302c0.066-0.104,0.139-0.206,0.212-0.304
	c0.073-0.098,0.164-0.217,0.271-0.359L34.4,8.444c0.254-0.342,0.463-0.59,0.627-0.743c0.16-0.154,0.357-0.231,0.589-0.231
	c0.741,0,1.11,0.425,1.11,1.274v5.669h0.315c0.375,0,0.679,0.051,0.903,0.153c0.228,0.104,0.341,0.326,0.341,0.675
	c0,0.282-0.093,0.489-0.277,0.618c-0.186,0.13-0.465,0.193-0.836,0.193h-0.446v1.361c0,0.377-0.082,0.656-0.248,0.839
	c-0.166,0.185-0.389,0.274-0.668,0.274c-0.271,0-0.492-0.094-0.66-0.281S34.898,17.781,34.898,17.416z M31.748,14.412h3.146v-4.254
	L31.748,14.412z"/>
</svg>
