<?xml version="1.0" encoding="utf-8"?>
<!-- Generator: Adobe Illustrator 16.0.0, SVG Export Plug-In . SVG Version: 6.00 Build 0)  -->
<!DOCTYPE svg PUBLIC "-//W3C//DTD SVG 1.1//EN" "http://www.w3.org/Graphics/SVG/1.1/DTD/svg11.dtd">
<svg version="1.1" id="레이어_1" xmlns="http://www.w3.org/2000/svg" xmlns:xlink="http://www.w3.org/1999/xlink" x="0px"
	 y="0px" width="60px" height="52px" viewBox="0 0 60 52" enable-background="new 0 0 60 52" xml:space="preserve">
<path fill="#1EDCDC" d="M22.563,32.561l4.805-7.017l-4.043-6.239c-0.381-0.605-0.667-1.125-0.857-1.563
	c-0.19-0.434-0.286-0.853-0.286-1.252c0-0.407,0.183-0.776,0.549-1.104c0.366-0.328,0.813-0.489,1.34-0.489
	c0.605,0,1.077,0.179,1.414,0.532c0.337,0.354,0.803,1.021,1.399,1.982l3.223,5.216l3.441-5.216
	c0.283-0.438,0.525-0.813,0.726-1.128c0.201-0.313,0.395-0.57,0.58-0.775c0.185-0.204,0.393-0.354,0.623-0.461
	c0.229-0.104,0.496-0.15,0.797-0.15c0.548,0,0.994,0.161,1.341,0.489c0.347,0.325,0.521,0.717,0.521,1.163
	c0,0.652-0.377,1.543-1.129,2.666l-4.232,6.328l4.557,7.02c0.41,0.612,0.708,1.127,0.895,1.528c0.187,0.404,0.278,0.789,0.278,1.148
	c0,0.344-0.084,0.653-0.25,0.938c-0.166,0.284-0.399,0.51-0.703,0.676c-0.303,0.166-0.645,0.25-1.024,0.25
	c-0.409,0-0.756-0.086-1.039-0.258c-0.283-0.173-0.514-0.386-0.688-0.64c-0.176-0.256-0.504-0.748-0.981-1.479l-3.778-5.946
	l-4.014,6.122c-0.313,0.486-0.535,0.83-0.667,1.023c-0.132,0.193-0.291,0.387-0.476,0.568c-0.185,0.189-0.405,0.332-0.659,0.439
	c-0.254,0.104-0.552,0.162-0.894,0.162c-0.527,0-0.964-0.162-1.311-0.484c-0.347-0.318-0.52-0.791-0.52-1.402
	C21.493,34.49,21.85,33.605,22.563,32.561z"/>
</svg>
