<?xml version="1.0" encoding="utf-8"?>
<!-- Generator: Adobe Illustrator 16.0.0, SVG Export Plug-In . SVG Version: 6.00 Build 0)  -->
<!DOCTYPE svg PUBLIC "-//W3C//DTD SVG 1.1//EN" "http://www.w3.org/Graphics/SVG/1.1/DTD/svg11.dtd">
<svg version="1.1" id="레이어_1" xmlns="http://www.w3.org/2000/svg" xmlns:xlink="http://www.w3.org/1999/xlink" x="0px"
	 y="0px" width="60px" height="52px" viewBox="0 0 60 52" enable-background="new 0 0 60 52" xml:space="preserve">
<path fill="#1EDCDC" d="M29.252,23.643c0.898,0,1.672-0.264,2.322-0.791s0.975-1.284,0.975-2.271c0-0.752-0.26-1.399-0.775-1.941
	c-0.518-0.542-1.217-0.813-2.095-0.813c-0.596,0-1.086,0.083-1.472,0.249c-0.386,0.166-0.691,0.386-0.916,0.659
	s-0.437,0.625-0.637,1.055c-0.2,0.43-0.383,0.835-0.549,1.216c-0.098,0.205-0.273,0.366-0.527,0.483
	c-0.254,0.117-0.547,0.176-0.879,0.176c-0.391,0-0.75-0.159-1.077-0.476s-0.491-0.74-0.491-1.267c0-0.508,0.154-1.042,0.461-1.604
	c0.307-0.562,0.757-1.096,1.348-1.604c0.591-0.508,1.326-0.916,2.205-1.223c0.879-0.307,1.86-0.461,2.944-0.461
	c0.948,0,1.813,0.129,2.594,0.388c0.779,0.259,1.459,0.632,2.035,1.121c0.576,0.489,1.012,1.055,1.305,1.699s0.438,1.338,0.438,2.08
	c0,0.977-0.211,1.814-0.637,2.512c-0.425,0.698-1.033,1.379-1.824,2.043c0.765,0.41,1.403,0.879,1.928,1.406
	c0.521,0.528,0.916,1.112,1.179,1.75c0.264,0.639,0.396,1.33,0.396,2.072c0,0.89-0.178,1.748-0.535,2.578
	c-0.356,0.829-0.881,1.569-1.573,2.219c-0.695,0.649-1.519,1.158-2.47,1.522c-0.95,0.367-2.004,0.55-3.157,0.55
	c-1.172,0-2.222-0.21-3.149-0.63c-0.927-0.42-1.692-0.944-2.292-1.575c-0.6-0.63-1.055-1.281-1.362-1.955
	c-0.307-0.675-0.461-1.23-0.461-1.67c0-0.566,0.183-1.023,0.549-1.371c0.366-0.347,0.823-0.521,1.37-0.521
	c0.273,0,0.537,0.082,0.791,0.242c0.254,0.161,0.42,0.354,0.498,0.579c0.508,1.355,1.052,2.365,1.633,3.025
	c0.581,0.658,1.399,0.988,2.454,0.988c0.605,0,1.189-0.148,1.75-0.447c0.564-0.299,1.025-0.74,1.393-1.326
	c0.369-0.586,0.55-1.266,0.55-2.035c0-1.145-0.313-2.039-0.938-2.688c-0.625-0.647-1.494-0.974-2.607-0.974
	c-0.195,0-0.498,0.021-0.908,0.06c-0.41,0.039-0.674,0.06-0.791,0.06c-0.537,0-0.952-0.135-1.245-0.403
	c-0.293-0.269-0.439-0.642-0.439-1.121c0-0.469,0.176-0.847,0.527-1.135c0.351-0.288,0.874-0.432,1.567-0.432h0.6v0.002H29.252z"/>
</svg>
