<?xml version="1.0" encoding="utf-8"?>
<!-- Generator: Adobe Illustrator 16.0.0, SVG Export Plug-In . SVG Version: 6.00 Build 0)  -->
<!DOCTYPE svg PUBLIC "-//W3C//DTD SVG 1.1//EN" "http://www.w3.org/Graphics/SVG/1.1/DTD/svg11.dtd">
<svg version="1.1" id="레이어_1" xmlns="http://www.w3.org/2000/svg" xmlns:xlink="http://www.w3.org/1999/xlink" x="0px"
	 y="0px" width="60px" height="52px" viewBox="0 0 60 52" enable-background="new 0 0 60 52" xml:space="preserve">
<path fill="#1EDCDC" d="M23.49,15.266h5.669c1.476,0,2.739,0.137,3.794,0.41c1.055,0.271,2.012,0.785,2.871,1.537
	c2.236,1.911,3.354,4.821,3.354,8.729c0,1.289-0.111,2.466-0.336,3.527c-0.226,1.064-0.572,2.023-1.041,2.879
	c-0.469,0.854-1.068,1.619-1.802,2.293c-0.575,0.521-1.206,0.937-1.89,1.244c-0.685,0.313-1.418,0.533-2.205,0.66
	s-1.672,0.189-2.659,0.189h-5.669c-0.791,0-1.387-0.119-1.787-0.359c-0.4-0.238-0.662-0.576-0.784-1.01
	c-0.122-0.438-0.183-1-0.183-1.691V17.926c0-0.938,0.21-1.613,0.63-2.035C21.872,15.473,22.553,15.266,23.49,15.266z M25.176,18.708
	v14.575h3.295c0.724,0,1.289-0.02,1.699-0.059s0.836-0.138,1.273-0.293c0.438-0.156,0.82-0.377,1.144-0.658
	c1.455-1.23,2.183-3.353,2.183-6.358c0-2.118-0.318-3.706-0.959-4.761c-0.639-1.055-1.428-1.727-2.365-2.014
	c-0.938-0.289-2.069-0.437-3.397-0.437L25.176,18.708L25.176,18.708z"/>
</svg>
