<?xml version="1.0" encoding="utf-8"?>
<!-- Generator: Adobe Illustrator 16.0.0, SVG Export Plug-In . SVG Version: 6.00 Build 0)  -->
<!DOCTYPE svg PUBLIC "-//W3C//DTD SVG 1.1//EN" "http://www.w3.org/Graphics/SVG/1.1/DTD/svg11.dtd">
<svg version="1.1" id="레이어_1" xmlns="http://www.w3.org/2000/svg" xmlns:xlink="http://www.w3.org/1999/xlink" x="0px"
	 y="0px" width="60px" height="52px" viewBox="0 0 60 52" enable-background="new 0 0 60 52" xml:space="preserve">
<path fill="#1EDCDC" d="M27.894,31.662l0.366-0.895l-4.922-12.393c-0.307-0.713-0.454-1.229-0.454-1.553
	c0-0.342,0.088-0.659,0.264-0.952c0.176-0.293,0.417-0.527,0.725-0.703c0.312-0.176,0.627-0.264,0.959-0.264
	c0.576,0,1.015,0.183,1.308,0.549c0.293,0.366,0.552,0.891,0.772,1.575l3.384,9.843l3.209-9.154
	c0.257-0.742,0.481-1.323,0.688-1.743c0.205-0.42,0.422-0.702,0.652-0.85c0.229-0.147,0.553-0.22,0.973-0.22
	c0.304,0,0.594,0.081,0.873,0.242c0.279,0.16,0.492,0.378,0.645,0.651c0.152,0.274,0.229,0.563,0.229,0.864
	c-0.039,0.186-0.104,0.449-0.189,0.791c-0.087,0.342-0.191,0.688-0.318,1.04L31.84,32.143c-0.447,1.2-0.891,2.145-1.316,2.825
	c-0.425,0.685-0.999,1.209-1.707,1.576s-1.663,0.549-2.864,0.549c-1.172,0-2.051-0.127-2.637-0.381s-0.879-0.719-0.879-1.394
	c0-0.459,0.139-0.813,0.417-1.063c0.275-0.248,0.688-0.373,1.236-0.373c0.217,0,0.427,0.029,0.632,0.088
	c0.254,0.059,0.474,0.088,0.657,0.088c0.459,0,0.818-0.067,1.084-0.205c0.266-0.137,0.5-0.373,0.71-0.709
	C27.377,32.813,27.619,32.318,27.894,31.662z"/>
</svg>
