<?xml version="1.0" encoding="utf-8"?>
<!-- Generator: Adobe Illustrator 16.0.0, SVG Export Plug-In . SVG Version: 6.00 Build 0)  -->
<!DOCTYPE svg PUBLIC "-//W3C//DTD SVG 1.1//EN" "http://www.w3.org/Graphics/SVG/1.1/DTD/svg11.dtd">
<svg version="1.1" id="레이어_1" xmlns="http://www.w3.org/2000/svg" xmlns:xlink="http://www.w3.org/1999/xlink" x="0px"
	 y="0px" width="60px" height="52px" viewBox="0 0 60 52" enable-background="new 0 0 60 52" xml:space="preserve">
<path fill="#1EDCDC" d="M27.793,20.051c0-0.692,0.217-1.229,0.648-1.61c0.437-0.381,0.959-0.568,1.574-0.568
	c0.596,0,1.109,0.189,1.54,0.578c0.43,0.387,0.646,0.921,0.646,1.604c0,0.549-0.234,1.051-0.703,1.51
	c-0.474,0.459-0.979,0.688-1.524,0.688c-0.596,0-1.104-0.22-1.538-0.659C28.008,21.149,27.793,20.638,27.793,20.051z M30.02,34.128
	c-0.604,0-1.128-0.194-1.563-0.586c-0.439-0.392-0.659-0.938-0.659-1.642c0-0.596,0.21-1.107,0.63-1.539
	c0.42-0.43,0.938-0.646,1.553-0.646s1.143,0.214,1.576,0.64c0.434,0.427,0.651,0.938,0.651,1.545c0,0.691-0.224,1.238-0.651,1.636
	C31.117,33.932,30.605,34.128,30.02,34.128z"/>
</svg>
