<?xml version="1.0" encoding="utf-8"?>
<!-- Generator: Adobe Illustrator 16.0.0, SVG Export Plug-In . SVG Version: 6.00 Build 0)  -->
<!DOCTYPE svg PUBLIC "-//W3C//DTD SVG 1.1//EN" "http://www.w3.org/Graphics/SVG/1.1/DTD/svg11.dtd">
<svg version="1.1" id="레이어_1" xmlns="http://www.w3.org/2000/svg" xmlns:xlink="http://www.w3.org/1999/xlink" x="0px"
	 y="0px" width="107px" height="52px" viewBox="0 0 107 52" enable-background="new 0 0 107 52" xml:space="preserve">
<path fill="#1EDCDC" d="M25.885,43.494c0,0.342-0.084,0.711-0.252,1.104c-0.169,0.396-0.435,0.789-0.795,1.178
	c-0.361,0.383-0.823,0.689-1.384,0.934c-0.562,0.24-1.217,0.359-1.964,0.359c-0.565,0-1.082-0.061-1.545-0.162
	c-0.463-0.107-0.885-0.275-1.264-0.502c-0.378-0.23-0.726-0.525-1.043-0.896c-0.283-0.338-0.525-0.715-0.725-1.133
	c-0.2-0.416-0.352-0.861-0.45-1.336c-0.102-0.473-0.15-0.98-0.15-1.508c0-0.865,0.125-1.645,0.377-2.322
	c0.252-0.684,0.612-1.268,1.081-1.754s1.019-0.855,1.648-1.109s1.301-0.381,2.014-0.381c0.869,0,1.644,0.172,2.322,0.52
	c0.679,0.352,1.199,0.775,1.56,1.285c0.361,0.512,0.542,0.992,0.542,1.447c0,0.248-0.088,0.469-0.264,0.658
	c-0.176,0.191-0.388,0.285-0.637,0.285c-0.278,0-0.487-0.064-0.626-0.197c-0.141-0.131-0.294-0.357-0.466-0.682
	c-0.282-0.531-0.616-0.936-1-1.193c-0.384-0.264-0.855-0.395-1.417-0.395c-0.894,0-1.604,0.338-2.135,1.018
	c-0.53,0.678-0.794,1.643-0.794,2.893c0,0.836,0.117,1.529,0.353,2.084c0.233,0.555,0.565,0.969,0.996,1.242
	c0.43,0.273,0.933,0.41,1.509,0.41c0.625,0,1.153-0.156,1.585-0.467c0.433-0.309,0.758-0.764,0.978-1.365
	c0.093-0.283,0.208-0.514,0.344-0.691c0.137-0.178,0.356-0.268,0.659-0.268c0.26,0,0.481,0.09,0.667,0.271
	C25.792,43,25.885,43.225,25.885,43.494z"/>
<path fill="#1EDCDC" d="M32.755,45.939c-0.483,0.377-0.951,0.658-1.403,0.848c-0.452,0.188-0.958,0.281-1.52,0.281
	c-0.514,0-0.963-0.102-1.353-0.305c-0.388-0.201-0.687-0.477-0.896-0.824c-0.21-0.346-0.315-0.723-0.315-1.127
	c0-0.547,0.173-1.014,0.521-1.398c0.347-0.385,0.822-0.646,1.428-0.773c0.127-0.023,0.441-0.096,0.945-0.191
	c0.503-0.105,0.934-0.197,1.292-0.283c0.358-0.084,0.749-0.189,1.168-0.314c-0.024-0.523-0.132-0.912-0.319-1.16
	c-0.188-0.244-0.577-0.367-1.168-0.367c-0.508,0-0.89,0.068-1.146,0.213c-0.256,0.143-0.476,0.354-0.658,0.639
	c-0.184,0.281-0.313,0.471-0.389,0.563c-0.076,0.092-0.237,0.137-0.486,0.137c-0.226,0-0.419-0.07-0.582-0.217
	c-0.164-0.146-0.246-0.328-0.246-0.555c0-0.354,0.125-0.691,0.374-1.023s0.637-0.605,1.165-0.818c0.527-0.217,1.184-0.32,1.97-0.32
	c0.879,0,1.57,0.104,2.073,0.313c0.503,0.207,0.857,0.535,1.065,0.982c0.207,0.447,0.312,1.045,0.312,1.785
	c0,0.473-0.001,0.865-0.003,1.191c-0.003,0.324-0.006,0.689-0.012,1.094c0,0.375,0.063,0.771,0.188,1.178
	c0.124,0.404,0.187,0.67,0.187,0.785c0,0.205-0.097,0.396-0.289,0.563C34.463,47,34.244,47.086,34,47.086
	c-0.205,0-0.408-0.1-0.608-0.291C33.191,46.59,32.979,46.307,32.755,45.939z M32.623,43.047c-0.293,0.107-0.72,0.221-1.278,0.34
	c-0.56,0.121-0.946,0.209-1.161,0.266c-0.215,0.059-0.42,0.166-0.615,0.328c-0.194,0.164-0.293,0.396-0.293,0.688
	c0,0.303,0.115,0.561,0.345,0.771c0.229,0.211,0.529,0.316,0.9,0.316c0.396,0,0.76-0.086,1.095-0.26
	c0.336-0.172,0.58-0.396,0.736-0.67c0.181-0.303,0.271-0.801,0.271-1.494V43.047z"/>
<path fill="#1EDCDC" d="M38.263,40.059v0.242c0.376-0.465,0.767-0.805,1.172-1.021c0.405-0.219,0.864-0.326,1.377-0.326
	c0.615,0,1.183,0.158,1.699,0.479c0.517,0.318,0.926,0.781,1.227,1.396c0.301,0.605,0.45,1.332,0.45,2.168
	c0,0.615-0.087,1.182-0.26,1.691c-0.174,0.52-0.412,0.947-0.714,1.301c-0.302,0.35-0.661,0.613-1.073,0.805
	c-0.413,0.189-0.855,0.283-1.33,0.283c-0.571,0-1.051-0.115-1.438-0.35c-0.39-0.229-0.759-0.563-1.11-1.01v3.002
	c0,0.879-0.32,1.316-0.959,1.316c-0.376,0-0.625-0.111-0.747-0.342c-0.122-0.229-0.183-0.559-0.183-0.992v-8.627
	c0-0.381,0.083-0.666,0.249-0.855c0.166-0.188,0.393-0.279,0.681-0.279c0.283,0,0.514,0.098,0.692,0.287
	C38.173,39.42,38.263,39.697,38.263,40.059z M42.181,42.967c0-0.527-0.081-0.98-0.242-1.359c-0.161-0.377-0.384-0.668-0.67-0.871
	c-0.285-0.203-0.602-0.305-0.948-0.305c-0.552,0-1.017,0.219-1.396,0.652c-0.379,0.432-0.567,1.074-0.567,1.918
	c0,0.797,0.188,1.416,0.564,1.857c0.376,0.438,0.842,0.662,1.398,0.662c0.332,0,0.641-0.102,0.924-0.289
	c0.282-0.191,0.51-0.482,0.681-0.867C42.096,43.979,42.181,43.514,42.181,42.967z"/>
<path fill="#1EDCDC" d="M52.229,44.453c0,0.551-0.134,1.02-0.402,1.416c-0.27,0.395-0.666,0.688-1.19,0.895
	c-0.525,0.203-1.164,0.305-1.916,0.305c-0.718,0-1.333-0.105-1.846-0.33c-0.514-0.221-0.892-0.494-1.136-0.824
	c-0.243-0.324-0.365-0.656-0.365-0.988c0-0.223,0.078-0.408,0.233-0.563c0.156-0.156,0.354-0.232,0.594-0.232
	c0.21,0,0.37,0.051,0.482,0.152c0.112,0.104,0.22,0.246,0.322,0.434c0.205,0.355,0.451,0.623,0.735,0.799
	c0.286,0.178,0.676,0.266,1.169,0.266c0.399,0,0.729-0.09,0.984-0.27c0.257-0.18,0.385-0.383,0.385-0.609
	c0-0.354-0.133-0.607-0.398-0.771c-0.267-0.16-0.704-0.313-1.314-0.461c-0.688-0.174-1.249-0.352-1.681-0.539
	c-0.433-0.188-0.778-0.438-1.037-0.742c-0.259-0.311-0.388-0.688-0.388-1.137c0-0.4,0.12-0.777,0.358-1.137
	c0.239-0.354,0.593-0.645,1.059-0.854c0.466-0.213,1.028-0.314,1.688-0.314c0.519,0,0.982,0.055,1.396,0.158
	c0.412,0.105,0.756,0.252,1.032,0.436c0.275,0.18,0.485,0.381,0.63,0.6c0.144,0.221,0.216,0.436,0.216,0.646
	c0,0.229-0.077,0.416-0.231,0.563c-0.152,0.146-0.372,0.223-0.654,0.223c-0.205,0-0.381-0.061-0.523-0.178
	c-0.145-0.115-0.309-0.293-0.495-0.525c-0.15-0.191-0.33-0.354-0.535-0.469c-0.205-0.117-0.482-0.178-0.835-0.178
	c-0.36,0-0.662,0.076-0.9,0.23c-0.239,0.148-0.359,0.346-0.359,0.574c0,0.211,0.088,0.383,0.264,0.516
	c0.177,0.137,0.413,0.246,0.71,0.334c0.298,0.088,0.708,0.195,1.23,0.322c0.62,0.148,1.126,0.332,1.52,0.543
	c0.394,0.209,0.69,0.457,0.895,0.742C52.128,43.76,52.229,44.086,52.229,44.453z"/>
<path fill="#1EDCDC" d="M55.195,45.946v-8.672c0-0.4,0.089-0.703,0.267-0.908s0.419-0.307,0.723-0.307
	c0.303,0,0.547,0.102,0.731,0.303c0.186,0.203,0.278,0.508,0.278,0.912v8.672c0,0.406-0.094,0.709-0.282,0.912
	s-0.431,0.305-0.729,0.305c-0.294,0-0.531-0.104-0.715-0.313C55.286,46.638,55.195,46.337,55.195,45.946z"/>
<path fill="#1EDCDC" d="M66.745,43.097c0,0.596-0.093,1.146-0.277,1.648c-0.187,0.504-0.455,0.936-0.807,1.297
	c-0.352,0.355-0.771,0.639-1.26,0.83c-0.488,0.188-1.038,0.291-1.648,0.291c-0.604,0-1.149-0.104-1.633-0.293
	c-0.482-0.195-0.902-0.48-1.256-0.844c-0.354-0.359-0.622-0.795-0.806-1.285c-0.184-0.494-0.274-1.049-0.274-1.646
	c0-0.604,0.093-1.16,0.278-1.664c0.186-0.502,0.451-0.934,0.798-1.289c0.348-0.354,0.768-0.631,1.26-0.822
	c0.493-0.189,1.038-0.291,1.633-0.291c0.605,0,1.155,0.102,1.648,0.293c0.493,0.195,0.916,0.479,1.268,0.84
	c0.351,0.357,0.619,0.791,0.801,1.285C66.654,41.948,66.745,42.497,66.745,43.097z M64.738,43.097c0-0.814-0.179-1.449-0.539-1.904
	c-0.358-0.453-0.841-0.68-1.446-0.68c-0.391,0-0.734,0.102-1.033,0.303c-0.297,0.203-0.526,0.502-0.688,0.898
	c-0.16,0.395-0.242,0.854-0.242,1.383c0,0.523,0.08,0.98,0.238,1.371s0.385,0.688,0.682,0.895c0.295,0.209,0.644,0.313,1.043,0.313
	c0.605,0,1.088-0.229,1.446-0.686C64.56,44.534,64.738,43.903,64.738,43.097z"/>
<path fill="#1EDCDC" d="M75.491,44.687c0,0.25-0.076,0.516-0.225,0.799s-0.377,0.553-0.682,0.811
	c-0.305,0.26-0.689,0.461-1.154,0.617c-0.463,0.156-0.985,0.234-1.566,0.234c-1.234,0-2.199-0.359-2.893-1.08
	s-1.041-1.686-1.041-2.896c0-0.816,0.16-1.545,0.477-2.176c0.317-0.629,0.776-1.115,1.377-1.461
	c0.602-0.344,1.318-0.516,2.153-0.516c0.519,0,0.993,0.074,1.424,0.227c0.433,0.15,0.8,0.352,1.099,0.586
	c0.301,0.238,0.531,0.494,0.689,0.77c0.158,0.271,0.236,0.521,0.236,0.758c0,0.24-0.088,0.439-0.268,0.605
	c-0.178,0.166-0.393,0.25-0.648,0.25c-0.166,0-0.303-0.043-0.414-0.129c-0.109-0.084-0.232-0.225-0.369-0.414
	c-0.244-0.371-0.5-0.646-0.766-0.834c-0.267-0.188-0.604-0.275-1.015-0.275c-0.591,0-1.067,0.229-1.428,0.689
	c-0.361,0.461-0.542,1.092-0.542,1.895c0,0.377,0.046,0.727,0.139,1.037c0.094,0.313,0.227,0.584,0.403,0.805
	c0.176,0.229,0.388,0.396,0.637,0.51c0.249,0.111,0.522,0.174,0.82,0.174c0.399,0,0.743-0.098,1.028-0.279
	c0.287-0.186,0.539-0.469,0.758-0.85c0.123-0.229,0.256-0.4,0.396-0.527c0.143-0.127,0.316-0.189,0.52-0.189
	c0.244,0,0.447,0.094,0.609,0.277C75.407,44.28,75.491,44.478,75.491,44.687z"/>
<path fill="#1EDCDC" d="M81.644,46.247l-1.766-2.896l-1.084,1.021v1.59c0,0.389-0.102,0.686-0.303,0.895
	c-0.203,0.207-0.438,0.313-0.701,0.313c-0.307,0-0.549-0.104-0.725-0.313c-0.176-0.205-0.264-0.508-0.264-0.906v-8.523
	c0-0.441,0.084-0.779,0.256-1.014c0.172-0.232,0.414-0.352,0.732-0.352c0.307,0,0.551,0.105,0.732,0.314
	c0.18,0.211,0.27,0.52,0.27,0.932v4.852l2.25-2.355c0.277-0.295,0.49-0.492,0.637-0.604s0.324-0.162,0.535-0.162
	c0.248,0,0.457,0.08,0.623,0.236c0.166,0.16,0.248,0.355,0.248,0.602c0,0.293-0.27,0.686-0.813,1.172l-1.063,0.975l2.051,3.227
	c0.152,0.236,0.262,0.42,0.326,0.545c0.066,0.125,0.1,0.242,0.1,0.354c0,0.314-0.086,0.564-0.26,0.75s-0.402,0.273-0.686,0.273
	c-0.244,0-0.432-0.064-0.564-0.197C82.046,46.835,81.868,46.593,81.644,46.247z"/>
<g>
</g>
<g>
</g>
<g>
</g>
<g>
</g>
<g>
</g>
<g>
</g>
<g>
</g>
<g>
</g>
<g>
</g>
<g>
</g>
<g>
</g>
<g>
</g>
<g>
</g>
<g>
</g>
<g>
</g>
</svg>
