<?xml version="1.0" encoding="utf-8"?>
<!-- Generator: Adobe Illustrator 16.0.0, SVG Export Plug-In . SVG Version: 6.00 Build 0)  -->
<!DOCTYPE svg PUBLIC "-//W3C//DTD SVG 1.1//EN" "http://www.w3.org/Graphics/SVG/1.1/DTD/svg11.dtd">
<svg version="1.1" id="레이어_1" xmlns="http://www.w3.org/2000/svg" xmlns:xlink="http://www.w3.org/1999/xlink" x="0px"
	 y="0px" width="60px" height="52px" viewBox="0 0 60 52" enable-background="new 0 0 60 52" xml:space="preserve">
<path fill="#1EDCDC" d="M22.674,21.034c0-0.932,0.302-1.867,0.896-2.82c0.596-0.951,1.465-1.74,2.604-2.365
	c1.146-0.625,2.479-0.938,3.999-0.938c1.416,0,2.666,0.262,3.751,0.783c1.084,0.521,1.924,1.229,2.516,2.131
	c0.59,0.896,0.888,1.875,0.888,2.931c0,0.83-0.17,1.558-0.507,2.183c-0.338,0.625-0.737,1.164-1.2,1.619
	c-0.466,0.453-1.297,1.219-2.498,2.292c-0.332,0.305-0.599,0.569-0.799,0.799c-0.199,0.229-0.351,0.438-0.446,0.631
	c-0.098,0.188-0.173,0.381-0.229,0.57c-0.057,0.19-0.138,0.524-0.24,1.004c-0.188,1.016-0.77,1.522-1.743,1.522
	c-0.508,0-0.936-0.166-1.281-0.498c-0.348-0.332-0.521-0.825-0.521-1.479c0-0.819,0.127-1.53,0.381-2.135
	c0.254-0.602,0.591-1.128,1.011-1.583c0.42-0.45,0.986-0.989,1.699-1.614c0.625-0.551,1.075-0.961,1.354-1.238
	c0.275-0.278,0.515-0.588,0.702-0.93c0.189-0.346,0.285-0.717,0.285-1.113c0-0.781-0.291-1.44-0.872-1.979
	c-0.582-0.537-1.331-0.806-2.249-0.806c-1.071,0-1.862,0.271-2.373,0.813c-0.508,0.54-0.938,1.34-1.289,2.396
	c-0.332,1.104-0.962,1.652-1.89,1.652c-0.547,0-1.008-0.189-1.385-0.578C22.862,21.901,22.674,21.483,22.674,21.034z M29.822,37.089
	c-0.596,0-1.116-0.192-1.563-0.578c-0.441-0.387-0.667-0.926-0.667-1.618c0-0.615,0.219-1.134,0.646-1.554
	c0.427-0.42,0.957-0.631,1.582-0.631c0.615,0,1.133,0.211,1.553,0.631s0.63,0.938,0.63,1.554c0,0.684-0.22,1.221-0.659,1.61
	C30.907,36.893,30.398,37.089,29.822,37.089z"/>
</svg>
