<?xml version="1.0" encoding="utf-8"?>
<!-- Generator: Adobe Illustrator 16.0.0, SVG Export Plug-In . SVG Version: 6.00 Build 0)  -->
<!DOCTYPE svg PUBLIC "-//W3C//DTD SVG 1.1//EN" "http://www.w3.org/Graphics/SVG/1.1/DTD/svg11.dtd">
<svg version="1.1" id="레이어_1" xmlns="http://www.w3.org/2000/svg" xmlns:xlink="http://www.w3.org/1999/xlink" x="0px"
	 y="0px" width="60px" height="52px" viewBox="0 0 60 52" enable-background="new 0 0 60 52" xml:space="preserve">
<path fill="#1EDCDC" d="M33.146,20.178v13.563c0,0.968-0.032,1.756-0.096,2.366c-0.064,0.605-0.154,1.053-0.271,1.324
	c-0.663,1.696-2.074,2.549-4.232,2.549c-1.211,0-2.129-0.166-2.754-0.498s-0.938-0.813-0.938-1.448c0-0.47,0.142-0.853,0.425-1.15
	c0.283-0.297,0.654-0.444,1.113-0.444c0.059,0,0.15,0.006,0.285,0.021c0.133,0.015,0.324,0.031,0.586,0.051
	c0.26,0.021,0.438,0.029,0.531,0.029c0.537,0,0.896-0.21,1.076-0.63c0.186-0.422,0.271-1.174,0.271-2.258V20.174
	c0-0.791,0.186-1.387,0.557-1.787c0.371-0.397,0.859-0.601,1.465-0.601c0.586,0,1.063,0.193,1.432,0.594
	C32.963,18.778,33.146,19.377,33.146,20.178z M31.168,15.93c-0.557,0-1.029-0.171-1.428-0.513c-0.396-0.342-0.594-0.825-0.594-1.45
	c0-0.565,0.203-1.032,0.604-1.399c0.406-0.361,0.877-0.549,1.414-0.549c0.521,0,0.979,0.166,1.377,0.498
	c0.4,0.332,0.604,0.815,0.604,1.45c0,0.615-0.194,1.097-0.586,1.442C32.169,15.757,31.705,15.93,31.168,15.93z"/>
</svg>
