<?xml version="1.0" encoding="utf-8"?>
<!-- Generator: Adobe Illustrator 16.0.0, SVG Export Plug-In . SVG Version: 6.00 Build 0)  -->
<!DOCTYPE svg PUBLIC "-//W3C//DTD SVG 1.1//EN" "http://www.w3.org/Graphics/SVG/1.1/DTD/svg11.dtd">
<svg version="1.1" id="레이어_1" xmlns="http://www.w3.org/2000/svg" xmlns:xlink="http://www.w3.org/1999/xlink" x="0px"
	 y="0px" width="60px" height="52px" viewBox="0 0 60 52" enable-background="new 0 0 60 52" xml:space="preserve">
<path fill="#1EDCDC" d="M33.516,17.871L29.41,34.762c-0.137,0.561-0.256,0.996-0.355,1.317c-0.104,0.321-0.262,0.573-0.473,0.755
	c-0.209,0.184-0.514,0.271-0.914,0.271c-0.994,0-1.492-0.433-1.492-1.289c0-0.226,0.1-0.787,0.295-1.687l4.085-16.893
	c0.215-0.896,0.42-1.518,0.611-1.848c0.195-0.332,0.576-0.496,1.146-0.496c0.485,0,0.858,0.113,1.121,0.352
	c0.258,0.234,0.389,0.561,0.389,0.971C33.822,16.518,33.721,17.07,33.516,17.871z"/>
</svg>
