<?xml version="1.0" encoding="utf-8"?>
<!-- Generator: Adobe Illustrator 16.0.0, SVG Export Plug-In . SVG Version: 6.00 Build 0)  -->
<!DOCTYPE svg PUBLIC "-//W3C//DTD SVG 1.1//EN" "http://www.w3.org/Graphics/SVG/1.1/DTD/svg11.dtd">
<svg version="1.1" id="레이어_1" xmlns="http://www.w3.org/2000/svg" xmlns:xlink="http://www.w3.org/1999/xlink" x="0px"
	 y="0px" width="60px" height="52px" viewBox="0 0 60 52" enable-background="new 0 0 60 52" xml:space="preserve">
<path fill="#1EDCDC" d="M30.715,26.006c-0.523-0.332-0.957-0.679-1.289-1.04c-0.332-0.361-0.604-0.801-0.816-1.318
	c-0.215-0.517-0.367-1.13-0.455-1.838c-0.088-0.708-0.131-1.541-0.131-2.498c0-0.928-0.021-1.638-0.063-2.131
	c-0.042-0.493-0.117-0.852-0.23-1.077c-0.117-0.225-0.281-0.378-0.49-0.461c-0.211-0.083-0.531-0.148-0.961-0.197
	c-0.361-0.05-0.666-0.226-0.914-0.527c-0.25-0.303-0.375-0.718-0.375-1.245c0-1.162,0.709-1.743,2.125-1.743
	c0.908,0,1.707,0.184,2.395,0.549c0.689,0.366,1.23,0.89,1.63,1.567c0.396,0.679,0.6,1.453,0.604,2.322
	c0.062,3.242,0.127,5.023,0.205,5.347c0.155,0.646,0.385,1.135,0.688,1.472c0.305,0.338,0.67,0.636,1.102,0.895
	c0.43,0.259,0.75,0.515,0.959,0.769c0.211,0.254,0.313,0.641,0.313,1.157c0,0.732-0.275,1.271-0.836,1.611
	c-0.684,0.42-1.18,0.789-1.482,1.106c-0.313,0.315-0.522,0.713-0.646,1.187s-0.192,1.185-0.221,2.131
	c-0.022,0.947-0.052,2.134-0.08,3.56c-0.029,1.35-0.461,2.431-1.297,3.246c-0.834,0.814-1.945,1.224-3.332,1.224
	c-0.688,0-1.209-0.151-1.574-0.454c-0.367-0.305-0.549-0.742-0.549-1.317c0-0.321,0.059-0.618,0.176-0.887
	c0.117-0.269,0.271-0.478,0.461-0.623s0.408-0.233,0.652-0.265c0.438-0.059,0.766-0.133,0.979-0.221
	c0.213-0.088,0.381-0.254,0.49-0.498c0.113-0.244,0.188-0.603,0.221-1.076c0.033-0.475,0.055-1.164,0.055-2.072
	c0.02-1.35,0.098-2.401,0.23-3.164c0.139-0.762,0.396-1.416,0.775-1.963C29.412,26.982,29.973,26.475,30.715,26.006z"/>
</svg>
