<?xml version="1.0" encoding="utf-8"?>
<!-- Generator: Adobe Illustrator 16.0.0, SVG Export Plug-In . SVG Version: 6.00 Build 0)  -->
<!DOCTYPE svg PUBLIC "-//W3C//DTD SVG 1.1//EN" "http://www.w3.org/Graphics/SVG/1.1/DTD/svg11.dtd">
<svg version="1.1" id="레이어_1" xmlns="http://www.w3.org/2000/svg" xmlns:xlink="http://www.w3.org/1999/xlink" x="0px"
	 y="0px" width="60px" height="26px" viewBox="0 0 60 26" enable-background="new 0 0 60 26" xml:space="preserve">
<path fill="#1EDCDC" d="M31.45,24.5c-3.447,0-5.622-1.408-6.364-2.24c-0.932-1.041-1.374-1.782-2.018-2.906
	c-0.935-1.272-1.798-2.601-2.467-3.793c-0.204-0.36-0.486-0.898-0.575-1.396c-0.084-0.46,0.037-0.929,0.333-1.284
	c0.496-0.595,1.403-0.733,2.135-0.293c0.434,0.188,0.714,0.562,0.962,0.891l0.142,0.186c0.251,0.316,0.495,0.638,0.739,0.96
	c0.255,0.337,0.511,0.675,0.775,1.005c0.034,0.043,0.07,0.064,0.087,0.064c0.026-0.005,0.068-0.016,0.077-0.117V4.748
	c0.001-0.997,0.609-1.667,1.513-1.667c0.958,0,1.576,0.654,1.576,1.667V11.3c0,0.1,0.025,0.148,0.035,0.158
	c0.036-0.014,0.065-0.062,0.065-0.158V3.151c0-0.8,0.538-1.651,1.534-1.651c0.93,0,1.555,0.664,1.555,1.653l0.004,8.055
	c0,0.022,0.002,0.215,0.086,0.215c0.022-0.008,0.064-0.074,0.064-0.215l0.001-7.086c0-0.761,0.563-1.582,1.472-1.582
	c0.877,0,1.564,0.695,1.564,1.582v7.631c0,0.122,0.031,0.181,0.04,0.19c0.076-0.016,0.108-0.078,0.108-0.19V7.009
	c0-1.093,0.623-1.827,1.551-1.827c0.953,0,1.546,0.7,1.546,1.827l0.005,7.607c0.005,1.108,0.008,2.054-0.005,3.175
	c-0.017,1.664-0.469,3.117-1.344,4.317C35.479,23.718,33.779,24.5,31.45,24.5z M21.567,13.319c-0.173,0-0.333,0.074-0.44,0.202
	c-0.106,0.128-0.148,0.294-0.117,0.466c0.07,0.39,0.365,0.912,0.462,1.084c0.65,1.159,1.492,2.452,2.434,3.74
	c0.66,1.146,1.058,1.814,1.926,2.782c0.631,0.709,2.524,1.907,5.618,1.907c2.646,0,3.771-1.13,4.389-1.979
	c0.761-1.044,1.138-2.268,1.152-3.74c0.013-1.116,0.01-2.057,0.005-3.16l-0.005-7.611c0-0.827-0.396-0.827-0.546-0.827
	c-0.497,0-0.551,0.578-0.551,0.827v4.744c0,0.7-0.445,1.188-1.082,1.188c-0.638,0-1.066-0.478-1.066-1.188V4.122
	c0-0.28-0.177-0.582-0.564-0.582c-0.321,0-0.472,0.347-0.472,0.582l-0.001,7.086c0,0.715-0.438,1.215-1.064,1.215
	c-0.629,0-1.086-0.511-1.086-1.215l-0.004-8.055C30.555,2.5,30.137,2.5,30,2.5c-0.528,0-0.534,0.645-0.534,0.651V11.3
	c0,0.667-0.447,1.152-1.064,1.152c-0.6,0-1.036-0.485-1.036-1.152V4.748c0-0.588-0.291-0.667-0.576-0.667
	c-0.34,0-0.513,0.225-0.513,0.668l0,7.084l0,3.58c0.002,0.117,0.002,0.186-0.004,0.252c-0.043,0.496-0.355,0.879-0.814,0.996
	c-0.421,0.103-0.85-0.056-1.129-0.41c-0.268-0.335-0.529-0.679-0.79-1.023c-0.239-0.315-0.479-0.632-0.725-0.942l-0.158-0.206
	c-0.2-0.266-0.373-0.495-0.623-0.606C21.841,13.361,21.702,13.319,21.567,13.319z"/>
</svg>
