<?xml version="1.0" encoding="utf-8"?>
<!-- Generator: Adobe Illustrator 16.0.0, SVG Export Plug-In . SVG Version: 6.00 Build 0)  -->
<!DOCTYPE svg PUBLIC "-//W3C//DTD SVG 1.1//EN" "http://www.w3.org/Graphics/SVG/1.1/DTD/svg11.dtd">
<svg version="1.1" id="레이어_1" xmlns="http://www.w3.org/2000/svg" xmlns:xlink="http://www.w3.org/1999/xlink" x="0px"
	 y="0px" width="60px" height="52px" viewBox="0 0 60 52" enable-background="new 0 0 60 52" xml:space="preserve">
<path fill="#1EDCDC" d="M27.08,33.316l-3.438-13.684v14.823c0,0.819-0.188,1.437-0.552,1.846c-0.364,0.41-0.854,0.615-1.459,0.615
	c-0.586,0-1.063-0.201-1.436-0.606c-0.371-0.404-0.557-1.021-0.557-1.854v-16.99c0-0.938,0.244-1.569,0.729-1.897
	c0.488-0.326,1.147-0.49,1.979-0.49h1.348c0.813,0,1.398,0.074,1.768,0.224c0.363,0.146,0.639,0.41,0.813,0.791
	c0.174,0.381,0.376,1.001,0.601,1.856l3.12,11.766l3.121-11.766c0.229-0.855,0.424-1.479,0.604-1.856
	c0.176-0.384,0.443-0.646,0.813-0.791s0.955-0.224,1.768-0.224h1.351c0.83,0,1.49,0.164,1.979,0.49
	c0.488,0.328,0.732,0.961,0.732,1.897v16.991c0,0.82-0.184,1.436-0.551,1.846c-0.365,0.41-0.855,0.615-1.476,0.615
	c-0.571,0-1.051-0.205-1.422-0.615s-0.558-1.023-0.558-1.846V19.634l-3.44,13.683c-0.226,0.89-0.403,1.539-0.551,1.955
	c-0.142,0.414-0.4,0.793-0.783,1.136c-0.381,0.346-0.906,0.516-1.582,0.516c-0.508,0-0.938-0.108-1.289-0.327
	c-0.352-0.222-0.625-0.503-0.816-0.847c-0.195-0.342-0.354-0.722-0.461-1.138C27.312,34.197,27.197,33.764,27.08,33.316z"/>
</svg>
