<?xml version="1.0" encoding="utf-8"?>
<!-- Generator: Adobe Illustrator 16.0.0, SVG Export Plug-In . SVG Version: 6.00 Build 0)  -->
<!DOCTYPE svg PUBLIC "-//W3C//DTD SVG 1.1//EN" "http://www.w3.org/Graphics/SVG/1.1/DTD/svg11.dtd">
<svg version="1.1" id="레이어_1" xmlns="http://www.w3.org/2000/svg" xmlns:xlink="http://www.w3.org/1999/xlink" x="0px"
	 y="0px" width="60px" height="52px" viewBox="0 0 60 52" enable-background="new 0 0 60 52" xml:space="preserve">
<path fill="#1EDCDC" d="M25.011,15.182h9.757c0.938,0,1.615,0.146,2.035,0.439s0.631,0.775,0.631,1.45
	c0,0.409-0.248,0.951-0.735,1.626c-0.494,0.674-1.06,1.418-1.688,2.233s-1.279,1.829-1.947,3.04c-0.67,1.211-1.277,2.69-1.838,4.438
	c-0.23,0.771-0.396,1.41-0.498,1.919c-0.099,0.508-0.205,1.167-0.318,1.978c-0.117,0.813-0.224,1.432-0.312,1.86
	c-0.205,0.996-0.496,1.687-0.872,2.073c-0.376,0.386-0.876,0.578-1.501,0.578c-0.596,0-1.074-0.207-1.436-0.623
	c-0.362-0.414-0.542-1.027-0.542-1.838c0-0.625,0.132-1.476,0.396-2.549c0.268-1.074,0.693-2.361,1.289-3.859
	c0.598-1.499,1.34-3.037,2.234-4.614c0.895-1.577,1.956-3.147,3.186-4.709h-7.836c-0.819,0-1.433-0.149-1.838-0.447
	c-0.405-0.298-0.606-0.764-0.606-1.398c0-0.675,0.217-1.108,0.646-1.305C23.642,15.279,24.239,15.182,25.011,15.182z"/>
</svg>
