<?xml version="1.0" encoding="utf-8"?>
<!-- Generator: Adobe Illustrator 16.0.0, SVG Export Plug-In . SVG Version: 6.00 Build 0)  -->
<!DOCTYPE svg PUBLIC "-//W3C//DTD SVG 1.1//EN" "http://www.w3.org/Graphics/SVG/1.1/DTD/svg11.dtd">
<svg version="1.1" id="레이어_1" xmlns="http://www.w3.org/2000/svg" xmlns:xlink="http://www.w3.org/1999/xlink" x="0px"
	 y="0px" width="60px" height="52px" viewBox="0 0 60 52" enable-background="new 0 0 60 52" xml:space="preserve">
<path fill="#1EDCDC" d="M37.5,26.116c0,1.602-0.102,2.979-0.293,4.131c-0.195,1.151-0.561,2.196-1.084,3.135
	c-0.664,1.152-1.523,2.041-2.578,2.666c-1.059,0.625-2.229,0.938-3.52,0.938c-1.48,0-2.813-0.42-3.988-1.26
	c-1.18-0.841-2.063-2.002-2.658-3.486c-0.304-0.813-0.525-1.707-0.666-2.688c-0.146-0.981-0.213-2.043-0.213-3.186
	c0-1.476,0.077-2.804,0.23-3.984c0.156-1.181,0.4-2.197,0.732-3.047c0.576-1.406,1.414-2.479,2.512-3.215
	c1.103-0.737,2.41-1.106,3.937-1.106c1.007,0,1.92,0.164,2.735,0.491c0.82,0.327,1.541,0.806,2.162,1.436
	c0.618,0.63,1.146,1.409,1.573,2.336C37.129,20.886,37.5,23.167,37.5,26.116z M33.486,25.823c0-1.787-0.104-3.25-0.318-4.388
	c-0.215-1.137-0.576-1.997-1.084-2.578s-1.211-0.872-2.109-0.872c-1.289,0-2.186,0.649-2.688,1.948
	c-0.506,1.299-0.759,3.301-0.759,6.006c0,1.836,0.107,3.34,0.322,4.513c0.215,1.172,0.576,2.058,1.084,2.659
	c0.508,0.601,1.196,0.899,2.065,0.899c0.896,0,1.603-0.313,2.104-0.938c0.512-0.625,0.864-1.521,1.069-2.683
	S33.486,27.708,33.486,25.823z"/>
</svg>
