<?xml version="1.0" encoding="utf-8"?>
<!-- Generator: Adobe Illustrator 16.0.0, SVG Export Plug-In . SVG Version: 6.00 Build 0)  -->
<!DOCTYPE svg PUBLIC "-//W3C//DTD SVG 1.1//EN" "http://www.w3.org/Graphics/SVG/1.1/DTD/svg11.dtd">
<svg version="1.1" id="레이어_1" xmlns="http://www.w3.org/2000/svg" xmlns:xlink="http://www.w3.org/1999/xlink" x="0px"
	 y="0px" width="60px" height="52px" viewBox="0 0 60 52" enable-background="new 0 0 60 52" xml:space="preserve">
<path fill="#1EDCDC" d="M33.795,35.271l-3.53-5.801l-2.168,2.051v3.18c0,0.771-0.202,1.365-0.608,1.779
	c-0.4,0.416-0.867,0.623-1.396,0.623c-0.615,0-1.1-0.205-1.45-0.615s-0.526-1.016-0.526-1.816V17.621
	c0-0.889,0.174-1.564,0.516-2.029c0.342-0.463,0.83-0.695,1.465-0.695c0.615,0,1.104,0.211,1.465,0.631
	c0.361,0.423,0.542,1.039,0.542,1.859v9.697l4.497-4.717c0.561-0.586,0.981-0.986,1.274-1.201s0.646-0.322,1.065-0.322
	c0.498,0,0.912,0.158,1.244,0.479c0.332,0.313,0.498,0.715,0.498,1.19c0,0.586-0.541,1.366-1.625,2.344l-2.125,1.95l4.104,6.442
	c0.303,0.479,0.521,0.844,0.647,1.091c0.133,0.25,0.197,0.486,0.197,0.712c0,0.636-0.173,1.136-0.521,1.503
	c-0.346,0.363-0.803,0.549-1.365,0.549c-0.488,0-0.864-0.131-1.13-0.396C34.602,36.443,34.244,35.966,33.795,35.271z"/>
</svg>
