<?xml version="1.0" encoding="utf-8"?>
<!-- Generator: Adobe Illustrator 16.0.0, SVG Export Plug-In . SVG Version: 6.00 Build 0)  -->
<!DOCTYPE svg PUBLIC "-//W3C//DTD SVG 1.1//EN" "http://www.w3.org/Graphics/SVG/1.1/DTD/svg11.dtd">
<svg version="1.1" id="레이어_1" xmlns="http://www.w3.org/2000/svg" xmlns:xlink="http://www.w3.org/1999/xlink" x="0px"
	 y="0px" width="60px" height="52px" viewBox="0 0 60 52" enable-background="new 0 0 60 52" xml:space="preserve">
<path fill="#1EDCDC" d="M30.027,25.999h0.205c0.557,0,1.057,0.213,1.502,0.637c0.442,0.427,0.666,0.955,0.666,1.591
	c0,0.625-0.224,1.145-0.666,1.545c-0.445,0.405-0.994,0.607-1.648,0.607c-0.713,0-1.307-0.286-1.775-0.855
	c-0.479-0.568-0.711-1.385-0.711-2.438c0-0.967,0.207-1.873,0.623-2.717c0.414-0.848,0.922-1.516,1.521-2.01
	c0.604-0.49,1.135-0.737,1.604-0.737c0.293,0,0.525,0.095,0.711,0.284c0.181,0.188,0.271,0.429,0.271,0.712
	c0,0.438-0.186,0.757-0.557,0.95c-0.521,0.283-0.928,0.615-1.23,0.996C30.241,24.944,30.066,25.423,30.027,25.999z"/>
</svg>
