<?xml version="1.0" encoding="utf-8"?>
<!-- Generator: Adobe Illustrator 16.0.0, SVG Export Plug-In . SVG Version: 6.00 Build 0)  -->
<!DOCTYPE svg PUBLIC "-//W3C//DTD SVG 1.1//EN" "http://www.w3.org/Graphics/SVG/1.1/DTD/svg11.dtd">
<svg version="1.1" xmlns="http://www.w3.org/2000/svg" xmlns:xlink="http://www.w3.org/1999/xlink" x="0px" y="0px" width="60px"
	 height="52px" viewBox="0 0 60 52" enable-background="new 0 0 60 52" xml:space="preserve">
<g id="레이어_2">
	<polygon fill="#1EDCDC" fill-opacity="0.3" stroke="#1EDCDC" stroke-miterlimit="10" points="15.35,51.5 0.7,26 15.35,0.5 
		44.65,0.5 59.3,26 44.649,51.5 	"/>
</g>
<g id="레이어_1">
	<path display="none" fill="#1EDCDC" d="M31.977,25.598l0.659,1.23c0.264,0.42,0.396,0.708,0.396,0.863
		c0,0.244-0.209,0.367-0.63,0.367c-0.645,0-1.245-0.143-1.802-0.426c-0.272-0.137-0.946-0.718-2.021-1.742
		c-1.074-1.025-1.611-1.603-1.611-1.729c0-0.146,0.249-0.22,0.747-0.22h1.978c0.576,0,1.012,0.103,1.304,0.308
		C31.289,24.454,31.615,24.904,31.977,25.598z"/>
	<path display="none" fill="#1EDCDC" d="M29.296,34.614v-13.33c-2.479,1.903-4.149,2.855-5.01,2.855
		c-0.41,0-0.773-0.164-1.091-0.491c-0.317-0.326-0.476-0.706-0.476-1.135c0-0.498,0.155-0.864,0.469-1.099
		c0.313-0.235,0.864-0.537,1.655-0.908c1.182-0.557,2.126-1.143,2.834-1.758s1.335-1.304,1.882-2.065
		c0.547-0.761,0.902-1.229,1.068-1.405c0.166-0.177,0.479-0.265,0.938-0.265c0.519,0,0.934,0.2,1.246,0.602
		c0.312,0.4,0.469,0.951,0.469,1.654v16.772c0,1.963-0.669,2.944-2.008,2.944c-0.596,0-1.073-0.2-1.436-0.602
		C29.476,35.984,29.296,35.395,29.296,34.614z"/>
	<path display="none" fill="#1EDCDC" d="M27.523,33.346h7.646c0.762,0,1.344,0.156,1.743,0.469c0.399,0.313,0.601,0.737,0.601,1.274
		c0,0.479-0.158,0.884-0.476,1.216s-0.798,0.498-1.442,0.498H24.814c-0.731,0-1.303-0.203-1.713-0.607
		c-0.41-0.406-0.615-0.881-0.615-1.429c0-0.353,0.132-0.817,0.396-1.399c0.265-0.58,0.552-1.037,0.864-1.369
		c1.299-1.348,2.471-2.503,3.516-3.465s1.793-1.594,2.241-1.896c0.802-0.566,1.468-1.135,2-1.707
		c0.533-0.572,0.938-1.157,1.216-1.758c0.278-0.602,0.418-1.189,0.418-1.766c0-0.625-0.149-1.184-0.447-1.677
		c-0.299-0.493-0.703-0.876-1.217-1.15c-0.513-0.273-1.072-0.409-1.677-0.409c-1.278,0-2.284,0.562-3.019,1.685
		c-0.098,0.146-0.26,0.547-0.49,1.201s-0.488,1.157-0.775,1.509c-0.289,0.352-0.711,0.527-1.268,0.527
		c-0.488,0-0.895-0.161-1.217-0.483c-0.321-0.322-0.482-0.762-0.482-1.318c0-0.674,0.151-1.377,0.454-2.108
		c0.304-0.732,0.754-1.396,1.354-1.992c0.602-0.596,1.362-1.077,2.285-1.443c0.924-0.365,2.004-0.549,3.246-0.549
		c1.493,0,2.768,0.234,3.822,0.703c0.684,0.313,1.284,0.742,1.803,1.289c0.518,0.547,0.92,1.179,1.207,1.897
		c0.288,0.718,0.432,1.462,0.432,2.233c0,1.211-0.299,2.313-0.9,3.303c-0.602,0.991-1.213,1.769-1.838,2.329
		c-0.625,0.562-1.672,1.443-3.143,2.645c-1.47,1.201-2.478,2.134-3.024,2.798C28.008,32.656,27.768,32.975,27.523,33.346z"/>
	<path display="none" fill="#1EDCDC" d="M29.252,23.643c0.898,0,1.672-0.264,2.322-0.791c0.65-0.527,0.975-1.284,0.975-2.271
		c0-0.752-0.26-1.399-0.775-1.941c-0.518-0.542-1.217-0.813-2.096-0.813c-0.596,0-1.086,0.083-1.472,0.249
		c-0.386,0.166-0.691,0.386-0.916,0.659s-0.437,0.625-0.637,1.055c-0.2,0.43-0.383,0.835-0.549,1.216
		c-0.098,0.205-0.273,0.366-0.527,0.483c-0.254,0.117-0.547,0.176-0.879,0.176c-0.391,0-0.75-0.159-1.077-0.476
		s-0.491-0.74-0.491-1.267c0-0.508,0.154-1.042,0.461-1.604c0.307-0.562,0.757-1.096,1.348-1.604
		c0.591-0.508,1.326-0.916,2.205-1.223c0.879-0.307,1.86-0.461,2.944-0.461c0.948,0,1.813,0.129,2.594,0.388
		c0.779,0.259,1.459,0.632,2.035,1.121c0.576,0.489,1.012,1.055,1.305,1.699s0.438,1.338,0.438,2.08
		c0,0.977-0.211,1.814-0.637,2.512c-0.424,0.698-1.033,1.379-1.824,2.043c0.764,0.41,1.404,0.879,1.928,1.406
		c0.521,0.527,0.916,1.111,1.178,1.75c0.264,0.639,0.396,1.331,0.396,2.073c0,0.889-0.178,1.748-0.535,2.578
		c-0.357,0.829-0.881,1.569-1.574,2.219c-0.695,0.649-1.518,1.157-2.469,1.522c-0.951,0.367-2.004,0.55-3.157,0.55
		c-1.172,0-2.222-0.21-3.149-0.63c-0.927-0.42-1.692-0.945-2.292-1.575s-1.055-1.282-1.362-1.956
		c-0.307-0.674-0.461-1.23-0.461-1.67c0-0.566,0.183-1.023,0.549-1.37c0.366-0.347,0.823-0.521,1.37-0.521
		c0.273,0,0.537,0.082,0.791,0.242c0.254,0.161,0.42,0.354,0.498,0.579c0.508,1.356,1.052,2.366,1.633,3.025
		c0.581,0.659,1.399,0.989,2.454,0.989c0.605,0,1.189-0.149,1.75-0.447c0.564-0.299,1.025-0.74,1.393-1.326s0.549-1.266,0.549-2.036
		c0-1.144-0.313-2.039-0.938-2.688c-0.625-0.648-1.494-0.974-2.607-0.974c-0.195,0-0.498,0.021-0.908,0.06s-0.674,0.059-0.791,0.059
		c-0.537,0-0.952-0.134-1.245-0.403s-0.439-0.642-0.439-1.121c0-0.469,0.176-0.847,0.527-1.135c0.351-0.288,0.874-0.432,1.567-0.432
		h0.6V23.643z"/>
	<path display="none" fill="#1EDCDC" d="M31.677,34.834v-2.725h-7.354c-0.928,0-1.624-0.211-2.087-0.631s-0.696-0.99-0.696-1.715
		c0-0.186,0.034-0.373,0.103-0.563c0.069-0.191,0.171-0.391,0.308-0.602c0.137-0.211,0.278-0.412,0.425-0.608
		c0.147-0.194,0.327-0.435,0.542-0.718l7.764-10.386c0.508-0.685,0.926-1.179,1.252-1.487c0.327-0.308,0.721-0.461,1.18-0.461
		c1.483,0,2.227,0.851,2.227,2.549v11.338h0.63c0.752,0,1.354,0.104,1.81,0.309c0.453,0.205,0.681,0.654,0.681,1.348
		c0,0.566-0.187,0.979-0.558,1.238s-0.928,0.389-1.67,0.389h-0.894v2.725c0,0.752-0.166,1.311-0.498,1.676
		c-0.332,0.367-0.776,0.551-1.333,0.551c-0.547,0-0.989-0.189-1.326-0.564C31.845,36.119,31.677,35.566,31.677,34.834z
		 M25.378,28.828h6.299v-8.512L25.378,28.828z"/>
	<path display="none" fill="#1EDCDC" d="M34.747,18.609h-6.958l-0.835,4.746c1.387-0.742,2.666-1.113,3.838-1.113
		c0.938,0,1.814,0.176,2.629,0.527c0.815,0.351,1.531,0.837,2.146,1.458c0.615,0.621,1.099,1.355,1.45,2.205
		c0.351,0.85,0.525,1.764,0.525,2.739c0,1.416-0.315,2.705-0.95,3.867c-0.637,1.161-1.552,2.085-2.748,2.769
		s-2.575,1.025-4.138,1.025c-1.748,0-3.167-0.322-4.255-0.967c-1.088-0.646-1.86-1.385-2.314-2.219
		c-0.453-0.836-0.681-1.565-0.681-2.19c0-0.382,0.159-0.742,0.477-1.084c0.316-0.343,0.715-0.513,1.193-0.513
		c0.82,0,1.432,0.474,1.831,1.42c0.392,0.869,0.918,1.545,1.582,2.029s1.406,0.725,2.228,0.725c0.752,0,1.411-0.194,1.978-0.586
		c0.567-0.391,1.004-0.928,1.313-1.61c0.308-0.683,0.461-1.46,0.461-2.329c0-0.938-0.166-1.738-0.498-2.402
		c-0.332-0.664-0.776-1.16-1.333-1.487c-0.558-0.327-1.177-0.491-1.86-0.491c-0.84,0-1.44,0.103-1.802,0.308
		c-0.362,0.205-0.881,0.564-1.561,1.077c-0.679,0.513-1.237,0.769-1.677,0.769c-0.479,0-0.903-0.172-1.272-0.52
		c-0.371-0.347-0.558-0.74-0.558-1.179c0-0.049,0.054-0.381,0.161-0.996l1.23-7.017c0.137-0.84,0.391-1.45,0.762-1.831
		s0.977-0.571,1.815-0.571h7.734c1.523,0,2.285,0.581,2.285,1.743c0,0.508-0.186,0.918-0.557,1.23S35.47,18.609,34.747,18.609z"/>
	<path display="none" fill="#1EDCDC" d="M26.391,25.004c0.664-0.791,1.391-1.377,2.168-1.758c0.781-0.381,1.655-0.571,2.623-0.571
		c0.932,0,1.785,0.173,2.57,0.521c0.787,0.347,1.477,0.84,2.066,1.479s1.047,1.395,1.369,2.263c0.32,0.869,0.48,1.777,0.48,2.726
		c0,1.377-0.313,2.627-0.945,3.75c-0.631,1.123-1.51,2-2.637,2.629c-1.129,0.629-2.404,0.945-3.832,0.945
		c-1.641,0-3.057-0.4-4.248-1.201c-1.188-0.802-2.102-1.985-2.729-3.553c-0.63-1.566-0.945-3.483-0.945-5.75
		c0-1.846,0.19-3.495,0.571-4.95s0.928-2.661,1.641-3.618s1.577-1.681,2.593-2.168c1.02-0.488,2.177-0.732,3.476-0.732
		c1.25,0,2.35,0.244,3.303,0.732c0.951,0.487,1.67,1.094,2.152,1.815c0.48,0.723,0.725,1.416,0.725,2.08
		c0,0.4-0.148,0.765-0.453,1.091c-0.303,0.327-0.688,0.491-1.158,0.491c-0.406,0-0.791-0.129-1.143-0.388
		c-0.354-0.259-0.609-0.618-0.775-1.077c-0.225-0.586-0.582-1.057-1.066-1.414c-0.488-0.356-1.059-0.535-1.699-0.535
		c-0.52,0-1.033,0.149-1.545,0.447s-0.945,0.701-1.296,1.208C26.938,20.502,26.518,22.348,26.391,25.004z M30.346,34.101
		c0.986,0,1.806-0.403,2.447-1.209c0.646-0.805,0.967-1.862,0.967-3.171c0-0.889-0.148-1.652-0.455-2.292
		c-0.303-0.639-0.717-1.128-1.24-1.465c-0.527-0.337-1.109-0.505-1.744-0.505c-0.605,0-1.188,0.161-1.736,0.483
		c-0.552,0.321-0.996,0.788-1.333,1.398s-0.505,1.326-0.505,2.146c0,1.317,0.342,2.417,1.021,3.296
		C28.452,33.662,29.311,34.101,30.346,34.101z"/>
	<path display="none" fill="#1EDCDC" d="M25.011,15.182h9.756c0.938,0,1.616,0.146,2.036,0.439s0.63,0.775,0.63,1.45
		c0,0.409-0.247,0.951-0.735,1.626c-0.494,0.674-1.059,1.418-1.688,2.233c-0.629,0.815-1.279,1.829-1.947,3.04
		c-0.67,1.211-1.278,2.69-1.839,4.438c-0.23,0.771-0.396,1.411-0.498,1.919c-0.098,0.508-0.205,1.167-0.318,1.978
		c-0.117,0.812-0.224,1.432-0.312,1.86c-0.205,0.996-0.496,1.687-0.872,2.073c-0.376,0.386-0.876,0.579-1.501,0.579
		c-0.596,0-1.074-0.208-1.436-0.623c-0.362-0.415-0.542-1.028-0.542-1.839c0-0.625,0.132-1.475,0.396-2.549
		c0.268-1.073,0.693-2.36,1.289-3.859c0.598-1.499,1.34-3.037,2.234-4.614c0.894-1.577,1.956-3.147,3.186-4.709h-7.837
		c-0.819,0-1.433-0.149-1.838-0.447s-0.606-0.764-0.606-1.398c0-0.675,0.217-1.108,0.646-1.305
		C23.642,15.279,24.239,15.182,25.011,15.182z"/>
	<path display="none" fill="#1EDCDC" d="M23.099,20.625c0-0.977,0.271-1.897,0.798-2.761c0.533-0.864,1.314-1.555,2.348-2.073
		c1.028-0.518,2.23-0.776,3.607-0.776c1.162,0,2.188,0.151,3.064,0.454c0.879,0.303,1.607,0.72,2.193,1.252
		c0.586,0.532,1.021,1.133,1.307,1.802c0.287,0.669,0.426,1.379,0.426,2.131c0,0.957-0.248,1.812-0.74,2.563
		c-0.494,0.752-1.229,1.367-2.205,1.846c0.83,0.321,1.521,0.745,2.066,1.267c0.543,0.522,0.959,1.129,1.234,1.816
		c0.277,0.688,0.42,1.453,0.42,2.292c0,1.229-0.301,2.346-0.896,3.347c-0.596,1.002-1.471,1.785-2.623,2.352
		c-1.15,0.565-2.51,0.85-4.07,0.85c-1.62,0-3.01-0.283-4.158-0.85c-1.152-0.567-2.021-1.346-2.607-2.336
		c-0.586-0.991-0.879-2.103-0.879-3.334c0-2.627,1.24-4.428,3.721-5.404C24.1,24.125,23.099,22.646,23.099,20.625z M33.602,30.321
		c0-0.762-0.154-1.426-0.469-1.992c-0.313-0.565-0.752-1-1.318-1.304c-0.563-0.303-1.197-0.454-1.9-0.454
		c-0.996,0-1.831,0.332-2.505,0.996c-0.678,0.664-1.015,1.592-1.015,2.783c0,0.762,0.158,1.433,0.479,2.014
		c0.313,0.581,0.749,1.03,1.296,1.348c0.547,0.318,1.158,0.477,1.832,0.477c0.684,0,1.299-0.161,1.846-0.482
		c0.547-0.322,0.979-0.777,1.289-1.363S33.602,31.083,33.602,30.321z M29.939,17.812c-0.918,0-1.654,0.286-2.219,0.857
		c-0.563,0.571-0.843,1.306-0.843,2.205c0,0.83,0.288,1.521,0.864,2.073c0.572,0.552,1.314,0.828,2.227,0.828
		c0.459,0,0.877-0.073,1.252-0.22c0.377-0.146,0.699-0.349,0.967-0.608c0.271-0.259,0.48-0.566,0.623-0.923
		c0.146-0.357,0.221-0.75,0.221-1.179c0-0.576-0.131-1.094-0.389-1.553c-0.26-0.459-0.623-0.82-1.092-1.084
		C31.082,17.943,30.545,17.812,29.939,17.812z"/>
	<path display="none" fill="#1EDCDC" d="M33.589,27.012c-0.645,0.763-1.365,1.335-2.16,1.722c-0.797,0.385-1.678,0.578-2.645,0.578
		c-0.918,0-1.775-0.178-2.57-0.535c-0.797-0.355-1.48-0.854-2.063-1.494c-0.58-0.64-1.027-1.387-1.344-2.24
		c-0.313-0.854-0.469-1.75-0.469-2.688c0-1.006,0.176-1.96,0.527-2.864c0.351-0.903,0.854-1.687,1.509-2.351
		s1.433-1.183,2.337-1.553c0.902-0.371,1.901-0.558,2.995-0.558c1.26,0,2.383,0.229,3.369,0.688s1.813,1.125,2.49,2
		c0.674,0.875,1.188,1.975,1.553,3.303c0.361,1.328,0.542,2.832,0.542,4.512c0,1.876-0.19,3.528-0.571,4.958
		c-0.381,1.431-0.935,2.633-1.663,3.604c-0.727,0.972-1.599,1.694-2.614,2.168c-1.015,0.474-2.168,0.71-3.457,0.71
		c-1.27,0-2.369-0.242-3.311-0.725c-0.938-0.483-1.65-1.084-2.139-1.803c-0.489-0.718-0.732-1.408-0.732-2.072
		c0-0.41,0.151-0.776,0.454-1.1c0.303-0.322,0.688-0.482,1.157-0.482c0.43,0,0.813,0.119,1.157,0.359
		c0.342,0.238,0.601,0.598,0.772,1.076c0.215,0.586,0.571,1.057,1.069,1.414s1.06,0.535,1.685,0.535
		c0.561,0,1.084-0.143,1.582-0.425c0.498-0.283,0.923-0.685,1.274-1.201C33.032,31.504,33.452,29.657,33.589,27.012z M33.252,22.529
		c0-0.664-0.091-1.276-0.271-1.838c-0.186-0.562-0.438-1.047-0.766-1.458c-0.328-0.41-0.719-0.731-1.172-0.967
		c-0.455-0.234-0.95-0.353-1.483-0.353c-0.932,0-1.718,0.398-2.358,1.194c-0.644,0.796-0.967,1.848-0.967,3.157
		c0,1.299,0.318,2.334,0.967,3.104c0.646,0.771,1.46,1.158,2.446,1.158c0.604,0,1.185-0.16,1.731-0.477
		c0.556-0.316,1.002-0.779,1.352-1.384C33.079,24.063,33.252,23.35,33.252,22.529z"/>
	<path display="none" fill="#1EDCDC" d="M37.5,26.116c0,1.602-0.102,2.979-0.293,4.131c-0.195,1.151-0.561,2.196-1.084,3.135
		c-0.664,1.152-1.523,2.041-2.578,2.666c-1.059,0.625-2.229,0.938-3.52,0.938c-1.48,0-2.813-0.42-3.988-1.26
		c-1.18-0.84-2.063-2.002-2.658-3.486c-0.304-0.812-0.525-1.707-0.666-2.688c-0.146-0.981-0.213-2.043-0.213-3.186
		c0-1.476,0.077-2.804,0.23-3.984c0.156-1.181,0.4-2.197,0.732-3.047c0.576-1.406,1.414-2.479,2.512-3.215
		c1.103-0.737,2.41-1.106,3.937-1.106c1.007,0,1.92,0.164,2.736,0.491c0.82,0.327,1.54,0.806,2.161,1.436
		c0.619,0.63,1.146,1.409,1.574,2.336C37.129,20.886,37.5,23.167,37.5,26.116z M33.486,25.823c0-1.787-0.104-3.25-0.318-4.388
		c-0.215-1.137-0.576-1.997-1.084-2.578s-1.211-0.872-2.109-0.872c-1.289,0-2.186,0.649-2.688,1.948
		c-0.506,1.299-0.759,3.301-0.759,6.006c0,1.836,0.107,3.34,0.322,4.513c0.215,1.172,0.576,2.058,1.084,2.659
		c0.508,0.601,1.196,0.9,2.065,0.9c0.896,0,1.602-0.313,2.105-0.938c0.511-0.625,0.864-1.52,1.069-2.682
		S33.486,27.708,33.486,25.823z"/>
	<path display="none" fill="#1EDCDC" d="M32.317,27.766h-4.629c-0.703,0-1.238-0.164-1.604-0.49c-0.367-0.328-0.55-0.75-0.55-1.268
		c0-0.527,0.179-0.955,0.534-1.282c0.354-0.327,0.896-0.491,1.619-0.491h4.629c0.723,0,1.262,0.164,1.619,0.491
		c0.354,0.327,0.53,0.755,0.53,1.282c0,0.518-0.176,0.939-0.523,1.268C33.591,27.602,33.05,27.766,32.317,27.766z"/>
	<path display="none" fill="#1EDCDC" d="M37.516,24.668H22.484V20.83h15.029L37.516,24.668L37.516,24.668z M37.516,31.17H22.484
		v-3.837h15.029L37.516,31.17L37.516,31.17z"/>
	<path display="none" fill="#1EDCDC" d="M34.037,34.43v-5.64c-0.771,0.771-1.576,1.359-2.41,1.765
		c-0.835,0.405-1.761,0.608-2.776,0.608c-1.24,0-2.371-0.327-3.391-0.981c-1.02-0.653-1.821-1.594-2.402-2.819
		c-0.581-1.227-0.872-2.668-0.872-4.329c0-1.699,0.293-3.157,0.879-4.373s1.399-2.142,2.439-2.776s2.195-0.952,3.464-0.952
		c1.074,0,2.037,0.223,2.886,0.667c0.85,0.445,1.576,1.121,2.184,2.029v-0.483c0-0.731,0.176-1.288,0.526-1.67
		c0.351-0.381,0.806-0.57,1.362-0.57c0.556,0,1.011,0.188,1.361,0.563c0.352,0.376,0.527,0.936,0.527,1.677V34.43
		c0,1.776-0.63,2.666-1.891,2.666c-0.78,0-1.291-0.239-1.53-0.718S34.037,35.251,34.037,34.43z M26.199,23.005
		c0,1.074,0.173,2,0.52,2.776c0.347,0.775,0.803,1.353,1.37,1.729s1.177,0.564,1.831,0.564c0.713,0,1.367-0.188,1.962-0.564
		c0.597-0.376,1.074-0.95,1.437-1.721c0.362-0.771,0.542-1.724,0.542-2.856c0-0.801-0.105-1.522-0.314-2.168
		c-0.211-0.645-0.496-1.179-0.857-1.604s-0.775-0.742-1.245-0.952c-0.469-0.21-0.967-0.315-1.494-0.315
		c-1.074,0-1.968,0.444-2.681,1.333C26.556,20.116,26.199,21.374,26.199,23.005z"/>
	<path display="none" fill="#1EDCDC" d="M22.362,20.36l2.606,8.937l2.373-8.307c0.254-0.869,0.442-1.462,0.564-1.779
		c0.122-0.318,0.352-0.62,0.688-0.908s0.798-0.433,1.384-0.433c0.597,0,1.063,0.145,1.399,0.433s0.573,0.601,0.71,0.938
		c0.136,0.337,0.326,0.92,0.57,1.75l2.373,8.307l2.638-8.937c0.176-0.645,0.317-1.11,0.425-1.398s0.288-0.542,0.542-0.763
		c0.254-0.22,0.62-0.33,1.099-0.33c0.479,0,0.895,0.166,1.245,0.498s0.527,0.724,0.527,1.173c0,0.409-0.151,1.029-0.454,1.859
		l-3.268,9.581c-0.282,0.811-0.502,1.396-0.658,1.758s-0.403,0.684-0.74,0.967s-0.798,0.426-1.384,0.426
		c-0.605,0-1.082-0.152-1.429-0.455c-0.346-0.303-0.603-0.674-0.769-1.113c-0.166-0.438-0.347-1.01-0.542-1.713l-2.285-7.794
		l-2.212,7.794c-0.293,1.084-0.609,1.902-0.952,2.453c-0.342,0.553-0.941,0.828-1.802,0.828c-0.438,0-0.813-0.084-1.121-0.256
		c-0.308-0.172-0.563-0.414-0.769-0.732c-0.205-0.316-0.386-0.693-0.542-1.127c-0.156-0.436-0.278-0.779-0.366-1.033l-3.237-9.581
		c-0.321-0.897-0.482-1.519-0.482-1.859c0-0.431,0.171-0.815,0.513-1.157s0.762-0.514,1.26-0.514c0.664,0,1.113,0.188,1.349,0.564
		C21.85,18.812,22.098,19.451,22.362,20.36z"/>
	<path display="none" fill="#1EDCDC" d="M34.307,26.998h-7.821c0.01,0.906,0.192,1.709,0.549,2.4c0.355,0.693,0.83,1.217,1.42,1.568
		c0.592,0.35,1.244,0.525,1.957,0.525c0.479,0,0.916-0.055,1.311-0.168c0.395-0.111,0.779-0.287,1.15-0.525
		c0.371-0.24,0.713-0.496,1.024-0.77c0.313-0.273,0.718-0.645,1.216-1.113c0.205-0.176,0.498-0.264,0.879-0.264
		c0.41,0,0.742,0.111,0.996,0.336c0.254,0.227,0.381,0.543,0.381,0.953c0,0.361-0.142,0.783-0.424,1.268
		c-0.283,0.482-0.711,0.945-1.283,1.391c-0.571,0.445-1.289,0.814-2.152,1.107c-0.864,0.293-1.857,0.438-2.98,0.438
		c-2.568,0-4.565-0.73-5.991-2.197c-1.426-1.465-2.139-3.451-2.139-5.961c0-1.182,0.176-2.277,0.526-3.289
		c0.352-1.012,0.864-1.877,1.538-2.6c0.674-0.724,1.504-1.277,2.489-1.663c0.986-0.387,2.08-0.579,3.281-0.579
		c1.563,0,2.903,0.33,4.021,0.988c1.117,0.66,1.956,1.512,2.512,2.557c0.557,1.045,0.835,2.109,0.835,3.193
		c0,1.006-0.288,1.658-0.864,1.955C36.161,26.848,35.352,26.998,34.307,26.998z M26.485,24.727h7.25
		c-0.098-1.367-0.466-2.391-1.105-3.07c-0.641-0.678-1.482-1.018-2.527-1.018c-0.996,0-1.814,0.344-2.453,1.033
		C27.009,22.361,26.622,23.379,26.485,24.727z"/>
	<path display="none" fill="#1EDCDC" d="M30.505,28.357v3.341c0,0.811-0.19,1.418-0.571,1.823c-0.381,0.406-0.864,0.608-1.45,0.608
		c-0.576,0-1.05-0.205-1.421-0.614c-0.371-0.41-0.557-1.017-0.557-1.816V20.565c0-1.797,0.649-2.695,1.948-2.695
		c0.664,0,1.143,0.21,1.436,0.63s0.454,1.04,0.483,1.86c0.479-0.82,0.969-1.44,1.472-1.86c0.504-0.42,1.174-0.63,2.014-0.63
		c0.842,0,1.656,0.21,2.447,0.63s1.188,0.977,1.188,1.67c0,0.488-0.168,0.891-0.506,1.208s-0.701,0.476-1.092,0.476
		c-0.145,0-0.5-0.09-1.061-0.271c-0.563-0.181-1.059-0.271-1.488-0.271c-0.586,0-1.063,0.154-1.437,0.461
		c-0.372,0.307-0.659,0.764-0.864,1.37c-0.204,0.606-0.346,1.326-0.424,2.161C30.544,26.139,30.505,27.157,30.505,28.357z"/>
	<path display="none" fill="#1EDCDC" d="M26.461,20.939H26.9v-2.402c0-0.645,0.017-1.15,0.051-1.516
		c0.034-0.366,0.129-0.681,0.286-0.945c0.155-0.273,0.381-0.496,0.674-0.667s0.62-0.256,0.981-0.256c0.508,0,0.967,0.19,1.377,0.571
		c0.271,0.254,0.445,0.564,0.52,0.93s0.11,0.886,0.11,1.56v2.725h1.465c0.564,0,0.999,0.134,1.296,0.403s0.447,0.613,0.447,1.033
		c0,0.537-0.213,0.913-0.639,1.128c-0.425,0.215-1.031,0.322-1.822,0.322h-0.747v7.354c0,0.625,0.021,1.105,0.064,1.442
		c0.044,0.338,0.161,0.61,0.354,0.82c0.189,0.21,0.5,0.314,0.93,0.314c0.234,0,0.552-0.041,0.952-0.125
		c0.398-0.082,0.713-0.125,0.938-0.125c0.322,0,0.613,0.129,0.872,0.389c0.259,0.259,0.39,0.578,0.39,0.959
		c0,0.645-0.354,1.138-1.057,1.479c-0.703,0.342-1.714,0.514-3.031,0.514c-1.25,0-2.196-0.211-2.843-0.631
		c-0.645-0.42-1.065-1-1.267-1.742c-0.2-0.742-0.3-1.733-0.3-2.974v-7.677h-0.527c-0.576,0-1.016-0.137-1.318-0.41
		c-0.302-0.273-0.454-0.62-0.454-1.04c0-0.42,0.159-0.764,0.478-1.033S25.856,20.939,26.461,20.939z"/>
	<path display="none" fill="#1EDCDC" d="M27.894,31.662l0.366-0.895l-4.922-12.392c-0.307-0.713-0.454-1.229-0.454-1.553
		c0-0.342,0.088-0.659,0.264-0.952s0.417-0.527,0.725-0.703c0.312-0.176,0.627-0.264,0.959-0.264c0.576,0,1.015,0.183,1.308,0.549
		s0.552,0.891,0.772,1.575l3.384,9.843l3.209-9.154c0.257-0.742,0.482-1.323,0.688-1.743s0.422-0.702,0.652-0.85
		c0.229-0.147,0.554-0.22,0.974-0.22c0.303,0,0.593,0.081,0.872,0.242c0.279,0.16,0.493,0.378,0.645,0.651
		c0.152,0.274,0.229,0.563,0.229,0.864c-0.039,0.186-0.104,0.449-0.19,0.791c-0.087,0.342-0.191,0.688-0.318,1.04l-5.217,13.651
		c-0.447,1.201-0.891,2.145-1.316,2.826c-0.426,0.684-0.999,1.209-1.707,1.576s-1.663,0.549-2.864,0.549
		c-1.172,0-2.051-0.127-2.637-0.381s-0.879-0.719-0.879-1.393c0-0.459,0.139-0.813,0.417-1.063c0.275-0.248,0.688-0.373,1.236-0.373
		c0.217,0,0.427,0.029,0.632,0.088c0.254,0.059,0.474,0.088,0.657,0.088c0.459,0,0.818-0.068,1.084-0.205s0.5-0.373,0.71-0.709
		C27.377,32.813,27.619,32.318,27.894,31.662z"/>
	<path display="none" fill="#1EDCDC" d="M33.375,31.875v-0.513c-0.479,0.605-0.979,1.113-1.509,1.523
		c-0.528,0.41-1.104,0.715-1.729,0.916c-0.625,0.2-1.338,0.299-2.139,0.299c-0.967,0-1.834-0.199-2.6-0.601
		c-0.771-0.399-1.36-0.952-1.78-1.655c-0.498-0.85-0.747-2.069-0.747-3.661v-7.925c0-0.801,0.181-1.399,0.542-1.794
		s0.84-0.593,1.436-0.593c0.605,0,1.098,0.2,1.469,0.601s0.557,0.996,0.557,1.787v6.401c0,0.928,0.078,1.707,0.234,2.336
		c0.152,0.629,0.437,1.123,0.843,1.479c0.404,0.355,0.954,0.535,1.646,0.535c0.678,0,1.313-0.201,1.904-0.602
		c0.591-0.4,1.03-0.923,1.304-1.567c0.229-0.565,0.338-1.807,0.338-3.721v-4.863c0-0.791,0.188-1.387,0.559-1.787
		c0.373-0.4,0.854-0.601,1.451-0.601c0.596,0,1.07,0.198,1.436,0.593s0.541,0.994,0.541,1.794v11.587
		c0,0.762-0.172,1.332-0.52,1.713c-0.35,0.382-0.795,0.572-1.344,0.572c-0.547,0-0.996-0.199-1.354-0.594
		C33.553,33.142,33.375,32.589,33.375,31.875z"/>
	<path display="none" fill="#1EDCDC" d="M30.023,18.896c-0.561,0-1.032-0.171-1.433-0.513c-0.395-0.342-0.593-0.825-0.593-1.45
		c0-0.566,0.202-1.033,0.608-1.399c0.4-0.365,0.876-0.549,1.411-0.549c0.52,0,0.979,0.166,1.379,0.498
		c0.396,0.332,0.601,0.815,0.601,1.45c0,0.615-0.195,1.096-0.586,1.443C31.023,18.723,30.561,18.896,30.023,18.896z M32.002,23.026
		v11.56c0,0.801-0.188,1.404-0.572,1.814c-0.381,0.41-0.86,0.615-1.446,0.615s-1.063-0.209-1.432-0.629
		c-0.363-0.42-0.55-1.021-0.55-1.803v-11.44c0-0.791,0.187-1.387,0.55-1.787c0.365-0.4,0.846-0.601,1.432-0.601
		s1.065,0.199,1.446,0.601C31.812,21.758,32.002,22.313,32.002,23.026z"/>
	<path display="none" fill="#1EDCDC" d="M37.963,25.999c0,1.191-0.186,2.29-0.557,3.296s-0.908,1.87-1.611,2.594
		c-0.703,0.723-1.543,1.276-2.52,1.663c-0.979,0.385-2.074,0.578-3.299,0.578c-1.211,0-2.3-0.195-3.267-0.586
		s-1.804-0.949-2.513-1.677c-0.707-0.729-1.244-1.587-1.611-2.578c-0.365-0.99-0.549-2.087-0.549-3.289
		c0-1.211,0.186-2.319,0.557-3.325s0.903-1.865,1.597-2.578c0.694-0.713,1.533-1.262,2.521-1.648
		c0.987-0.386,2.075-0.579,3.267-0.579c1.211,0,2.313,0.195,3.297,0.586c0.984,0.391,1.83,0.947,2.533,1.67
		c0.703,0.723,1.238,1.582,1.604,2.578C37.781,23.699,37.963,24.798,37.963,25.999z M33.949,25.999c0-1.631-0.357-2.9-1.076-3.809
		c-0.717-0.908-1.684-1.362-2.897-1.362c-0.777,0-1.47,0.203-2.063,0.608c-0.595,0.405-1.055,1.003-1.377,1.794
		s-0.483,1.714-0.483,2.769c0,1.046,0.158,1.958,0.479,2.739c0.313,0.781,0.771,1.379,1.357,1.794
		c0.596,0.415,1.287,0.623,2.089,0.623c1.214,0,2.179-0.457,2.896-1.37S33.949,27.61,33.949,25.999z"/>
	<path display="none" fill="#1EDCDC" d="M26.971,17.145v0.483c0.752-0.928,1.533-1.609,2.344-2.043s1.729-0.652,2.754-0.652
		c1.23,0,2.363,0.317,3.398,0.952c1.031,0.635,1.852,1.563,2.453,2.783c0.6,1.221,0.896,2.666,0.896,4.336
		c0,1.23-0.174,2.361-0.52,3.391c-0.352,1.03-0.822,1.896-1.432,2.594c-0.604,0.697-1.318,1.234-2.146,1.609
		c-0.827,0.377-1.711,0.564-2.658,0.564c-1.145,0-2.104-0.229-2.878-0.688c-0.777-0.459-1.519-1.133-2.22-2.021v6.005
		c0,1.758-0.644,2.637-1.92,2.637c-0.753,0-1.25-0.227-1.493-0.68c-0.244-0.455-0.366-1.117-0.366-1.986V17.175
		c0-0.762,0.166-1.331,0.498-1.707s0.786-0.563,1.361-0.563c0.563,0,1.024,0.192,1.386,0.579
		C26.792,15.868,26.971,16.422,26.971,17.145z M34.807,22.96c0-1.055-0.16-1.96-0.482-2.717c-0.318-0.757-0.769-1.338-1.341-1.743
		c-0.57-0.405-1.203-0.608-1.896-0.608c-1.104,0-2.033,0.436-2.791,1.305c-0.76,0.869-1.139,2.147-1.139,3.838
		c0,1.592,0.376,2.83,1.128,3.713s1.688,1.326,2.802,1.326c0.66,0,1.275-0.193,1.846-0.579c0.563-0.386,1.021-0.964,1.361-1.736
		C34.637,24.986,34.807,24.054,34.807,22.96z"/>
	<path display="none" fill="#1EDCDC" d="M32.174,15.38h-2.441v21.241h2.441c1.264,0,1.895,0.521,1.895,1.566
		c0,1.035-0.631,1.553-1.895,1.553h-3.645c-0.596,0-1.086-0.098-1.473-0.293c-0.389-0.195-0.67-0.49-0.854-0.887
		c-0.18-0.395-0.271-0.891-0.271-1.486V14.926c0-0.918,0.205-1.592,0.611-2.021c0.41-0.43,1.07-0.646,1.98-0.646h3.645
		c0.639,0,1.109,0.142,1.422,0.425c0.314,0.283,0.473,0.664,0.473,1.144C34.064,14.863,33.434,15.38,32.174,15.38z"/>
	<path display="none" fill="#1EDCDC" d="M30.271,36.619v-21.24h-2.417c-0.625,0-1.102-0.144-1.428-0.432
		c-0.328-0.288-0.491-0.662-0.491-1.121c0-0.469,0.163-0.847,0.491-1.135c0.326-0.288,0.803-0.432,1.428-0.432h3.618
		c0.898,0,1.555,0.215,1.969,0.645c0.416,0.43,0.623,1.104,0.623,2.021v22.148c0,0.907-0.205,1.58-0.615,2.014
		c-0.406,0.434-1.064,0.652-1.977,0.652h-3.618c-0.625,0-1.102-0.145-1.428-0.433c-0.328-0.288-0.491-0.662-0.491-1.121
		c0-0.469,0.163-0.847,0.491-1.135c0.326-0.288,0.803-0.433,1.428-0.433H30.271L30.271,36.619z"/>
	<path display="none" fill="#1EDCDC" d="M29.413,17.24l4.104,16.889c0.205,0.801,0.308,1.363,0.308,1.686
		c0,0.859-0.503,1.289-1.509,1.289c-0.41,0-0.723-0.09-0.932-0.271c-0.212-0.18-0.357-0.4-0.445-0.658
		c-0.088-0.26-0.215-0.73-0.381-1.414l-4.09-16.89c-0.192-0.84-0.294-1.392-0.294-1.655c0-0.41,0.134-0.731,0.392-0.967
		c0.26-0.234,0.628-0.352,1.104-0.352c0.576,0,0.957,0.166,1.146,0.498C28.999,15.726,29.198,16.341,29.413,17.24z"/>
	<path display="none" fill="#1EDCDC" d="M33.296,31.889c-0.967,0.752-1.902,1.316-2.805,1.691c-0.903,0.377-1.918,0.563-3.041,0.563
		c-1.024,0-1.926-0.203-2.703-0.605c-0.775-0.406-1.375-0.955-1.793-1.646c-0.42-0.693-0.631-1.445-0.631-2.258
		c0-1.094,0.348-2.024,1.041-2.799c0.692-0.771,1.646-1.289,2.855-1.554c0.254-0.059,0.884-0.188,1.891-0.396
		c1.006-0.205,1.867-0.396,2.584-0.563c0.719-0.17,1.498-0.378,2.336-0.622c-0.049-1.055-0.261-1.828-0.637-2.32
		c-0.376-0.494-1.154-0.737-2.336-0.737c-1.016,0-1.779,0.142-2.292,0.425c-0.512,0.283-0.952,0.708-1.317,1.271
		c-0.367,0.565-0.625,0.938-0.776,1.121s-0.476,0.271-0.974,0.271c-0.449,0-0.838-0.145-1.166-0.434
		c-0.326-0.287-0.49-0.655-0.49-1.104c0-0.703,0.248-1.387,0.746-2.051s1.274-1.211,2.33-1.642c1.055-0.433,2.367-0.646,3.939-0.646
		c1.758,0,3.141,0.207,4.146,0.623c1.006,0.414,1.716,1.07,2.131,1.97c0.414,0.899,0.623,2.091,0.623,3.574
		c0,0.938-0.002,1.731-0.008,2.39c-0.004,0.653-0.012,1.381-0.021,2.182c0,0.755,0.125,1.537,0.374,2.354s0.374,1.344,0.374,1.575
		c0,0.41-0.193,0.784-0.579,1.12c-0.386,0.338-0.823,0.506-1.312,0.506c-0.41,0-0.814-0.191-1.215-0.578
		C34.17,33.18,33.745,32.621,33.296,31.889z M33.032,26.103c-0.586,0.215-1.438,0.442-2.556,0.681
		c-1.118,0.24-1.892,0.416-2.321,0.527c-0.431,0.113-0.84,0.332-1.23,0.66c-0.391,0.326-0.586,0.783-0.586,1.369
		c0,0.604,0.229,1.121,0.688,1.545c0.459,0.426,1.061,0.638,1.803,0.638c0.791,0,1.521-0.173,2.189-0.521
		c0.669-0.35,1.16-0.793,1.473-1.34c0.36-0.605,0.541-1.604,0.541-2.988V26.103L33.032,26.103z"/>
	<path display="none" fill="#1EDCDC" d="M36.855,28.902c0,1.104-0.269,2.048-0.807,2.835c-0.537,0.785-1.33,1.381-2.379,1.787
		c-1.051,0.404-2.328,0.607-3.832,0.607c-1.436,0-2.666-0.224-3.691-0.66c-1.025-0.438-1.782-0.988-2.271-1.646
		c-0.488-0.66-0.732-1.32-0.732-1.984c0-0.438,0.156-0.813,0.469-1.129c0.313-0.313,0.708-0.469,1.187-0.469
		c0.42,0,0.742,0.104,0.967,0.309c0.225,0.205,0.439,0.492,0.645,0.863c0.41,0.713,0.901,1.245,1.472,1.598
		c0.571,0.354,1.35,0.527,2.336,0.527c0.801,0,1.458-0.18,1.97-0.535c0.513-0.354,0.769-0.765,0.769-1.224
		c0-0.703-0.266-1.216-0.798-1.538s-1.409-0.63-2.629-0.923c-1.377-0.342-2.498-0.7-3.362-1.077
		c-0.864-0.375-1.555-0.871-2.073-1.486c-0.518-0.612-0.776-1.371-0.776-2.271c0-0.801,0.239-1.558,0.718-2.271
		c0.479-0.713,1.184-1.281,2.117-1.707c0.933-0.424,2.058-0.641,3.376-0.641c1.035,0,1.965,0.107,2.791,0.322
		s1.515,0.503,2.065,0.861c0.551,0.361,0.972,0.765,1.26,1.201c0.288,0.438,0.432,0.869,0.432,1.289
		c0,0.459-0.154,0.834-0.461,1.127s-0.744,0.439-1.311,0.439c-0.41,0-0.76-0.117-1.047-0.352c-0.289-0.235-0.619-0.586-0.989-1.057
		c-0.304-0.393-0.659-0.701-1.069-0.938c-0.41-0.234-0.967-0.354-1.67-0.354c-0.723,0-1.323,0.153-1.802,0.463
		c-0.479,0.309-0.718,0.688-0.718,1.147c0,0.42,0.176,0.765,0.527,1.032c0.352,0.269,0.825,0.488,1.421,0.666
		c0.596,0.177,1.416,0.392,2.46,0.646c1.24,0.306,2.254,0.664,3.041,1.084c0.786,0.422,1.381,0.916,1.786,1.486
		C36.652,27.519,36.855,28.171,36.855,28.902z"/>
	<path display="none" fill="#1EDCDC" d="M34.051,34.814v-0.396c-0.537,0.614-1.067,1.116-1.59,1.501
		c-0.521,0.387-1.088,0.68-1.698,0.879c-0.61,0.201-1.277,0.301-2,0.301c-0.957,0-1.843-0.203-2.659-0.607
		c-0.815-0.402-1.521-0.98-2.117-1.732c-0.596-0.752-1.047-1.639-1.355-2.65c-0.308-1.014-0.461-2.111-0.461-3.297
		c0-2.5,0.61-4.445,1.831-5.845s2.827-2.099,4.819-2.099c1.152,0,2.124,0.197,2.915,0.598c0.791,0.396,1.563,1.003,2.313,1.82v-5.9
		c0-0.818,0.164-1.438,0.492-1.857c0.326-0.423,0.793-0.633,1.398-0.633s1.072,0.193,1.398,0.578
		c0.328,0.391,0.492,0.955,0.492,1.707V34.82c0,0.764-0.177,1.334-0.527,1.715c-0.352,0.381-0.807,0.568-1.362,0.568
		c-0.547,0-0.999-0.193-1.354-0.594C34.229,36.111,34.051,35.547,34.051,34.814z M26.185,28.941c0,1.084,0.168,2.006,0.505,2.771
		c0.337,0.762,0.798,1.336,1.384,1.721c0.586,0.391,1.226,0.579,1.919,0.579c0.703,0,1.345-0.187,1.925-0.554
		c0.582-0.361,1.045-0.928,1.393-1.684c0.347-0.758,0.52-1.701,0.52-2.835c0-1.063-0.173-1.979-0.52-2.747
		c-0.348-0.766-0.814-1.352-1.406-1.758c-0.591-0.404-1.238-0.607-1.941-0.607c-0.732,0-1.387,0.207-1.963,0.623
		c-0.576,0.414-1.023,1.014-1.34,1.787C26.342,27.014,26.185,27.914,26.185,28.941z"/>
	<path display="none" fill="#1EDCDC" d="M27.177,21.192h0.952v-1.201c0-1.25,0.159-2.244,0.477-2.979
		c0.316-0.738,0.854-1.273,1.61-1.609c0.758-0.34,1.796-0.508,3.114-0.508c2.334,0,3.502,0.571,3.502,1.715
		c0,0.37-0.123,0.688-0.367,0.951c-0.244,0.266-0.531,0.396-0.863,0.396c-0.156,0-0.426-0.028-0.807-0.088
		c-0.381-0.062-0.703-0.088-0.967-0.088c-0.723,0-1.188,0.213-1.393,0.639c-0.205,0.424-0.307,1.031-0.307,1.822v0.953h0.98
		c1.523,0,2.285,0.459,2.285,1.377c0,0.65-0.203,1.065-0.609,1.244c-0.404,0.176-0.963,0.264-1.676,0.264h-0.98v10.592
		c0,0.791-0.189,1.395-0.564,1.809c-0.377,0.416-0.864,0.623-1.46,0.623c-0.565,0-1.037-0.207-1.413-0.623
		c-0.376-0.414-0.564-1.018-0.564-1.809V24.081h-1.099c-0.597,0-1.056-0.133-1.377-0.402c-0.322-0.268-0.483-0.617-0.483-1.047
		C25.17,21.671,25.839,21.192,27.177,21.192z"/>
	<path display="none" fill="#1EDCDC" d="M37.801,17.831v11.616c0,1.328-0.143,2.472-0.426,3.429s-0.736,1.748-1.361,2.373
		c-0.626,0.625-1.44,1.088-2.454,1.391c-1.012,0.307-2.269,0.455-3.771,0.455c-1.377,0-2.606-0.189-3.691-0.58
		c-1.084-0.385-1.919-0.883-2.505-1.49s-0.879-1.237-0.879-1.885c0-0.485,0.166-0.887,0.498-1.191s0.732-0.461,1.201-0.461
		c0.586,0,1.099,0.26,1.538,0.773c0.215,0.267,0.437,0.529,0.667,0.801c0.229,0.271,0.479,0.494,0.762,0.688
		c0.278,0.188,0.613,0.332,1.003,0.424c0.395,0.095,0.84,0.143,1.351,0.143c1.032,0,1.839-0.146,2.407-0.436
		c0.571-0.287,0.976-0.688,1.201-1.207c0.229-0.52,0.364-1.07,0.403-1.664c0.039-0.59,0.066-1.539,0.088-2.85
		c-0.615,0.859-1.326,1.516-2.131,1.963c-0.807,0.449-1.766,0.676-2.878,0.676c-1.338,0-2.507-0.344-3.508-1.023
		c-1.001-0.686-1.771-1.643-2.311-2.871s-0.806-2.648-0.806-4.266c0-1.198,0.164-2.282,0.491-3.252
		c0.325-0.967,0.793-1.779,1.396-2.443c0.606-0.664,1.305-1.165,2.096-1.501c0.791-0.34,1.659-0.509,2.606-0.509
		c1.133,0,2.114,0.22,2.944,0.652c0.83,0.436,1.602,1.114,2.313,2.043v-0.543c0-0.69,0.171-1.229,0.516-1.608
		c0.343-0.384,0.778-0.571,1.315-0.571c0.772,0,1.284,0.252,1.538,0.754C37.674,16.159,37.801,16.884,37.801,17.831z M26.213,22.899
		c0,1.621,0.354,2.848,1.063,3.677c0.709,0.83,1.624,1.245,2.747,1.245c0.664,0,1.292-0.178,1.882-0.535
		c0.591-0.355,1.071-0.893,1.439-1.611c0.371-0.717,0.561-1.588,0.561-2.61c0-1.634-0.359-2.899-1.077-3.812
		c-0.718-0.91-1.663-1.363-2.834-1.363c-1.146,0-2.059,0.438-2.747,1.308S26.213,21.298,26.213,22.899z"/>
	<path display="none" fill="#1EDCDC" d="M26.876,17.331v5.937c0.508-0.586,1.003-1.054,1.483-1.396
		c0.484-0.342,1.021-0.598,1.604-0.77c0.586-0.17,1.216-0.256,1.89-0.256c1.02,0,1.917,0.215,2.703,0.645s1.404,1.055,1.854,1.875
		c0.28,0.479,0.475,1.014,0.568,1.604c0.102,0.592,0.146,1.272,0.146,2.044v7.661c0,0.801-0.187,1.405-0.552,1.815
		c-0.363,0.407-0.853,0.612-1.456,0.612c-1.317,0-1.979-0.813-1.979-2.435v-6.754c0-1.275-0.19-2.262-0.571-2.948
		c-0.381-0.688-1.104-1.032-2.168-1.032c-0.713,0-1.354,0.202-1.926,0.605c-0.571,0.404-0.999,0.959-1.282,1.662
		c-0.215,0.599-0.318,1.654-0.318,3.182v5.285c0,0.791-0.182,1.396-0.535,1.812c-0.356,0.416-0.854,0.623-1.487,0.623
		c-1.317,0-1.978-0.813-1.978-2.435V17.325c0-0.812,0.173-1.418,0.52-1.824c0.347-0.401,0.833-0.604,1.458-0.604
		c0.635,0,1.13,0.205,1.487,0.615C26.697,15.925,26.876,16.53,26.876,17.331z"/>
	<path display="none" fill="#1EDCDC" d="M33.146,20.178v13.563c0,0.968-0.032,1.756-0.095,2.367
		c-0.064,0.605-0.154,1.052-0.271,1.324c-0.664,1.696-2.075,2.549-4.233,2.549c-1.211,0-2.129-0.166-2.754-0.498
		s-0.938-0.814-0.938-1.449c0-0.469,0.142-0.852,0.425-1.15c0.283-0.297,0.654-0.445,1.113-0.445c0.059,0,0.15,0.006,0.285,0.021
		c0.133,0.014,0.324,0.031,0.586,0.051c0.26,0.02,0.438,0.029,0.531,0.029c0.537,0,0.896-0.21,1.076-0.63
		c0.186-0.421,0.271-1.173,0.271-2.257V20.174c0-0.791,0.186-1.387,0.557-1.787c0.371-0.397,0.859-0.601,1.465-0.601
		c0.586,0,1.063,0.193,1.432,0.594C32.963,18.778,33.146,19.377,33.146,20.178z M31.168,15.93c-0.557,0-1.029-0.171-1.428-0.513
		c-0.396-0.342-0.594-0.825-0.594-1.45c0-0.565,0.203-1.032,0.604-1.399c0.406-0.361,0.877-0.549,1.414-0.549
		c0.521,0,0.979,0.166,1.377,0.498c0.4,0.332,0.604,0.815,0.604,1.45c0,0.615-0.195,1.097-0.586,1.442
		C32.169,15.757,31.705,15.93,31.168,15.93z"/>
	<path display="none" fill="#1EDCDC" d="M33.795,35.271l-3.53-5.801l-2.168,2.051v3.18c0,0.771-0.202,1.365-0.608,1.779
		c-0.4,0.416-0.867,0.623-1.396,0.623c-0.615,0-1.1-0.205-1.45-0.615c-0.35-0.41-0.526-1.016-0.526-1.816V17.621
		c0-0.889,0.174-1.564,0.516-2.029c0.342-0.463,0.83-0.695,1.465-0.695c0.615,0,1.104,0.211,1.465,0.631
		c0.361,0.423,0.542,1.039,0.542,1.859v9.697l4.497-4.717c0.56-0.586,0.981-0.986,1.274-1.201s0.646-0.322,1.065-0.322
		c0.498,0,0.913,0.158,1.245,0.479c0.332,0.313,0.498,0.715,0.498,1.19c0,0.586-0.542,1.366-1.626,2.344l-2.124,1.949l4.104,6.443
		c0.303,0.479,0.521,0.844,0.647,1.091c0.133,0.25,0.198,0.486,0.198,0.712c0,0.635-0.173,1.135-0.521,1.502
		c-0.347,0.364-0.804,0.549-1.366,0.549c-0.488,0-0.864-0.131-1.13-0.396C34.601,36.443,34.244,35.966,33.795,35.271z"/>
	<path display="none" fill="#1EDCDC" d="M28,34.672V17.328c0-0.801,0.179-1.406,0.53-1.816c0.357-0.41,0.839-0.615,1.443-0.615
		s1.095,0.203,1.466,0.607C31.811,15.909,32,16.518,32,17.328v17.344c0,0.811-0.189,1.418-0.564,1.823s-0.861,0.608-1.458,0.608
		c-0.586,0-1.063-0.211-1.428-0.631C28.183,36.053,28,35.453,28,34.672z"/>
	<path display="none" fill="#1EDCDC" d="M29.972,31.971c-0.646,0-1.201-0.198-1.67-0.597c-0.469-0.396-0.703-0.946-0.703-1.659
		c0-0.615,0.229-1.137,0.688-1.557s1.005-0.63,1.63-0.63c0.469,0,0.894,0.127,1.271,0.381s0.679,0.627,0.896,1.121
		c0.215,0.492,0.318,1.104,0.318,1.821c0,0.969-0.205,1.871-0.611,2.721c-0.41,0.844-0.911,1.516-1.505,2.006
		c-0.592,0.494-1.125,0.74-1.604,0.74c-0.303,0-0.547-0.104-0.732-0.305c-0.186-0.195-0.274-0.432-0.274-0.691
		c0-0.398,0.191-0.727,0.586-0.969C29.4,33.732,29.972,32.936,29.972,31.971z M27.965,17.863c0-0.693,0.217-1.23,0.648-1.611
		c0.437-0.381,0.959-0.57,1.574-0.57c0.596,0,1.108,0.191,1.538,0.578c0.43,0.385,0.646,0.92,0.646,1.604
		c0,0.558-0.229,1.063-0.685,1.517c-0.455,0.455-0.955,0.685-1.502,0.685c-0.41,0-0.783-0.101-1.121-0.296
		c-0.336-0.192-0.604-0.454-0.805-0.78C28.064,18.656,27.965,18.283,27.965,17.863z"/>
	<path display="none" fill="#1EDCDC" d="M30.027,25.999h0.205c0.557,0,1.057,0.213,1.502,0.637c0.443,0.426,0.666,0.955,0.666,1.59
		c0,0.625-0.223,1.145-0.666,1.545c-0.445,0.406-0.994,0.608-1.648,0.608c-0.713,0-1.307-0.286-1.775-0.856
		c-0.479-0.568-0.711-1.385-0.711-2.438c0-0.967,0.207-1.873,0.623-2.717c0.414-0.848,0.922-1.516,1.521-2.01
		c0.604-0.49,1.135-0.737,1.604-0.737c0.293,0,0.525,0.095,0.711,0.284c0.18,0.188,0.271,0.429,0.271,0.712
		c0,0.438-0.186,0.757-0.557,0.95c-0.521,0.283-0.928,0.615-1.23,0.996S30.066,25.423,30.027,25.999z"/>
	<path display="none" fill="#1EDCDC" d="M35.083,22.459l-7.324,8.188h7.837c0.635,0,1.112,0.149,1.437,0.447
		c0.321,0.299,0.482,0.685,0.482,1.149c0,0.448-0.159,0.815-0.477,1.099c-0.316,0.284-0.797,0.426-1.442,0.426h-10.84
		c-0.762,0-1.331-0.166-1.707-0.498s-0.563-0.787-0.563-1.359c0-0.346,0.132-0.688,0.396-1.032c0.264-0.348,0.812-0.981,1.641-1.911
		c0.88-0.978,1.678-1.857,2.396-2.648s1.384-1.53,2-2.221c0.615-0.688,1.125-1.271,1.531-1.75c0.405-0.479,0.729-0.892,0.974-1.229
		h-5.947c-0.819,0-1.439-0.073-1.859-0.22c-0.42-0.147-0.63-0.532-0.63-1.157c0-0.46,0.158-0.825,0.476-1.099
		c0.317-0.274,0.769-0.41,1.354-0.41h9.186c0.85,0,1.5,0.123,1.955,0.373c0.455,0.248,0.682,0.692,0.682,1.34
		c0,0.216-0.044,0.438-0.132,0.666c-0.089,0.229-0.187,0.418-0.293,0.563c-0.107,0.146-0.255,0.324-0.439,0.535
		C35.585,21.914,35.356,22.166,35.083,22.459z"/>
	<path display="none" fill="#1EDCDC" d="M32.921,32.477l-2.9-4.263l-2.974,4.263c-0.43,0.596-0.793,1.021-1.091,1.273
		c-0.298,0.254-0.676,0.381-1.135,0.381c-0.509,0-0.94-0.158-1.296-0.475c-0.356-0.318-0.535-0.686-0.535-1.096
		c0-0.42,0.272-1.021,0.819-1.803l3.618-5.188l-3.208-4.322c-0.557-0.713-0.835-1.332-0.835-1.856c0-0.41,0.166-0.771,0.498-1.065
		c0.332-0.306,0.768-0.455,1.304-0.455c0.47,0,0.857,0.133,1.165,0.396c0.309,0.265,0.667,0.681,1.077,1.245l2.593,3.545
		l2.521-3.545c0.42-0.586,0.784-1.007,1.091-1.262c0.307-0.254,0.691-0.381,1.15-0.381c0.526,0,0.964,0.147,1.311,0.444
		c0.347,0.302,0.521,0.657,0.521,1.077c0,0.305-0.072,0.596-0.213,0.872c-0.142,0.274-0.359,0.604-0.651,0.985l-3.208,4.322
		l3.617,5.188c0.566,0.813,0.851,1.42,0.851,1.83c0,0.42-0.177,0.779-0.527,1.084c-0.351,0.303-0.785,0.453-1.304,0.453
		c-0.459,0-0.847-0.133-1.165-0.396C33.696,33.469,33.331,33.053,32.921,32.477z"/>
	<path display="none" fill="#1EDCDC" d="M37.559,29.208c0,0.498-0.148,1.026-0.447,1.597c-0.297,0.567-0.752,1.106-1.361,1.618
		c-0.609,0.514-1.379,0.926-2.308,1.238c-0.928,0.312-1.973,0.469-3.135,0.469c-2.471,0-4.399-0.721-5.786-2.16
		c-1.387-1.441-2.08-3.372-2.08-5.794c0-1.642,0.317-3.091,0.952-4.351c0.635-1.264,1.553-2.234,2.754-2.926
		s2.637-1.029,4.307-1.029c1.036,0,1.985,0.147,2.849,0.45c0.864,0.306,1.597,0.693,2.196,1.175
		c0.602,0.479,1.061,0.986,1.377,1.527c0.318,0.543,0.477,1.048,0.477,1.52c0,0.479-0.178,0.885-0.535,1.217
		s-0.789,0.498-1.295,0.498c-0.332,0-0.609-0.086-0.829-0.256c-0.22-0.172-0.466-0.447-0.739-0.828c-0.488-0.742-1-1.299-1.531-1.67
		c-0.532-0.371-1.209-0.561-2.029-0.561c-1.182,0-2.134,0.461-2.856,1.389c-0.723,0.922-1.084,2.185-1.084,3.782
		c0,0.755,0.093,1.442,0.278,2.073c0.186,0.629,0.454,1.166,0.806,1.607c0.352,0.443,0.776,0.781,1.274,1.014
		s1.045,0.345,1.641,0.345c0.8,0,1.487-0.188,2.058-0.557c0.57-0.371,1.076-0.938,1.516-1.699c0.244-0.449,0.508-0.801,0.791-1.058
		c0.283-0.254,0.631-0.381,1.041-0.381c0.488,0,0.893,0.188,1.215,0.56C37.396,28.392,37.559,28.788,37.559,29.208z"/>
	<path display="none" fill="#1EDCDC" d="M26.764,20.365l3.237,9.082l3.483-9.478c0.273-0.766,0.543-1.305,0.809-1.619
		c0.264-0.316,0.664-0.479,1.201-0.479c0.508,0,0.938,0.171,1.295,0.517c0.355,0.342,0.535,0.733,0.535,1.187
		c0,0.176-0.031,0.381-0.096,0.614c-0.063,0.234-0.137,0.455-0.221,0.66c-0.082,0.205-0.178,0.438-0.285,0.703l-3.838,9.521
		c-0.107,0.272-0.248,0.62-0.418,1.039c-0.17,0.42-0.361,0.777-0.57,1.076c-0.21,0.299-0.469,0.529-0.774,0.695
		c-0.309,0.166-0.683,0.25-1.121,0.25c-0.566,0-1.02-0.133-1.355-0.391c-0.337-0.262-0.586-0.543-0.747-0.854
		c-0.161-0.309-0.432-0.915-0.813-1.82l-3.811-9.419c-0.088-0.234-0.178-0.473-0.271-0.703c-0.093-0.234-0.171-0.477-0.234-0.721
		c-0.063-0.241-0.095-0.451-0.095-0.631c0-0.271,0.083-0.543,0.249-0.813c0.166-0.268,0.396-0.488,0.688-0.658
		c0.293-0.172,0.61-0.257,0.952-0.257c0.664,0,1.121,0.19,1.37,0.571S26.462,19.468,26.764,20.365z"/>
	<path display="none" fill="#1EDCDC" d="M26.965,17.184v6.108c0.752-0.78,1.521-1.38,2.3-1.794c0.781-0.416,1.748-0.623,2.9-0.623
		c1.328,0,2.493,0.314,3.494,0.945c1.001,0.629,1.776,1.543,2.329,2.738c0.552,1.193,0.828,2.611,0.828,4.256
		c0,1.211-0.154,2.322-0.461,3.332c-0.312,1.012-0.754,1.888-1.344,2.629c-0.586,0.742-1.296,1.313-2.131,1.723
		c-0.835,0.404-1.755,0.607-2.761,0.607c-0.615,0-1.194-0.073-1.736-0.224c-0.542-0.146-1.003-0.339-1.384-0.575
		c-0.381-0.238-0.706-0.485-0.974-0.74c-0.271-0.254-0.623-0.635-1.063-1.146v0.396c0,0.754-0.181,1.32-0.542,1.707
		c-0.357,0.387-0.816,0.58-1.377,0.58c-0.563,0-1.018-0.193-1.354-0.58c-0.337-0.387-0.507-0.953-0.507-1.707V17.355
		c0-0.813,0.162-1.424,0.489-1.838c0.327-0.416,0.784-0.623,1.37-0.623c0.615,0,1.089,0.197,1.421,0.596
		C26.799,15.887,26.965,16.451,26.965,17.184z M27.155,29.063c0,1.592,0.364,2.813,1.091,3.67c0.729,0.854,1.682,1.281,2.864,1.281
		c1.006,0,1.873-0.438,2.6-1.313c0.729-0.873,1.091-2.126,1.091-3.759c0-1.055-0.147-1.963-0.454-2.726
		c-0.303-0.763-0.729-1.352-1.287-1.766c-0.559-0.416-1.204-0.623-1.946-0.623c-0.766,0-1.44,0.207-2.036,0.623
		c-0.596,0.414-1.064,1.016-1.406,1.801C27.326,27.045,27.155,27.979,27.155,29.063z"/>
	<path display="none" fill="#1EDCDC" d="M26.623,20.091v0.479c0.703-0.928,1.477-1.604,2.311-2.044
		c0.836-0.436,1.795-0.648,2.879-0.648c1.055,0,1.996,0.229,2.826,0.688s1.451,1.107,1.857,1.948
		c0.268,0.487,0.438,1.016,0.516,1.581c0.078,0.566,0.117,1.289,0.117,2.169v7.44c0,0.801-0.186,1.403-0.553,1.813
		c-0.361,0.409-0.842,0.612-1.428,0.612c-0.596,0-1.08-0.209-1.451-0.629s-0.557-1.021-0.557-1.803v-6.664
		c0-1.318-0.182-2.326-0.549-3.025c-0.365-0.695-1.099-1.047-2.189-1.047c-0.713,0-1.359,0.213-1.947,0.639
		c-0.587,0.426-1.017,1.009-1.287,1.751c-0.194,0.597-0.295,1.709-0.295,3.34v5.013c0,0.812-0.188,1.418-0.563,1.82
		c-0.377,0.406-0.862,0.605-1.458,0.605c-0.576,0-1.05-0.209-1.421-0.629s-0.561-1.021-0.561-1.804V20.14
		c0-0.764,0.166-1.33,0.498-1.707c0.332-0.375,0.786-0.563,1.362-0.563c0.354,0,0.669,0.084,0.952,0.25s0.51,0.414,0.682,0.744
		C26.538,19.208,26.623,19.612,26.623,20.091z"/>
	<path display="none" fill="#1EDCDC" d="M32.086,26.29v5.317c0,0.84-0.19,1.469-0.571,1.89c-0.381,0.42-0.884,0.63-1.509,0.63
		c-0.605,0-1.097-0.21-1.472-0.63c-0.377-0.421-0.564-1.05-0.564-1.89v-6.373c0-1.006-0.034-1.787-0.103-2.347
		c-0.069-0.557-0.258-1.013-0.561-1.366c-0.303-0.355-0.781-0.535-1.436-0.535c-1.313,0-2.171,0.449-2.585,1.349
		c-0.416,0.897-0.623,2.188-0.623,3.866v5.406c0,0.83-0.188,1.457-0.564,1.883c-0.375,0.424-0.871,0.637-1.483,0.637
		c-0.604,0-1.104-0.213-1.485-0.637c-0.388-0.426-0.579-1.053-0.579-1.883v-11.44c0-0.752,0.173-1.323,0.521-1.714
		c0.347-0.391,0.804-0.586,1.366-0.586c0.548,0,1.005,0.184,1.369,0.549c0.367,0.367,0.55,0.872,0.55,1.518v0.381
		c0.693-0.83,1.438-1.438,2.229-1.832c0.791-0.391,1.67-0.586,2.637-0.586c1.006,0,1.87,0.2,2.594,0.604
		c0.726,0.397,1.317,1.006,1.786,1.813c0.676-0.817,1.396-1.43,2.168-1.824c0.771-0.396,1.626-0.594,2.563-0.594
		c1.094,0,2.036,0.215,2.827,0.646c0.791,0.43,1.382,1.045,1.771,1.846c0.342,0.725,0.517,1.86,0.517,3.413v7.81
		c0,0.84-0.19,1.472-0.571,1.892s-0.884,0.63-1.509,0.63c-0.605,0-1.104-0.213-1.486-0.637c-0.387-0.428-0.579-1.055-0.579-1.885
		v-6.726c0-0.858-0.036-1.548-0.107-2.063c-0.071-0.52-0.271-0.95-0.596-1.305c-0.319-0.353-0.811-0.527-1.465-0.527
		c-0.525,0-1.028,0.156-1.501,0.472c-0.475,0.313-0.843,0.729-1.104,1.26C32.232,23.39,32.086,24.581,32.086,26.29z"/>
	<path display="none" fill="#1EDCDC" d="M29.971,31.048c-0.646,0-1.201-0.198-1.67-0.597c-0.473-0.396-0.703-0.946-0.703-1.659
		c0-0.615,0.229-1.137,0.688-1.557s1.002-0.63,1.627-0.63c0.469,0,0.896,0.127,1.273,0.381c0.379,0.254,0.68,0.627,0.895,1.121
		c0.215,0.492,0.322,1.104,0.322,1.821c0,0.969-0.205,1.871-0.615,2.72c-0.41,0.844-0.91,1.517-1.502,2.006
		c-0.59,0.494-1.125,0.74-1.604,0.74c-0.307,0-0.553-0.103-0.74-0.304c-0.189-0.196-0.285-0.432-0.285-0.692
		c0-0.397,0.199-0.726,0.602-0.968C29.4,32.8,29.971,32.005,29.971,31.048z"/>
	<path display="none" fill="#1EDCDC" d="M30.018,32.205c-0.604,0-1.127-0.195-1.563-0.586c-0.439-0.391-0.66-0.939-0.66-1.641
		c0-0.6,0.211-1.107,0.631-1.537c0.42-0.434,0.938-0.646,1.553-0.646s1.143,0.213,1.574,0.637c0.434,0.428,0.652,0.939,0.652,1.547
		c0,0.691-0.223,1.236-0.652,1.635C31.115,32.008,30.604,32.205,30.018,32.205z"/>
	<path fill="#1EDCDC" d="M33.516,17.871L29.41,34.762c-0.137,0.56-0.256,0.996-0.355,1.317c-0.104,0.322-0.262,0.573-0.473,0.755
		c-0.209,0.184-0.514,0.271-0.914,0.271c-0.994,0-1.492-0.432-1.492-1.289c0-0.225,0.1-0.786,0.295-1.686l4.086-16.893
		c0.215-0.896,0.42-1.518,0.611-1.848c0.195-0.332,0.576-0.496,1.146-0.496c0.486,0,0.859,0.113,1.121,0.352
		c0.258,0.234,0.389,0.561,0.389,0.971C33.822,16.518,33.721,17.07,33.516,17.871z"/>
</g>
<g id="레이어_3">
	<path display="none" fill="#1EDCDC" d="M26.206,26.951c-1.377,0-2.705,0.669-3.984,2.007v-3.779
		c0.645-0.723,1.321-1.238,2.029-1.545s1.501-0.461,2.38-0.461c0.674,0,1.315,0.088,1.926,0.264c0.61,0.176,1.238,0.393,1.882,0.652
		c0.645,0.259,1.274,0.5,1.891,0.725c0.615,0.225,1.094,0.337,1.436,0.337c0.615,0,1.277-0.181,1.985-0.542
		c0.708-0.361,1.384-0.884,2.028-1.567v3.94c-0.293,0.303-0.676,0.607-1.149,0.916c-0.475,0.308-0.959,0.557-1.458,0.746
		c-0.499,0.19-0.967,0.287-1.406,0.287c-0.703,0-1.355-0.084-1.956-0.25s-1.284-0.412-2.051-0.739
		c-0.768-0.327-1.399-0.574-1.897-0.74S26.812,26.951,26.206,26.951z"/>
	<path display="none" fill="#1EDCDC" d="M28.389,27.45l-0.469-7.018c-0.088-1.366-0.132-2.349-0.132-2.943
		c0-0.812,0.212-1.443,0.638-1.897c0.424-0.454,0.983-0.681,1.676-0.681c0.84,0,1.401,0.291,1.686,0.872s0.425,1.418,0.425,2.512
		c0,0.646-0.034,1.299-0.103,1.963l-0.631,7.223c-0.067,0.858-0.215,1.519-0.438,1.978s-0.596,0.688-1.112,0.688
		c-0.527,0-0.895-0.223-1.1-0.667C28.623,29.034,28.477,28.358,28.389,27.45z M30.016,37.089c-0.597,0-1.117-0.192-1.561-0.579
		c-0.443-0.386-0.667-0.925-0.667-1.619c0-0.604,0.212-1.12,0.638-1.545c0.424-0.424,0.944-0.637,1.56-0.637
		c0.614,0,1.14,0.212,1.575,0.637c0.435,0.426,0.651,0.94,0.651,1.545c0,0.685-0.22,1.222-0.659,1.611
		C31.114,36.892,30.602,37.089,30.016,37.089z"/>
	<path display="none" fill="#1EDCDC" d="M32.66,20.893l0.305-1.355h3.223l-1.854,8.752c-0.114,0.555-0.171,0.92-0.171,1.1
		c0,0.188,0.047,0.334,0.141,0.438c0.094,0.106,0.205,0.159,0.335,0.159c0.438,0,1.007-0.287,1.703-0.861
		c0.696-0.572,1.302-1.354,1.819-2.344c0.517-0.988,0.774-2.069,0.774-3.241c0-0.977-0.185-1.896-0.555-2.759
		c-0.371-0.862-0.906-1.611-1.604-2.246c-0.701-0.635-1.564-1.131-2.595-1.488c-1.03-0.358-2.196-0.537-3.498-0.537
		c-1.327,0-2.543,0.173-3.65,0.519s-2.08,0.842-2.917,1.489c-0.838,0.646-1.538,1.446-2.1,2.397c-0.497,0.83-0.875,1.75-1.135,2.76
		c-0.261,1.009-0.391,2.039-0.391,3.088c0,1.399,0.279,2.679,0.836,3.839c0.558,1.159,1.367,2.132,2.43,2.917
		c1.062,0.786,2.345,1.343,3.851,1.673c1.505,0.329,3.206,0.396,5.103,0.201c1.505-0.18,2.78-0.521,3.827-1.025
		c1.046-0.505,1.931-1.213,2.654-2.124h2.601c-0.423,0.871-0.976,1.648-1.654,2.332c-0.68,0.685-1.476,1.259-2.387,1.728
		c-0.912,0.468-1.933,0.823-3.063,1.067c-1.132,0.244-2.365,0.366-3.7,0.366c-2.002,0-3.805-0.263-5.408-0.787
		c-1.604-0.524-2.952-1.282-4.046-2.271c-1.095-0.989-1.923-2.169-2.484-3.54c-0.562-1.372-0.842-2.888-0.842-4.547
		c0-1.733,0.289-3.354,0.867-4.858c0.578-1.505,1.41-2.814,2.496-3.924c1.087-1.111,2.413-1.979,3.979-2.606
		c1.567-0.626,3.294-0.939,5.182-0.939c1.545,0,2.963,0.226,4.254,0.677c1.289,0.452,2.394,1.101,3.313,1.947
		c0.919,0.847,1.622,1.85,2.106,3.009c0.483,1.16,0.726,2.439,0.726,3.839c0,1.091-0.194,2.159-0.586,3.205
		c-0.392,1.045-0.95,1.985-1.679,2.819s-1.584,1.493-2.569,1.978s-2.047,0.728-3.187,0.728c-0.658,0-1.172-0.112-1.537-0.337
		c-0.366-0.224-0.61-0.579-0.732-1.067c-0.708,0.7-1.522,1.141-2.441,1.325c-0.92,0.183-1.811,0.098-2.673-0.258
		c-0.863-0.354-1.561-0.949-2.093-1.787c-0.533-0.839-0.8-1.872-0.8-3.102c0-1.277,0.274-2.535,0.824-3.771
		c0.549-1.237,1.33-2.25,2.344-3.04c1.013-0.789,2.158-1.185,3.436-1.185C30.902,19.244,31.976,19.793,32.66,20.893z M25.983,27.216
		c0,0.977,0.203,1.726,0.61,2.245c0.407,0.521,0.94,0.781,1.599,0.781c0.765,0,1.438-0.305,2.02-0.916
		c0.582-0.609,1.022-1.381,1.325-2.313c0.301-0.933,0.451-1.833,0.451-2.704c0-0.432-0.051-0.82-0.151-1.166
		c-0.103-0.346-0.252-0.648-0.452-0.909c-0.199-0.26-0.439-0.458-0.72-0.592c-0.281-0.135-0.601-0.202-0.958-0.202
		c-0.716,0-1.361,0.279-1.935,0.836c-0.573,0.557-1.015,1.281-1.324,2.173C26.137,25.342,25.983,26.264,25.983,27.216z"/>
	<path display="none" fill="#1EDCDC" d="M23.438,34.127l0.542-2.739c-1.348-0.028-2.021-0.565-2.021-1.61
		c0-0.488,0.168-0.887,0.505-1.195c0.337-0.307,0.833-0.461,1.486-0.461h0.688l0.835-4.262H23.95c-0.635,0-1.125-0.159-1.472-0.476
		s-0.52-0.706-0.52-1.165c0-0.488,0.168-0.881,0.505-1.179c0.337-0.298,0.833-0.447,1.486-0.447h2.184l0.688-3.354
		c0.107-0.566,0.228-1.011,0.359-1.333c0.132-0.322,0.313-0.566,0.542-0.732c0.229-0.166,0.529-0.249,0.9-0.249
		c0.518,0,0.913,0.137,1.188,0.41c0.273,0.273,0.41,0.625,0.41,1.055c0,0.098-0.084,0.591-0.25,1.479l-0.541,2.725h3.207
		l0.703-3.354c0.099-0.508,0.19-0.918,0.278-1.23s0.247-0.576,0.476-0.791c0.229-0.215,0.564-0.322,1.004-0.322
		c0.508,0,0.9,0.132,1.179,0.396c0.278,0.264,0.417,0.62,0.417,1.069c0,0.205-0.012,0.405-0.037,0.601
		c-0.025,0.196-0.057,0.383-0.096,0.564c-0.038,0.181-0.063,0.295-0.072,0.344l-0.542,2.754c1.396,0.029,2.095,0.571,2.095,1.626
		c0,0.488-0.166,0.879-0.498,1.172s-0.824,0.439-1.479,0.439h-0.747l-0.879,4.262h1.626c0.654,0,1.146,0.156,1.479,0.47
		s0.498,0.708,0.498,1.187c0,0.479-0.164,0.867-0.49,1.166c-0.328,0.297-0.824,0.446-1.487,0.446h-2.257l-0.688,3.369
		c-0.107,0.537-0.203,0.952-0.285,1.245c-0.084,0.293-0.242,0.549-0.477,0.77c-0.234,0.219-0.571,0.329-1.012,0.329
		c-0.487,0-0.873-0.137-1.156-0.409c-0.283-0.273-0.426-0.631-0.426-1.07c0-0.399,0.068-0.897,0.205-1.493l0.543-2.739h-3.237
		l-0.688,3.369c-0.177,0.83-0.359,1.428-0.55,1.794c-0.189,0.366-0.598,0.549-1.223,0.549c-0.498,0-0.889-0.137-1.172-0.409
		c-0.283-0.273-0.425-0.631-0.425-1.07c0-0.225,0.026-0.475,0.081-0.754C23.353,34.594,23.398,34.342,23.438,34.127z M32.008,23.858
		H28.77l-0.863,4.263h3.268L32.008,23.858z"/>
	<path display="none" fill="#1EDCDC" d="M30.882,13.502v1.425c0.94,0.097,1.747,0.29,2.418,0.579c0.674,0.29,1.26,0.729,1.761,1.318
		c0.396,0.448,0.7,0.91,0.917,1.384c0.215,0.476,0.322,0.91,0.322,1.306c0,0.438-0.16,0.819-0.48,1.14
		c-0.32,0.321-0.71,0.481-1.167,0.481c-0.86,0-1.419-0.467-1.674-1.397c-0.29-1.099-0.989-1.828-2.096-2.188v5.483
		c1.09,0.299,1.958,0.571,2.604,0.817s1.224,0.602,1.733,1.067c0.546,0.483,0.965,1.062,1.26,1.734
		c0.294,0.672,0.441,1.408,0.441,2.208c0,1.002-0.235,1.94-0.705,2.814c-0.471,0.875-1.164,1.589-2.077,2.143
		c-0.914,0.554-2,0.884-3.256,0.989v3.283c0,0.519-0.051,0.896-0.151,1.134c-0.102,0.237-0.323,0.356-0.666,0.356
		c-0.316,0-0.539-0.098-0.666-0.291c-0.127-0.192-0.191-0.492-0.191-0.896v-3.56c-1.028-0.114-1.927-0.356-2.696-0.726
		c-0.77-0.368-1.411-0.828-1.925-1.378c-0.515-0.549-0.895-1.12-1.141-1.714c-0.246-0.594-0.369-1.175-0.369-1.747
		c0-0.422,0.165-0.802,0.494-1.141c0.33-0.338,0.741-0.508,1.233-0.508c0.396,0,0.729,0.092,1.002,0.277
		c0.273,0.185,0.461,0.444,0.567,0.778c0.237,0.721,0.444,1.271,0.62,1.653c0.176,0.383,0.442,0.732,0.797,1.048
		c0.356,0.316,0.829,0.559,1.417,0.726v-6.13c-1.178-0.325-2.162-0.688-2.953-1.087c-0.791-0.399-1.433-0.97-1.925-1.708
		c-0.492-0.739-0.738-1.688-0.738-2.849c0-1.512,0.481-2.751,1.444-3.718c0.962-0.967,2.353-1.529,4.172-1.688v-1.397
		c0-0.738,0.277-1.107,0.831-1.107C30.602,12.421,30.882,12.782,30.882,13.502z M29.208,22.546v-5.049
		c-0.738,0.221-1.314,0.51-1.727,0.87s-0.62,0.905-0.62,1.635c0,0.694,0.193,1.221,0.58,1.575
		C27.828,21.935,28.417,22.256,29.208,22.546z M30.882,26.462v5.774c0.888-0.176,1.573-0.532,2.057-1.068s0.725-1.159,0.725-1.872
		c0-0.765-0.234-1.354-0.705-1.772C32.487,27.105,31.797,26.752,30.882,26.462z"/>
	<path display="none" fill="#1EDCDC" d="M27.383,21.07c0,1.679-0.369,2.927-1.107,3.744s-1.749,1.226-3.032,1.226
		c-0.791,0-1.501-0.173-2.129-0.521c-0.629-0.347-1.119-0.89-1.47-1.628c-0.352-0.738-0.527-1.639-0.527-2.703
		c0-1.143,0.136-2.096,0.409-2.861s0.714-1.345,1.325-1.74c0.609-0.396,1.391-0.593,2.34-0.593c0.686,0,1.288,0.105,1.806,0.316
		c0.519,0.211,0.958,0.534,1.318,0.969c0.36,0.435,0.628,0.964,0.804,1.588S27.383,20.226,27.383,21.07z M24.916,20.938
		c0-1.151-0.123-1.988-0.368-2.512c-0.246-0.522-0.682-0.784-1.306-0.784c-0.422,0-0.758,0.125-1.009,0.376
		c-0.25,0.25-0.422,0.619-0.514,1.107c-0.094,0.487-0.14,1.109-0.14,1.865c0,0.782,0.046,1.419,0.14,1.912
		c0.092,0.492,0.261,0.864,0.507,1.114c0.246,0.251,0.584,0.376,1.015,0.376c0.65,0,1.092-0.277,1.325-0.831
		C24.801,23.008,24.916,22.133,24.916,20.938z M36.176,17.734L25.193,35.439c-0.281,0.483-0.598,0.726-0.949,0.726
		c-0.202,0-0.403-0.077-0.605-0.231c-0.202-0.153-0.304-0.354-0.304-0.6c0-0.186,0.089-0.408,0.265-0.672l11.048-17.851
		c0.193-0.325,0.363-0.569,0.507-0.732c0.146-0.162,0.354-0.244,0.626-0.244c0.264,0,0.478,0.077,0.639,0.231
		c0.162,0.154,0.244,0.358,0.244,0.613C36.663,16.864,36.5,17.216,36.176,17.734z M40.883,30.602c0,1.679-0.369,2.927-1.107,3.744
		c-0.738,0.816-1.749,1.226-3.032,1.226c-0.8,0-1.514-0.177-2.143-0.527s-1.12-0.892-1.478-1.622
		c-0.354-0.729-0.533-1.63-0.533-2.703c0-1.714,0.326-3.002,0.981-3.869c0.655-0.866,1.694-1.299,3.118-1.299
		c0.686,0,1.285,0.105,1.8,0.316c0.514,0.211,0.953,0.527,1.318,0.949c0.364,0.422,0.635,0.948,0.811,1.575
		C40.794,29.021,40.883,29.758,40.883,30.602z M38.416,30.471c0-1.135-0.123-1.963-0.368-2.485
		c-0.246-0.523-0.682-0.785-1.306-0.785c-0.438,0-0.782,0.123-1.027,0.369c-0.246,0.245-0.421,0.608-0.521,1.087
		c-0.102,0.479-0.152,1.101-0.152,1.865c0,1.179,0.125,2.039,0.375,2.584c0.251,0.545,0.692,0.817,1.325,0.817
		c0.643,0,1.081-0.278,1.318-0.837C38.299,32.529,38.416,31.656,38.416,30.471z"/>
	<path display="none" fill="#1EDCDC" d="M27.32,31.462h-3.91l5.154-10.924h3.021l5.005,10.924h-3.854l-2.723-6.698L27.32,31.462z"/>
	<path display="none" fill="#1EDCDC" d="M23.46,20.437c0-0.817,0.213-1.563,0.641-2.235c0.426-0.672,1.053-1.206,1.879-1.603
		c0.825-0.396,1.797-0.593,2.914-0.593c1.105,0,2.063,0.207,2.874,0.62c0.808,0.413,1.413,0.954,1.813,1.622
		s0.601,1.362,0.601,2.083c0,0.984-0.324,1.841-0.977,2.571c-0.652,0.729-1.607,1.472-2.874,2.228
		c0.439,0.52,0.849,1.006,1.228,1.463c0.378,0.457,0.741,0.883,1.094,1.279c0.351,0.396,0.673,0.734,0.962,1.015
		c0.133-0.246,0.337-0.708,0.612-1.384c0.276-0.677,0.535-1.165,0.777-1.463c0.241-0.299,0.582-0.448,1.021-0.448
		c0.414,0,0.777,0.147,1.096,0.441c0.316,0.295,0.475,0.653,0.475,1.075c0,0.387-0.137,0.934-0.408,1.641
		c-0.271,0.708-0.668,1.492-1.188,2.354c0.324,0.281,0.842,0.708,1.549,1.279c0.707,0.57,1.145,0.959,1.307,1.166
		s0.242,0.481,0.242,0.824c0,0.457-0.164,0.842-0.494,1.153c-0.328,0.312-0.695,0.468-1.102,0.468c-0.412,0-0.813-0.132-1.199-0.396
		c-0.387-0.264-1.208-0.909-2.465-1.938c-0.571,0.536-1.162,0.977-1.772,1.318c-0.61,0.343-1.267,0.598-1.965,0.765
		c-0.697,0.167-1.479,0.25-2.34,0.25c-1.099,0-2.085-0.161-2.959-0.481c-0.875-0.32-1.602-0.754-2.182-1.299
		s-1.011-1.148-1.292-1.813s-0.422-1.338-0.422-2.024c0-0.659,0.104-1.263,0.314-1.813s0.507-1.046,0.892-1.489
		c0.382-0.444,0.852-0.866,1.409-1.267c0.559-0.399,1.206-0.789,1.944-1.167c-0.659-0.825-1.158-1.563-1.497-2.208
		C23.629,21.787,23.46,21.121,23.46,20.437z M27.191,26.751c-0.896,0.52-1.567,1.037-2.011,1.556
		c-0.444,0.52-0.666,1.135-0.666,1.847c0,0.403,0.081,0.791,0.244,1.16c0.161,0.368,0.398,0.712,0.712,1.028
		c0.312,0.315,0.675,0.558,1.088,0.725s0.848,0.25,1.305,0.25c0.448,0,0.883-0.07,1.305-0.211s0.822-0.34,1.2-0.6
		c0.378-0.261,0.771-0.584,1.173-0.97c-0.782-0.721-1.483-1.435-2.107-2.142S28.062,27.805,27.191,26.751z M28.536,23.138
		c0.896-0.57,1.544-1.052,1.944-1.442c0.398-0.392,0.6-0.864,0.6-1.417c0-0.545-0.2-1.002-0.6-1.371
		c-0.4-0.369-0.903-0.554-1.509-0.554c-0.606,0-1.114,0.188-1.523,0.566c-0.408,0.378-0.613,0.822-0.613,1.332
		c0,0.264,0.077,0.547,0.231,0.851c0.153,0.304,0.345,0.604,0.573,0.902C27.867,22.304,28.167,22.681,28.536,23.138z"/>
	<path display="none" fill="#1EDCDC" d="M30.838,25.251c0.656-0.303,1.281-0.604,1.877-0.907c0.598-0.304,1.07-0.524,1.426-0.666
		c0.354-0.142,0.635-0.212,0.848-0.212c0.354,0,0.658,0.118,0.916,0.355c0.256,0.237,0.385,0.532,0.385,0.885
		c0,0.202-0.063,0.411-0.188,0.628c-0.125,0.218-0.262,0.355-0.4,0.416c-1.301,0.516-2.734,0.889-4.299,1.12
		c0.283,0.264,0.631,0.611,1.045,1.044c0.414,0.435,0.631,0.666,0.648,0.696c0.152,0.212,0.363,0.476,0.639,0.787
		c0.27,0.313,0.461,0.558,0.564,0.734c0.105,0.177,0.16,0.392,0.16,0.644c0,0.323-0.121,0.605-0.363,0.848
		c-0.24,0.243-0.557,0.363-0.938,0.363c-0.383,0-0.814-0.297-1.295-0.893c-0.479-0.596-1.096-1.665-1.854-3.209
		c-0.768,1.393-1.279,2.311-1.543,2.755c-0.264,0.443-0.516,0.78-0.758,1.006c-0.242,0.228-0.52,0.341-0.832,0.341
		c-0.373,0-0.684-0.129-0.932-0.386c-0.246-0.258-0.371-0.532-0.371-0.825c0-0.271,0.051-0.479,0.152-0.621
		c0.928-1.261,1.895-2.355,2.904-3.285c-0.848-0.131-1.604-0.276-2.271-0.438c-0.666-0.161-1.371-0.398-2.119-0.711
		c-0.121-0.062-0.238-0.199-0.355-0.416c-0.113-0.217-0.174-0.417-0.174-0.599c0-0.353,0.129-0.647,0.389-0.885
		c0.256-0.237,0.553-0.355,0.885-0.355c0.242,0,0.545,0.072,0.908,0.219c0.361,0.146,0.822,0.357,1.385,0.636
		c0.561,0.278,1.199,0.588,1.916,0.931c-0.133-0.636-0.24-1.364-0.326-2.187c-0.086-0.823-0.129-1.385-0.129-1.688
		c0-0.372,0.119-0.693,0.354-0.961c0.238-0.267,0.543-0.4,0.916-0.4c0.363,0,0.664,0.134,0.9,0.4
		c0.238,0.269,0.354,0.624,0.354,1.067c0,0.121-0.018,0.361-0.053,0.719c-0.035,0.358-0.086,0.792-0.148,1.303
		C30.992,24.013,30.92,24.596,30.838,25.251z"/>
	<path display="none" fill="#1EDCDC" d="M26.353,26.008c0-1.475,0.127-2.854,0.381-4.138s0.64-2.549,1.155-3.794
		c0.519-1.245,1.157-2.493,1.92-3.743c0.459-0.762,0.846-1.312,1.156-1.648c0.313-0.337,0.608-0.547,0.887-0.63
		s0.639-0.125,1.076-0.125c0.479,0,0.72,0.132,0.72,0.396c0,0.088-0.227,0.618-0.676,1.589c-0.447,0.971-0.869,1.99-1.268,3.054
		c-0.396,1.064-0.762,2.394-1.098,3.984c-0.339,1.592-0.507,3.275-0.507,5.054c0,1.758,0.166,3.423,0.497,4.995
		c0.332,1.572,0.712,2.935,1.137,4.087c0.426,1.152,0.85,2.185,1.273,3.098s0.639,1.409,0.639,1.487c0,0.264-0.239,0.396-0.72,0.396
		c-0.447,0-0.813-0.047-1.091-0.14s-0.567-0.31-0.872-0.651c-0.303-0.343-0.688-0.89-1.156-1.642
		c-0.771-1.289-1.407-2.532-1.911-3.728c-0.503-1.196-0.888-2.439-1.149-3.729S26.353,27.502,26.353,26.008z"/>
	<path display="none" fill="#1EDCDC" d="M33.647,26.009c0,2.147-0.284,4.146-0.854,5.99c-0.572,1.847-1.438,3.727-2.602,5.641
		c-0.653,1.074-1.173,1.748-1.554,2.021c-0.381,0.273-0.896,0.41-1.553,0.41c-0.488,0-0.732-0.132-0.732-0.396
		c0-0.089,0.205-0.56,0.615-1.414c0.41-0.855,0.837-1.873,1.282-3.055c0.443-1.182,0.83-2.57,1.156-4.167
		c0.328-1.597,0.491-3.273,0.491-5.031c0-1.769-0.166-3.452-0.498-5.055c-0.332-1.602-0.72-2.987-1.157-4.16
		c-0.439-1.172-0.864-2.189-1.274-3.054s-0.614-1.335-0.614-1.414c0-0.264,0.243-0.396,0.731-0.396c0.685,0,1.211,0.129,1.582,0.388
		s0.879,0.93,1.523,2.014c0.574,0.957,1.078,1.899,1.509,2.827c0.43,0.928,0.789,1.855,1.076,2.783
		c0.288,0.928,0.506,1.895,0.65,2.9C33.573,23.847,33.647,24.904,33.647,26.009z"/>
	<path display="none" fill="#1EDCDC" d="M22.323,34.746v-1.492h15.354v1.492H22.323z"/>
	<path display="none" fill="#1EDCDC" d="M31.873,33.515h-3.778v-5.582h-5.608v-3.837h5.608v-5.61h3.778v5.61h5.641v3.837h-5.641
		V33.515z"/>
	<path display="none" fill="#1EDCDC" d="M37.162,33.266c0.637,0.43,1.328,0.848,2.08,1.252s1.25,0.729,1.494,0.967
		s0.367,0.578,0.367,1.018c0,0.313-0.145,0.625-0.432,0.938c-0.289,0.314-0.639,0.471-1.047,0.471c-0.332,0-0.736-0.107-1.209-0.322
		s-1.029-0.527-1.67-0.939c-0.641-0.41-1.34-0.889-2.102-1.436c-1.416,0.723-3.154,1.084-5.215,1.084
		c-1.67,0-3.167-0.266-4.49-0.797c-1.323-0.533-2.434-1.299-3.333-2.301c-0.899-1-1.575-2.189-2.029-3.566
		c-0.454-1.377-0.681-2.876-0.681-4.498c0-1.65,0.237-3.164,0.71-4.541c0.473-1.377,1.16-2.549,2.058-3.516
		c0.898-0.967,1.992-1.707,3.281-2.219c1.289-0.512,2.754-0.769,4.395-0.769c2.226,0,4.138,0.452,5.734,1.355
		c1.598,0.903,2.807,2.188,3.625,3.853c0.82,1.665,1.23,3.621,1.23,5.867C39.932,28.574,39.01,31.273,37.162,33.266z M33.75,30.893
		c0.605-0.693,1.053-1.514,1.34-2.461c0.289-0.947,0.432-2.046,0.432-3.296c0-1.572-0.254-2.935-0.762-4.087
		c-0.508-1.152-1.232-2.024-2.174-2.615c-0.943-0.591-2.025-0.886-3.246-0.886c-0.869,0-1.672,0.164-2.41,0.491
		c-0.738,0.327-1.372,0.803-1.904,1.428c-0.532,0.625-0.952,1.423-1.26,2.395c-0.308,0.972-0.461,2.063-0.461,3.274
		c0,2.47,0.576,4.373,1.729,5.707c1.153,1.332,2.607,2,4.365,2c0.724,0,1.465-0.152,2.228-0.455
		c-0.459-0.342-1.034-0.684-1.722-1.023c-0.688-0.342-1.16-0.605-1.414-0.791c-0.254-0.188-0.381-0.449-0.381-0.791
		c0-0.293,0.123-0.553,0.367-0.777c0.243-0.223,0.512-0.336,0.805-0.336C30.171,28.666,31.66,29.408,33.75,30.893z"/>
	<path display="none" fill="#1EDCDC" d="M33.492,33.353l-3.471-12.876l-3.518,12.876c-0.271,0.977-0.49,1.677-0.65,2.102
		c-0.162,0.425-0.443,0.806-0.844,1.144c-0.398,0.337-0.932,0.505-1.596,0.505c-0.537,0-0.979-0.101-1.326-0.3
		c-0.348-0.2-0.627-0.483-0.842-0.851c-0.215-0.366-0.391-0.801-0.527-1.304s-0.26-0.969-0.365-1.398l-3.574-14.458
		c-0.215-0.84-0.322-1.479-0.322-1.919c0-0.557,0.195-1.025,0.586-1.406s0.873-0.571,1.449-0.571c0.791,0,1.324,0.254,1.598,0.762
		c0.273,0.508,0.514,1.245,0.719,2.212l2.813,12.539l3.148-11.733c0.234-0.898,0.443-1.582,0.631-2.051
		c0.186-0.469,0.486-0.874,0.908-1.216c0.42-0.342,0.99-0.513,1.713-0.513c0.732,0,1.301,0.178,1.707,0.535s0.686,0.745,0.842,1.165
		s0.367,1.113,0.631,2.08l3.178,11.733l2.814-12.539c0.137-0.654,0.266-1.167,0.387-1.538c0.123-0.371,0.332-0.703,0.631-0.996
		c0.297-0.293,0.73-0.439,1.295-0.439c0.566,0,1.047,0.188,1.443,0.564s0.594,0.847,0.594,1.414c0,0.4-0.107,1.04-0.322,1.919
		l-3.574,14.458c-0.244,0.977-0.447,1.691-0.607,2.146c-0.162,0.454-0.436,0.853-0.82,1.194s-0.93,0.513-1.633,0.513
		c-0.664,0-1.197-0.166-1.598-0.498s-0.678-0.706-0.834-1.121S33.775,34.358,33.492,33.353z"/>
	<path display="none" fill="#1EDCDC" d="M35.873,18.617h-9.8v5.272h9.023c0.664,0,1.16,0.149,1.488,0.447
		c0.326,0.299,0.49,0.691,0.49,1.18s-0.16,0.886-0.482,1.193c-0.322,0.309-0.82,0.461-1.494,0.461h-9.023v6.108h10.136
		c0.684,0,1.199,0.16,1.545,0.477s0.52,0.74,0.52,1.268c0,0.508-0.172,0.92-0.52,1.238c-0.346,0.316-0.861,0.477-1.545,0.477H24.389
		c-0.947,0-1.628-0.211-2.043-0.631s-0.623-1.098-0.623-2.035V17.928c0-0.625,0.094-1.135,0.278-1.531s0.476-0.684,0.872-0.864
		c0.396-0.18,0.9-0.271,1.516-0.271h11.484c0.693,0,1.209,0.154,1.545,0.461c0.338,0.307,0.506,0.71,0.506,1.208
		c0,0.508-0.168,0.916-0.506,1.223C37.082,18.461,36.566,18.617,35.873,18.617z"/>
	<path display="none" fill="#1EDCDC" d="M26.938,27.369h-1.522v6.899c0,0.908-0.2,1.577-0.601,2.007
		c-0.401,0.43-0.924,0.646-1.567,0.646c-0.692,0-1.229-0.226-1.611-0.675c-0.381-0.448-0.571-1.107-0.571-1.978V17.745
		c0-0.938,0.211-1.615,0.631-2.035c0.42-0.421,1.099-0.631,2.035-0.631h7.076c0.977,0,1.812,0.042,2.504,0.125
		c0.693,0.083,1.318,0.251,1.875,0.506c0.674,0.282,1.271,0.688,1.787,1.216c0.518,0.527,0.911,1.14,1.18,1.838
		c0.268,0.698,0.402,1.438,0.402,2.219c0,1.603-0.451,2.881-1.354,3.838s-2.273,1.636-4.109,2.036
		c0.771,0.41,1.509,1.017,2.212,1.816s1.331,1.653,1.883,2.556c0.551,0.903,0.98,1.719,1.289,2.446
		c0.308,0.728,0.461,1.228,0.461,1.501c0,0.283-0.091,0.564-0.271,0.842c-0.182,0.278-0.428,0.498-0.74,0.659
		s-0.674,0.242-1.084,0.242c-0.488,0-0.898-0.115-1.23-0.345c-0.332-0.229-0.617-0.52-0.856-0.871
		c-0.239-0.353-0.563-0.869-0.974-1.553l-1.743-2.9c-0.625-1.064-1.185-1.875-1.677-2.432c-0.494-0.558-0.994-0.938-1.502-1.144
		C28.352,27.47,27.71,27.369,26.938,27.369z M29.43,18.347h-4.015v5.902h3.896c1.045,0,1.924-0.09,2.637-0.271
		c0.714-0.181,1.258-0.488,1.634-0.923c0.376-0.436,0.563-1.033,0.563-1.794c0-0.597-0.15-1.121-0.453-1.575
		c-0.304-0.454-0.724-0.793-1.26-1.019C31.924,18.453,30.923,18.347,29.43,18.347z"/>
	<path display="none" fill="#1EDCDC" d="M36.9,18.667h-4.746v15.601c0,0.898-0.199,1.564-0.6,2C31.152,36.703,30.637,36.92,30,36.92
		c-0.645,0-1.17-0.221-1.574-0.659c-0.406-0.438-0.607-1.104-0.607-1.992V18.668h-4.746c-0.742,0-1.294-0.164-1.655-0.491
		c-0.359-0.327-0.542-0.759-0.542-1.296c0-0.557,0.188-0.996,0.564-1.318c0.376-0.321,0.92-0.482,1.633-0.482H36.9
		c0.752,0,1.311,0.166,1.676,0.498c0.367,0.332,0.549,0.767,0.549,1.304s-0.186,0.969-0.557,1.296S37.643,18.667,36.9,18.667z"/>
	<path display="none" fill="#1EDCDC" d="M27.771,34.451v-6.813l-5.244-8.129c-0.459-0.731-0.78-1.304-0.974-1.714
		c-0.19-0.41-0.286-0.767-0.286-1.068c0-0.498,0.193-0.929,0.579-1.289c0.386-0.361,0.862-0.542,1.428-0.542
		c0.6,0,1.047,0.168,1.355,0.505c0.308,0.337,0.769,1.008,1.384,2.014l4.014,6.52l4.062-6.52c0.244-0.4,0.449-0.737,0.615-1.011
		c0.163-0.274,0.349-0.53,0.549-0.77c0.2-0.238,0.422-0.422,0.667-0.549s0.542-0.189,0.894-0.189c0.547,0,1.003,0.178,1.37,0.534
		c0.367,0.357,0.549,0.77,0.549,1.238c0,0.381-0.093,0.762-0.274,1.144c-0.188,0.381-0.503,0.907-0.952,1.582l-5.376,8.246v6.813
		c0,0.889-0.205,1.553-0.615,1.992c-0.41,0.438-0.933,0.658-1.567,0.658c-0.645,0-1.167-0.217-1.563-0.652
		C27.975,36.016,27.771,35.35,27.771,34.451z"/>
	<path display="none" fill="#1EDCDC" d="M20.969,27.859V17.533c0-0.879,0.197-1.538,0.594-1.979
		c0.396-0.438,0.916-0.658,1.564-0.658c0.674,0,1.207,0.22,1.604,0.658c0.396,0.439,0.592,1.1,0.592,1.979v10.561
		c0,1.201,0.139,2.205,0.404,3.012c0.271,0.805,0.744,1.43,1.428,1.875c0.688,0.443,1.645,0.666,2.871,0.666
		c1.699,0,2.9-0.451,3.604-1.355c0.705-0.902,1.055-2.271,1.055-4.109V17.534c0-0.889,0.195-1.55,0.586-1.985
		c0.393-0.435,0.914-0.651,1.568-0.651c0.65,0,1.184,0.217,1.588,0.651c0.406,0.436,0.605,1.097,0.605,1.985v10.327
		c0,1.68-0.162,3.08-0.488,4.203s-0.943,2.109-1.854,2.959c-0.781,0.723-1.688,1.25-2.725,1.582s-2.246,0.498-3.633,0.498
		c-1.65,0-3.072-0.178-4.268-0.535c-1.188-0.357-2.162-0.908-2.914-1.654c-0.752-0.748-1.305-1.705-1.652-2.871
		C21.146,30.875,20.969,29.48,20.969,27.859z"/>
	<path display="none" fill="#1EDCDC" d="M27.823,34.452V17.533c0-0.879,0.199-1.538,0.604-1.978s0.918-0.659,1.553-0.659
		c0.654,0,1.188,0.217,1.589,0.652c0.406,0.435,0.608,1.096,0.608,1.985v16.919c0,0.889-0.202,1.553-0.608,1.992
		c-0.4,0.439-0.935,0.659-1.589,0.659c-0.625,0-1.14-0.222-1.546-0.667C28.025,35.992,27.823,35.331,27.823,34.452z"/>
	<path display="none" fill="#1EDCDC" d="M29.931,14.896c2.227,0,4.138,0.452,5.735,1.355c1.596,0.903,2.805,2.188,3.625,3.853
		c0.816,1.665,1.229,3.621,1.229,5.867c0,1.66-0.225,3.168-0.674,4.526s-1.123,2.534-2.021,3.53
		c-0.896,0.996-2.002,1.758-3.311,2.285c-1.309,0.526-2.808,0.791-4.497,0.791c-1.68,0-3.184-0.271-4.512-0.813
		c-1.328-0.542-2.438-1.306-3.325-2.292c-0.888-0.985-1.563-2.173-2.014-3.56c-0.455-1.387-0.686-2.886-0.686-4.497
		c0-1.65,0.236-3.164,0.711-4.541c0.477-1.377,1.159-2.549,2.062-3.516c0.896-0.967,1.989-1.707,3.277-2.219
		C26.823,15.153,28.29,14.896,29.931,14.896z M36.112,25.941c0-1.572-0.254-2.935-0.762-4.087c-0.508-1.152-1.232-2.024-2.175-2.615
		c-0.943-0.591-2.024-0.886-3.245-0.886c-0.869,0-1.673,0.164-2.409,0.491c-0.737,0.327-1.373,0.803-1.903,1.428
		s-0.95,1.423-1.261,2.395c-0.309,0.972-0.462,2.063-0.462,3.274c0,1.221,0.153,2.324,0.462,3.312
		c0.311,0.985,0.742,1.803,1.307,2.453c0.563,0.649,1.205,1.135,1.934,1.458c0.729,0.322,1.526,0.483,2.396,0.483
		c1.111,0,2.138-0.278,3.067-0.835c0.935-0.558,1.674-1.416,2.229-2.578C35.836,29.071,36.112,27.641,36.112,25.941z"/>
	<path display="none" fill="#1EDCDC" d="M30.146,28.19h-3.98v6.078c0,0.869-0.205,1.528-0.615,1.979
		c-0.41,0.449-0.928,0.674-1.553,0.674c-0.654,0-1.186-0.223-1.582-0.667c-0.4-0.445-0.604-1.097-0.604-1.956V17.745
		c0-0.957,0.224-1.642,0.659-2.051c0.439-0.41,1.139-0.615,2.095-0.615h5.581c1.65,0,2.92,0.127,3.813,0.381
		c0.879,0.244,1.638,0.649,2.274,1.216c0.643,0.566,1.125,1.26,1.457,2.08s0.498,1.743,0.498,2.77c0,2.188-0.674,3.845-2.021,4.972
		C34.82,27.626,32.813,28.19,30.146,28.19z M29.092,18.346h-2.93v6.563h2.93c1.025,0,1.882-0.107,2.571-0.322
		c0.688-0.215,1.213-0.566,1.57-1.055c0.361-0.489,0.542-1.128,0.542-1.919c0-0.947-0.274-1.72-0.835-2.314
		C32.319,18.663,31.035,18.346,29.092,18.346z"/>
	<path display="none" fill="#1EDCDC" d="M29.282,26.01c0.689,0.43,1.231,0.91,1.626,1.442c0.391,0.532,0.664,1.211,0.816,2.036
		c0.156,0.825,0.234,1.882,0.234,3.171c0,0.967,0.021,1.68,0.065,2.139s0.133,0.809,0.264,1.047
		c0.133,0.239,0.291,0.396,0.477,0.469c0.188,0.074,0.503,0.145,0.952,0.213c0.371,0.049,0.682,0.229,0.923,0.541
		c0.244,0.313,0.366,0.724,0.366,1.229c0,1.183-0.718,1.772-2.153,1.772c-0.889,0-1.682-0.186-2.381-0.557
		c-0.693-0.371-1.233-0.896-1.614-1.576c-0.385-0.678-0.576-1.457-0.589-2.336c-0.026-1.483-0.06-2.675-0.089-3.573
		c-0.025-0.898-0.069-1.479-0.132-1.743c-0.146-0.654-0.363-1.146-0.649-1.479s-0.663-0.643-1.13-0.931
		c-0.465-0.288-0.794-0.547-0.985-0.775c-0.195-0.229-0.293-0.594-0.293-1.091c0-0.724,0.282-1.266,0.85-1.626
		c0.703-0.438,1.204-0.813,1.501-1.121c0.299-0.309,0.508-0.703,0.631-1.188c0.121-0.482,0.192-1.011,0.212-1.582
		c0.021-0.571,0.049-1.946,0.088-4.124c0.029-1.348,0.456-2.424,1.282-3.229c0.824-0.807,1.926-1.208,3.303-1.208
		c1.438,0,2.153,0.581,2.153,1.743c0,0.526-0.12,0.941-0.357,1.244c-0.237,0.304-0.551,0.479-0.932,0.527
		c-0.563,0.078-0.962,0.195-1.187,0.352c-0.229,0.157-0.371,0.459-0.439,0.908s-0.112,1.318-0.132,2.607
		c-0.021,1.26-0.095,2.292-0.229,3.098c-0.131,0.807-0.391,1.492-0.771,2.059C30.573,25.037,30.015,25.551,29.282,26.01z"/>
	<path display="none" fill="#1EDCDC" d="M30.715,26.006c-0.523-0.332-0.957-0.679-1.289-1.04s-0.604-0.801-0.816-1.318
		c-0.215-0.517-0.367-1.13-0.455-1.838s-0.131-1.541-0.131-2.498c0-0.928-0.021-1.638-0.063-2.131s-0.117-0.852-0.23-1.077
		c-0.117-0.225-0.281-0.378-0.49-0.461c-0.211-0.083-0.531-0.148-0.961-0.197c-0.361-0.05-0.666-0.226-0.914-0.527
		c-0.25-0.303-0.375-0.718-0.375-1.245c0-1.162,0.709-1.743,2.125-1.743c0.908,0,1.707,0.184,2.395,0.549
		c0.689,0.366,1.23,0.89,1.629,1.567c0.396,0.679,0.6,1.453,0.605,2.322c0.061,3.242,0.127,5.023,0.205,5.347
		c0.156,0.646,0.385,1.135,0.688,1.472c0.305,0.338,0.67,0.636,1.102,0.895c0.43,0.259,0.75,0.515,0.959,0.769
		c0.211,0.254,0.313,0.641,0.313,1.157c0,0.732-0.275,1.271-0.836,1.611c-0.684,0.42-1.18,0.789-1.482,1.106
		c-0.313,0.316-0.523,0.713-0.646,1.187s-0.193,1.185-0.221,2.131c-0.023,0.947-0.051,2.134-0.08,3.56
		c-0.029,1.349-0.461,2.43-1.297,3.246c-0.834,0.814-1.945,1.223-3.332,1.223c-0.688,0-1.209-0.151-1.574-0.454
		c-0.367-0.304-0.549-0.742-0.549-1.317c0-0.322,0.059-0.619,0.176-0.887s0.271-0.477,0.461-0.623s0.408-0.234,0.652-0.264
		c0.438-0.059,0.766-0.133,0.979-0.221s0.381-0.254,0.49-0.498c0.113-0.244,0.188-0.603,0.221-1.076
		c0.033-0.475,0.055-1.165,0.055-2.073c0.02-1.349,0.098-2.401,0.23-3.164c0.139-0.762,0.396-1.416,0.775-1.963
		C29.412,26.983,29.973,26.475,30.715,26.006z"/>
	<path display="none" fill="#1EDCDC" d="M31.633,13.938v24.127c0,0.664-0.146,1.164-0.445,1.5c-0.301,0.338-0.688,0.506-1.162,0.506
		c-0.48,0-0.875-0.172-1.189-0.514c-0.313-0.342-0.469-0.84-0.469-1.494V13.937c0-0.653,0.156-1.151,0.469-1.493
		c0.313-0.343,0.708-0.514,1.189-0.514c0.479,0,0.863,0.173,1.162,0.521C31.482,12.798,31.633,13.293,31.633,13.938z"/>
	<path display="none" fill="#1EDCDC" d="M35.317,34.302l-1.025-2.695h-8.729l-1.025,2.754c-0.4,1.074-0.742,1.799-1.025,2.176
		c-0.283,0.375-0.747,0.563-1.392,0.563c-0.547,0-1.03-0.2-1.45-0.601c-0.42-0.402-0.63-0.854-0.63-1.363
		c0-0.293,0.049-0.596,0.146-0.907c0.097-0.312,0.259-0.747,0.483-1.304l5.493-13.945c0.156-0.4,0.344-0.881,0.564-1.443
		c0.22-0.561,0.454-1.027,0.703-1.398c0.249-0.367,0.576-0.672,0.981-0.896c0.405-0.229,0.906-0.345,1.501-0.345
		c0.605,0,1.111,0.11,1.515,0.345c0.406,0.229,0.732,0.521,0.981,0.889c0.249,0.359,0.459,0.75,0.63,1.166
		c0.172,0.412,0.389,0.969,0.652,1.658L39.3,32.812c0.439,1.055,0.66,1.818,0.66,2.3c0,0.498-0.209,0.954-0.623,1.37
		c-0.416,0.414-0.916,0.622-1.502,0.622c-0.342,0-0.635-0.063-0.879-0.187s-0.449-0.289-0.615-0.498
		c-0.166-0.211-0.344-0.533-0.534-0.967C35.617,35.017,35.454,34.634,35.317,34.302z M26.705,28.339h6.416l-3.237-8.861
		L26.705,28.339z"/>
	<path display="none" fill="#1EDCDC" d="M38.532,30.287c0,1.299-0.334,2.467-1.003,3.502c-0.669,1.033-1.648,1.846-2.937,2.434
		c-1.289,0.586-2.818,0.879-4.586,0.879c-2.118,0-3.866-0.398-5.243-1.201c-0.978-0.576-1.771-1.348-2.38-2.311
		c-0.61-0.961-0.916-1.896-0.916-2.805c0-0.527,0.183-0.979,0.549-1.354s0.833-0.563,1.398-0.563c0.459,0,0.848,0.146,1.165,0.439
		c0.318,0.293,0.588,0.728,0.813,1.304c0.272,0.686,0.568,1.254,0.886,1.713s0.764,0.84,1.34,1.139
		c0.576,0.297,1.333,0.443,2.271,0.443c1.289,0,2.336-0.299,3.143-0.898c0.806-0.602,1.208-1.352,1.208-2.248
		c0-0.713-0.218-1.291-0.652-1.734c-0.435-0.441-0.995-0.783-1.685-1.02c-0.689-0.233-1.609-0.481-2.761-0.748
		c-1.543-0.358-2.834-0.781-3.875-1.268c-1.04-0.482-1.865-1.143-2.477-1.979c-0.609-0.834-0.916-1.871-0.916-3.111
		c0-1.182,0.322-2.23,0.968-3.148c0.645-0.918,1.576-1.623,2.798-2.117c1.221-0.489,2.655-0.736,4.307-0.736
		c1.317,0,2.458,0.163,3.42,0.488c0.962,0.326,1.76,0.765,2.396,1.306c0.635,0.543,1.099,1.108,1.392,1.707
		c0.293,0.597,0.438,1.177,0.438,1.742c0,0.519-0.183,0.981-0.549,1.397c-0.365,0.413-0.822,0.621-1.369,0.621
		c-0.498,0-0.877-0.123-1.136-0.373c-0.259-0.248-0.54-0.656-0.842-1.224c-0.392-0.812-0.859-1.442-1.406-1.896
		c-0.547-0.455-1.426-0.686-2.637-0.686c-1.123,0-2.029,0.246-2.717,0.74c-0.688,0.488-1.033,1.086-1.033,1.775
		c0,0.434,0.117,0.801,0.352,1.113c0.235,0.313,0.558,0.581,0.968,0.807c0.41,0.228,0.825,0.399,1.245,0.526
		s1.112,0.313,2.079,0.558c1.211,0.283,2.307,0.599,3.289,0.938c0.982,0.343,1.816,0.757,2.506,1.245
		c0.688,0.486,1.226,1.104,1.61,1.854C38.339,28.287,38.532,29.203,38.532,30.287z"/>
	<path display="none" fill="#1EDCDC" d="M23.49,15.266h5.669c1.476,0,2.739,0.137,3.794,0.41c1.055,0.271,2.012,0.785,2.871,1.537
		c2.236,1.911,3.354,4.821,3.354,8.729c0,1.289-0.111,2.466-0.336,3.527c-0.226,1.064-0.572,2.023-1.041,2.879
		c-0.469,0.854-1.068,1.619-1.802,2.293c-0.575,0.52-1.206,0.936-1.89,1.244c-0.684,0.313-1.418,0.533-2.205,0.66
		s-1.672,0.189-2.659,0.189h-5.669c-0.791,0-1.387-0.119-1.787-0.359c-0.4-0.238-0.662-0.576-0.784-1.01
		c-0.122-0.438-0.183-1-0.183-1.691V17.926c0-0.938,0.21-1.613,0.63-2.035C21.872,15.473,22.553,15.266,23.49,15.266z
		 M25.176,18.708v14.575h3.295c0.724,0,1.289-0.02,1.699-0.059s0.836-0.137,1.274-0.293s0.819-0.377,1.143-0.658
		c1.455-1.23,2.183-3.352,2.183-6.358c0-2.118-0.319-3.706-0.959-4.761c-0.639-1.055-1.428-1.727-2.365-2.014
		c-0.938-0.289-2.07-0.437-3.398-0.437L25.176,18.708L25.176,18.708z"/>
	<path display="none" fill="#1EDCDC" d="M35.434,18.437h-8.568v5.493h7.162c0.664,0,1.16,0.148,1.487,0.447
		c0.327,0.297,0.491,0.695,0.491,1.193c0,0.494-0.166,0.894-0.498,1.187s-0.825,0.438-1.479,0.438h-7.163v7.072
		c0,0.896-0.203,1.563-0.608,2c-0.404,0.438-0.925,0.65-1.56,0.65c-0.646,0-1.169-0.223-1.575-0.658
		c-0.406-0.438-0.608-1.104-0.608-1.992V17.746c0-0.625,0.094-1.135,0.278-1.53c0.187-0.396,0.477-0.685,0.872-0.863
		c0.396-0.183,0.901-0.271,1.516-0.271h10.254c0.693,0,1.208,0.154,1.546,0.461c0.336,0.312,0.504,0.714,0.504,1.209
		c0,0.511-0.168,0.916-0.504,1.226C36.642,18.283,36.127,18.437,35.434,18.437z"/>
	<path display="none" fill="#1EDCDC" d="M40.248,28.007v4.117c0,0.547-0.054,0.982-0.161,1.313
		c-0.104,0.324-0.305,0.621-0.593,0.886s-0.657,0.519-1.106,0.763c-1.299,0.702-2.549,1.217-3.75,1.537
		c-1.197,0.322-2.51,0.483-3.926,0.483c-1.646,0-3.153-0.254-4.512-0.763c-1.359-0.508-2.515-1.246-3.472-2.213
		c-0.957-0.969-1.692-2.141-2.205-3.518c-0.517-1.377-0.771-2.915-0.771-4.611c0-1.673,0.249-3.199,0.747-4.588
		c0.498-1.387,1.23-2.563,2.197-3.527s2.144-1.707,3.53-2.223c1.387-0.512,2.959-0.769,4.717-0.769c1.442,0,2.725,0.19,3.838,0.577
		s2.017,0.871,2.71,1.457c0.692,0.586,1.216,1.205,1.564,1.859c0.354,0.653,0.526,1.234,0.526,1.742
		c0,0.547-0.203,1.016-0.604,1.396c-0.405,0.389-0.895,0.58-1.458,0.58c-0.313,0-0.613-0.072-0.901-0.223
		c-0.288-0.146-0.53-0.352-0.725-0.613c-0.537-0.841-0.991-1.477-1.362-1.902c-0.371-0.428-0.872-0.791-1.501-1.084
		s-1.437-0.439-2.41-0.439c-1.006,0-1.904,0.176-2.695,0.521c-0.791,0.348-1.467,0.85-2.025,1.51
		c-0.563,0.658-0.991,1.467-1.289,2.424c-0.299,0.957-0.447,2.018-0.447,3.18c0,2.521,0.579,4.457,1.736,5.814
		c1.153,1.357,2.771,2.036,4.841,2.036c1.006,0,1.951-0.132,2.834-0.396c0.883-0.268,1.78-0.644,2.688-1.131V28.72h-3.367
		c-0.813,0-1.425-0.121-1.84-0.365s-0.622-0.659-0.622-1.245c0-0.479,0.176-0.874,0.521-1.187c0.347-0.313,0.818-0.473,1.414-0.473
		h4.937c0.605,0,1.118,0.057,1.538,0.161s0.763,0.351,1.021,0.722C40.117,26.708,40.248,27.265,40.248,28.007z"/>
	<path display="none" fill="#1EDCDC" d="M25.301,17.537v6.152h9.394v-6.152c0-0.879,0.194-1.538,0.593-1.978
		c0.396-0.44,0.916-0.659,1.561-0.659c0.653,0,1.187,0.218,1.592,0.651c0.401,0.436,0.604,1.097,0.604,1.981v16.919
		c0,0.893-0.204,1.557-0.614,1.992c-0.407,0.438-0.938,0.658-1.581,0.658c-0.651,0-1.178-0.225-1.564-0.668
		c-0.393-0.441-0.586-1.104-0.586-1.982V27.23h-9.394v7.222c0,0.893-0.202,1.557-0.611,1.992c-0.41,0.438-0.938,0.658-1.582,0.658
		c-0.654,0-1.179-0.225-1.567-0.668c-0.391-0.441-0.586-1.104-0.586-1.982V17.533c0-0.879,0.193-1.538,0.579-1.979
		c0.386-0.438,0.911-0.656,1.575-0.656c0.651,0,1.184,0.218,1.589,0.648C25.098,15.987,25.301,16.648,25.301,17.537z"/>
	<path display="none" fill="#1EDCDC" d="M37.129,17.533v11.25c0,0.978-0.041,1.808-0.125,2.49c-0.082,0.685-0.271,1.377-0.564,2.08
		c-0.484,1.182-1.293,2.103-2.416,2.761c-1.124,0.66-2.49,0.989-4.103,0.989c-1.455,0-2.668-0.229-3.645-0.688
		c-0.971-0.459-1.755-1.201-2.351-2.227c-0.313-0.547-0.566-1.178-0.762-1.891c-0.196-0.713-0.293-1.395-0.293-2.035
		c0-0.688,0.188-1.207,0.567-1.567s0.869-0.542,1.466-0.542c0.575,0,1.014,0.166,1.307,0.498s0.518,0.85,0.674,1.553
		c0.166,0.752,0.332,1.354,0.498,1.803c0.166,0.448,0.441,0.834,0.835,1.156c0.391,0.322,0.947,0.483,1.67,0.483
		c1.924,0,2.886-1.411,2.886-4.233v-11.88c0-0.879,0.192-1.538,0.58-1.978c0.385-0.439,0.91-0.659,1.574-0.659
		c0.674,0,1.209,0.22,1.604,0.659C36.932,15.995,37.129,16.654,37.129,17.533z"/>
	<path display="none" fill="#1EDCDC" d="M25.199,17.533v7.529l8.54-8.906c0.41-0.43,0.764-0.747,1.047-0.952
		c0.289-0.205,0.676-0.308,1.15-0.308c0.625,0,1.131,0.183,1.516,0.55c0.391,0.365,0.58,0.813,0.58,1.34
		c0,0.635-0.328,1.266-0.979,1.891l-5.289,5.013l6.094,8.729c0.43,0.604,0.752,1.135,0.967,1.588
		c0.217,0.455,0.322,0.896,0.322,1.326c0,0.479-0.188,0.896-0.563,1.244c-0.377,0.354-0.889,0.527-1.529,0.527
		c-0.605,0-1.104-0.131-1.48-0.389c-0.381-0.262-0.703-0.604-0.967-1.033s-0.498-0.818-0.703-1.172l-5.141-7.91L25.2,30.012v4.439
		c0,0.895-0.205,1.563-0.611,2c-0.41,0.436-0.938,0.65-1.582,0.65c-0.371,0-0.729-0.1-1.069-0.295
		c-0.34-0.193-0.604-0.459-0.791-0.791c-0.137-0.271-0.22-0.592-0.249-0.949c-0.029-0.361-0.044-0.887-0.044-1.568V17.532
		c0-0.879,0.193-1.538,0.578-1.979c0.387-0.438,0.911-0.656,1.575-0.656c0.65,0,1.185,0.218,1.589,0.648
		C24.996,15.983,25.199,16.644,25.199,17.533z"/>
	<path display="none" fill="#1EDCDC" d="M26.678,17.716v15.629h8.814c0.703,0,1.244,0.172,1.619,0.514
		c0.377,0.346,0.563,0.771,0.563,1.289c0,0.527-0.188,0.953-0.559,1.281c-0.371,0.326-0.914,0.49-1.627,0.49H24.992
		c-0.947,0-1.629-0.209-2.043-0.629c-0.416-0.42-0.623-1.1-0.623-2.037V17.716c0-0.879,0.197-1.538,0.594-1.978
		c0.397-0.44,0.915-0.659,1.563-0.659c0.65,0,1.185,0.218,1.589,0.651C26.476,16.167,26.678,16.828,26.678,17.716z"/>
	<path display="none" fill="#1EDCDC" d="M27.793,20.051c0-0.692,0.217-1.229,0.648-1.61c0.437-0.381,0.959-0.568,1.574-0.568
		c0.596,0,1.109,0.189,1.539,0.578c0.43,0.387,0.646,0.921,0.646,1.604c0,0.549-0.234,1.051-0.703,1.51
		c-0.473,0.459-0.98,0.688-1.524,0.688c-0.596,0-1.104-0.22-1.538-0.659C28.008,21.149,27.793,20.638,27.793,20.051z M30.02,34.128
		c-0.604,0-1.128-0.195-1.563-0.586c-0.439-0.391-0.659-0.938-0.659-1.641c0-0.596,0.21-1.108,0.63-1.539
		c0.42-0.43,0.938-0.646,1.553-0.646s1.143,0.214,1.575,0.64c0.434,0.426,0.652,0.938,0.652,1.545c0,0.691-0.223,1.238-0.652,1.635
		C31.117,33.931,30.606,34.128,30.02,34.128z"/>
	<path display="none" fill="#1EDCDC" d="M26.809,25.984h0.205c0.557,0,1.057,0.213,1.502,0.638c0.439,0.425,0.666,0.954,0.666,1.589
		c0,0.625-0.227,1.141-0.666,1.546c-0.445,0.405-0.994,0.608-1.648,0.608c-0.713,0-1.307-0.286-1.779-0.857
		c-0.475-0.57-0.711-1.385-0.711-2.439c0-0.967,0.207-1.868,0.623-2.717c0.414-0.845,0.922-1.514,1.523-2.006
		c0.6-0.494,1.135-0.74,1.604-0.74c0.313,0,0.561,0.096,0.732,0.277c0.175,0.186,0.264,0.426,0.264,0.719
		c0,0.434-0.188,0.746-0.571,0.951c-0.518,0.283-0.928,0.615-1.229,0.996S26.848,25.408,26.809,25.984z M33.283,25.984h0.19
		c0.547,0,1.042,0.213,1.483,0.638c0.443,0.425,0.666,0.954,0.666,1.589c0,0.615-0.223,1.133-0.666,1.553
		c-0.441,0.42-0.994,0.631-1.646,0.631c-0.727,0-1.318-0.293-1.787-0.879s-0.703-1.398-0.703-2.447c0-0.752,0.122-1.459,0.366-2.119
		c0.244-0.664,0.56-1.243,0.94-1.736c0.391-0.49,0.805-0.884,1.246-1.172c0.443-0.288,0.844-0.436,1.193-0.436
		c0.322,0,0.567,0.094,0.74,0.271c0.17,0.182,0.256,0.423,0.256,0.727c0,0.438-0.19,0.756-0.571,0.951
		c-0.537,0.303-0.94,0.637-1.216,1.004C33.506,24.924,33.342,25.398,33.283,25.984z"/>
	<path display="none" fill="#1EDCDC" d="M22.193,31.728l11.029-13.198h-9.478c-0.664,0-1.165-0.146-1.501-0.438
		s-0.505-0.68-0.505-1.158c0-0.494,0.168-0.896,0.505-1.209c0.337-0.307,0.837-0.461,1.501-0.461h12.217
		c1.582,0,2.373,0.738,2.373,2.216c0,0.7-0.132,1.265-0.396,1.685c-0.264,0.42-0.795,1.102-1.597,2.036L26.029,33.472h11.366
		c0.674,0,1.178,0.143,1.51,0.416c0.332,0.279,0.498,0.668,0.498,1.166c0,0.521-0.166,0.931-0.498,1.229
		c-0.332,0.3-0.834,0.454-1.506,0.454H23.454c-0.947,0-1.66-0.213-2.139-0.637c-0.479-0.426-0.719-0.994-0.719-1.707
		c0-0.244,0.039-0.469,0.117-0.674s0.184-0.398,0.315-0.578c0.132-0.182,0.314-0.41,0.549-0.689
		C21.813,32.175,22.019,31.933,22.193,31.728z"/>
	<path display="none" fill="#1EDCDC" d="M22.565,32.563l4.805-7.017l-4.043-6.24c-0.381-0.605-0.667-1.125-0.857-1.563
		c-0.19-0.434-0.286-0.853-0.286-1.252c0-0.407,0.183-0.776,0.549-1.104c0.366-0.328,0.813-0.489,1.34-0.489
		c0.605,0,1.077,0.179,1.414,0.532c0.337,0.355,0.803,1.021,1.399,1.983l3.223,5.216l3.441-5.216
		c0.283-0.438,0.525-0.813,0.726-1.128c0.2-0.313,0.394-0.57,0.579-0.775s0.393-0.355,0.623-0.461
		c0.229-0.104,0.496-0.151,0.798-0.151c0.547,0,0.993,0.161,1.34,0.489c0.347,0.326,0.521,0.717,0.521,1.164
		c0,0.652-0.377,1.543-1.129,2.666l-4.232,6.328l4.556,7.019c0.41,0.613,0.708,1.127,0.894,1.529
		c0.187,0.404,0.279,0.789,0.279,1.148c0,0.344-0.084,0.654-0.25,0.938c-0.166,0.285-0.4,0.51-0.703,0.676s-0.645,0.25-1.024,0.25
		c-0.41,0-0.757-0.086-1.04-0.258s-0.514-0.385-0.688-0.639c-0.176-0.256-0.504-0.748-0.981-1.479l-3.779-5.947l-4.014,6.123
		c-0.313,0.486-0.535,0.83-0.667,1.023c-0.132,0.193-0.291,0.387-0.476,0.568c-0.185,0.189-0.405,0.332-0.659,0.439
		c-0.254,0.104-0.552,0.162-0.894,0.162c-0.527,0-0.964-0.162-1.311-0.484c-0.347-0.318-0.52-0.791-0.52-1.402
		C21.495,34.492,21.852,33.607,22.565,32.563z"/>
	<path display="none" fill="#1EDCDC" d="M39.572,29.957c0,0.684-0.168,1.422-0.506,2.219c-0.336,0.795-0.867,1.576-1.588,2.348
		c-0.723,0.766-1.646,1.389-2.77,1.863c-1.123,0.48-2.432,0.723-3.926,0.723c-1.133,0-2.163-0.107-3.091-0.322
		s-1.77-0.551-2.527-1.004c-0.757-0.455-1.453-1.053-2.087-1.795c-0.565-0.674-1.05-1.432-1.45-2.268
		c-0.399-0.834-0.7-1.725-0.9-2.672c-0.2-0.945-0.3-1.953-0.3-3.019c0-1.729,0.251-3.276,0.754-4.644
		c0.503-1.369,1.223-2.537,2.161-3.508c0.938-0.977,2.035-1.716,3.296-2.224c1.26-0.508,2.603-0.765,4.027-0.765
		c1.738,0,3.285,0.35,4.645,1.039c1.357,0.693,2.396,1.555,3.119,2.57c0.723,1.021,1.084,1.985,1.084,2.896
		c0,0.498-0.176,0.938-0.527,1.316c-0.35,0.377-0.775,0.569-1.273,0.569c-0.557,0-0.975-0.132-1.252-0.396
		c-0.277-0.265-0.588-0.717-0.93-1.359c-0.566-1.063-1.232-1.857-2-2.391c-0.767-0.525-1.711-0.789-2.834-0.789
		c-1.787,0-3.21,0.68-4.27,2.035c-1.061,1.355-1.589,3.285-1.589,5.785c0,1.67,0.233,3.063,0.702,4.168
		c0.47,1.107,1.134,1.938,1.992,2.482c0.859,0.543,1.865,0.818,3.019,0.818c1.25,0,2.307-0.313,3.171-0.932
		c0.863-0.619,1.516-1.529,1.955-2.73c0.186-0.564,0.416-1.027,0.688-1.385c0.273-0.356,0.713-0.535,1.318-0.535
		c0.518,0,0.963,0.183,1.334,0.543C39.389,28.959,39.572,29.42,39.572,29.957z"/>
	<path display="none" fill="#1EDCDC" d="M25.219,17.76l4.861,14.399l4.878-14.502c0.254-0.763,0.444-1.292,0.571-1.589
		c0.127-0.299,0.337-0.566,0.63-0.807c0.293-0.238,0.693-0.358,1.201-0.358c0.371,0,0.715,0.093,1.033,0.278
		c0.316,0.185,0.564,0.432,0.747,0.736c0.181,0.311,0.271,0.617,0.271,0.934c0,0.215-0.029,0.443-0.088,0.691
		c-0.059,0.25-0.132,0.494-0.22,0.732c-0.088,0.236-0.176,0.482-0.266,0.736L33.64,33.045c-0.188,0.537-0.371,1.047-0.559,1.531
		c-0.186,0.482-0.398,0.908-0.645,1.273c-0.244,0.367-0.569,0.666-0.976,0.897c-0.403,0.234-0.899,0.354-1.485,0.354
		s-1.082-0.114-1.487-0.349c-0.405-0.229-0.732-0.528-0.98-0.905c-0.25-0.375-0.467-0.803-0.651-1.28
		c-0.188-0.479-0.371-0.986-0.558-1.523l-5.111-13.916c-0.088-0.254-0.179-0.503-0.271-0.745c-0.093-0.244-0.171-0.51-0.232-0.791
		c-0.063-0.283-0.095-0.521-0.095-0.72c0-0.498,0.199-0.951,0.601-1.36c0.399-0.41,0.901-0.613,1.509-0.613
		c0.742,0,1.267,0.228,1.575,0.681C24.581,16.039,24.896,16.764,25.219,17.76z"/>
	<path display="none" fill="#1EDCDC" d="M30.273,36.737h-6.562c-0.947,0-1.624-0.213-2.029-0.637
		c-0.405-0.426-0.604-1.102-0.604-2.029V17.929c0-0.947,0.208-1.629,0.619-2.043c0.416-0.416,1.09-0.623,2.018-0.623h6.957
		c1.023,0,1.914,0.063,2.666,0.188s1.426,0.371,2.021,0.73c0.512,0.305,0.957,0.688,1.352,1.147
		c0.391,0.466,0.688,0.979,0.893,1.539c0.205,0.562,0.311,1.154,0.311,1.779c0,2.147-1.072,3.721-3.225,4.717
		c2.822,0.897,4.232,2.646,4.232,5.244c0,1.2-0.311,2.282-0.922,3.244c-0.615,0.963-1.445,1.673-2.49,2.132
		c-0.654,0.271-1.406,0.466-2.256,0.579C32.398,36.679,31.406,36.737,30.273,36.737z M25.426,18.529v5.552h3.984
		c1.084,0,1.92-0.103,2.512-0.308c0.59-0.205,1.041-0.597,1.354-1.173c0.244-0.409,0.365-0.868,0.365-1.377
		c0-1.084-0.385-1.803-1.156-2.16c-0.771-0.355-1.945-0.534-3.527-0.534H25.426L25.426,18.529z M29.951,27.201h-4.525v6.271h4.672
		c2.939,0,4.41-1.061,4.41-3.18c0-1.084-0.381-1.869-1.143-2.354C32.602,27.446,31.465,27.201,29.951,27.201z"/>
	<path display="none" fill="#1EDCDC" d="M26.627,17.504l8.363,12.655V17.387c0-0.83,0.178-1.452,0.535-1.868
		c0.354-0.414,0.838-0.622,1.443-0.622c0.625,0,1.113,0.208,1.479,0.622c0.361,0.415,0.541,1.038,0.541,1.868v16.89
		c0,1.885-0.781,2.827-2.344,2.827c-0.395,0-0.742-0.06-1.059-0.169c-0.313-0.111-0.604-0.29-0.879-0.534
		c-0.27-0.244-0.523-0.53-0.762-0.855c-0.234-0.328-0.469-0.662-0.703-1.004L25.084,22.03v12.583c0,0.82-0.188,1.439-0.567,1.859
		c-0.385,0.421-0.869,0.631-1.469,0.631c-0.611,0-1.104-0.213-1.479-0.641c-0.371-0.425-0.558-1.039-0.558-1.854V18.045
		c0-0.703,0.075-1.256,0.231-1.654c0.188-0.439,0.493-0.799,0.923-1.077c0.434-0.277,0.896-0.417,1.396-0.417
		c0.391,0,0.725,0.063,1.004,0.189c0.274,0.127,0.521,0.299,0.729,0.514s0.425,0.492,0.646,0.834
		C26.165,16.775,26.393,17.133,26.627,17.504z"/>
	<path display="none" fill="#1EDCDC" d="M27.08,33.316l-3.438-13.683v14.823c0,0.82-0.188,1.436-0.552,1.846
		s-0.854,0.615-1.459,0.615c-0.586,0-1.063-0.201-1.436-0.607c-0.371-0.404-0.557-1.021-0.557-1.854V17.466
		c0-0.938,0.244-1.569,0.729-1.897c0.488-0.326,1.147-0.49,1.979-0.49h1.348c0.813,0,1.398,0.074,1.768,0.224
		c0.363,0.146,0.639,0.41,0.813,0.791s0.376,1.001,0.601,1.856l3.12,11.766l3.121-11.766c0.229-0.855,0.424-1.479,0.604-1.856
		c0.176-0.384,0.443-0.646,0.813-0.791s0.955-0.224,1.768-0.224h1.35c0.83,0,1.49,0.164,1.979,0.49
		c0.488,0.328,0.732,0.961,0.732,1.897v16.991c0,0.82-0.184,1.436-0.551,1.846c-0.365,0.41-0.855,0.615-1.475,0.615
		c-0.572,0-1.051-0.205-1.422-0.615s-0.557-1.023-0.557-1.846V19.634l-3.441,13.683c-0.225,0.889-0.404,1.539-0.551,1.955
		c-0.141,0.414-0.4,0.793-0.783,1.135c-0.381,0.346-0.906,0.516-1.582,0.516c-0.508,0-0.938-0.109-1.289-0.328
		c-0.352-0.221-0.625-0.502-0.816-0.846c-0.195-0.342-0.354-0.721-0.461-1.137C27.312,34.197,27.197,33.764,27.08,33.316z"/>
	<path display="none" fill="#1EDCDC" d="M37.368,30.016v4.145l-14.736-6.389v-3.545l14.736-6.387v4.175l-10.271,3.955L37.368,30.016
		z"/>
	<path display="none" fill="#1EDCDC" d="M37.368,27.729l-14.736,6.416v-4.146l10.298-4.043l-10.298-3.984v-4.116l14.736,6.356
		V27.729z"/>
	<path display="none" fill="#1EDCDC" d="M22.674,21.034c0-0.932,0.302-1.867,0.896-2.82c0.596-0.951,1.465-1.74,2.604-2.365
		c1.146-0.625,2.479-0.938,3.999-0.938c1.416,0,2.666,0.262,3.751,0.783c1.084,0.521,1.924,1.229,2.516,2.131
		c0.59,0.896,0.887,1.875,0.887,2.931c0,0.83-0.17,1.558-0.506,2.183c-0.338,0.625-0.738,1.164-1.201,1.619
		c-0.465,0.453-1.297,1.219-2.498,2.292c-0.332,0.304-0.598,0.569-0.799,0.798c-0.199,0.23-0.35,0.439-0.446,0.631
		c-0.098,0.189-0.173,0.381-0.228,0.57c-0.057,0.191-0.138,0.525-0.241,1.004c-0.188,1.016-0.769,1.523-1.743,1.523
		c-0.508,0-0.936-0.166-1.281-0.498c-0.348-0.332-0.521-0.825-0.521-1.479c0-0.82,0.127-1.531,0.381-2.136
		c0.254-0.601,0.591-1.127,1.011-1.582c0.42-0.45,0.986-0.989,1.699-1.614c0.625-0.551,1.076-0.961,1.354-1.238
		c0.276-0.278,0.515-0.588,0.703-0.93c0.189-0.346,0.285-0.717,0.285-1.113c0-0.781-0.291-1.44-0.872-1.979
		c-0.582-0.537-1.331-0.806-2.249-0.806c-1.071,0-1.862,0.271-2.373,0.813c-0.508,0.54-0.938,1.34-1.289,2.396
		c-0.332,1.104-0.962,1.652-1.89,1.652c-0.547,0-1.008-0.189-1.385-0.578C22.862,21.901,22.674,21.483,22.674,21.034z
		 M29.822,37.089c-0.596,0-1.116-0.193-1.563-0.578c-0.441-0.387-0.667-0.926-0.667-1.619c0-0.615,0.219-1.133,0.646-1.553
		s0.957-0.631,1.582-0.631c0.615,0,1.133,0.211,1.553,0.631s0.63,0.938,0.63,1.553c0,0.684-0.22,1.221-0.659,1.611
		C30.907,36.893,30.398,37.089,29.822,37.089z"/>
	<g>
	</g>
	<g>
	</g>
	<g>
	</g>
	<g>
	</g>
	<g>
	</g>
	<g>
	</g>
	<g>
	</g>
	<g>
	</g>
	<g>
	</g>
	<g>
	</g>
	<g>
	</g>
	<g>
	</g>
	<g>
	</g>
	<g>
	</g>
	<g>
	</g>
</g>
</svg>
