<?xml version="1.0" encoding="utf-8"?>
<!-- Generator: Adobe Illustrator 16.0.0, SVG Export Plug-In . SVG Version: 6.00 Build 0)  -->
<!DOCTYPE svg PUBLIC "-//W3C//DTD SVG 1.1//EN" "http://www.w3.org/Graphics/SVG/1.1/DTD/svg11.dtd">
<svg version="1.1" id="레이어_1" xmlns="http://www.w3.org/2000/svg" xmlns:xlink="http://www.w3.org/1999/xlink" x="0px"
	 y="0px" width="60px" height="26px" viewBox="0 0 60 26" enable-background="new 0 0 60 26" xml:space="preserve">
<path fill="#1EDCDC" d="M28.316,9.25h-4.285v2.747h3.582c0.332,0,0.58,0.075,0.743,0.224c0.163,0.149,0.246,0.348,0.246,0.597
	s-0.083,0.447-0.249,0.594c-0.166,0.146-0.413,0.22-0.74,0.22h-3.582v3.538c0,0.449-0.102,0.783-0.304,1
	c-0.203,0.217-0.462,0.326-0.78,0.326c-0.317,0-0.585-0.11-0.788-0.33c-0.201-0.221-0.304-0.553-0.304-0.996V8.907
	c0-0.313,0.046-0.567,0.141-0.767c0.096-0.197,0.236-0.341,0.438-0.432c0.197-0.09,0.45-0.136,0.758-0.136h5.127
	c0.352,0,0.604,0.076,0.772,0.229c0.169,0.154,0.253,0.355,0.253,0.604c0,0.254-0.084,0.458-0.253,0.61
	C28.92,9.173,28.663,9.25,28.316,9.25z"/>
<path fill="#1EDCDC" d="M32.506,12.502c0.332-0.396,0.688-0.688,1.084-0.879c0.391-0.191,0.828-0.286,1.311-0.286
	c0.464,0,0.896,0.087,1.285,0.26c0.394,0.174,0.736,0.42,1.033,0.74c0.295,0.32,0.521,0.697,0.684,1.131
	c0.162,0.435,0.242,0.89,0.242,1.361c0,0.688-0.158,1.313-0.471,1.875c-0.316,0.563-0.756,1-1.318,1.315
	c-0.563,0.313-1.203,0.472-1.916,0.472c-0.819,0-1.528-0.199-2.125-0.601c-0.596-0.402-1.051-0.994-1.365-1.776
	c-0.313-0.783-0.473-1.742-0.473-2.874c0-0.924,0.094-1.748,0.286-2.477c0.189-0.728,0.465-1.331,0.82-1.809
	c0.354-0.479,0.789-0.84,1.297-1.084c0.506-0.244,1.086-0.366,1.73-0.366c0.625,0,1.18,0.122,1.651,0.366s0.837,0.547,1.076,0.907
	c0.242,0.361,0.358,0.708,0.358,1.04c0,0.2-0.071,0.383-0.227,0.546c-0.152,0.163-0.344,0.245-0.58,0.245
	c-0.205,0-0.396-0.063-0.57-0.193c-0.176-0.13-0.305-0.31-0.389-0.539c-0.111-0.293-0.291-0.528-0.535-0.707
	C35.15,8.99,34.874,8.9,34.545,8.9c-0.26,0-0.518,0.075-0.773,0.225c-0.254,0.148-0.471,0.35-0.645,0.604
	C32.779,10.251,32.568,11.174,32.506,12.502z M34.482,17.05c0.494,0,0.901-0.2,1.223-0.604c0.322-0.4,0.484-0.93,0.484-1.584
	c0-0.443-0.076-0.825-0.228-1.146c-0.151-0.32-0.358-0.564-0.623-0.732c-0.271-0.169-0.56-0.253-0.873-0.253
	c-0.305,0-0.592,0.081-0.866,0.242c-0.277,0.161-0.498,0.396-0.668,0.7c-0.168,0.305-0.252,0.663-0.252,1.073
	c0,0.657,0.172,1.207,0.514,1.647C33.535,16.832,33.965,17.05,34.482,17.05z"/>
</svg>
