<?xml version="1.0" encoding="utf-8"?>
<!-- Generator: Adobe Illustrator 16.0.0, SVG Export Plug-In . SVG Version: 6.00 Build 0)  -->
<!DOCTYPE svg PUBLIC "-//W3C//DTD SVG 1.1//EN" "http://www.w3.org/Graphics/SVG/1.1/DTD/svg11.dtd">
<svg version="1.1" id="레이어_1" xmlns="http://www.w3.org/2000/svg" xmlns:xlink="http://www.w3.org/1999/xlink" x="0px"
	 y="0px" width="60px" height="52px" viewBox="0 0 60 52" enable-background="new 0 0 60 52" xml:space="preserve">
<path fill="#1EDCDC" d="M26.627,17.504l8.363,12.655V17.387c0-0.83,0.178-1.452,0.535-1.868c0.354-0.414,0.838-0.622,1.442-0.622
	c0.625,0,1.113,0.208,1.479,0.622c0.361,0.415,0.541,1.038,0.541,1.868v16.89c0,1.885-0.781,2.826-2.344,2.826
	c-0.396,0-0.742-0.06-1.06-0.168c-0.313-0.111-0.604-0.291-0.879-0.535c-0.271-0.243-0.522-0.529-0.763-0.854
	c-0.233-0.328-0.469-0.662-0.702-1.004L25.084,22.03v12.583c0,0.82-0.188,1.438-0.567,1.859c-0.385,0.42-0.869,0.631-1.469,0.631
	c-0.611,0-1.104-0.213-1.479-0.642c-0.371-0.425-0.558-1.039-0.558-1.854V18.045c0-0.703,0.075-1.256,0.231-1.654
	c0.188-0.439,0.493-0.799,0.923-1.077c0.434-0.277,0.896-0.417,1.396-0.417c0.391,0,0.725,0.063,1.004,0.189
	c0.274,0.127,0.521,0.299,0.729,0.514c0.208,0.215,0.425,0.492,0.646,0.834C26.165,16.775,26.393,17.133,26.627,17.504z"/>
</svg>
