<?xml version="1.0" encoding="utf-8"?>
<!-- Generator: Adobe Illustrator 16.0.0, SVG Export Plug-In . SVG Version: 6.00 Build 0)  -->
<!DOCTYPE svg PUBLIC "-//W3C//DTD SVG 1.1//EN" "http://www.w3.org/Graphics/SVG/1.1/DTD/svg11.dtd">
<svg version="1.1" id="레이어_1" xmlns="http://www.w3.org/2000/svg" xmlns:xlink="http://www.w3.org/1999/xlink" x="0px"
	 y="0px" width="60px" height="52px" viewBox="0 0 60 52" enable-background="new 0 0 60 52" xml:space="preserve">
<path fill="#1EDCDC" d="M38.532,30.287c0,1.299-0.334,2.467-1.003,3.502c-0.67,1.033-1.648,1.846-2.938,2.434
	c-1.289,0.586-2.818,0.879-4.586,0.879c-2.118,0-3.866-0.397-5.243-1.201c-0.978-0.575-1.771-1.348-2.38-2.311
	c-0.61-0.961-0.916-1.896-0.916-2.805c0-0.527,0.183-0.979,0.549-1.354c0.366-0.375,0.833-0.563,1.398-0.563
	c0.459,0,0.848,0.146,1.165,0.438c0.318,0.293,0.588,0.729,0.813,1.305c0.272,0.686,0.568,1.254,0.886,1.713
	c0.318,0.459,0.764,0.84,1.34,1.139c0.576,0.297,1.333,0.443,2.271,0.443c1.289,0,2.335-0.299,3.143-0.898
	c0.806-0.602,1.208-1.352,1.208-2.248c0-0.713-0.219-1.291-0.652-1.734c-0.436-0.44-0.995-0.782-1.686-1.02
	c-0.688-0.232-1.608-0.48-2.76-0.748c-1.543-0.357-2.834-0.781-3.875-1.268c-1.04-0.482-1.865-1.143-2.477-1.979
	c-0.609-0.834-0.916-1.871-0.916-3.111c0-1.182,0.322-2.23,0.968-3.148c0.645-0.918,1.576-1.623,2.798-2.117
	c1.221-0.489,2.655-0.736,4.307-0.736c1.317,0,2.458,0.163,3.42,0.488c0.962,0.326,1.76,0.765,2.396,1.306
	c0.635,0.543,1.098,1.108,1.391,1.707c0.294,0.597,0.438,1.177,0.438,1.742c0,0.519-0.183,0.981-0.549,1.397
	c-0.364,0.413-0.821,0.621-1.369,0.621c-0.498,0-0.877-0.123-1.136-0.373c-0.26-0.248-0.54-0.656-0.842-1.224
	c-0.393-0.812-0.859-1.442-1.406-1.896c-0.547-0.455-1.426-0.686-2.637-0.686c-1.123,0-2.029,0.246-2.717,0.74
	c-0.688,0.488-1.033,1.086-1.033,1.775c0,0.434,0.117,0.801,0.352,1.113c0.235,0.313,0.558,0.581,0.968,0.807
	c0.41,0.228,0.825,0.399,1.245,0.526c0.42,0.127,1.112,0.313,2.079,0.558c1.211,0.283,2.308,0.599,3.289,0.938
	c0.981,0.343,1.815,0.757,2.506,1.245c0.688,0.486,1.226,1.104,1.61,1.854C38.339,28.287,38.532,29.203,38.532,30.287z"/>
</svg>
