<?xml version="1.0" encoding="utf-8"?>
<!-- Generator: Adobe Illustrator 16.0.0, SVG Export Plug-In . SVG Version: 6.00 Build 0)  -->
<!DOCTYPE svg PUBLIC "-//W3C//DTD SVG 1.1//EN" "http://www.w3.org/Graphics/SVG/1.1/DTD/svg11.dtd">
<svg version="1.1" id="레이어_1" xmlns="http://www.w3.org/2000/svg" xmlns:xlink="http://www.w3.org/1999/xlink" x="0px"
	 y="0px" width="60px" height="26px" viewBox="0 0 60 26" enable-background="new 0 0 60 26" xml:space="preserve">
<path fill="#1EDCDC" d="M23.866,9.249h-4.285v2.748h3.582c0.332,0,0.58,0.074,0.743,0.224c0.163,0.15,0.245,0.348,0.245,0.597
	s-0.082,0.447-0.248,0.594c-0.166,0.146-0.413,0.219-0.74,0.219h-3.582v3.539c0,0.449-0.102,0.783-0.304,1
	c-0.202,0.217-0.462,0.326-0.78,0.326c-0.317,0-0.584-0.11-0.787-0.33c-0.2-0.221-0.304-0.553-0.304-0.996V8.906
	c0-0.313,0.046-0.567,0.14-0.766c0.097-0.197,0.237-0.341,0.438-0.433c0.197-0.09,0.45-0.136,0.758-0.136h5.127
	c0.35,0,0.604,0.077,0.772,0.23c0.169,0.153,0.253,0.354,0.253,0.604c0,0.254-0.084,0.458-0.253,0.611
	C24.47,9.172,24.212,9.249,23.866,9.249z"/>
<path fill="#1EDCDC" d="M29.571,17.307v-6.665c-1.24,0.952-2.074,1.428-2.504,1.428c-0.205,0-0.388-0.082-0.547-0.244
	c-0.158-0.164-0.237-0.354-0.237-0.568c0-0.249,0.078-0.432,0.234-0.549c0.155-0.117,0.433-0.27,0.827-0.455
	c0.592-0.277,1.063-0.57,1.418-0.879c0.354-0.308,0.668-0.651,0.938-1.032c0.273-0.382,0.451-0.615,0.534-0.703
	c0.083-0.088,0.239-0.133,0.469-0.133c0.261,0,0.467,0.101,0.622,0.301c0.155,0.199,0.233,0.476,0.233,0.828v8.386
	c0,0.98-0.334,1.474-1.002,1.474c-0.298,0-0.537-0.101-0.718-0.302C29.66,17.993,29.571,17.695,29.571,17.307z"/>
<path fill="#1EDCDC" d="M37.598,16.581h3.82c0.385,0,0.676,0.078,0.871,0.233c0.199,0.156,0.305,0.369,0.305,0.638
	c0,0.237-0.08,0.44-0.238,0.606c-0.157,0.166-0.397,0.25-0.721,0.25h-5.396c-0.365,0-0.648-0.102-0.854-0.305
	c-0.205-0.203-0.313-0.441-0.313-0.715c0-0.176,0.066-0.408,0.197-0.699c0.133-0.29,0.274-0.52,0.434-0.686
	c0.648-0.674,1.234-1.25,1.76-1.731c0.521-0.479,0.896-0.798,1.117-0.948c0.4-0.283,0.734-0.566,1-0.854
	c0.271-0.285,0.475-0.578,0.607-0.879c0.141-0.301,0.209-0.595,0.209-0.883c0-0.313-0.074-0.592-0.226-0.838
	c-0.147-0.246-0.354-0.438-0.604-0.575c-0.258-0.137-0.537-0.205-0.84-0.205c-0.644,0-1.146,0.281-1.509,0.842
	c-0.053,0.073-0.133,0.273-0.245,0.602c-0.115,0.327-0.244,0.579-0.394,0.754c-0.146,0.175-0.354,0.265-0.636,0.265
	c-0.243,0-0.44-0.082-0.604-0.242c-0.16-0.161-0.242-0.381-0.242-0.659c0-0.337,0.076-0.688,0.229-1.056S35.705,8.8,36.01,8.501
	c0.301-0.298,0.682-0.539,1.143-0.721c0.462-0.184,1.002-0.275,1.623-0.275c0.746,0,1.386,0.117,1.912,0.353
	c0.342,0.156,0.642,0.371,0.898,0.645c0.26,0.274,0.461,0.59,0.605,0.949c0.145,0.358,0.215,0.731,0.215,1.117
	c0,0.605-0.146,1.156-0.449,1.652c-0.301,0.496-0.604,0.884-0.92,1.164c-0.313,0.28-0.836,0.723-1.566,1.321
	c-0.734,0.603-1.238,1.067-1.518,1.399C37.84,16.236,37.721,16.396,37.598,16.581z"/>
</svg>
