<?xml version="1.0" encoding="utf-8"?>
<!-- Generator: Adobe Illustrator 16.0.0, SVG Export Plug-In . SVG Version: 6.00 Build 0)  -->
<!DOCTYPE svg PUBLIC "-//W3C//DTD SVG 1.1//EN" "http://www.w3.org/Graphics/SVG/1.1/DTD/svg11.dtd">
<svg version="1.1" id="레이어_1" xmlns="http://www.w3.org/2000/svg" xmlns:xlink="http://www.w3.org/1999/xlink" x="0px"
	 y="0px" width="60px" height="52px" viewBox="0 0 60 52" enable-background="new 0 0 60 52" xml:space="preserve">
<path fill="#1EDCDC" d="M26.461,20.939H26.9v-2.402c0-0.645,0.017-1.15,0.051-1.516c0.034-0.366,0.129-0.681,0.286-0.945
	c0.155-0.273,0.381-0.496,0.674-0.667c0.293-0.171,0.62-0.256,0.981-0.256c0.508,0,0.967,0.19,1.377,0.571
	c0.271,0.254,0.445,0.564,0.52,0.93c0.075,0.366,0.109,0.886,0.109,1.56v2.725h1.466c0.563,0,0.999,0.134,1.296,0.403
	c0.297,0.269,0.447,0.613,0.447,1.033c0,0.537-0.213,0.913-0.64,1.128c-0.425,0.215-1.03,0.322-1.821,0.322h-0.748v7.354
	c0,0.625,0.021,1.104,0.064,1.441c0.044,0.338,0.161,0.609,0.354,0.82c0.189,0.209,0.5,0.313,0.931,0.313
	c0.233,0,0.552-0.041,0.952-0.125c0.398-0.082,0.713-0.125,0.938-0.125c0.322,0,0.613,0.129,0.872,0.39
	c0.259,0.258,0.39,0.578,0.39,0.959c0,0.645-0.354,1.138-1.057,1.479c-0.703,0.342-1.714,0.514-3.031,0.514
	c-1.25,0-2.195-0.211-2.843-0.631c-0.645-0.42-1.065-1-1.267-1.742c-0.2-0.742-0.3-1.732-0.3-2.974v-7.677h-0.527
	c-0.576,0-1.016-0.137-1.318-0.41c-0.302-0.273-0.454-0.62-0.454-1.04s0.159-0.764,0.478-1.033
	C25.399,21.07,25.856,20.939,26.461,20.939z"/>
</svg>
