<?xml version="1.0" encoding="utf-8"?>
<!-- Generator: Adobe Illustrator 16.0.0, SVG Export Plug-In . SVG Version: 6.00 Build 0)  -->
<!DOCTYPE svg PUBLIC "-//W3C//DTD SVG 1.1//EN" "http://www.w3.org/Graphics/SVG/1.1/DTD/svg11.dtd">
<svg version="1.1" id="레이어_1" xmlns="http://www.w3.org/2000/svg" xmlns:xlink="http://www.w3.org/1999/xlink" x="0px"
	 y="0px" width="60px" height="52px" viewBox="0 0 60 52" enable-background="new 0 0 60 52" xml:space="preserve">
<path fill="#1EDCDC" d="M26.391,25.004c0.664-0.791,1.391-1.377,2.168-1.758c0.781-0.381,1.655-0.571,2.623-0.571
	c0.933,0,1.785,0.173,2.57,0.521c0.787,0.347,1.477,0.84,2.066,1.479c0.589,0.639,1.047,1.395,1.369,2.263
	c0.319,0.869,0.479,1.777,0.479,2.727c0,1.377-0.313,2.627-0.944,3.75c-0.632,1.123-1.511,2-2.638,2.629
	c-1.129,0.629-2.403,0.945-3.832,0.945c-1.641,0-3.057-0.4-4.248-1.201c-1.188-0.803-2.102-1.985-2.729-3.553
	c-0.63-1.566-0.945-3.483-0.945-5.75c0-1.846,0.19-3.495,0.571-4.95c0.381-1.455,0.928-2.661,1.641-3.618s1.577-1.681,2.593-2.168
	c1.021-0.488,2.177-0.732,3.476-0.732c1.25,0,2.351,0.244,3.304,0.732c0.951,0.487,1.67,1.094,2.151,1.815
	c0.48,0.723,0.726,1.416,0.726,2.08c0,0.4-0.147,0.765-0.453,1.091c-0.303,0.327-0.688,0.491-1.157,0.491
	c-0.406,0-0.791-0.129-1.144-0.388c-0.354-0.259-0.608-0.618-0.774-1.077c-0.226-0.586-0.582-1.057-1.066-1.414
	c-0.488-0.356-1.059-0.535-1.699-0.535c-0.52,0-1.033,0.149-1.545,0.447c-0.512,0.298-0.945,0.701-1.296,1.208
	C26.938,20.502,26.518,22.348,26.391,25.004z M30.346,34.102c0.986,0,1.806-0.403,2.447-1.209c0.646-0.806,0.967-1.863,0.967-3.172
	c0-0.889-0.148-1.652-0.455-2.291c-0.303-0.64-0.717-1.129-1.24-1.466c-0.526-0.337-1.108-0.505-1.744-0.505
	c-0.605,0-1.188,0.161-1.736,0.483c-0.552,0.321-0.996,0.789-1.333,1.398c-0.337,0.61-0.505,1.326-0.505,2.146
	c0,1.316,0.342,2.416,1.021,3.296C28.452,33.662,29.311,34.102,30.346,34.102z"/>
</svg>
