<?xml version="1.0" encoding="utf-8"?>
<!-- Generator: Adobe Illustrator 16.0.0, SVG Export Plug-In . SVG Version: 6.00 Build 0)  -->
<!DOCTYPE svg PUBLIC "-//W3C//DTD SVG 1.1//EN" "http://www.w3.org/Graphics/SVG/1.1/DTD/svg11.dtd">
<svg version="1.1" id="레이어_1" xmlns="http://www.w3.org/2000/svg" xmlns:xlink="http://www.w3.org/1999/xlink" x="0px"
	 y="0px" width="60px" height="52px" viewBox="0 0 60 52" enable-background="new 0 0 60 52" xml:space="preserve">
<path fill="#1EDCDC" d="M35.434,18.437h-8.567v5.493h7.161c0.664,0,1.16,0.148,1.488,0.447c0.326,0.297,0.49,0.695,0.49,1.193
	c0,0.494-0.166,0.894-0.498,1.187s-0.824,0.438-1.479,0.438h-7.163v7.072c0,0.896-0.203,1.563-0.608,2
	c-0.404,0.438-0.925,0.649-1.56,0.649c-0.646,0-1.169-0.224-1.575-0.658c-0.406-0.438-0.608-1.104-0.608-1.991V17.746
	c0-0.625,0.094-1.135,0.278-1.53c0.187-0.396,0.477-0.685,0.872-0.863c0.396-0.183,0.901-0.271,1.516-0.271h10.254
	c0.692,0,1.207,0.154,1.545,0.461c0.336,0.312,0.504,0.714,0.504,1.209c0,0.511-0.168,0.916-0.504,1.226
	C36.643,18.283,36.127,18.437,35.434,18.437z"/>
</svg>
