<?xml version="1.0" encoding="utf-8"?>
<!-- Generator: Adobe Illustrator 16.0.0, SVG Export Plug-In . SVG Version: 6.00 Build 0)  -->
<!DOCTYPE svg PUBLIC "-//W3C//DTD SVG 1.1//EN" "http://www.w3.org/Graphics/SVG/1.1/DTD/svg11.dtd">
<svg version="1.1" id="레이어_1" xmlns="http://www.w3.org/2000/svg" xmlns:xlink="http://www.w3.org/1999/xlink" x="0px"
	 y="0px" width="128px" height="128px" viewBox="0 0 128 128" enable-background="new 0 0 128 128" xml:space="preserve">
<g>
	<path fill="#00FFFF" d="M64.081,127.214c-1.724,0-3.451-0.072-5.179-0.217l0.67-7.973c11.066,0.936,22.13-1.586,31.991-7.279
		c9.911-5.724,17.634-14.028,22.331-24.018l7.24,3.404c-5.396,11.474-14.238,20.997-25.571,27.541
		C85.815,124.3,75.026,127.214,64.081,127.214z"/>
</g>
<g>
	<path fill="#00FFFF" d="M113.861,40.332c-4.729-10.051-12.44-18.373-22.3-24.066c-9.913-5.722-20.968-8.257-31.966-7.332
		l-0.671-7.972c12.632-1.063,25.303,1.833,36.637,8.375c11.28,6.514,20.111,16.053,25.538,27.588L113.861,40.332z"/>
</g>
<g>
	<path fill="#00FFFF" d="M11.942,99.921C4.705,89.51,0.879,77.09,0.878,64.004c0.001-13.028,3.847-25.446,11.123-35.912l6.568,4.566
		c-6.339,9.119-9.69,19.958-9.691,31.345c0.001,11.445,3.332,22.287,9.633,31.351L11.942,99.921z"/>
</g>
</svg>
